<?xml version="1.0" encoding="UTF-8"?> <svg xmlns="http://www.w3.org/2000/svg" xmlns:xlink="http://www.w3.org/1999/xlink" width="500px" height="500px" viewBox="0 0 500 500" version="1.1"><title>88mph-logo-dark-circle</title><defs><linearGradient x1="50.0001521%" y1="100%" x2="50.0001521%" y2="0.360868552%" id="linearGradient-1"><stop stop-color="#FFE600" offset="0%"></stop><stop stop-color="#FAAD14" offset="30.7292%"></stop><stop stop-color="#F7169C" offset="67.1875%"></stop><stop stop-color="#3435F5" offset="100%"></stop></linearGradient><linearGradient x1="130.883219%" y1="16.9173921%" x2="175.002351%" y2="94.110455%" id="linearGradient-2"><stop stop-color="#FF009D" offset="22.3958%"></stop><stop stop-color="#3435F5" offset="88.0208%"></stop></linearGradient><linearGradient x1="56.8802442%" y1="-12.3758363%" x2="84.1541986%" y2="107.683279%" id="linearGradient-3"><stop stop-color="#FF009D" offset="22.3958%"></stop><stop stop-color="#3435F5" offset="88.0208%"></stop></linearGradient><linearGradient x1="3.52440838%" y1="28.83846%" x2="32.2983867%" y2="165.712373%" id="linearGradient-4"><stop stop-color="#FF009D" offset="22.3958%"></stop><stop stop-color="#3435F5" offset="88.0208%"></stop></linearGradient><rect id="path-5" x="0" y="0" width="205" height="149"></rect><linearGradient x1="110.706875%" y1="25.9154584%" x2="114.440683%" y2="83.9615663%" id="linearGradient-7"><stop stop-color="#FFFFFF" offset="0%"></stop><stop stop-color="#F7169C" offset="100%"></stop></linearGradient><path d="M8.365,104.257 C6.749,104.393 5.331,103.826 4.112,102.558 C2.892,101.291 2.197,99.636 2.026,97.595 C1.848,95.469 2.57,92.84 4.191,89.707 C5.812,86.574 7.834,83.622 10.257,80.85 C15.434,75.192 20.074,70.779 24.176,67.609 L26.822,65.461 C28.132,64.751 29.51,64.336 30.956,64.215 C32.487,64.087 33.89,64.483 35.166,65.404 C36.435,66.239 37.123,67.295 37.23,68.571 C37.336,69.846 37.22,71.012 36.88,72.068 C36.541,73.124 36.141,73.971 35.68,74.609 C34.484,76.679 33.772,77.894 33.545,78.256 C33.312,78.532 33.209,78.841 33.238,79.181 C33.259,79.436 33.44,79.549 33.78,79.521 C34.205,79.485 35.887,78.103 38.827,75.373 C47.54,66.936 53.937,62.546 58.019,62.204 C59.634,62.069 61.038,62.465 62.229,63.393 C63.497,64.229 64.182,65.242 64.282,66.432 C64.381,67.623 64.215,68.707 63.783,69.685 C63.344,70.578 62.704,71.617 61.861,72.801 C60.48,74.715 59.807,75.884 59.843,76.309 C59.871,76.65 60.183,76.795 60.778,76.745 C61.459,76.688 64.058,74.5 68.578,70.183 C73.097,65.865 76.292,63.628 78.163,63.471 C80.034,63.314 81.543,63.958 82.692,65.403 C83.918,66.756 84.596,68.198 84.724,69.729 C84.852,71.26 82.98,74.97 79.106,80.861 C75.225,86.666 73.317,89.952 73.381,90.717 C73.445,91.483 73.775,91.84 74.37,91.79 C74.873,91.663 75.447,91.358 76.092,90.876 C76.736,90.393 77.356,90.127 77.952,90.077 C79.057,89.985 79.649,90.406 79.727,91.342 C79.962,94.148 78.596,96.746 75.628,99.135 C72.652,101.44 69.549,102.727 66.318,102.998 C59.515,103.568 55.864,100.877 55.365,94.924 C55.266,93.734 55.481,92.217 56.012,90.374 C56.627,88.525 57.286,87.185 57.987,86.355 C58.199,85.824 58.298,85.473 58.284,85.303 C58.263,85.048 58.082,84.935 57.742,84.963 C57.487,84.984 57.157,85.14 56.754,85.431 C56.343,85.637 54.643,87.321 51.654,90.483 C43.473,99.132 37.724,103.596 34.407,103.873 C32.622,104.023 31.208,103.499 30.165,102.302 C29.116,101.02 28.531,99.656 28.41,98.21 C28.189,95.574 29.222,92.576 31.509,89.216 C31.729,88.77 31.824,88.376 31.796,88.036 C31.76,87.611 31.572,87.413 31.232,87.441 C30.892,87.47 30.524,87.672 30.127,88.048 C19.19,98.555 11.936,103.958 8.365,104.257 Z" id="path-8"></path><path d="M60.294,138.312 C59.952,134.231 61.505,128.235 64.953,120.324 C68.315,112.421 72.51,104.235 77.538,95.764 C88.372,77.901 97.855,63.319 105.985,52.02 L111.392,44.502 C112.568,43.205 113.793,42.503 115.069,42.396 C116.344,42.289 117.319,42.678 117.993,43.564 C118.666,44.449 119.035,45.275 119.099,46.04 C119.156,46.72 118.778,48.336 117.964,50.888 C117.235,53.432 116.326,56.377 115.236,59.722 C114.139,62.983 113.52,64.79 113.378,65.144 C113.315,65.407 113.297,65.708 113.326,66.048 C113.354,66.388 113.624,66.537 114.134,66.494 C114.729,66.444 116.011,65.395 117.98,63.346 C124.058,57.185 128.755,53.965 132.071,53.687 C138.109,53.182 141.384,55.99 141.897,62.112 C141.735,65.294 140.164,69.536 137.183,74.839 C134.202,80.141 130.292,85.092 125.454,89.694 C120.694,94.203 116.146,96.639 111.809,97.003 C109.938,97.159 108.283,96.827 106.844,96.006 C105.406,95.184 104.307,94.334 103.548,93.456 C102.789,92.578 102.283,92.149 102.027,92.17 C101.857,92.185 101.62,92.419 101.316,92.872 C101.096,93.319 93.988,107.616 79.99,135.763 C76.301,142.837 72.416,146.545 68.334,146.887 C66.209,147.065 64.383,146.233 62.859,144.391 C61.342,142.635 60.487,140.608 60.294,138.312 Z M126.675,62.874 C124.549,63.052 120.32,66.746 113.988,73.956 C107.741,81.159 104.689,85.611 104.831,87.311 C104.846,87.481 105.023,87.552 105.363,87.524 C108.594,87.253 113.188,83.828 119.145,77.249 C125.095,70.585 127.966,66.02 127.76,63.554 C127.717,63.044 127.356,62.817 126.675,62.874 Z" id="path-10"></path><path d="M197.358,83.027 C194.574,85.572 191.145,88.086 187.072,90.568 C183.083,93.043 179.643,94.402 176.752,94.644 C173.946,94.879 171.621,94.217 169.778,92.659 C167.935,91.101 166.91,89.089 166.703,86.623 C166.361,82.541 168.835,76.811 174.125,69.431 C174.593,68.878 174.816,68.474 174.795,68.219 C174.766,67.879 174.667,67.716 174.497,67.73 C174.327,67.744 173.707,68.01 172.637,68.528 C171.645,68.954 168.918,71.152 164.455,75.122 C159.985,79.008 155.664,83.138 151.492,87.512 C147.313,91.801 144.246,94.028 142.29,94.192 C140.419,94.348 138.948,93.658 137.877,92.121 C136.892,90.576 136.313,88.784 136.142,86.743 C135.615,80.45 139.703,70.474 148.406,56.814 C157.194,43.148 166.525,30.848 176.399,19.916 C186.266,8.899 192.687,3.266 195.663,3.017 C197.109,2.896 198.523,3.419 199.905,4.588 C201.366,5.665 202.185,7.266 202.363,9.392 C202.534,11.432 200.368,16.238 195.864,23.809 C191.36,31.379 186.294,39.382 180.664,47.818 C173.582,58.344 170.077,64.033 170.148,64.883 C170.176,65.223 170.361,65.379 170.701,65.351 C171.041,65.322 172.43,64.521 174.867,62.946 C177.297,61.287 179.95,59.738 182.826,58.298 C185.696,56.773 187.676,55.879 188.767,55.616 C189.936,55.261 191.286,55.02 192.817,54.892 C194.432,54.756 196.034,54.965 197.622,55.517 C199.294,56.061 200.188,57.014 200.302,58.375 C200.409,59.65 197.658,64.12 192.048,71.783 C186.517,79.354 183.794,83.649 183.88,84.67 C183.958,85.605 184.423,86.037 185.273,85.966 C187.059,85.816 190.388,83.653 195.262,79.477 C197.104,77.953 198.188,77.091 198.514,76.893 C198.84,76.694 199.215,76.577 199.64,76.541 C200.831,76.442 201.476,76.987 201.576,78.178 C201.633,78.858 200.227,80.474 197.358,83.027 Z" id="path-12"></path><rect id="path-14" x="0" y="0" width="205" height="149"></rect><linearGradient x1="44.4074539%" y1="1.61894287%" x2="46.7156524%" y2="91.898614%" id="linearGradient-16"><stop stop-color="#FFFFFF" offset="0%"></stop><stop stop-color="#F7169C" offset="100%"></stop></linearGradient><path d="M8.365,104.257 C6.749,104.393 5.331,103.826 4.112,102.558 C2.892,101.291 2.197,99.636 2.026,97.595 C1.848,95.469 2.57,92.84 4.191,89.707 C5.812,86.574 7.834,83.622 10.257,80.85 C15.434,75.192 20.074,70.779 24.176,67.609 L26.822,65.461 C28.132,64.751 29.51,64.336 30.956,64.215 C32.487,64.087 33.89,64.483 35.166,65.404 C36.435,66.239 37.123,67.295 37.23,68.571 C37.336,69.846 37.22,71.012 36.88,72.068 C36.541,73.124 36.141,73.971 35.68,74.609 C34.484,76.679 33.772,77.894 33.545,78.256 C33.312,78.532 33.209,78.841 33.238,79.181 C33.259,79.436 33.44,79.549 33.78,79.521 C34.205,79.485 35.887,78.103 38.827,75.373 C47.54,66.936 53.937,62.546 58.019,62.204 C59.634,62.069 61.038,62.465 62.229,63.393 C63.497,64.229 64.182,65.242 64.282,66.432 C64.381,67.623 64.215,68.707 63.783,69.685 C63.344,70.578 62.704,71.617 61.861,72.801 C60.48,74.715 59.807,75.884 59.843,76.309 C59.871,76.65 60.183,76.795 60.778,76.745 C61.459,76.688 64.058,74.5 68.578,70.183 C73.097,65.865 76.292,63.628 78.163,63.471 C80.034,63.314 81.543,63.958 82.692,65.403 C83.918,66.756 84.596,68.198 84.724,69.729 C84.852,71.26 82.98,74.97 79.106,80.861 C75.225,86.666 73.317,89.952 73.381,90.717 C73.445,91.483 73.775,91.84 74.37,91.79 C74.873,91.663 75.447,91.358 76.092,90.876 C76.736,90.393 77.356,90.127 77.952,90.077 C79.057,89.985 79.649,90.406 79.727,91.342 C79.962,94.148 78.596,96.746 75.628,99.135 C72.652,101.44 69.549,102.727 66.318,102.998 C59.515,103.568 55.864,100.877 55.365,94.924 C55.266,93.734 55.481,92.217 56.012,90.374 C56.627,88.525 57.286,87.185 57.987,86.355 C58.199,85.824 58.298,85.473 58.284,85.303 C58.263,85.048 58.082,84.935 57.742,84.963 C57.487,84.984 57.157,85.14 56.754,85.431 C56.343,85.637 54.643,87.321 51.654,90.483 C43.473,99.132 37.724,103.596 34.407,103.873 C32.622,104.023 31.208,103.499 30.165,102.302 C29.116,101.02 28.531,99.656 28.41,98.21 C28.189,95.574 29.222,92.576 31.509,89.216 C31.729,88.77 31.824,88.376 31.796,88.036 C31.76,87.611 31.572,87.413 31.232,87.441 C30.892,87.47 30.524,87.672 30.127,88.048 C19.19,98.555 11.936,103.958 8.365,104.257 Z" id="path-17"></path><path d="M60.294,138.312 C59.952,134.231 61.505,128.235 64.953,120.324 C68.315,112.421 72.51,104.235 77.538,95.764 C88.372,77.901 97.855,63.319 105.985,52.02 L111.392,44.502 C112.568,43.205 113.793,42.503 115.069,42.396 C116.344,42.289 117.319,42.678 117.993,43.564 C118.666,44.449 119.035,45.275 119.099,46.04 C119.156,46.72 118.778,48.336 117.964,50.888 C117.235,53.432 116.326,56.377 115.236,59.722 C114.139,62.983 113.52,64.79 113.378,65.144 C113.315,65.407 113.297,65.708 113.326,66.048 C113.354,66.388 113.624,66.537 114.134,66.494 C114.729,66.444 116.011,65.395 117.98,63.346 C124.058,57.185 128.755,53.965 132.071,53.687 C138.109,53.182 141.384,55.99 141.897,62.112 C141.735,65.294 140.164,69.536 137.183,74.839 C134.202,80.141 130.292,85.092 125.454,89.694 C120.694,94.203 116.146,96.639 111.809,97.003 C109.938,97.159 108.283,96.827 106.844,96.006 C105.406,95.184 104.307,94.334 103.548,93.456 C102.789,92.578 102.283,92.149 102.027,92.17 C101.857,92.185 101.62,92.419 101.316,92.872 C101.096,93.319 93.988,107.616 79.99,135.763 C76.301,142.837 72.416,146.545 68.334,146.887 C66.209,147.065 64.383,146.233 62.859,144.391 C61.342,142.635 60.487,140.608 60.294,138.312 Z M126.675,62.874 C124.549,63.052 120.32,66.746 113.988,73.956 C107.741,81.159 104.689,85.611 104.831,87.311 C104.846,87.481 105.023,87.552 105.363,87.524 C108.594,87.253 113.188,83.828 119.145,77.249 C125.095,70.585 127.966,66.02 127.76,63.554 C127.717,63.044 127.356,62.817 126.675,62.874 Z" id="path-19"></path><path d="M197.358,83.027 C194.574,85.572 191.145,88.086 187.072,90.568 C183.083,93.043 179.643,94.402 176.752,94.644 C173.946,94.879 171.621,94.217 169.778,92.659 C167.935,91.101 166.91,89.089 166.703,86.623 C166.361,82.541 168.835,76.811 174.125,69.431 C174.593,68.878 174.816,68.474 174.795,68.219 C174.766,67.879 174.667,67.716 174.497,67.73 C174.327,67.744 173.707,68.01 172.637,68.528 C171.645,68.954 168.918,71.152 164.455,75.122 C159.985,79.008 155.664,83.138 151.492,87.512 C147.313,91.801 144.246,94.028 142.29,94.192 C140.419,94.348 138.948,93.658 137.877,92.121 C136.892,90.576 136.313,88.784 136.142,86.743 C135.615,80.45 139.703,70.474 148.406,56.814 C157.194,43.148 166.525,30.848 176.399,19.916 C186.266,8.899 192.687,3.266 195.663,3.017 C197.109,2.896 198.523,3.419 199.905,4.588 C201.366,5.665 202.185,7.266 202.363,9.392 C202.534,11.432 200.368,16.238 195.864,23.809 C191.36,31.379 186.294,39.382 180.664,47.818 C173.582,58.344 170.077,64.033 170.148,64.883 C170.176,65.223 170.361,65.379 170.701,65.351 C171.041,65.322 172.43,64.521 174.867,62.946 C177.297,61.287 179.95,59.738 182.826,58.298 C185.696,56.773 187.676,55.879 188.767,55.616 C189.936,55.261 191.286,55.02 192.817,54.892 C194.432,54.756 196.034,54.965 197.622,55.517 C199.294,56.061 200.188,57.014 200.302,58.375 C200.409,59.65 197.658,64.12 192.048,71.783 C186.517,79.354 183.794,83.649 183.88,84.67 C183.958,85.605 184.423,86.037 185.273,85.966 C187.059,85.816 190.388,83.653 195.262,79.477 C197.104,77.953 198.188,77.091 198.514,76.893 C198.84,76.694 199.215,76.577 199.64,76.541 C200.831,76.442 201.476,76.987 201.576,78.178 C201.633,78.858 200.227,80.474 197.358,83.027 Z" id="path-21"></path><rect id="path-23" x="0" y="0" width="205" height="149"></rect><linearGradient x1="-9.6343655%" y1="44.7932685%" x2="-7.19921977%" y2="147.716998%" id="linearGradient-25"><stop stop-color="#FFFFFF" offset="0%"></stop><stop stop-color="#F7169C" offset="100%"></stop></linearGradient><path d="M8.365,104.257 C6.749,104.393 5.331,103.826 4.112,102.558 C2.892,101.291 2.197,99.636 2.026,97.595 C1.848,95.469 2.57,92.84 4.191,89.707 C5.812,86.574 7.834,83.622 10.257,80.85 C15.434,75.192 20.074,70.779 24.176,67.609 L26.822,65.461 C28.132,64.751 29.51,64.336 30.956,64.215 C32.487,64.087 33.89,64.483 35.166,65.404 C36.435,66.239 37.123,67.295 37.23,68.571 C37.336,69.846 37.22,71.012 36.88,72.068 C36.541,73.124 36.141,73.971 35.68,74.609 C34.484,76.679 33.772,77.894 33.545,78.256 C33.312,78.532 33.209,78.841 33.238,79.181 C33.259,79.436 33.44,79.549 33.78,79.521 C34.205,79.485 35.887,78.103 38.827,75.373 C47.54,66.936 53.937,62.546 58.019,62.204 C59.634,62.069 61.038,62.465 62.229,63.393 C63.497,64.229 64.182,65.242 64.282,66.432 C64.381,67.623 64.215,68.707 63.783,69.685 C63.344,70.578 62.704,71.617 61.861,72.801 C60.48,74.715 59.807,75.884 59.843,76.309 C59.871,76.65 60.183,76.795 60.778,76.745 C61.459,76.688 64.058,74.5 68.578,70.183 C73.097,65.865 76.292,63.628 78.163,63.471 C80.034,63.314 81.543,63.958 82.692,65.403 C83.918,66.756 84.596,68.198 84.724,69.729 C84.852,71.26 82.98,74.97 79.106,80.861 C75.225,86.666 73.317,89.952 73.381,90.717 C73.445,91.483 73.775,91.84 74.37,91.79 C74.873,91.663 75.447,91.358 76.092,90.876 C76.736,90.393 77.356,90.127 77.952,90.077 C79.057,89.985 79.649,90.406 79.727,91.342 C79.962,94.148 78.596,96.746 75.628,99.135 C72.652,101.44 69.549,102.727 66.318,102.998 C59.515,103.568 55.864,100.877 55.365,94.924 C55.266,93.734 55.481,92.217 56.012,90.374 C56.627,88.525 57.286,87.185 57.987,86.355 C58.199,85.824 58.298,85.473 58.284,85.303 C58.263,85.048 58.082,84.935 57.742,84.963 C57.487,84.984 57.157,85.14 56.754,85.431 C56.343,85.637 54.643,87.321 51.654,90.483 C43.473,99.132 37.724,103.596 34.407,103.873 C32.622,104.023 31.208,103.499 30.165,102.302 C29.116,101.02 28.531,99.656 28.41,98.21 C28.189,95.574 29.222,92.576 31.509,89.216 C31.729,88.77 31.824,88.376 31.796,88.036 C31.76,87.611 31.572,87.413 31.232,87.441 C30.892,87.47 30.524,87.672 30.127,88.048 C19.19,98.555 11.936,103.958 8.365,104.257 Z" id="path-26"></path><path d="M60.294,138.312 C59.952,134.231 61.505,128.235 64.953,120.324 C68.315,112.421 72.51,104.235 77.538,95.764 C88.372,77.901 97.855,63.319 105.985,52.02 L111.392,44.502 C112.568,43.205 113.793,42.503 115.069,42.396 C116.344,42.289 117.319,42.678 117.993,43.564 C118.666,44.449 119.035,45.275 119.099,46.04 C119.156,46.72 118.778,48.336 117.964,50.888 C117.235,53.432 116.326,56.377 115.236,59.722 C114.139,62.983 113.52,64.79 113.378,65.144 C113.315,65.407 113.297,65.708 113.326,66.048 C113.354,66.388 113.624,66.537 114.134,66.494 C114.729,66.444 116.011,65.395 117.98,63.346 C124.058,57.185 128.755,53.965 132.071,53.687 C138.109,53.182 141.384,55.99 141.897,62.112 C141.735,65.294 140.164,69.536 137.183,74.839 C134.202,80.141 130.292,85.092 125.454,89.694 C120.694,94.203 116.146,96.639 111.809,97.003 C109.938,97.159 108.283,96.827 106.844,96.006 C105.406,95.184 104.307,94.334 103.548,93.456 C102.789,92.578 102.283,92.149 102.027,92.17 C101.857,92.185 101.62,92.419 101.316,92.872 C101.096,93.319 93.988,107.616 79.99,135.763 C76.301,142.837 72.416,146.545 68.334,146.887 C66.209,147.065 64.383,146.233 62.859,144.391 C61.342,142.635 60.487,140.608 60.294,138.312 Z M126.675,62.874 C124.549,63.052 120.32,66.746 113.988,73.956 C107.741,81.159 104.689,85.611 104.831,87.311 C104.846,87.481 105.023,87.552 105.363,87.524 C108.594,87.253 113.188,83.828 119.145,77.249 C125.095,70.585 127.966,66.02 127.76,63.554 C127.717,63.044 127.356,62.817 126.675,62.874 Z" id="path-28"></path><path d="M197.358,83.027 C194.574,85.572 191.145,88.086 187.072,90.568 C183.083,93.043 179.643,94.402 176.752,94.644 C173.946,94.879 171.621,94.217 169.778,92.659 C167.935,91.101 166.91,89.089 166.703,86.623 C166.361,82.541 168.835,76.811 174.125,69.431 C174.593,68.878 174.816,68.474 174.795,68.219 C174.766,67.879 174.667,67.716 174.497,67.73 C174.327,67.744 173.707,68.01 172.637,68.528 C171.645,68.954 168.918,71.152 164.455,75.122 C159.985,79.008 155.664,83.138 151.492,87.512 C147.313,91.801 144.246,94.028 142.29,94.192 C140.419,94.348 138.948,93.658 137.877,92.121 C136.892,90.576 136.313,88.784 136.142,86.743 C135.615,80.45 139.703,70.474 148.406,56.814 C157.194,43.148 166.525,30.848 176.399,19.916 C186.266,8.899 192.687,3.266 195.663,3.017 C197.109,2.896 198.523,3.419 199.905,4.588 C201.366,5.665 202.185,7.266 202.363,9.392 C202.534,11.432 200.368,16.238 195.864,23.809 C191.36,31.379 186.294,39.382 180.664,47.818 C173.582,58.344 170.077,64.033 170.148,64.883 C170.176,65.223 170.361,65.379 170.701,65.351 C171.041,65.322 172.43,64.521 174.867,62.946 C177.297,61.287 179.95,59.738 182.826,58.298 C185.696,56.773 187.676,55.879 188.767,55.616 C189.936,55.261 191.286,55.02 192.817,54.892 C194.432,54.756 196.034,54.965 197.622,55.517 C199.294,56.061 200.188,57.014 200.302,58.375 C200.409,59.65 197.658,64.12 192.048,71.783 C186.517,79.354 183.794,83.649 183.88,84.67 C183.958,85.605 184.423,86.037 185.273,85.966 C187.059,85.816 190.388,83.653 195.262,79.477 C197.104,77.953 198.188,77.091 198.514,76.893 C198.84,76.694 199.215,76.577 199.64,76.541 C200.831,76.442 201.476,76.987 201.576,78.178 C201.633,78.858 200.227,80.474 197.358,83.027 Z" id="path-30"></path></defs><g id="Page-1" stroke="none" stroke-width="1" fill="none" fill-rule="evenodd"><g id="88mph-logo-dark-circle"><circle id="Oval" fill="#000000" fill-rule="nonzero" cx="250" cy="250" r="250"></circle><path d="M235.391,407.687 C241.521,418.499 257.099,418.499 263.228,407.687 L275.385,386.244 L223.234,386.244 L235.391,407.687 Z M213.981,369.923 L195.476,337.282 L303.143,337.282 L284.638,369.923 L213.981,369.923 Z M186.223,320.961 L312.396,320.961 L330.901,288.32 L167.718,288.32 L186.223,320.961 Z M158.465,271.999 L139.96,239.358 L358.659,239.358 L340.154,271.999 L158.465,271.999 Z M130.707,223.037 L367.912,223.037 L389.782,184.461 L108.837,184.461 L130.707,223.037 Z M99.5847,168.14 L88.1049,147.891 C82.0579,137.225 89.7626,124 102.024,124 L396.596,124 C408.857,124 416.561,137.225 410.514,147.891 L399.035,168.14 L99.5847,168.14 Z" id="Shape" fill="url(#linearGradient-1)"></path><path d="M250,138 L459,138 L41,138 L41,138 L250,138 Z M286,215.2 C278.6,199 268.6,185.4 261.2,181.6 C257,179.5 243.2,176.3 223.5,173.1 C207.6,170.5 118,159.3 111,159.1 C108,159 104.8,158.8 104,158.6 C103.2,158.4 100.5,158.6 98,159.1 C81.7,161.9 80.6,162.9 81.3,175 C81.6,179.8 82.3,183.6 82.9,183.8 C83.5,184 84,185 84,186.1 C84,187.1 84.5,188 85,188 C85.6,188 86,188.7 86,189.5 C86,190.3 86.4,191 86.8,191 C87.3,191 88.2,192.6 89,194.5 C89.8,196.4 90.7,198 91.2,198 C91.6,198 92,198.7 92,199.5 C92,200.3 92.5,201 93,201 C93.6,201 94,201.7 94,202.5 C94,203.3 94.5,204 95,204 C95.6,204 96,204.7 96,205.5 C96,206.3 96.3,207 96.8,207 C97.2,207 98.4,208.7 99.5,210.7 C100.6,212.8 102.3,215.2 103.2,216.1 C104.2,217 105,218 105,218.2 C105,219.6 115,229 118.5,230.8 C123.4,233.4 134.2,237 137,237 C140.2,237 139.3,238.3 134,241.3 C131.3,242.8 128.5,245.1 127.9,246.2 C126.5,248.8 127.3,261.7 128.9,263.3 C129.5,263.9 130,265.4 130,266.7 C130,268 130.5,269 131,269 C131.6,269 132,270.3 132,272 C132,273.6 132.4,275 132.9,275 C133.4,275 134.1,277.3 134.5,280 C134.9,282.8 135.6,285 136.1,285 C136.6,285 137,286.1 137,287.5 C137,288.9 137.4,290 137.9,290 C138.4,290 139.1,291.3 139.5,293 C139.9,294.6 140.6,296 141.1,296 C141.6,296 142,296.5 142,297 C142,298.8 150,305.8 154.4,307.8 C165.3,313 192.7,314.1 221.7,310.5 C248.7,307.2 272.8,303.9 280.5,302.4 C296.8,299.1 307.8,292.7 309.7,285.2 C310.8,280.6 306.6,262.7 302.1,253.6 C299.9,249.2 297.2,244.5 296,243.2 C293.7,240.7 287.9,237.6 283.7,236.6 L280.8,235.9 L283.7,233.7 C290.1,228.8 290.5,225.3 286,215.2 Z M402.5,215.6 C398.2,204.9 394.7,199.8 389.9,197.1 C384.8,194.2 371.5,191.6 343.1,188.1 C312.2,184.1 308.2,184.2 302.6,188.9 C298.8,192 301.7,203.5 311,222.5 C315.3,231.4 318.6,235.1 324.3,237.5 L328.1,239.1 L325.6,242.1 C322.2,246.1 322.3,250.2 325.8,265.6 C329.4,280.9 331.9,285.6 338.5,288.9 C343.2,291.4 344.2,291.5 359,291.4 C376.8,291.4 400.4,288.2 408.2,284.8 C410.9,283.7 414.2,281.3 415.6,279.6 C418.1,276.7 418.2,276.1 417.7,268.5 C416.8,254.2 411.7,242.1 405.3,238.9 L402.1,237.3 L404.3,235.1 C407.4,232 406.9,226.4 402.5,215.6 Z M171.2,203.6 C168.6,198.7 169.2,197.3 174.3,196.2 C184.9,194.1 220.6,197.8 227.3,201.7 C230.4,203.6 235.4,210.1 236.4,213.6 C236.9,215.2 236.6,215.9 235.3,216.2 C233,216.7 187,214.5 185,213.7 C184.2,213.4 182.3,212.9 180.8,212.6 C177.3,211.8 173.8,208.5 171.2,203.6 Z M257.325,262.857 C256.589,261.927 255.469,260.512 254.4,259.3 C252.9,257.3 250.4,255.7 248.2,255.1 C244,254.1 228.3,253.3 219.5,253.7 C204.8,254.4 200,256.6 200,262.9 C200,264.6 200.4,266 200.9,266 C201.4,266 202.1,267.5 202.4,269.4 C202.8,271.3 204.5,274.5 206.3,276.5 C209.3,279.9 210.3,280.3 216.2,280.9 C223.5,281.7 254.4,279.6 258.4,278 C260.5,277.2 261,276.4 261,273.6 C261,270 259.7,265.8 258,263.7 C257.857,263.528 257.623,263.232 257.326,262.858 L257.325,262.857 Z M349.6,221 C345.4,219.5 342.2,210.9 345.3,209.7 C348.8,208.2 368.2,210 372.2,212.1 C374,213.1 376.2,216.7 377.5,220.9 L378.2,223.3 L365.2,222.7 C358,222.3 351,221.6 349.6,221 Z M389.5,268.4 C392.5,267.2 389,254.2 385.2,252.1 C382.3,250.6 367.1,249.9 363.3,251 C361.1,251.7 359.8,252.9 359.4,254.5 C358.5,258 361.9,267.9 364.3,269.2 C366.4,270.3 386.2,269.6 389.5,268.4 Z" id="Shape" fill="#FFFFFF"></path><path d="M237.669,350.698 C197.152,358.408 160.724,371.407 139.657,380.986 C137.646,381.901 135.274,381.012 134.36,379.001 C133.445,376.99 134.334,374.618 136.345,373.704 C157.952,363.88 194.988,350.677 236.173,342.839 C277.293,335.015 323.012,332.448 361.729,344.333 C363.841,344.982 365.028,347.219 364.379,349.331 C363.731,351.443 361.493,352.629 359.382,351.981 C322.472,340.65 278.251,342.976 237.669,350.698 Z" id="Path" fill="#8720D2"></path><g id="Group" transform="translate(142.223000, 234.558000)"><path d="M8.365,104.257 C6.749,104.393 5.331,103.826 4.112,102.558 C2.892,101.291 2.197,99.636 2.026,97.595 C1.848,95.469 2.57,92.84 4.191,89.707 C5.812,86.574 7.834,83.622 10.257,80.85 C15.434,75.192 20.074,70.779 24.176,67.609 L26.822,65.461 C28.132,64.751 29.51,64.336 30.956,64.215 C32.487,64.087 33.89,64.483 35.166,65.404 C36.435,66.239 37.123,67.295 37.23,68.571 C37.336,69.846 37.22,71.012 36.88,72.068 C36.541,73.124 36.141,73.971 35.68,74.609 C34.484,76.679 33.772,77.894 33.545,78.256 C33.312,78.532 33.209,78.841 33.238,79.181 C33.259,79.436 33.44,79.549 33.78,79.521 C34.205,79.485 35.887,78.103 38.827,75.373 C47.54,66.936 53.937,62.546 58.019,62.204 C59.634,62.069 61.038,62.465 62.229,63.393 C63.497,64.229 64.182,65.242 64.282,66.432 C64.381,67.623 64.215,68.707 63.783,69.685 C63.344,70.578 62.704,71.617 61.861,72.801 C60.48,74.715 59.807,75.884 59.843,76.309 C59.871,76.65 60.183,76.795 60.778,76.745 C61.459,76.688 64.058,74.5 68.578,70.183 C73.097,65.865 76.292,63.628 78.163,63.471 C80.034,63.314 81.543,63.958 82.692,65.403 C83.918,66.756 84.596,68.198 84.724,69.729 C84.852,71.26 82.98,74.97 79.106,80.861 C75.225,86.666 73.317,89.952 73.381,90.717 C73.445,91.483 73.775,91.84 74.37,91.79 C74.873,91.663 75.447,91.358 76.092,90.876 C76.736,90.393 77.356,90.127 77.952,90.077 C79.057,89.985 79.649,90.406 79.727,91.342 C79.962,94.148 78.596,96.746 75.628,99.135 C72.652,101.44 69.549,102.727 66.318,102.998 C59.515,103.568 55.864,100.877 55.365,94.924 C55.266,93.734 55.481,92.217 56.012,90.374 C56.627,88.525 57.286,87.185 57.987,86.355 C58.199,85.824 58.298,85.473 58.284,85.303 C58.263,85.048 58.082,84.935 57.742,84.963 C57.487,84.984 57.157,85.14 56.754,85.431 C56.343,85.637 54.643,87.321 51.654,90.483 C43.473,99.132 37.724,103.596 34.407,103.873 C32.622,104.023 31.208,103.499 30.165,102.302 C29.116,101.02 28.531,99.656 28.41,98.21 C28.189,95.574 29.222,92.576 31.509,89.216 C31.729,88.77 31.824,88.376 31.796,88.036 C31.76,87.611 31.572,87.413 31.232,87.441 C30.892,87.47 30.524,87.672 30.127,88.048 C19.19,98.555 11.936,103.958 8.365,104.257 Z" id="Path" fill="url(#linearGradient-2)" fill-rule="nonzero"></path><path d="M60.294,138.312 C59.952,134.231 61.505,128.235 64.953,120.324 C68.315,112.421 72.51,104.235 77.538,95.764 C88.372,77.901 97.855,63.319 105.985,52.02 L111.392,44.502 C112.568,43.205 113.793,42.503 115.069,42.396 C116.344,42.289 117.319,42.678 117.993,43.564 C118.666,44.449 119.035,45.275 119.099,46.04 C119.156,46.72 118.778,48.336 117.964,50.888 C117.235,53.432 116.326,56.377 115.236,59.722 C114.139,62.983 113.52,64.79 113.378,65.144 C113.315,65.407 113.297,65.708 113.326,66.048 C113.354,66.388 113.624,66.537 114.134,66.494 C114.729,66.444 116.011,65.395 117.98,63.346 C124.058,57.185 128.755,53.965 132.071,53.687 C138.109,53.182 141.384,55.99 141.897,62.112 C141.735,65.294 140.164,69.536 137.183,74.839 C134.202,80.141 130.292,85.092 125.454,89.694 C120.694,94.203 116.146,96.639 111.809,97.003 C109.938,97.159 108.283,96.827 106.844,96.006 C105.406,95.184 104.307,94.334 103.548,93.456 C102.789,92.578 102.283,92.149 102.027,92.17 C101.857,92.185 101.62,92.419 101.316,92.872 C101.096,93.319 93.988,107.616 79.99,135.763 C76.301,142.837 72.416,146.545 68.334,146.887 C66.209,147.065 64.383,146.233 62.859,144.391 C61.342,142.635 60.487,140.608 60.294,138.312 Z M126.675,62.874 C124.549,63.052 120.32,66.746 113.988,73.956 C107.741,81.159 104.689,85.611 104.831,87.311 C104.846,87.481 105.023,87.552 105.363,87.524 C108.594,87.253 113.188,83.828 119.145,77.249 C125.095,70.585 127.966,66.02 127.76,63.554 C127.717,63.044 127.356,62.817 126.675,62.874 Z" id="Shape" fill="url(#linearGradient-3)" fill-rule="nonzero"></path><path d="M197.358,83.027 C194.574,85.572 191.145,88.086 187.072,90.568 C183.083,93.043 179.643,94.402 176.752,94.644 C173.946,94.879 171.621,94.217 169.778,92.659 C167.935,91.101 166.91,89.089 166.703,86.623 C166.361,82.541 168.835,76.811 174.125,69.431 C174.593,68.878 174.816,68.474 174.795,68.219 C174.766,67.879 174.667,67.716 174.497,67.73 C174.327,67.744 173.707,68.01 172.637,68.528 C171.645,68.954 168.918,71.152 164.455,75.122 C159.985,79.008 155.664,83.138 151.492,87.512 C147.313,91.801 144.246,94.028 142.29,94.192 C140.419,94.348 138.948,93.658 137.877,92.121 C136.892,90.576 136.313,88.784 136.142,86.743 C135.615,80.45 139.703,70.474 148.406,56.814 C157.194,43.148 166.525,30.848 176.399,19.916 C186.266,8.899 192.687,3.266 195.663,3.017 C197.109,2.896 198.523,3.419 199.905,4.588 C201.366,5.665 202.185,7.266 202.363,9.392 C202.534,11.432 200.368,16.238 195.864,23.809 C191.36,31.379 186.294,39.382 180.664,47.818 C173.582,58.344 170.077,64.033 170.148,64.883 C170.176,65.223 170.361,65.379 170.701,65.351 C171.041,65.322 172.43,64.521 174.867,62.946 C177.297,61.287 179.95,59.738 182.826,58.298 C185.696,56.773 187.676,55.879 188.767,55.616 C189.936,55.261 191.286,55.02 192.817,54.892 C194.432,54.756 196.034,54.965 197.622,55.517 C199.294,56.061 200.188,57.014 200.302,58.375 C200.409,59.65 197.658,64.12 192.048,71.783 C186.517,79.354 183.794,83.649 183.88,84.67 C183.958,85.605 184.423,86.037 185.273,85.966 C187.059,85.816 190.388,83.653 195.262,79.477 C197.104,77.953 198.188,77.091 198.514,76.893 C198.84,76.694 199.215,76.577 199.64,76.541 C200.831,76.442 201.476,76.987 201.576,78.178 C201.633,78.858 200.227,80.474 197.358,83.027 Z" id="Path" fill="url(#linearGradient-4)" fill-rule="nonzero"></path><g id="Clipped"><mask id="mask-6" fill="white"><use xlink:href="#path-5"></use></mask><g id="Rectangle"></g><path d="M8.365,104.257 C6.749,104.393 5.331,103.826 4.112,102.558 C2.892,101.291 2.197,99.636 2.026,97.595 C1.848,95.469 2.57,92.84 4.191,89.707 C5.812,86.574 7.834,83.622 10.257,80.85 C15.434,75.192 20.074,70.779 24.176,67.609 L26.822,65.461 C28.132,64.751 29.51,64.336 30.956,64.215 C32.487,64.087 33.89,64.483 35.166,65.404 C36.435,66.239 37.123,67.295 37.23,68.571 C37.336,69.846 37.22,71.012 36.88,72.068 C36.541,73.124 36.141,73.971 35.68,74.609 C34.484,76.679 33.772,77.894 33.545,78.256 C33.312,78.532 33.209,78.841 33.238,79.181 C33.259,79.436 33.44,79.549 33.78,79.521 C34.205,79.485 35.887,78.103 38.827,75.373 C47.54,66.936 53.937,62.546 58.019,62.204 C59.634,62.069 61.038,62.465 62.229,63.393 C63.497,64.229 64.182,65.242 64.282,66.432 C64.381,67.623 64.215,68.707 63.783,69.685 C63.344,70.578 62.704,71.617 61.861,72.801 C60.48,74.715 59.807,75.884 59.843,76.309 C59.871,76.65 60.183,76.795 60.778,76.745 C61.459,76.688 64.058,74.5 68.578,70.183 C73.097,65.865 76.292,63.628 78.163,63.471 C80.034,63.314 81.543,63.958 82.692,65.403 C83.918,66.756 84.596,68.198 84.724,69.729 C84.852,71.26 82.98,74.97 79.106,80.861 C75.225,86.666 73.317,89.952 73.381,90.717 C73.445,91.483 73.775,91.84 74.37,91.79 C74.873,91.663 75.447,91.358 76.092,90.876 C76.736,90.393 77.356,90.127 77.952,90.077 C79.057,89.985 79.649,90.406 79.727,91.342 C79.962,94.148 78.596,96.746 75.628,99.135 C72.652,101.44 69.549,102.727 66.318,102.998 C59.515,103.568 55.864,100.877 55.365,94.924 C55.266,93.734 55.481,92.217 56.012,90.374 C56.627,88.525 57.286,87.185 57.987,86.355 C58.199,85.824 58.298,85.473 58.284,85.303 C58.263,85.048 58.082,84.935 57.742,84.963 C57.487,84.984 57.157,85.14 56.754,85.431 C56.343,85.637 54.643,87.321 51.654,90.483 C43.473,99.132 37.724,103.596 34.407,103.873 C32.622,104.023 31.208,103.499 30.165,102.302 C29.116,101.02 28.531,99.656 28.41,98.21 C28.189,95.574 29.222,92.576 31.509,89.216 C31.729,88.77 31.824,88.376 31.796,88.036 C31.76,87.611 31.572,87.413 31.232,87.441 C30.892,87.47 30.524,87.672 30.127,88.048 C19.19,98.555 11.936,103.958 8.365,104.257 Z" id="Path" stroke="url(#linearGradient-7)" stroke-width="4" mask="url(#mask-6)"></path><mask id="mask-9" fill="white"><use xlink:href="#path-8"></use></mask><g id="Path"></g><mask id="mask-11" fill="white"><use xlink:href="#path-10"></use></mask><g id="Shape"></g><mask id="mask-13" fill="white"><use xlink:href="#path-12"></use></mask><g id="Path"></g></g><g id="Clipped"><mask id="mask-15" fill="white"><use xlink:href="#path-14"></use></mask><g id="Rectangle"></g><path d="M60.294,138.312 C59.952,134.231 61.505,128.235 64.953,120.324 C68.315,112.421 72.51,104.235 77.538,95.764 C88.372,77.901 97.855,63.319 105.985,52.02 L111.392,44.502 C112.568,43.205 113.793,42.503 115.069,42.396 C116.344,42.289 117.319,42.678 117.993,43.564 C118.666,44.449 119.035,45.275 119.099,46.04 C119.156,46.72 118.778,48.336 117.964,50.888 C117.235,53.432 116.326,56.377 115.236,59.722 C114.139,62.983 113.52,64.79 113.378,65.144 C113.315,65.407 113.297,65.708 113.326,66.048 C113.354,66.388 113.624,66.537 114.134,66.494 C114.729,66.444 116.011,65.395 117.98,63.346 C124.058,57.185 128.755,53.965 132.071,53.687 C138.109,53.182 141.384,55.99 141.897,62.112 C141.735,65.294 140.164,69.536 137.183,74.839 C134.202,80.141 130.292,85.092 125.454,89.694 C120.694,94.203 116.146,96.639 111.809,97.003 C109.938,97.159 108.283,96.827 106.844,96.006 C105.406,95.184 104.307,94.334 103.548,93.456 C102.789,92.578 102.283,92.149 102.027,92.17 C101.857,92.185 101.62,92.419 101.316,92.872 C101.096,93.319 93.988,107.616 79.99,135.763 C76.301,142.837 72.416,146.545 68.334,146.887 C66.209,147.065 64.383,146.233 62.859,144.391 C61.342,142.635 60.487,140.608 60.294,138.312 Z M126.675,62.874 C124.549,63.052 120.32,66.746 113.988,73.956 C107.741,81.159 104.689,85.611 104.831,87.311 C104.846,87.481 105.023,87.552 105.363,87.524 C108.594,87.253 113.188,83.828 119.145,77.249 C125.095,70.585 127.966,66.02 127.76,63.554 C127.717,63.044 127.356,62.817 126.675,62.874 Z" id="Shape" stroke="url(#linearGradient-16)" stroke-width="4" mask="url(#mask-15)"></path><mask id="mask-18" fill="white"><use xlink:href="#path-17"></use></mask><g id="Path"></g><mask id="mask-20" fill="white"><use xlink:href="#path-19"></use></mask><g id="Shape"></g><mask id="mask-22" fill="white"><use xlink:href="#path-21"></use></mask><g id="Path"></g></g><g id="Clipped"><mask id="mask-24" fill="white"><use xlink:href="#path-23"></use></mask><g id="Rectangle"></g><path d="M197.358,83.027 C194.574,85.572 191.145,88.086 187.072,90.568 C183.083,93.043 179.643,94.402 176.752,94.644 C173.946,94.879 171.621,94.217 169.778,92.659 C167.935,91.101 166.91,89.089 166.703,86.623 C166.361,82.541 168.835,76.811 174.125,69.431 C174.593,68.878 174.816,68.474 174.795,68.219 C174.766,67.879 174.667,67.716 174.497,67.73 C174.327,67.744 173.707,68.01 172.637,68.528 C171.645,68.954 168.918,71.152 164.455,75.122 C159.985,79.008 155.664,83.138 151.492,87.512 C147.313,91.801 144.246,94.028 142.29,94.192 C140.419,94.348 138.948,93.658 137.877,92.121 C136.892,90.576 136.313,88.784 136.142,86.743 C135.615,80.45 139.703,70.474 148.406,56.814 C157.194,43.148 166.525,30.848 176.399,19.916 C186.266,8.899 192.687,3.266 195.663,3.017 C197.109,2.896 198.523,3.419 199.905,4.588 C201.366,5.665 202.185,7.266 202.363,9.392 C202.534,11.432 200.368,16.238 195.864,23.809 C191.36,31.379 186.294,39.382 180.664,47.818 C173.582,58.344 170.077,64.033 170.148,64.883 C170.176,65.223 170.361,65.379 170.701,65.351 C171.041,65.322 172.43,64.521 174.867,62.946 C177.297,61.287 179.95,59.738 182.826,58.298 C185.696,56.773 187.676,55.879 188.767,55.616 C189.936,55.261 191.286,55.02 192.817,54.892 C194.432,54.756 196.034,54.965 197.622,55.517 C199.294,56.061 200.188,57.014 200.302,58.375 C200.409,59.65 197.658,64.12 192.048,71.783 C186.517,79.354 183.794,83.649 183.88,84.67 C183.958,85.605 184.423,86.037 185.273,85.966 C187.059,85.816 190.388,83.653 195.262,79.477 C197.104,77.953 198.188,77.091 198.514,76.893 C198.84,76.694 199.215,76.577 199.64,76.541 C200.831,76.442 201.476,76.987 201.576,78.178 C201.633,78.858 200.227,80.474 197.358,83.027 Z" id="Path" stroke="url(#linearGradient-25)" stroke-width="4" mask="url(#mask-24)"></path><mask id="mask-27" fill="white"><use xlink:href="#path-26"></use></mask><g id="Path"></g><mask id="mask-29" fill="white"><use xlink:href="#path-28"></use></mask><g id="Shape"></g><mask id="mask-31" fill="white"><use xlink:href="#path-30"></use></mask><g id="Path"></g></g></g></g></g></svg> 