<?xml version="1.0" encoding="UTF-8"?> <svg xmlns="http://www.w3.org/2000/svg" xmlns:xlink="http://www.w3.org/1999/xlink" id="Layer_1" data-name="Layer 1" viewBox="0 0 460.64 460.64"><defs><style>.cls-1{fill:url(#linear-gradient);}.cls-2{fill:url(#linear-gradient-2);}.cls-3{fill:url(#linear-gradient-3);}.cls-4{fill:url(#linear-gradient-4);}.cls-5{fill:url(#linear-gradient-5);}.cls-6{fill:url(#linear-gradient-6);}.cls-7{fill:url(#linear-gradient-7);}.cls-8{fill:url(#linear-gradient-8);}.cls-9{fill:url(#linear-gradient-9);}.cls-10{fill:url(#linear-gradient-10);}.cls-11{fill:url(#linear-gradient-11);}.cls-12{fill:url(#linear-gradient-12);}.cls-13{fill:url(#linear-gradient-13);}.cls-14{fill:url(#linear-gradient-14);}.cls-15{fill:url(#linear-gradient-15);}.cls-16{fill:url(#linear-gradient-16);}.cls-17{fill:url(#linear-gradient-17);}.cls-18{fill:url(#linear-gradient-18);}.cls-19{fill:url(#linear-gradient-19);}.cls-20{fill:url(#linear-gradient-20);}.cls-21{fill:url(#linear-gradient-21);}.cls-22{fill:url(#linear-gradient-22);}.cls-23{fill:url(#linear-gradient-23);}.cls-24{fill:url(#linear-gradient-24);}.cls-25{fill:url(#linear-gradient-25);}.cls-26{fill:url(#linear-gradient-26);}.cls-27{fill:url(#linear-gradient-27);}.cls-28{fill:url(#linear-gradient-28);}.cls-29{fill:#1b2948;}</style><linearGradient id="linear-gradient" x1="20.14" y1="250.39" x2="480.78" y2="250.39" gradientTransform="translate(-123.72 221.16) rotate(-43.51)" gradientUnits="userSpaceOnUse"><stop offset="0" stop-color="#b42b3e"></stop><stop offset="0.47" stop-color="#f26035"></stop><stop offset="1" stop-color="#faa74c"></stop></linearGradient><linearGradient id="linear-gradient-2" x1="212.18" y1="182.71" x2="257.12" y2="182.71" gradientTransform="translate(151.62 -102.86) rotate(35.88)" gradientUnits="userSpaceOnUse"><stop offset="0" stop-color="#1d3052"></stop><stop offset="0.47" stop-color="#1d3051"></stop><stop offset="1" stop-color="#171c35"></stop></linearGradient><linearGradient id="linear-gradient-3" x1="280.48" y1="277.63" x2="350.17" y2="277.63" gradientTransform="translate(32.45 -33) rotate(6.31)" xlink:href="#linear-gradient-2"></linearGradient><linearGradient id="linear-gradient-4" x1="220.28" y1="176.92" x2="265.23" y2="176.92" gradientTransform="translate(149.76 -108.71) rotate(35.88)" xlink:href="#linear-gradient-2"></linearGradient><linearGradient id="linear-gradient-5" x1="203.85" y1="188.81" x2="248.8" y2="188.81" gradientTransform="translate(153.61 -96.82) rotate(35.88)" xlink:href="#linear-gradient-2"></linearGradient><linearGradient id="linear-gradient-6" x1="187.52" y1="200.62" x2="232.47" y2="200.62" gradientTransform="translate(157.43 -85.01) rotate(35.88)" xlink:href="#linear-gradient-2"></linearGradient><linearGradient id="linear-gradient-7" x1="179.69" y1="206.28" x2="224.64" y2="206.28" gradientTransform="translate(159.27 -79.35) rotate(35.88)" xlink:href="#linear-gradient-2"></linearGradient><linearGradient id="linear-gradient-8" x1="195.75" y1="194.3" x2="240.7" y2="194.3" gradientTransform="translate(155.29 -91.03) rotate(35.88)" xlink:href="#linear-gradient-2"></linearGradient><linearGradient id="linear-gradient-9" x1="277.83" y1="256.75" x2="347.53" y2="256.75" gradientTransform="translate(30.13 -32.83) rotate(6.31)" xlink:href="#linear-gradient-2"></linearGradient><linearGradient id="linear-gradient-10" x1="278.93" y1="267.21" x2="348.62" y2="267.21" gradientTransform="translate(31.29 -32.88) rotate(6.31)" xlink:href="#linear-gradient-2"></linearGradient><linearGradient id="linear-gradient-11" x1="274.56" y1="227.12" x2="344.25" y2="227.12" gradientTransform="translate(26.86 -32.65) rotate(6.31)" xlink:href="#linear-gradient-2"></linearGradient><linearGradient id="linear-gradient-12" x1="272.33" y1="206.96" x2="342.02" y2="206.96" gradientTransform="translate(24.62 -32.52) rotate(6.31)" xlink:href="#linear-gradient-2"></linearGradient><linearGradient id="linear-gradient-13" x1="275.33" y1="236.87" x2="345.03" y2="236.87" gradientTransform="translate(27.93 -32.68) rotate(6.31)" xlink:href="#linear-gradient-2"></linearGradient><linearGradient id="linear-gradient-14" x1="276.77" y1="247.14" x2="346.46" y2="247.14" gradientTransform="translate(29.07 -32.77) rotate(6.31)" xlink:href="#linear-gradient-2"></linearGradient><linearGradient id="linear-gradient-15" x1="273.36" y1="216.87" x2="343.05" y2="216.87" gradientTransform="translate(25.72 -32.58) rotate(6.31)" xlink:href="#linear-gradient-2"></linearGradient><linearGradient id="linear-gradient-16" x1="211.57" y1="308.79" x2="244.98" y2="308.79" gradientTransform="translate(415.63 -26.41) rotate(65.68)" xlink:href="#linear-gradient-2"></linearGradient><linearGradient id="linear-gradient-17" x1="220.48" y1="312.82" x2="253.9" y2="312.82" gradientTransform="translate(424.54 -32.16) rotate(65.68)" xlink:href="#linear-gradient-2"></linearGradient><linearGradient id="linear-gradient-18" x1="230.16" y1="317.26" x2="263.57" y2="317.26" gradientTransform="translate(434.28 -38.37) rotate(65.68)" xlink:href="#linear-gradient-2"></linearGradient><linearGradient id="linear-gradient-19" x1="225.44" y1="133.07" x2="377.2" y2="133.07" gradientTransform="matrix(1, 0, 0, 1, 0, 0)" xlink:href="#linear-gradient-2"></linearGradient><linearGradient id="linear-gradient-20" x1="240.03" y1="321.29" x2="273.44" y2="321.29" gradientTransform="translate(443.76 -45) rotate(65.68)" xlink:href="#linear-gradient-2"></linearGradient><linearGradient id="linear-gradient-21" x1="201.88" y1="304.74" x2="235.29" y2="304.74" gradientTransform="translate(406.24 -19.96) rotate(65.68)" xlink:href="#linear-gradient-2"></linearGradient><linearGradient id="linear-gradient-22" x1="248.5" y1="351.21" x2="399.99" y2="351.21" gradientTransform="matrix(1, 0, 0, 1, 0, 0)" xlink:href="#linear-gradient-2"></linearGradient><linearGradient id="linear-gradient-23" x1="48.95" y1="262.02" x2="200.71" y2="262.02" gradientTransform="matrix(1, 0, 0, 1, 0, 0)" xlink:href="#linear-gradient-2"></linearGradient><linearGradient id="linear-gradient-24" x1="171.14" y1="212.4" x2="216.09" y2="212.4" gradientTransform="translate(161.23 -73.17) rotate(35.88)" xlink:href="#linear-gradient-2"></linearGradient><linearGradient id="linear-gradient-25" x1="162.84" y1="218.89" x2="207.79" y2="218.89" gradientTransform="translate(163.46 -67.08) rotate(35.88)" xlink:href="#linear-gradient-2"></linearGradient><linearGradient id="linear-gradient-26" x1="183.43" y1="296.14" x2="216.84" y2="296.14" gradientTransform="translate(387.55 -8.21) rotate(65.68)" xlink:href="#linear-gradient-2"></linearGradient><linearGradient id="linear-gradient-27" x1="174.27" y1="291.93" x2="207.68" y2="291.93" gradientTransform="translate(378.33 -2.33) rotate(65.68)" xlink:href="#linear-gradient-2"></linearGradient><linearGradient id="linear-gradient-28" x1="192.98" y1="300.39" x2="226.39" y2="300.39" gradientTransform="translate(397.04 -14.41) rotate(65.68)" xlink:href="#linear-gradient-2"></linearGradient></defs><circle class="cls-1" cx="230.32" cy="230.32" r="230.32"></circle><rect class="cls-2" x="232.07" y="147.94" width="5.17" height="69.55" transform="matrix(0.81, -0.59, 0.59, 0.81, -82.24, 152.52)"></rect><rect class="cls-3" x="280.56" y="275.04" width="69.55" height="5.17" transform="translate(-48.3 16.69) rotate(-6.31)"></rect><rect class="cls-4" x="240.17" y="142.15" width="5.17" height="69.55" transform="translate(-77.31 156.17) rotate(-35.88)"></rect><rect class="cls-5" x="223.74" y="154.03" width="5.17" height="69.55" transform="translate(-87.39 148.8) rotate(-35.88)"></rect><rect class="cls-6" x="207.41" y="165.84" width="5.17" height="69.55" transform="translate(-97.41 141.47) rotate(-35.88)"></rect><rect class="cls-7" x="199.58" y="171.51" width="5.17" height="69.55" transform="matrix(0.81, -0.59, 0.59, 0.81, -102.22, 137.96)"></rect><rect class="cls-8" x="215.64" y="159.52" width="5.17" height="69.55" transform="matrix(0.81, -0.59, 0.59, 0.81, -92.15, 145.09)"></rect><rect class="cls-9" x="277.91" y="254.17" width="69.55" height="5.17" transform="translate(-46.01 16.26) rotate(-6.31)"></rect><rect class="cls-10" x="279.01" y="264.62" width="69.55" height="5.17" transform="translate(-47.16 16.45) rotate(-6.31)"></rect><rect class="cls-11" x="274.63" y="224.53" width="69.55" height="5.17" transform="translate(-42.78 15.73) rotate(-6.31)"></rect><rect class="cls-12" x="272.4" y="204.37" width="69.55" height="5.17" transform="translate(-40.57 15.35) rotate(-6.31)"></rect><rect class="cls-13" x="275.41" y="234.29" width="69.55" height="5.17" transform="translate(-43.85 15.87) rotate(-6.31)"></rect><rect class="cls-14" x="276.84" y="244.56" width="69.55" height="5.17" transform="translate(-44.97 16.09) rotate(-6.31)"></rect><rect class="cls-15" x="273.44" y="214.28" width="69.55" height="5.17" transform="translate(-41.66 15.53) rotate(-6.31)"></rect><rect class="cls-16" x="193.5" y="306.18" width="69.55" height="5.23" transform="translate(-166.81 369.93) rotate(-65.68)"></rect><rect class="cls-17" x="202.42" y="310.21" width="69.55" height="5.23" transform="matrix(0.41, -0.91, 0.91, 0.41, -165.24, 380.43)"></rect><rect class="cls-18" x="212.09" y="314.64" width="69.55" height="5.23" transform="translate(-163.59 391.85) rotate(-65.68)"></rect><path class="cls-19" d="M347,194l30.22-69.22-44.36-60.1-76,6-31.41,69.71,44.72,61ZM272.53,92.72l49.2-3.91,28.72,38.91-19.56,44.82-49.75,4.84-28.95-39.52Z" transform="translate(-19.68 -19.68)"></path><rect class="cls-20" x="221.97" y="318.68" width="69.55" height="5.23" transform="translate(-161.46 403.22) rotate(-65.68)"></rect><rect class="cls-21" x="183.81" y="302.12" width="69.55" height="5.23" transform="matrix(0.41, -0.91, 0.91, 0.41, -168.82, 358.72)"></rect><path class="cls-22" d="M354.71,282.34l-75.89,7.22L248.5,359.74l45.66,60.34,76.7-8.66L400,341.75Zm-.9,108.32-49.74,4.83L275.12,356l20.33-45.13,49.2-3.91,28.72,38.91Z" transform="translate(-19.68 -19.68)"></path><path class="cls-23" d="M156.35,193.63l-76,6L49,269.38l44.72,61L170.5,323l30.21-69.22Zm-1.1,107.84-49.74,4.83-29-39.52,20.34-45.13,49.2-3.91,28.72,38.91Z" transform="translate(-19.68 -19.68)"></path><rect class="cls-24" x="191.03" y="177.62" width="5.17" height="69.55" transform="matrix(0.81, -0.59, 0.59, 0.81, -107.42, 134.1)"></rect><rect class="cls-25" x="182.73" y="184.11" width="5.17" height="69.55" transform="translate(-112.8 130.47) rotate(-35.88)"></rect><rect class="cls-26" x="165.37" y="293.52" width="69.55" height="5.23" transform="matrix(0.41, -0.91, 0.91, 0.41, -171.83, 336.85)"></rect><rect class="cls-27" x="156.2" y="289.32" width="69.55" height="5.23" transform="translate(-173.38 326.03) rotate(-65.68)"></rect><rect class="cls-28" x="174.91" y="297.77" width="69.55" height="5.23" transform="translate(-170.09 348.05) rotate(-65.68)"></rect><polygon class="cls-29" points="126.19 271.05 91.2 274.2 70.83 245.35 85.81 213.22 120.75 210.49 141.18 239.57 126.19 271.05"></polygon><polygon class="cls-29" points="301.82 141.64 266.83 144.78 246.47 115.94 261.45 83.81 296.39 81.08 316.81 110.16 301.82 141.64"></polygon><polygon class="cls-29" points="324.75 360.24 289.76 363.39 269.39 334.54 284.38 302.42 319.31 299.68 339.74 328.76 324.75 360.24"></polygon></svg> 