<?xml version="1.0" encoding="UTF-8"?> <svg xmlns="http://www.w3.org/2000/svg" width="64" height="64" viewBox="0 0 64 64" fill="none"><circle cx="32" cy="32" r="32" fill="#383D51"></circle><path d="M6.5688 36.278L21.8911 21.2434C24.8648 18.276 28.7963 16.6935 32.9796 16.6935C38.2718 16.6935 42.9088 19.2652 45.7314 23.2216C45.7818 23.2711 45.8322 23.3206 45.8826 23.37C46.9411 24.6064 48.5035 25.3482 50.1668 25.3482C53.2413 25.3482 55.7614 22.8754 55.7614 19.8586C55.7614 18.1277 54.6022 16.4956 54.6022 16.4956C49.562 9.7202 41.4977 5.71429 32.9796 5.71429C25.5705 5.71429 18.4637 8.78055 13.3731 14.0723C8.28248 19.463 5.76237 26.4857 6.26639 33.8546C6.31679 34.6953 6.4176 35.4866 6.5688 36.278Z" fill="#A7FF58"></path><path d="M58.1806 35.0413C57.3742 34.0522 56.215 33.4588 54.9045 33.4588H38.7254C38.675 33.4588 38.675 33.4588 38.6246 33.4588C37.4653 33.4588 36.4069 33.9038 35.6003 34.6951C34.7939 35.4864 34.3907 36.5744 34.4411 37.6624C34.4915 39.789 36.5581 41.6189 38.8766 41.6189H39.9854C40.8926 41.6189 41.6487 42.1135 42.0015 42.9542C42.3543 43.7455 42.1527 44.6852 41.5479 45.2786L28.6953 57.8898C29.5017 58.0382 30.3081 58.1372 31.165 58.1865C44.0176 59.0273 55.7613 50.8177 58.9871 38.6021C59.2391 37.3657 58.9871 36.0304 58.1806 35.0413Z" fill="#A7FF58"></path><path d="M32.8286 19.5617C30.5605 19.6112 28.3932 20.353 26.5283 21.5895L26.3771 21.6884C24.7642 22.727 23.2522 23.9633 21.8912 25.2986C16.9518 30.1453 4.90569 41.9653 4.90569 41.9653C4.14966 42.7071 4.60328 44.7348 7.02259 43.7456L9.29069 42.9048C11.6596 42.262 13.4237 42.4103 14.7341 44.1413C15.843 45.5754 15.1374 47.9494 15.1374 47.9494C14.6333 49.6309 15.9438 50.7684 17.355 50.2244L18.2623 49.8782C20.3288 49.1362 22.597 49.977 23.7562 52.1037C24.2098 52.9444 24.2602 53.983 24.0082 54.8732C23.6554 56.159 25.3187 57.0986 26.2763 56.159L38.1208 44.4874C34.5422 44.1413 31.5685 41.2233 31.4677 37.7615C31.4173 35.8327 32.1229 34.0522 33.4838 32.6676C34.7942 31.3322 36.5079 30.5904 38.3728 30.5409C38.4232 30.5409 38.524 30.5409 38.5744 30.5409H45.53C44.8243 24.359 39.3808 19.5124 32.8286 19.5617ZM26.0243 29.8981C25.3691 31.6289 24.0586 32.717 23.101 32.3708C22.1432 32.0246 21.8408 30.3431 22.496 28.6121C23.1514 26.8813 24.4618 25.7932 25.4195 26.1393C26.3771 26.4856 26.6795 28.1671 26.0243 29.8981ZM32.6774 29.8981C32.0221 31.6289 30.7117 32.717 29.754 32.3708C28.7964 32.0246 28.494 30.3431 29.1492 28.6121C29.8044 26.8813 31.1149 25.7932 32.0725 26.1393C33.0302 26.4856 33.3326 28.1671 32.6774 29.8981Z" fill="white"></path></svg> 