<?xml version="1.0" encoding="UTF-8"?> <svg xmlns="http://www.w3.org/2000/svg" xmlns:xlink="http://www.w3.org/1999/xlink" width="64px" height="64px" viewBox="0 0 64 64" version="1.1"><title>Group</title><defs><radialGradient cx="67.9357457%" cy="65.3209798%" fx="67.9357457%" fy="65.3209798%" r="68.0138142%" id="radialGradient-1"><stop stop-color="#FFFFFF" offset="0%"></stop><stop stop-color="#3C4149" offset="50.1768%"></stop><stop stop-color="#454A52" offset="76.1481%"></stop><stop stop-color="#CBD0DA" offset="100%"></stop></radialGradient><radialGradient cx="40.138938%" cy="28.9661891%" fx="40.138938%" fy="28.9661891%" r="68.8162683%" gradientTransform="translate(0.401389,0.289662),scale(1.000000,0.967742),rotate(65.932882),translate(-0.401389,-0.289662)" id="radialGradient-2"><stop stop-color="#FFFFFF" offset="0%"></stop><stop stop-color="#3C4149" offset="50.1768%"></stop><stop stop-color="#454A52" offset="76.1481%"></stop><stop stop-color="#CBD0DA" offset="100%"></stop></radialGradient><radialGradient cx="40.1394279%" cy="28.9664688%" fx="40.1394279%" fy="28.9664688%" r="68.8171208%" gradientTransform="translate(0.401394,0.289665),scale(1.000000,0.967742),rotate(65.932824),translate(-0.401394,-0.289665)" id="radialGradient-3"><stop stop-color="#FFFFFF" offset="0%"></stop><stop stop-color="#3C4149" offset="50.1768%"></stop><stop stop-color="#454A52" offset="76.1481%"></stop><stop stop-color="#CBD0DA" offset="100%"></stop></radialGradient></defs><g id="Page-1" stroke="none" stroke-width="1" fill="none" fill-rule="evenodd"><g id="Group" fill-rule="nonzero"><path d="M48.9875603,59.2592593 C51.3469236,59.2592593 53.3524546,58.3857295 55.0038396,56.6381664 C56.6554127,54.8904776 57.4814815,52.7683918 57.4814815,50.2718462 L57.4814815,30.7984885 L32.5131573,30.7984885 L32.5131573,36.94007 L51.7479169,36.94007 L51.7479169,50.2718462 C51.7479169,51.0707988 51.4766788,51.7573502 50.9340147,52.331564 C50.3913504,52.9057147 49.7425114,53.1928844 48.9875603,53.1928844 L15.0123143,53.1928844 C14.2573005,53.1928844 13.6084615,52.9057147 13.0657972,52.331564 C12.523133,51.7573502 12.2518323,51.0707988 12.2518323,50.2718462 L12.2518323,14.3209981 C12.2518323,13.5221086 12.523133,12.835557 13.0657972,12.2613433 C13.6084615,11.6871296 14.2573005,11.4000228 15.0123143,11.4000228 L48.9875603,11.4000228 C49.7425114,11.4000228 50.3913504,11.6871296 50.9340147,12.2613433 C51.4766788,12.835557 51.7479169,13.5221086 51.7479169,14.3209981 L51.7479169,16.4931168 L57.4814815,16.4931168 L57.4814815,14.3209981 C57.4814815,11.8244526 56.6554127,9.70236679 55.0038396,7.95474082 C53.3524546,6.20711486 51.3469236,5.33333334 48.9875603,5.33333334 L15.0123143,5.33333334 C12.6528883,5.33333334 10.64742,6.20711486 8.99584688,7.95474082 C7.34427374,9.70236679 6.51851853,11.8244526 6.51851853,14.3209981 L6.51851853,50.2718462 C6.51851853,52.7683918 7.34427374,54.8904776 8.99584688,56.6381664 C10.64742,58.3857295 12.6528883,59.2592593 15.0123143,59.2592593 L48.9875603,59.2592593 Z" id="Path" fill="#2F2F43"></path><path d="M22.06024,5.0225231 C17.6977981,-0.493679161 9.85626433,-1.64257603 4.54556641,2.45646313 C-0.765062523,6.55550846 -1.53375132,14.3502276 2.8286592,19.8663988 C7.19103836,25.3825702 15.0326348,26.5314423 20.3432701,22.4324589 C25.6539053,18.3334135 26.4226818,10.5387563 22.06024,5.0225231 Z" id="Path" fill="url(#radialGradient-1)"></path><path d="M46.4750948,56.7841556 C47.6328128,61.7381395 52.4377961,64.8721007 57.2073308,63.7843663 C61.9767403,62.696632 64.9046987,57.7990445 63.747294,52.8451843 C62.5892629,47.8915714 57.7842795,44.7576102 53.0147448,45.8452208 C48.2452102,46.9330789 45.3172517,51.8306045 46.4750948,56.7841556 Z" id="Path" fill="url(#radialGradient-2)"></path><path d="M26.3269726,35.4509823 C27.484639,40.4046909 32.2896684,43.5387355 37.0593115,42.4510555 C41.8287665,41.3632518 44.7567532,36.4656309 43.5990241,31.5117986 C42.4413578,26.5581517 37.6363284,23.4241071 32.8667479,24.5119726 C28.0970422,25.5996527 25.1690557,30.4972736 26.3269726,35.4509823 Z" id="Path" fill="url(#radialGradient-3)"></path></g></g></svg> 