<?xml version="1.0" encoding="UTF-8"?> <svg xmlns="http://www.w3.org/2000/svg" width="64" height="64" viewBox="0 0 64 64" fill="none"><circle cx="32" cy="32" r="32" fill="#001321"></circle><path d="M22.053 40.8977C18.7712 37.8707 14.4685 36.1928 10.0039 36.1991V27.7999C16.6052 27.7905 22.9649 30.2826 27.8026 34.7742L22.053 40.8977Z" fill="#00C8A0"></path><path d="M36.2008 10.0028H27.8016C27.8016 12.3402 27.3412 14.6546 26.4468 16.8141C25.5523 18.9735 24.2412 20.9356 22.5885 22.5884C20.9357 24.2411 18.9736 25.5522 16.8142 26.4466C14.6548 27.3411 12.3403 27.8015 10.0029 27.8015V36.2007C13.4433 36.2008 16.85 35.5232 20.0285 34.2067C23.207 32.8901 26.0951 30.9604 28.5278 28.5277C30.9605 26.095 32.8903 23.2069 34.2068 20.0284C35.5233 16.8499 36.2009 13.4432 36.2008 10.0028Z" fill="#00E3B4"></path><path d="M27.8018 10.0028H36.201C36.201 14.7233 38.0762 19.2505 41.4141 22.5884C44.752 25.9263 49.2792 27.8015 53.9997 27.8015V36.2007C50.5593 36.2008 47.1526 35.5232 43.9741 34.2066C40.7956 32.8901 37.9075 30.9604 35.4748 28.5276C33.0421 26.0949 31.1124 23.2069 29.7958 20.0284C28.4793 16.8499 27.8017 13.4432 27.8018 10.0028Z" fill="#00C8A0"></path><path d="M27.8018 53.9972H36.201C36.201 49.2767 38.0762 44.7495 41.4141 41.4116C44.752 38.0737 49.2792 36.1985 53.9997 36.1985V27.7999C50.5593 27.7998 47.1527 28.4774 43.9742 29.7939C40.7958 31.1104 37.9077 33.0401 35.475 35.4727C33.0423 37.9054 31.1126 40.7934 29.796 43.9718C28.4794 47.1502 27.8018 50.5568 27.8018 53.9972Z" fill="#00E3B4"></path><path d="M27.8014 34.7742C30.4536 37.2241 32.5693 40.1971 34.0149 43.5057C35.4604 46.8143 36.2045 50.3865 36.2002 53.9971H27.801C27.8039 51.5343 27.2942 49.0978 26.3045 46.8426C25.3147 44.5874 23.8666 42.5629 22.052 40.8977L27.8014 34.7742Z" fill="#00C8A0"></path></svg> 