<?xml version="1.0" encoding="UTF-8"?> <svg xmlns="http://www.w3.org/2000/svg" width="66" height="61" viewBox="0 0 66 61" fill="none"><path d="M61.8355 1L36.834 19.5471L41.4831 8.61669L61.8355 1Z" fill="#E17726" stroke="#E17726" stroke-linecap="round" stroke-linejoin="round"></path><path d="M4.16406 1L28.943 19.7202L24.5165 8.61669L4.16406 1Z" fill="#E27625" stroke="#E27625" stroke-linecap="round" stroke-linejoin="round"></path><path d="M52.8329 44.0047L46.1807 54.1933L60.4249 58.1253L64.5052 44.2273L52.8329 44.0047Z" fill="#E27625" stroke="#E27625" stroke-linecap="round" stroke-linejoin="round"></path><path d="M1.51855 44.2273L5.5742 58.1253L19.7937 54.1933L13.1662 44.0047L1.51855 44.2273Z" fill="#E27625" stroke="#E27625" stroke-linecap="round" stroke-linejoin="round"></path><path d="M19.027 26.7929L15.0703 32.7775L29.1661 33.4204L28.6963 18.2118L19.027 26.7929Z" fill="#E27625" stroke="#E27625" stroke-linecap="round" stroke-linejoin="round"></path><path d="M46.9711 26.7929L37.1535 18.0386L36.832 33.4204L50.9279 32.7774L46.9711 26.7929Z" fill="#E27625" stroke="#E27625" stroke-linecap="round" stroke-linejoin="round"></path><path d="M19.7939 54.1932L28.3256 50.0634L20.981 44.3261L19.7939 54.1932Z" fill="#E27625" stroke="#E27625" stroke-linecap="round" stroke-linejoin="round"></path><path d="M37.6738 50.0634L46.1808 54.1932L45.0185 44.3261L37.6738 50.0634Z" fill="#E27625" stroke="#E27625" stroke-linecap="round" stroke-linejoin="round"></path><path d="M46.1808 54.1932L37.6738 50.0634L38.3663 55.6028L38.2921 57.9521L46.1808 54.1932Z" fill="#D5BFB2" stroke="#D5BFB2" stroke-linecap="round" stroke-linejoin="round"></path><path d="M19.7949 54.1932L27.7084 57.9521L27.6589 55.6028L28.3266 50.0634L19.7949 54.1932Z" fill="#D5BFB2" stroke="#D5BFB2" stroke-linecap="round" stroke-linejoin="round"></path><path d="M27.8558 40.6662L20.7832 38.5889L25.7786 36.2891L27.8558 40.6662Z" fill="#233447" stroke="#233447" stroke-linecap="round" stroke-linejoin="round"></path><path d="M38.1436 40.6662L40.2208 36.2891L45.2409 38.5889L38.1436 40.6662Z" fill="#233447" stroke="#233447" stroke-linecap="round" stroke-linejoin="round"></path><path d="M19.7935 54.1931L21.03 44.0046L13.166 44.2271L19.7935 54.1931Z" fill="#CC6228" stroke="#CC6228" stroke-linecap="round" stroke-linejoin="round"></path><path d="M44.9678 44.0046L46.1795 54.1931L52.8318 44.2271L44.9678 44.0046Z" fill="#CC6228" stroke="#CC6228" stroke-linecap="round" stroke-linejoin="round"></path><path d="M50.9279 32.7773L36.832 33.4203L38.1427 40.6661L40.22 36.2889L45.2401 38.5888L50.9279 32.7773Z" fill="#CC6228" stroke="#CC6228" stroke-linecap="round" stroke-linejoin="round"></path><path d="M20.7828 38.5888L25.7782 36.2889L27.8555 40.6661L29.1661 33.4203L15.0703 32.7773L20.7828 38.5888Z" fill="#CC6228" stroke="#CC6228" stroke-linecap="round" stroke-linejoin="round"></path><path d="M15.0713 32.7775L20.9816 44.3262L20.7838 38.5889L15.0713 32.7775Z" fill="#E27525" stroke="#E27525" stroke-linecap="round" stroke-linejoin="round"></path><path d="M45.2401 38.5888L45.0176 44.3261L50.9279 32.7774L45.2401 38.5888Z" fill="#E27525" stroke="#E27525" stroke-linecap="round" stroke-linejoin="round"></path><path d="M29.1661 33.4203L27.8555 40.6661L29.5123 49.2225L29.8833 37.9458L29.1661 33.4203Z" fill="#E27525" stroke="#E27525" stroke-linecap="round" stroke-linejoin="round"></path><path d="M36.833 33.4203L36.1406 37.9211L36.4868 49.2225L38.1437 40.6661L36.833 33.4203Z" fill="#E27525" stroke="#E27525" stroke-linecap="round" stroke-linejoin="round"></path><path d="M38.1442 40.6662L36.4873 49.2226L37.6743 50.0634L45.019 44.3262L45.2416 38.5889L38.1442 40.6662Z" fill="#F5841F" stroke="#F5841F" stroke-linecap="round" stroke-linejoin="round"></path><path d="M20.7832 38.5889L20.981 44.3262L28.3257 50.0634L29.5127 49.2226L27.8558 40.6662L20.7832 38.5889Z" fill="#F5841F" stroke="#F5841F" stroke-linecap="round" stroke-linejoin="round"></path><path d="M38.2926 57.9521L38.3668 55.6028L37.7238 55.0587H28.2771L27.6589 55.6028L27.7084 57.9521L19.7949 54.1932L22.5646 56.4683L28.1782 60.3508H37.798L43.4363 56.4683L46.1813 54.1932L38.2926 57.9521Z" fill="#C0AC9D" stroke="#C0AC9D" stroke-linecap="round" stroke-linejoin="round"></path><path d="M37.6737 50.0633L36.4866 49.2225H29.5129L28.3259 50.0633L27.6582 55.6027L28.2764 55.0587H37.7231L38.3661 55.6027L37.6737 50.0633Z" fill="#161616" stroke="#161616" stroke-linecap="round" stroke-linejoin="round"></path><path d="M62.8979 20.7589L65 10.5209L61.8346 1L37.6738 18.9289L46.9721 26.7929L60.1035 30.626L62.9969 27.238L61.7357 26.323L63.7388 24.493L62.2055 23.306L64.2086 21.7728L62.8979 20.7589Z" fill="#763E1A" stroke="#763E1A" stroke-linecap="round" stroke-linejoin="round"></path><path d="M1 10.5209L3.12674 20.7589L1.76661 21.7728L3.79444 23.306L2.26121 24.493L4.2643 26.323L3.00309 27.238L5.89645 30.626L19.0278 26.7929L28.3261 18.9289L4.16538 1L1 10.5209Z" fill="#763E1A" stroke="#763E1A" stroke-linecap="round" stroke-linejoin="round"></path><path d="M60.1026 30.6259L46.9712 26.7928L50.9279 32.7774L45.0176 44.3261L52.8321 44.2272H64.5044L60.1026 30.6259Z" fill="#F5841F" stroke="#F5841F" stroke-linecap="round" stroke-linejoin="round"></path><path d="M19.028 26.7928L5.89666 30.6259L1.51953 44.2272H13.1671L20.9817 44.3261L15.0713 32.7774L19.028 26.7928Z" fill="#F5841F" stroke="#F5841F" stroke-linecap="round" stroke-linejoin="round"></path><path d="M36.8329 33.4203L37.6737 18.9288L41.482 8.61664H24.5176L28.3259 18.9288L29.1667 33.4203L29.4882 37.9706L29.5129 49.2225H36.4867L36.5114 37.9706L36.8329 33.4203Z" fill="#F5841F" stroke="#F5841F" stroke-linecap="round" stroke-linejoin="round"></path></svg> 