<?xml version="1.0" encoding="UTF-8"?> <svg xmlns="http://www.w3.org/2000/svg" width="64" height="64" viewBox="0 0 64 64" fill="none"><path d="M0 32C0 40.4869 3.37142 48.6263 9.37258 54.6274C15.3737 60.6286 23.5131 64 32 64C40.4869 64 48.6263 60.6286 54.6274 54.6274C60.6286 48.6263 64 40.4869 64 32C64 23.5131 60.6286 15.3737 54.6274 9.37258C48.6263 3.37142 40.4869 0 32 0C23.5131 0 15.3737 3.37142 9.37258 9.37258C3.37142 15.3737 0 23.5131 0 32H0Z" fill="#121122"></path><path fill-rule="evenodd" clip-rule="evenodd" d="M9.65471 23.892C9.26371 26.409 9.72471 28.999 10.2027 31.488C10.3867 31.886 10.7907 32.153 11.2887 32.325C10.2496 34.4997 9.70915 36.8788 9.70671 39.289C9.70671 49.705 19.7897 58.156 32.2267 58.156C44.6647 58.156 54.7557 49.725 54.7557 39.289C54.7532 36.8542 54.2018 34.4513 53.1427 32.259C53.5587 32.087 53.8907 31.838 54.0527 31.488C54.5317 28.999 54.9897 26.408 54.5987 23.892C54.2327 20.514 53.0737 19.482 49.5927 20.348C47.8227 20.76 45.4877 21.805 43.6927 23.034C40.3337 21.367 36.4127 20.411 32.2277 20.411C27.9927 20.411 24.0317 21.391 20.6477 23.094C18.8427 21.839 16.4607 20.766 14.6627 20.348C11.1797 19.483 10.0227 20.514 9.65471 23.892ZM22.7677 38.784C20.1277 37.62 15.6157 37.914 15.6157 37.914C15.6157 37.914 15.8277 42.162 18.4177 43.604C21.4897 45.312 27.2017 44.466 27.2017 44.466C27.2017 44.466 26.7157 40.516 22.7677 38.776V38.784ZM37.4357 44.473C37.4357 44.473 43.1477 45.319 46.2197 43.611C48.8097 42.169 49.0217 37.921 49.0217 37.921C49.0217 37.921 44.5097 37.627 41.8697 38.791C37.9217 40.516 37.4357 44.457 37.4357 44.457V44.473ZM31.0997 47.467C31.0997 47.78 31.6817 48.034 32.3977 48.034C33.1147 48.034 33.6957 47.78 33.6957 47.467C33.6957 47.154 33.1147 46.901 32.3977 46.901C31.6817 46.901 31.0997 47.145 31.0997 47.467Z" fill="#F2F4F8"></path><path fill-rule="evenodd" clip-rule="evenodd" d="M57.8933 44.852C55.7855 44.038 53.5467 43.6161 51.2873 43.607H51.2913C50.7183 43.607 50.7183 42.718 51.2913 42.718C53.6309 42.7258 55.9495 43.1602 58.1333 44C58.2438 44.0337 58.3373 44.1084 58.3945 44.2088C58.4518 44.3092 58.4685 44.4277 58.4413 44.54C58.4095 44.6537 58.3341 44.7503 58.2315 44.8087C58.1289 44.8672 58.0073 44.8827 57.8933 44.852ZM6.47029 44.02C8.6551 43.1803 10.9747 42.7459 13.3153 42.738V42.743C13.8873 42.743 13.8853 43.632 13.3153 43.632C11.0553 43.64 8.81529 44.062 6.70729 44.876C6.59381 44.9062 6.47301 44.8906 6.3709 44.8327C6.26878 44.7747 6.19351 44.6789 6.16129 44.566C6.13264 44.4525 6.14887 44.3322 6.20661 44.2303C6.26435 44.1285 6.35915 44.0528 6.47129 44.019L6.47029 44.02ZM11.0023 46.567C12.0951 46.2192 13.2318 46.0282 14.3783 46C14.9483 46.003 14.9463 46.889 14.3753 46.889C13.3295 46.9163 12.2927 47.0903 11.2953 47.406C10.3663 47.678 9.30529 48.062 8.62729 48.69C8.20729 49.08 7.57929 48.452 8.00029 48.062C8.82329 47.302 9.95529 46.882 11.0003 46.567H11.0023ZM15.3933 48.22C14.5023 48.602 13.6443 49.06 12.8313 49.587C12.01 50.0935 11.2873 50.7447 10.6983 51.509C10.6391 51.6107 10.6225 51.7317 10.6521 51.8455C10.6817 51.9594 10.7551 52.057 10.8563 52.117C10.9588 52.174 11.0793 52.1894 11.1929 52.1599C11.3064 52.1305 11.4043 52.0586 11.4663 51.959C11.9663 51.269 12.6823 50.734 13.3913 50.277C14.17 49.7829 14.9869 49.3519 15.8343 48.988C15.9354 48.928 16.0089 48.8305 16.0389 48.7168C16.0688 48.603 16.0528 48.4821 15.9943 48.38C15.9327 48.2806 15.8353 48.2086 15.7222 48.1788C15.6091 48.1491 15.4889 48.1638 15.3863 48.22H15.3933ZM50.2233 46.871C51.2693 46.897 52.3073 47.071 53.3043 47.387C53.8203 47.533 54.3233 47.719 54.8103 47.943C55.2303 48.127 55.6203 48.373 55.9673 48.672C56.3873 49.06 57.0173 48.434 56.5973 48.042C55.7793 47.283 54.6533 46.862 53.6013 46.547C52.5079 46.1991 51.3704 46.0088 50.2233 45.982C49.6513 45.982 49.6493 46.872 50.2233 46.872V46.871ZM51.2043 50.251C50.4355 49.7754 49.6315 49.3592 48.7993 49.006V48.997C48.6985 48.9366 48.6254 48.8392 48.5955 48.7256C48.5656 48.612 48.5813 48.4912 48.6393 48.389C48.7018 48.29 48.7996 48.2185 48.913 48.1892C49.0263 48.1598 49.1466 48.1748 49.2493 48.231C50.9813 48.987 52.8033 49.957 53.9353 51.52C53.994 51.6218 54.0103 51.7426 53.9807 51.8563C53.9512 51.9701 53.8781 52.0676 53.7773 52.128C53.6748 52.1847 53.5545 52.1997 53.4412 52.1699C53.328 52.1401 53.2306 52.0678 53.1693 51.968C52.6573 51.262 51.9333 50.715 51.2043 50.251Z" fill="#F2F4F8"></path><path d="M3.09228 33.753C3.50228 33.113 7.11228 31.187 11.5773 30.044C12.541 27.3069 13.7301 24.6545 15.1323 22.114C15.1153 22.114 18.7043 15.671 18.6883 15.668C17.6589 15.1993 16.6704 14.6454 15.7333 14.012C15.5748 13.8902 15.4312 13.7502 15.3053 13.595C15.2103 13.438 15.1611 13.2575 15.1633 13.074C15.1633 12.924 15.3743 12.658 15.4683 12.54C15.7083 12.258 15.9743 11.997 16.2613 11.762C16.9456 11.2015 17.6647 10.6848 18.4143 10.215C18.7703 9.98002 19.1403 9.75102 19.5043 9.52002C22.0643 7.89002 23.4673 6.66302 25.8113 5.31602C28.0513 4.03202 29.1403 3.24102 31.7373 3.37402C35.0013 3.37402 43.1153 13.71 46.7733 19.036C48.9673 22.236 51.9113 27.998 52.9953 30.166C53.2553 30.231 53.4903 30.293 53.7073 30.357C57.0353 31.357 60.2993 32.821 61.0973 33.753C61.8083 34.581 58.7003 34.951 55.6373 35.484C52.5743 36.018 42.1833 36.283 32.1973 36.35C22.2113 36.418 10.5573 36.083 8.02028 35.684C5.48328 35.284 2.58128 34.551 3.09228 33.753Z" fill="#6665DD"></path><path d="M50.2122 24.825C50.2122 24.825 43.6341 23.177 32.0441 23.177C19.6001 23.177 13.6071 25.097 13.6071 25.097C13.6071 25.097 12.8961 26.448 12.5871 27.23C12.2771 28.012 11.5771 30.044 11.5771 30.044C11.5771 30.044 20.6312 28.424 32.2192 28.424C39.1962 28.452 46.1601 29.041 53.0441 30.184C53.0441 30.184 51.9931 27.724 51.3641 26.676C50.9905 26.0526 50.6064 25.4356 50.2122 24.825Z" fill="#FF99A5"></path><path d="M11.0634 10.92C11.8174 10.81 12.8414 13.118 12.8414 13.118C12.8414 13.118 15.2124 12.48 15.5824 13.118C15.9524 13.756 13.9154 15.288 13.9154 15.288C13.9154 15.288 15.1454 17.452 14.7554 17.902C14.3664 18.352 12.1724 16.987 12.1724 16.987C12.1724 16.987 10.4994 18.871 9.95441 18.587C9.40841 18.302 10.0274 15.847 10.0274 15.847C10.0274 15.847 7.6604 14.841 7.8224 14.243C7.9844 13.646 10.4504 13.465 10.4504 13.465C10.4504 13.465 10.3114 11.031 11.0634 10.921V10.92Z" fill="#FFE600"></path></svg> 