<?xml version="1.0" encoding="UTF-8"?> <svg xmlns="http://www.w3.org/2000/svg" width="64" height="64" viewBox="0 0 64 64" fill="none"><circle cx="32" cy="32" r="32" fill="#030628"></circle><path d="M32.1036 54.0444C25.3153 54.0444 19.8719 49.6805 17.8866 42.6853C15.197 33.444 18.8473 20.0954 32.9361 11.1749L34.9214 9.95555V12.2659C34.9214 20.2237 38.1234 24.7802 41.1973 29.1442C43.6948 32.6738 46.0644 36.0752 46.0644 40.6959C46.0004 47.306 41.2614 54.0444 32.1036 54.0444ZM32.4878 14.6404C21.0246 22.7266 18.0147 34.0857 20.3202 41.9793C22.0493 47.8835 26.404 51.4132 32.1036 51.4132C39.9165 51.4132 43.4387 45.83 43.4387 40.6959C43.4387 36.8452 41.3894 33.9574 39.084 30.6202C36.2021 26.5771 33.0001 22.0206 32.4878 14.6404Z" fill="#02B8EB"></path><path d="M29.5424 53.5953C28.838 53.5953 28.1976 53.5312 27.4932 53.3386L28.1336 50.8358C30.1188 51.3492 32.1041 50.7075 33.2568 49.1031C35.0499 46.6644 34.6657 42.9421 32.2321 39.0273C26.1483 29.3369 26.2764 19.7746 32.6804 11.4959L34.7297 13.0361C28.9661 20.5447 28.902 28.8235 34.4735 37.6796C37.4835 42.4929 37.8676 47.3061 35.4342 50.6432C33.8972 52.5043 31.7838 53.5953 29.5424 53.5953Z" fill="#02B8EB"></path></svg> 