<?xml version="1.0" encoding="UTF-8"?> <svg xmlns="http://www.w3.org/2000/svg" width="37" height="53" viewBox="0 0 37 53" fill="none"><path d="M5.04809 37.1888C5.22729 34.5008 5.17609 31.736 5.49609 28.984C5.67529 27.4864 5.99529 26.0016 6.12329 24.504C6.28969 22.456 6.08489 20.408 6.03369 18.3472C6.02089 17.7456 5.95689 17.144 6.11049 16.5424C6.18729 16.2352 6.30249 15.9152 6.62249 15.8512C7.17289 15.7232 7.01929 15.416 6.90409 15.0832C6.77609 14.712 6.66089 14.3408 6.52009 13.9824C5.75209 12.1008 6.40489 10.4112 7.33929 8.824C8.13289 7.4672 9.16969 6.2512 10.2577 5.112C11.4737 3.832 12.9841 3.192 14.7633 3.1664C15.0961 3.1664 15.4289 3.1536 15.7745 3.128C15.9409 3.1152 16.1073 3.1152 16.2865 3.1024C16.4401 3.0896 16.6065 3.1024 16.7601 3.0768C16.8113 3.064 16.8625 3.0512 16.9137 3.0384C17.0033 3.0384 17.0929 3.064 17.1697 3.064C17.3617 3.0896 17.5409 3.1152 17.7329 3.1536C18.1041 3.2176 18.4753 3.2816 18.8465 3.3584C19.5889 3.4992 20.3185 3.6784 21.0481 3.8704C21.4449 3.9728 21.8417 4.088 22.2129 4.28C22.8913 4.6512 23.3777 5.2784 24.0305 5.688C24.4785 5.9696 24.9777 6.136 25.3873 6.4688C25.8481 6.84 26.1425 7.3648 26.4241 7.8896C26.7313 8.4528 27.0385 9.016 27.2433 9.6304C27.2945 9.784 27.3457 9.9504 27.3841 10.104C27.5377 10.7568 27.6145 11.4224 27.6913 12.088C27.7681 12.7408 27.8577 13.4064 28.0753 14.0336C28.1265 14.1872 28.1905 14.3408 28.2545 14.4944C28.2801 14.5584 28.3185 14.6224 28.3313 14.6864C28.3313 14.776 28.3185 14.8656 28.3185 14.9552C28.3057 16.888 28.1393 18.808 28.1009 20.7408C28.0369 23.864 27.8193 26.9872 27.4737 30.0976C27.4097 30.648 27.4865 31.1856 27.6145 31.7104C27.9857 33.272 28.1009 34.8336 27.8705 36.4464C27.6785 37.8032 27.6785 39.1984 27.5889 40.5808C27.5505 41.1952 27.2177 41.4512 26.6161 41.464C25.9121 41.4768 25.2721 41.1824 24.5681 41.1696C23.5825 41.144 22.6353 41.3744 21.6753 41.4768C20.0625 41.6304 18.5009 41.336 16.9137 41.144C16.6321 41.1184 16.3633 40.9904 16.0817 41.0032C15.7873 41.0032 15.5057 41.016 15.2113 41.0032C15.0705 40.9904 14.9297 40.9904 14.7889 40.952C14.6993 40.9264 14.6353 40.888 14.5457 40.8752C14.1617 40.8368 13.7777 40.8368 13.3937 40.8112C13.0097 40.7984 12.6257 40.7728 12.2417 40.76C11.4737 40.7216 10.6929 40.696 9.9249 40.6704C9.1569 40.6448 8.37609 40.6192 7.60809 40.5936C7.41609 40.5936 7.22409 40.5808 7.03209 40.5808C6.85289 40.5808 6.64809 40.5424 6.46889 40.568C6.41769 40.5808 6.36649 40.6064 6.32809 40.6192C6.14889 40.6704 5.93129 40.6448 5.75209 40.6064C5.18889 40.4528 5.04809 39.8512 5.03529 39.3392C5.02249 38.9936 5.06089 38.648 5.07369 38.3024C5.04809 37.9568 5.04809 37.6112 5.04809 37.1888Z" fill="#6B00FA" stroke="black" stroke-width="0.5" stroke-miterlimit="10"></path><path d="M28.6642 47.928C28.5618 48.5936 28.6514 49.3488 28.4594 50.0656C28.3826 50.3472 28.3186 50.616 28.0114 50.7312C27.717 50.8336 27.5122 50.7056 27.3714 50.4496C27.269 50.2704 27.0898 50.2832 26.9106 50.2704C25.4642 50.1808 24.0178 50.0912 22.5842 50.0144C17.6434 49.7584 12.7154 49.5024 7.77455 49.2464C6.39215 49.1824 5.00975 49.144 3.62735 49.0672C3.25615 49.0416 2.51375 49.0672 2.42415 48.568C2.39855 48.4144 2.30895 48.2864 2.27055 48.1328C2.18095 47.8128 2.16815 47.4672 2.16815 47.1344C2.14255 46.3664 2.12975 45.5856 2.10415 44.8176C2.10415 44.6896 2.10415 44.5616 2.09135 44.4336C2.09135 44.344 2.06575 44.2928 2.02735 44.2288C1.93775 44.0368 2.01455 43.8192 2.14255 43.6656C2.30895 43.4608 2.53935 43.3712 2.78255 43.4736C3.57615 43.768 4.40815 43.704 5.21455 43.7552C9.00335 43.9728 12.805 44.1392 16.6066 44.3184C20.0626 44.4848 23.5058 44.664 26.9618 44.8432C28.1522 44.9072 28.613 45.3936 28.613 46.5968C28.613 47.0192 28.6386 47.4416 28.6642 47.928Z" fill="#4300BF" stroke="black" stroke-width="0.5" stroke-miterlimit="10"></path><path d="M17.6436 41.08C16.4788 41.0416 15.3012 40.9904 14.1492 40.824C13.4068 40.7088 12.69 40.5424 11.9476 40.44C11.154 40.3376 10.3348 40.3248 9.54122 40.312C8.32522 40.2864 7.08362 40.2736 5.90602 40.568C4.72842 40.8624 3.57642 41.5152 2.94922 42.5648C4.06282 43.384 5.52202 43.4864 6.90442 43.5632C7.74922 43.6144 8.59402 43.6528 9.43882 43.704C15.6724 44.0496 21.906 44.3952 28.1396 44.408C27.9476 43.8192 27.7556 43.2176 27.5508 42.6288C27.3716 42.104 27.1156 41.4896 26.5012 41.3616C26.2964 41.3232 26.0916 41.3616 25.8868 41.3744C25.5284 41.3744 25.1572 41.3488 24.7988 41.336C23.2756 41.2848 21.7396 41.2208 20.2164 41.1696C19.3588 41.144 18.5012 41.1056 17.6436 41.08Z" fill="#6B00FA" stroke="black" stroke-width="0.5" stroke-miterlimit="10"></path><path d="M31.8127 40.0048C32.0047 39.9024 32.2223 39.8 32.3375 39.6208C32.4527 39.4416 32.4655 39.224 32.4783 39.0192C32.5295 38.1744 32.5807 37.3424 32.6319 36.4976C32.6959 35.5504 32.7471 34.6032 32.7343 33.656C32.7215 32.76 32.6319 31.864 32.6831 30.9808C32.7343 30.1616 32.9007 29.3552 32.9903 28.536C33.3103 25.6432 32.6319 22.7248 32.7599 19.8192C32.8111 18.744 32.9775 17.6688 33.0415 16.5808C33.2335 13.6496 32.7215 10.6672 31.5695 7.9664C31.4671 7.736 31.3647 7.5056 31.1727 7.352C30.9167 7.1472 30.5711 7.1216 30.2895 6.9552C29.8927 6.712 29.7392 6.2256 29.5216 5.8032C28.9839 4.7536 27.9599 4.0368 26.8463 3.64C25.7327 3.2432 24.5551 3.128 23.3903 3.0128C22.5711 2.936 21.752 2.8592 20.9328 2.7696C20.536 2.7312 19.96 2.8592 20.024 3.256C21.2016 4.1392 22.5584 4.7792 23.7999 5.5728C25.0415 6.3664 26.2191 7.3776 26.8079 8.7344C27.0639 9.3104 27.1919 9.9376 27.3199 10.5648C27.7039 12.3568 28.0751 14.1488 28.1648 15.9792C28.2288 17.3104 28.1392 18.6544 28.0496 19.9984C27.9344 21.752 27.8576 23.5184 27.7807 25.272C27.7039 27.0256 27.6527 28.792 27.6271 30.5456C27.5887 32.312 27.576 34.0656 27.5887 35.8192C27.5887 36.7024 27.6015 37.5856 27.6143 38.456C27.6143 38.8912 27.6271 39.3392 27.6399 39.7744C27.6527 40.184 27.6144 40.632 27.6656 41.0544C27.7552 41.6816 28.4591 41.592 28.8943 41.4C29.6879 41.0544 30.4559 40.6448 31.2495 40.2608C31.3903 40.2096 31.6719 40.0048 31.8127 40.0048Z" fill="#4300BF" stroke="black" stroke-width="0.5" stroke-miterlimit="10"></path><path d="M28.4723 44.2544C28.5235 44.344 28.5875 44.4464 28.6899 44.4464C28.7539 44.4464 28.8179 44.408 28.8691 44.3824C29.4579 43.9856 29.9443 43.448 30.5843 43.1536C31.0195 42.9488 31.4931 42.872 31.9411 42.7184C32.5811 42.5008 33.1571 42.1296 33.7331 41.7712C33.9379 41.6432 34.1683 41.4512 34.1299 41.208C34.1171 41.1184 34.0659 41.0416 34.0147 40.9776C33.6947 40.5424 33.3107 40.1712 32.8755 39.864C32.7859 39.8 32.6963 39.7488 32.5939 39.736C32.4659 39.7232 32.3379 39.7872 32.2227 39.8384C31.2883 40.2992 30.3667 40.76 29.4451 41.2336C28.9843 41.464 28.5235 41.7072 28.0627 41.9376C27.6787 42.1296 27.3587 42.2704 27.6147 42.7312C27.9091 43.2432 28.2163 43.7424 28.4723 44.2544Z" fill="#100342" stroke="black" stroke-width="0.5" stroke-miterlimit="10"></path><path d="M28.8816 49.7584C28.8944 49.848 28.9072 49.9504 28.9584 50.0144C29.0992 50.168 29.3424 50.0784 29.5216 49.976C31.0704 49.1056 32.6192 48.2352 34.168 47.3648C34.3216 47.2752 34.488 47.1856 34.5904 47.032C34.6928 46.8656 34.7056 46.6608 34.7184 46.4688C34.7696 45.432 34.808 44.3952 34.8592 43.3456C34.872 43.0512 34.872 42.7312 34.7056 42.5008C34.5264 42.2448 34.1808 42.168 33.8736 42.2064C33.5664 42.2448 33.2848 42.3984 33.016 42.552C31.7744 43.2432 30.5328 43.9216 29.2912 44.6C28.8816 44.8304 28.3824 44.984 28.4208 45.5216C28.4592 46.1488 28.5616 46.776 28.6256 47.3904C28.664 47.7872 28.7152 48.1712 28.7536 48.568C28.792 48.9648 28.8816 49.3744 28.8816 49.7584Z" fill="#100342" stroke="black" stroke-width="0.5" stroke-miterlimit="10"></path><path d="M21.8669 9.592C22.1101 9.7968 22.0845 10.2192 21.8285 10.4112C21.5725 10.6032 21.1629 10.4752 21.0477 10.1808C20.9325 9.8864 21.1501 9.5152 21.4573 9.464C21.5981 9.4512 21.7517 9.4896 21.8669 9.592Z" fill="#4300BF"></path><path d="M23.9406 11.3968C23.9278 11.4608 23.915 11.512 23.915 11.576C23.9278 11.6912 24.0046 11.7808 24.107 11.8192C24.3758 11.96 24.7726 11.7552 24.811 11.448C24.8366 11.1408 24.5038 10.8464 24.2094 10.936C24.1838 10.9232 24.1454 10.9488 24.1326 10.9744C24.0174 11.1152 23.9918 11.2432 23.9406 11.3968Z" fill="#4300BF"></path><path d="M22.6739 13.2016C22.4819 13.2016 22.2899 13.2016 22.1107 13.2016C22.0595 13.2016 22.0083 13.2016 21.9699 13.24C21.9443 13.2656 21.9443 13.304 21.9315 13.3424C21.9059 13.496 21.8931 13.6368 21.8803 13.7904C21.8675 13.9696 21.8675 14.2 22.0211 14.2896C22.1235 14.3408 22.2387 14.328 22.3411 14.3536C22.4307 14.3792 22.5075 14.4304 22.5971 14.4176C22.7763 14.4176 22.8915 14.2256 22.9299 14.0464C22.9683 13.8544 22.9811 13.6624 22.8915 13.4832C22.8019 13.304 22.6227 13.176 22.4307 13.2016" fill="#4300BF"></path><path d="M31.3137 18.7696C31.1857 18.6416 31.0321 18.6544 30.8657 18.7056C30.712 18.7568 30.6224 18.9104 30.6352 19.064C30.6352 19.192 30.7248 19.32 30.8144 19.4096C30.9552 19.5504 31.2113 19.4224 31.3137 19.2944C31.4417 19.1664 31.4417 18.9232 31.3137 18.7696Z" fill="#6B00FA"></path><path d="M30.4181 20.92C30.4053 20.8432 30.3541 20.7152 30.2901 20.6512C30.2133 20.5744 30.0597 20.6128 29.9701 20.6512C29.8933 20.6896 29.8165 20.7408 29.7525 20.8048C29.7269 20.8304 29.7013 20.8432 29.6885 20.8816C29.6501 20.9456 29.6373 21.0096 29.6245 21.0864C29.6245 21.1248 29.5861 21.304 29.6245 21.3296C29.7781 21.432 29.9829 21.4576 30.1621 21.3808C30.3157 21.2912 30.4437 21.0992 30.4181 20.92Z" fill="#6B00FA"></path><path d="M8.36352 37.0992C8.12032 37.0992 7.88992 37.2144 7.77472 37.4192C7.65952 37.624 7.69792 37.9184 7.87712 38.072C8.06912 38.2384 8.69633 38.2256 8.87553 38.0592C9.05473 37.8928 8.81153 37.5984 8.70913 37.3552C8.55553 37.2656 8.38912 37.176 8.22272 37.0992" fill="#4300BF"></path><path d="M7.24962 32.8624C7.17282 33.0672 7.10882 33.272 7.07042 33.4896C7.05762 33.528 7.05762 33.5792 7.08322 33.6176C7.12162 33.6816 7.19842 33.6944 7.27522 33.7072C7.46722 33.72 7.68482 33.72 7.80002 33.5792C7.83842 33.5408 7.86402 33.4768 7.87682 33.4256C7.94082 33.2208 7.90242 32.9776 7.72322 32.8624C7.54402 32.7472 7.26242 32.8112 7.22402 33.016" fill="#4300BF"></path><path d="M10.1038 34.9616C10.0782 34.8976 10.027 34.7952 9.963 34.7696C9.9246 34.7568 9.8606 34.7696 9.8094 34.7696C9.7582 34.7696 9.7198 34.7696 9.6686 34.7696C9.6302 34.7696 9.5918 34.7696 9.5662 34.7824C9.515 34.808 9.4638 34.8848 9.4254 34.9232C9.3998 34.936 9.387 34.9488 9.3742 34.9744C9.3358 35.0384 9.323 35.128 9.323 35.2048C9.323 35.2304 9.323 35.4352 9.3486 35.4352C9.4766 35.4608 9.9246 35.4992 10.0526 35.5248C10.1294 35.5376 9.9118 35.5632 9.9758 35.512C10.0014 35.4864 10.027 35.4608 10.0526 35.4224C10.1166 35.2688 10.155 35.1024 10.1038 34.9616Z" fill="#4300BF"></path><path d="M22.648 48.7088C22.8912 48.888 23.288 48.8368 23.4544 48.5808C23.5823 48.3888 23.5567 48.1456 23.5184 47.9152C23.5056 47.8512 23.4928 47.7872 23.4544 47.7488C23.416 47.7104 23.352 47.6976 23.288 47.6976C23.1088 47.672 22.9552 47.6848 22.776 47.6848C22.7504 47.6848 22.7248 47.6848 22.6992 47.6848C22.6352 47.7104 22.5712 47.7616 22.52 47.8128C22.392 47.9408 22.3408 48.0944 22.3792 48.2736C22.4176 48.44 22.5072 48.6064 22.648 48.7088Z" fill="#6B00FA"></path><path d="M21.0223 46.2128C20.8431 46.2896 20.7535 46.5072 20.8175 46.6864C20.9199 46.776 21.0479 46.8528 21.1887 46.8656C21.3295 46.8784 21.4831 46.7888 21.5087 46.648C21.5343 46.5328 21.4703 46.4304 21.4063 46.328C21.3423 46.2256 21.2655 46.1232 21.1503 46.0848C21.0351 46.0592 20.8815 46.1616 20.9327 46.2768" fill="#6B00FA"></path><path d="M29.9953 37.3296C29.7905 37.2656 29.5601 37.3552 29.4193 37.5088C29.2785 37.6752 29.2145 37.8928 29.2017 38.0976C29.1889 38.2128 29.2017 38.328 29.2657 38.4176C29.3553 38.5328 29.5217 38.5456 29.6625 38.5072C29.9441 38.456 30.2001 38.2512 30.2769 37.9824C30.3537 37.7136 30.1745 37.368 29.8929 37.3296C30.0977 37.304 29.8545 37.1888 29.9953 37.3296Z" fill="#6B00FA"></path><path d="M30.9039 34.0912C30.6351 34.1424 30.3792 34.3344 30.3536 34.6032C30.328 34.872 30.6351 35.128 30.8783 35C31.1215 34.7696 31.0959 34.3216 30.8399 34.104" fill="#6B00FA"></path><path d="M22.4949 8.0304C22.3413 8.0688 22.2773 8.2736 22.3413 8.4144C22.4053 8.5552 22.5717 8.632 22.7381 8.632C22.8149 8.632 22.9045 8.6064 22.9429 8.5424C22.9557 8.504 22.9685 8.4656 22.9685 8.4272C22.9685 8.2864 22.9685 8.1328 22.9301 7.992C22.7893 7.9792 22.6485 7.9792 22.5077 8.0048" fill="#100342"></path><path d="M21.0866 10.296C20.9714 10.3088 20.8434 10.3216 20.741 10.3728C20.6386 10.424 20.549 10.5392 20.5618 10.6544C20.5746 10.808 20.741 10.9104 20.8818 10.9744C20.997 11.0256 21.1506 11.0768 21.253 10.9872C21.3554 10.8976 21.317 10.744 21.3938 10.6288C21.4194 10.5904 21.4578 10.552 21.4706 10.5008C21.4834 10.4112 21.381 10.3472 21.2914 10.3344C21.2018 10.3216 21.0994 10.3088 21.061 10.232" fill="#100342"></path><path d="M19.179 7.5312C19.0638 7.5952 18.9358 7.6848 18.8718 7.8C18.7438 8.0176 18.8462 8.3632 19.0894 8.4144C19.3326 8.4656 19.5502 8.248 19.6782 8.0304C19.691 8.0048 19.7038 7.9792 19.7038 7.9536C19.7038 7.928 19.6782 7.9024 19.6526 7.8896C19.5118 7.7872 19.371 7.6848 19.2302 7.5952C19.1918 7.5696 19.1278 7.544 19.1022 7.5952" fill="#100342"></path><path d="M9.31071 9.784C9.24671 9.9376 9.22111 10.1168 9.23391 10.296C9.34911 10.36 9.48992 10.3472 9.60512 10.296C9.72032 10.232 9.80992 10.1424 9.88672 10.0272C9.89952 10.0016 9.92512 9.976 9.92512 9.9376C9.92512 9.8864 9.89952 9.8352 9.86112 9.7968C9.78432 9.7072 9.68192 9.6432 9.56672 9.6304C9.45152 9.6176 9.32351 9.7072 9.31071 9.8096" fill="#100342"></path><path d="M8.73412 11.8704C8.63172 11.9216 8.61892 12.088 8.68292 12.1776C8.75972 12.2672 8.88772 12.3056 9.00292 12.2928C9.07972 12.28 9.16932 12.2544 9.19492 12.1904C9.24612 12.088 9.16932 11.9728 9.09252 11.896C9.01572 11.8064 8.90052 11.704 8.77252 11.7424" fill="#100342"></path><path d="M13.9183 5.2912C13.8671 5.4192 13.8671 5.5728 13.9055 5.7136C13.9695 5.816 14.1231 5.8416 14.2255 5.7776C14.3279 5.7136 14.3791 5.5856 14.3663 5.4576C14.3407 5.3168 14.1871 5.176 14.0591 5.24" fill="#100342"></path><path d="M25.1567 17.8096C25.0671 17.9632 25.1055 18.1936 25.2591 18.296C25.4127 18.3984 25.6431 18.3472 25.7327 18.1936C25.7839 18.1168 25.7839 18.0016 25.7583 17.912C25.7071 17.784 25.5663 17.6944 25.4255 17.6944C25.2847 17.6816 25.1439 17.7456 25.0415 17.8352C25.0927 17.848 25.1311 17.8736 25.1823 17.8864" fill="#100342"></path><path d="M24.3251 36.6128C24.3123 36.8048 24.2227 36.984 24.2227 37.176C24.2227 37.368 24.3507 37.5856 24.5427 37.5856C24.7091 37.5856 24.8243 37.432 24.9011 37.2912C24.9651 37.2016 25.0163 37.0992 25.0675 37.0096C25.1059 36.9584 25.1315 36.8944 25.1059 36.8304C25.0931 36.8048 25.0675 36.7792 25.0419 36.7664C24.8243 36.6256 24.5555 36.5616 24.2867 36.5744" fill="#100342"></path><path d="M24.3251 36.6128C24.3123 36.8048 24.2227 36.984 24.2227 37.176C24.2227 37.368 24.3507 37.5856 24.5427 37.5856C24.7091 37.5856 24.8243 37.432 24.9011 37.2912C24.9651 37.2016 25.0163 37.0992 25.0675 37.0096C25.1059 36.9584 25.1315 36.8944 25.1059 36.8304C25.0931 36.8048 25.0675 36.7792 25.0419 36.7664C24.8243 36.6256 24.5555 36.5616 24.2867 36.5744" stroke="black" stroke-width="0.5" stroke-miterlimit="10"></path><path d="M23.1987 34.3984C23.2627 34.5392 23.3651 34.68 23.5059 34.7184C23.7491 34.7952 24.0307 34.5008 23.9283 34.2704C23.8259 34.04 23.4163 34.0272 23.3139 34.2704" fill="#100641"></path><path d="M17.9758 37.8288C17.8862 38.0592 18.0782 38.3408 18.3214 38.3792C18.5646 38.4176 18.8078 38.2128 18.8718 37.9696C18.8846 37.9312 18.8846 37.88 18.859 37.8416C18.8334 37.8032 18.795 37.7904 18.7438 37.7776C18.539 37.7264 18.3214 37.6752 18.1166 37.6112C18.091 37.6752 18.0654 37.752 18.0526 37.816" fill="#100641"></path><path d="M8.41501 28.5872C8.38941 28.7024 8.35101 28.8176 8.37661 28.9328C8.38941 29.048 8.46621 29.1632 8.58141 29.1888C8.70941 29.2272 8.85021 29.1248 8.90142 28.9968C8.95262 28.8688 8.95261 28.728 8.93981 28.6C8.78621 28.5744 8.63261 28.5488 8.49181 28.5232" fill="#100342"></path><path d="M7.19882 45.8288C7.14762 45.9952 7.10922 46.2128 7.25002 46.328C7.40362 46.456 7.62122 46.3408 7.81322 46.3792C7.85162 46.2256 7.86442 46.0592 7.82602 45.9056C7.78762 45.752 7.67242 45.5984 7.51882 45.5728C7.36522 45.5344 7.18602 45.6624 7.19882 45.8288C7.22442 45.8288 7.27562 45.8288 7.31402 45.8288H7.19882Z" fill="#100641"></path><path d="M10.1172 46.9424C10.1172 47.1472 10.1172 47.3392 10.13 47.544C10.2708 47.5696 10.4244 47.5824 10.578 47.608C10.6164 47.608 10.6676 47.6208 10.706 47.5952C10.7444 47.5696 10.7572 47.5184 10.77 47.4672C10.8212 47.2496 10.8212 47.0064 10.6676 46.84C10.514 46.6864 10.1812 46.7248 10.1556 46.9424" fill="#100641"></path><path d="M23.3394 47.3008C23.1986 47.416 23.1218 47.6208 23.1986 47.7872C23.2754 47.9536 23.5058 48.0432 23.6594 47.928C23.7234 47.7872 23.7874 47.6336 23.7618 47.48C23.7362 47.3264 23.5314 47.2112 23.4034 47.3136" fill="#100641"></path><path d="M30.3541 47.3264C30.3285 47.4288 30.3157 47.544 30.3541 47.6464C30.3925 47.7488 30.5333 47.8128 30.6229 47.7488C30.6613 47.7232 30.6741 47.6848 30.6869 47.6464C30.7381 47.5312 30.7637 47.416 30.7509 47.3008C30.7381 47.1856 30.6485 47.0704 30.5333 47.0576C30.4181 47.0448 30.2901 47.16 30.3285 47.2624" fill="#100641"></path><path d="M29.6628 31.928C29.6372 32.0432 29.5988 32.1584 29.6244 32.2736C29.65 32.3888 29.7396 32.504 29.8548 32.4912C30.034 32.4912 30.1108 32.2736 30.1364 32.0944C30.162 31.9408 30.162 31.736 30.0212 31.672C29.8676 31.608 29.7268 31.7744 29.6372 31.9024" fill="#100641"></path><path d="M30.9557 12.6256C30.9301 12.7408 30.9173 12.8688 30.9686 12.9712C31.0198 13.0736 31.1606 13.1376 31.263 13.0736C31.3142 13.048 31.3398 12.9968 31.3654 12.9456C31.4038 12.8432 31.4422 12.7408 31.4166 12.6384C31.391 12.536 31.3142 12.4336 31.2118 12.4208C31.1094 12.408 30.9942 12.5104 31.0198 12.6128" fill="#100342"></path><path d="M30.251 14.3408C30.251 14.4816 30.251 14.6096 30.2638 14.7504C30.4558 14.776 30.6478 14.6352 30.6734 14.4432C30.699 14.2512 30.5454 14.0592 30.3534 14.0464C30.3662 14.136 30.3406 14.2256 30.3022 14.3024" fill="#100342"></path><path d="M31.941 14.6608C31.8898 14.8016 31.8514 14.9552 31.877 15.1088C31.9026 15.2624 32.0562 15.3904 32.197 15.3648C32.389 15.3264 32.4274 15.0576 32.4146 14.8528C32.4018 14.712 32.389 14.5456 32.2738 14.4688C32.1586 14.392 31.941 14.4816 31.9922 14.6096" fill="#100342"></path><path d="M12.1142 29.2272C12.3318 28.4592 11.9222 27.768 11.3334 27.0768C10.4246 26.0144 9.59258 24.9008 9.40058 23.416C8.97818 20.0624 10.847 16.7856 13.9318 15.5952C17.1702 14.3408 20.7542 15.4672 22.687 18.3344C23.5446 19.6016 23.9798 20.9968 23.9798 22.5328C23.9798 23.9408 23.5318 25.1568 22.5462 26.168C22.0726 26.6416 21.6758 27.192 21.1766 27.64C20.6518 28.1008 20.4598 28.6256 20.4982 29.2912C20.5238 29.816 20.4598 30.3408 20.4726 30.8656C20.4726 30.904 20.4726 30.9424 20.4726 30.968C20.4726 31.0192 20.4598 31.0576 20.4598 31.096C20.4598 31.1216 20.4598 31.3648 20.4726 31.3648C20.383 31.3648 20.2934 31.3648 20.2166 31.3776C20.1142 31.3776 20.0118 31.3904 19.9094 31.3776C19.7174 31.352 19.5382 31.352 19.3462 31.3392C19.3078 31.3392 19.2694 31.3392 19.2182 31.3264C19.1414 31.3264 19.0774 31.3136 19.0006 31.3136C18.975 31.3136 18.9494 31.3008 18.911 31.3008C18.8726 31.3008 18.8342 31.3008 18.7958 31.3008C18.655 31.3008 18.5014 31.3008 18.3478 31.3008C18.3478 31.224 18.335 31.1472 18.335 31.0704C18.3222 30.9168 18.3222 30.7632 18.3222 30.6096C18.3222 30.3152 18.3094 30.0208 18.3094 29.7264C18.3094 29.7136 18.3094 29.7008 18.2966 29.688C18.2838 29.6752 18.271 29.6752 18.2582 29.6752C17.951 29.6496 17.6438 29.6752 17.3366 29.7136C17.3366 29.8928 17.3366 30.072 17.3238 30.264C17.3238 30.3152 17.3238 30.3664 17.3238 30.4176C17.3238 30.4944 17.3238 30.5584 17.311 30.6352C17.311 30.6608 17.2982 30.6736 17.2982 30.6864C17.2854 30.712 17.2854 30.7504 17.2854 30.776C17.2726 30.9168 17.2726 31.0704 17.2982 31.2112C17.2086 31.2112 17.119 31.2112 17.0166 31.2112C16.9014 31.2112 16.7734 31.2112 16.6582 31.1856C16.5174 31.16 16.3638 31.1728 16.223 31.16C16.1718 31.16 16.1078 31.16 16.0566 31.1472C15.9158 31.1472 15.775 31.1216 15.6342 31.1216C15.5574 31.1216 15.4934 31.1216 15.4166 31.1216C15.4038 31.1216 15.2118 31.1344 15.199 31.1472C15.199 31.0192 15.2118 30.8784 15.2118 30.7504C15.2118 30.6864 15.2118 30.6224 15.2246 30.5456C15.2246 30.4816 15.2374 30.4176 15.2374 30.3536C15.2374 30.0976 15.2374 29.8416 15.2246 29.5728C14.8918 29.5088 14.5462 29.4832 14.2006 29.4832C14.1878 29.7776 14.175 30.072 14.1494 30.3664C14.1366 30.5072 14.1366 30.6608 14.1238 30.8144C14.1238 30.8528 14.1238 30.8912 14.1238 30.9296C14.1238 30.9552 14.1238 30.9808 14.111 30.9936C14.0982 31.0192 14.0342 31.0192 14.0086 31.0192C13.8294 31.032 13.6374 31.0192 13.4582 31.0064C13.3814 31.0064 13.2918 30.9936 13.215 30.9936C13.0102 30.9808 12.8054 30.9808 12.6006 30.968C12.5366 30.968 12.4598 30.9552 12.3958 30.9552C12.3574 30.9424 12.319 30.9296 12.2678 30.9296C12.255 30.9296 12.0502 30.9168 12.0502 30.9168C12.0502 30.904 12.0502 30.8912 12.0502 30.8784C12.0502 30.7376 12.0502 30.584 12.0502 30.4304C12.0502 30.3664 12.0374 30.3024 12.063 30.2384C12.0758 30.2128 12.063 30.1872 12.063 30.1616C12.063 30.0976 12.063 30.0336 12.063 29.9696C12.063 29.8032 12.0758 29.6496 12.0758 29.4832C12.1014 29.4832 12.1014 29.432 12.1142 29.2272ZM16.2614 26.872C16.3766 26.8848 16.4918 26.8848 16.607 26.8976C16.7862 26.9104 16.9782 26.9232 17.1574 26.9488C17.0934 26.7568 17.0294 26.5648 16.9526 26.3856C16.927 26.3088 16.8886 26.2448 16.863 26.1808C16.8374 26.1168 16.799 26.0656 16.7734 26.0016C16.7606 25.9888 16.7606 25.9632 16.7606 25.9504C16.7478 25.8864 16.7222 25.8352 16.7094 25.7712C16.6454 25.6176 16.5942 25.4512 16.5302 25.2848C16.5046 25.208 16.479 25.144 16.4406 25.0672C16.4406 25.08 16.415 25.1184 16.415 25.1184C16.4022 25.144 16.3766 25.1696 16.3638 25.1952C16.1974 25.4256 16.0438 25.656 15.903 25.8992C15.8262 26.0144 15.7622 26.1424 15.6854 26.2704C15.647 26.3344 15.6214 26.3984 15.583 26.4496C15.5702 26.4752 15.5574 26.5008 15.5446 26.5264C15.5318 26.5776 15.4806 26.6288 15.4422 26.68C15.391 26.744 15.3398 26.808 15.3014 26.8848C15.3014 26.8848 15.3398 26.8848 15.3526 26.8848C15.3654 26.8848 15.391 26.8848 15.4038 26.8848C15.4422 26.8848 15.4806 26.8848 15.519 26.8848C15.5958 26.8848 15.6598 26.8848 15.7366 26.872C15.7622 26.872 15.8006 26.8592 15.8262 26.8592C15.8646 26.8592 15.903 26.8592 15.9414 26.872C16.0182 26.872 16.0822 26.8848 16.159 26.8848C16.1974 26.8592 16.2358 26.8592 16.2614 26.872Z" fill="#E0E3BD" stroke="black" stroke-width="0.5" stroke-miterlimit="10"></path><path d="M11.8195 28.8688C12.0243 28.1136 11.6275 27.4352 11.0515 26.7568C10.1555 25.7072 9.3363 24.6192 9.1571 23.1728C8.7475 19.8832 10.5779 16.6832 13.5987 15.5184C16.7731 14.2896 20.2803 15.3904 22.1875 18.2064C23.0195 19.448 23.4547 20.8176 23.4675 22.3152C23.4675 23.6976 23.0323 24.888 22.0595 25.8736C21.5987 26.3472 21.2147 26.8848 20.7155 27.3072C20.2035 27.7552 20.0115 28.2672 20.0499 28.9328C20.0755 29.4448 20.0115 29.9568 20.0243 30.4688C20.0243 30.5072 20.0243 30.5328 20.0243 30.5712C20.0243 30.6096 20.0115 30.6608 20.0115 30.6992C20.0115 30.7248 20.0115 30.9552 20.0243 30.9552C19.9347 30.9552 19.8579 30.9552 19.7683 30.9552C19.6659 30.9552 19.5635 30.968 19.4611 30.9552C19.2819 30.9296 19.0899 30.9296 18.9107 30.9168C18.8723 30.9168 18.8339 30.9168 18.7955 30.904C18.7187 30.904 18.6547 30.8912 18.5779 30.8912C18.5523 30.8912 18.5267 30.8784 18.5011 30.8784C18.4627 30.8784 18.4243 30.8784 18.3859 30.8784C18.2451 30.8784 18.0915 30.8784 17.9507 30.8784C17.9507 30.8016 17.9379 30.7376 17.9379 30.6608C17.9251 30.5072 17.9251 30.3664 17.9251 30.2128C17.9251 29.9184 17.9123 29.6368 17.9123 29.3424C17.9123 29.3296 17.9123 29.3168 17.8995 29.304C17.8867 29.2912 17.8739 29.2912 17.8611 29.2912C17.5667 29.2656 17.2595 29.2912 16.9651 29.3296C16.9651 29.5088 16.9651 29.688 16.9523 29.8672C16.9523 29.9184 16.9523 29.9696 16.9523 30.0208C16.9523 30.0848 16.9523 30.1616 16.9395 30.2384C16.9395 30.264 16.9267 30.2768 16.9267 30.2896C16.9139 30.3152 16.9139 30.3536 16.9139 30.3792C16.9011 30.52 16.9011 30.6608 16.9267 30.8016C16.8371 30.8016 16.7475 30.8016 16.6579 30.8016C16.5427 30.8016 16.4275 30.8016 16.3123 30.776C16.1715 30.7504 16.0307 30.7632 15.8771 30.7504C15.8259 30.7504 15.7619 30.7504 15.7107 30.7376C15.5699 30.7376 15.4419 30.712 15.3011 30.712C15.2243 30.712 15.1603 30.712 15.0835 30.712C15.0707 30.712 14.8787 30.7248 14.8787 30.7376C14.8787 30.6096 14.8915 30.4816 14.8915 30.3408C14.8915 30.2768 14.8915 30.2128 14.9043 30.1488C14.9043 30.0848 14.9171 30.0208 14.9171 29.9568C14.9171 29.7008 14.9171 29.4448 14.9043 29.1888C14.5715 29.1376 14.2387 29.0992 13.9059 29.0992C13.8931 29.3936 13.8803 29.6752 13.8675 29.9696C13.8547 30.1104 13.8547 30.264 13.8419 30.4048C13.8419 30.4432 13.8419 30.4816 13.8419 30.52C13.8419 30.5456 13.8419 30.5712 13.8291 30.584C13.8163 30.6096 13.7523 30.6096 13.7267 30.6096C13.5475 30.6224 13.3683 30.6096 13.1891 30.5968C13.1123 30.5968 13.0227 30.584 12.9459 30.584C12.7411 30.5712 12.5363 30.5712 12.3443 30.5584C12.2803 30.5584 12.2163 30.5456 12.1395 30.5456C12.1011 30.5456 12.0627 30.52 12.0115 30.52C11.9987 30.52 11.8067 30.5072 11.8067 30.5072C11.8067 30.4944 11.8067 30.4816 11.8067 30.4688C11.8067 30.328 11.8067 30.1744 11.8067 30.0336C11.8067 29.9696 11.7939 29.9056 11.8195 29.8544C11.8323 29.8288 11.8195 29.8032 11.8195 29.7776C11.8195 29.7136 11.8195 29.6496 11.8195 29.5856C11.8195 29.432 11.8323 29.2656 11.8323 29.112C11.8067 29.112 11.8067 29.0736 11.8195 28.8688ZM15.8899 26.552C16.0051 26.5648 16.1203 26.5648 16.2227 26.5776C16.4019 26.5904 16.5811 26.6032 16.7603 26.6288C16.6963 26.4496 16.6451 26.2576 16.5683 26.0656C16.5427 25.9888 16.5043 25.9248 16.4787 25.8608C16.4531 25.7968 16.4147 25.7456 16.3891 25.6816C16.3763 25.6688 16.3763 25.6432 16.3763 25.6304C16.3635 25.5664 16.3379 25.5152 16.3251 25.4512C16.2611 25.2976 16.2099 25.1312 16.1459 24.9776C16.1203 24.9008 16.0947 24.8368 16.0563 24.76C16.0563 24.7728 16.0307 24.7984 16.0307 24.8112C16.0179 24.8368 15.9923 24.8624 15.9795 24.888C15.8259 25.1184 15.6723 25.3488 15.5315 25.5792C15.4547 25.6944 15.3907 25.8224 15.3267 25.9376C15.2883 26.0016 15.2627 26.0528 15.2243 26.1168C15.2115 26.1424 15.1987 26.168 15.1859 26.1936C15.1731 26.2448 15.1219 26.296 15.0835 26.3344C15.0323 26.3984 14.9939 26.4624 14.9427 26.5264C14.9427 26.5264 14.9811 26.5264 14.9939 26.5264C15.0067 26.5264 15.0323 26.5264 15.0451 26.5264C15.0835 26.5264 15.1219 26.5264 15.1603 26.5264C15.2371 26.5264 15.3011 26.5264 15.3779 26.5136C15.4035 26.5136 15.4419 26.5008 15.4675 26.5008C15.5059 26.5008 15.5443 26.5008 15.5827 26.5136C15.6595 26.5136 15.7235 26.5264 15.8003 26.5264C15.8259 26.552 15.8643 26.552 15.8899 26.552Z" fill="#E0E3BD" stroke="black" stroke-width="0.5" stroke-miterlimit="10"></path><path d="M20.8437 16.2608C18.5013 14.392 15.8517 14.0848 13.1125 15.3136C8.72211 17.2848 7.54451 23.1216 10.1813 26.0272C10.5525 26.4368 10.8341 26.9104 11.2181 27.32C11.5637 27.6912 11.6789 28.088 11.6533 28.5872C11.6149 29.2784 11.5509 29.9824 11.6533 30.7376L13.9061 30.84L13.9445 29.24L14.8149 29.2656V29.2784C14.8149 29.2912 14.8149 29.304 14.8149 29.3168C14.8149 29.3296 14.8149 29.3552 14.8149 29.368C14.8149 29.3936 14.8149 29.4192 14.8149 29.432C14.8149 29.4576 14.8149 29.4832 14.8149 29.5088C14.8149 29.5344 14.8149 29.5728 14.8149 29.5984C14.8149 29.6368 14.8149 29.6624 14.8149 29.7008C14.8149 29.7392 14.8149 29.7776 14.8149 29.816C14.8149 29.8544 14.8149 29.8928 14.8149 29.9312C14.8149 29.9696 14.8149 30.008 14.8149 30.0464C14.8149 30.0848 14.8149 30.1232 14.8149 30.1616C14.8149 30.2 14.8149 30.2384 14.8149 30.2768C14.8149 30.3152 14.8149 30.3408 14.8149 30.3792C14.8149 30.4048 14.8149 30.4432 14.8149 30.4816C14.8149 30.5072 14.8149 30.5456 14.8149 30.5712C14.8149 30.5968 14.8149 30.6224 14.8149 30.648C14.8149 30.6608 14.8149 30.6864 14.8149 30.712C14.8149 30.7248 14.8149 30.7376 14.8149 30.7504C14.8149 30.7888 14.8021 30.8272 14.8021 30.8784C14.8149 30.8784 14.8149 30.8784 14.8277 30.8784H14.8405H14.8533C14.8661 30.8784 14.8917 30.8784 14.9045 30.8784C14.9429 30.8784 14.9813 30.8784 15.0197 30.8784C15.1733 30.8784 15.3141 30.8912 15.4677 30.8912C15.6469 30.904 15.8389 30.904 16.0309 30.9168C16.1973 30.9296 16.3765 30.9296 16.5429 30.9424C16.6453 30.9424 16.7477 30.9552 16.8629 30.9552C16.8757 30.9552 16.8885 30.9552 16.9013 30.9552C16.9269 30.9552 16.9397 30.9552 16.9653 30.9424C16.9653 30.904 16.9781 30.8528 16.9781 30.8144V30.8016C16.9781 30.7888 16.9781 30.7632 16.9909 30.7504C16.9909 30.712 17.0037 30.6736 17.0037 30.648C17.0037 30.6224 17.0037 30.5968 17.0037 30.5712C17.0037 30.5456 17.0037 30.52 17.0037 30.5072C17.0037 30.4816 17.0037 30.4688 17.0037 30.4432C17.0037 30.4176 17.0037 30.392 17.0037 30.3664C17.0037 30.3408 17.0037 30.3024 17.0037 30.264C17.0037 30.2256 17.0037 30.1872 17.0037 30.1616C17.0037 30.1232 17.0037 30.0848 17.0037 30.0464C17.0037 30.008 17.0037 29.9696 17.0037 29.9312C17.0037 29.8928 17.0037 29.8544 17.0037 29.816C17.0037 29.7776 17.0037 29.7392 17.0037 29.7008C17.0037 29.6752 17.0037 29.6368 17.0037 29.5984C17.0037 29.5728 17.0037 29.5472 17.0037 29.5216C17.0037 29.496 17.0037 29.4832 17.0037 29.4576C17.0037 29.4448 17.0037 29.432 17.0037 29.4192V29.4064L17.8741 29.432L17.8357 31.0192C17.9765 31.0192 20.2037 31.1216 20.2037 31.1216C20.2037 30.6608 20.2037 30.2 20.2037 29.7264C20.2037 29.5088 20.2037 29.2912 20.2037 29.0736C20.2037 29.0096 20.2037 28.9456 20.1909 28.8944C20.1909 28.7408 20.1909 28.5872 20.2165 28.4464C20.2421 28.2928 20.2933 28.1264 20.3957 27.9984C20.4213 27.9728 20.4469 27.9344 20.4725 27.9088C20.5109 27.8704 20.5365 27.8448 20.5749 27.8064C20.6389 27.7424 20.7029 27.6656 20.7669 27.6016C20.8949 27.4608 21.0229 27.3328 21.1509 27.192C21.2789 27.0512 21.3941 26.9232 21.5221 26.7824C21.6501 26.6416 21.7653 26.5136 21.8805 26.3728C21.9957 26.232 22.1237 26.104 22.2389 25.9632C22.3541 25.8224 22.4693 25.6944 22.5845 25.5536C22.6485 25.4896 22.6997 25.4128 22.7637 25.3488C23.1989 24.8112 23.5061 24.2096 23.6085 23.5184C24.0693 20.5616 23.1605 18.104 20.8437 16.2608ZM13.5861 28.8176C13.5605 28.8176 13.5349 28.8176 13.4965 28.8176C13.4837 28.8176 13.4709 28.8176 13.4581 28.8176C13.4581 28.8816 13.4581 28.9456 13.4581 29.0096C13.4581 29.1376 13.4453 29.2784 13.4453 29.4064C13.4325 29.6752 13.4197 29.9568 13.4197 30.2256L12.2805 30.1744C12.2805 30.0592 12.2933 29.944 12.2933 29.8288C12.3061 29.5728 12.3189 29.3168 12.3189 29.048C12.3317 28.7792 12.3445 28.4976 12.3445 28.2288C12.3445 28.1264 12.3573 28.024 12.3573 27.9216C12.3573 27.8704 12.3445 27.8192 12.3445 27.7808C12.3445 27.7296 12.3317 27.6784 12.3317 27.6272C12.3317 27.6016 12.3189 27.5888 12.3189 27.5632C12.3061 27.5504 12.3061 27.5248 12.2933 27.512C12.2805 27.4736 12.2677 27.4352 12.2421 27.3968C12.2037 27.32 12.1653 27.2432 12.1269 27.1664C12.0885 27.0896 12.0373 27.0256 11.9861 26.9488C11.9605 26.9104 11.9221 26.8592 11.8837 26.8208C11.3461 26.168 10.8341 25.4896 10.3221 24.8112C9.59251 23.8128 9.46451 22.648 9.60531 21.4704C9.92531 18.8208 11.3077 16.9008 13.7781 15.9152C16.2229 14.9424 18.5397 15.352 20.4853 17.1056C22.4693 18.8848 23.1989 21.1504 22.5589 23.8C22.4053 24.4784 21.9701 24.9648 21.5349 25.4512C20.9973 26.0528 20.4469 26.6416 19.8965 27.2304C19.8709 27.256 19.8453 27.2688 19.8325 27.2944C19.8325 27.3072 19.8325 27.3072 19.8197 27.32C19.8069 27.3328 19.8069 27.3456 19.7941 27.3584C19.7813 27.384 19.7557 27.4096 19.7429 27.4352C19.7301 27.448 19.7301 27.4608 19.7173 27.4736C19.7045 27.4864 19.7045 27.4864 19.7045 27.4992C19.6789 27.5504 19.6533 27.6016 19.6277 27.6528C19.5765 27.768 19.5509 27.896 19.5253 28.024C19.5125 28.088 19.5125 28.152 19.5125 28.216C19.5125 28.2416 19.5125 28.28 19.5125 28.3056C19.5125 28.3184 19.5125 28.3312 19.5125 28.3568C19.5125 28.3824 19.5125 28.408 19.5125 28.4336C19.5125 28.472 19.5125 28.5232 19.5125 28.5616C19.5125 28.6384 19.5125 28.7024 19.5125 28.7792C19.5125 28.92 19.5125 29.0736 19.5125 29.2144C19.5125 29.3552 19.5125 29.5088 19.5125 29.6496C19.5125 29.7904 19.5125 29.944 19.5125 30.0848C19.5125 30.1616 19.5125 30.2256 19.5125 30.3024C19.5125 30.3408 19.5125 30.3792 19.5125 30.4176C19.5125 30.4304 19.5125 30.4432 19.5125 30.456V30.4688C19.4997 30.4816 19.4869 30.4688 19.4869 30.4688C19.4741 30.4688 19.4485 30.4688 19.4357 30.4688C19.3717 30.4688 19.2949 30.4688 19.2309 30.456C18.9493 30.4432 18.6677 30.4304 18.3861 30.4176C18.3989 30.1744 18.3989 29.9312 18.4117 29.7008C18.4117 29.624 18.4245 29.5344 18.4245 29.4576C18.4245 29.3552 18.4245 29.2656 18.4245 29.1632C18.4245 29.1248 18.4245 29.0992 18.4245 29.0608L18.2581 29.0352C18.1941 29.0224 18.1301 29.0096 18.0661 29.0096C17.9253 28.9968 17.7973 28.984 17.6565 28.9712C17.5157 28.9584 17.3749 28.9584 17.2341 28.9584C17.0933 28.9584 16.9525 28.9584 16.8117 28.9584C16.6965 28.9584 16.5685 28.9584 16.4533 28.9584L16.4021 30.4304L15.2629 30.3792L15.3141 28.9328C15.2501 28.92 15.1733 28.9072 15.1093 28.8944C14.9685 28.8688 14.8405 28.856 14.6997 28.8432C14.5589 28.8304 14.4181 28.8304 14.2773 28.8176C14.1365 28.8176 13.9957 28.8176 13.8549 28.8048C13.7909 28.8048 13.7141 28.8048 13.6501 28.8048" fill="black"></path><path d="M16.4281 24.5424C16.4153 24.5296 16.4153 24.504 16.4025 24.4912C16.3769 24.4528 16.3641 24.4016 16.3385 24.3632C16.3257 24.3376 16.3129 24.312 16.3001 24.2864C16.2873 24.2608 16.2745 24.248 16.2617 24.2224C16.2105 24.1456 16.1721 24.056 16.1209 23.9792C16.0953 23.9408 16.0825 23.9024 16.0569 23.8512C16.0569 23.8384 16.0441 23.8256 16.0441 23.8256C16.0441 23.8128 16.0313 23.8 16.0313 23.8C16.0185 23.8 16.0185 23.8 16.0185 23.8128C16.0185 23.8256 16.0057 23.8256 16.0057 23.8384C16.0057 23.8512 15.9929 23.864 15.9929 23.8768C15.9801 23.9024 15.9673 23.928 15.9545 23.9408C15.9033 24.0176 15.8521 24.1072 15.8137 24.184C15.7625 24.2608 15.7113 24.3504 15.6729 24.4272C15.6089 24.5296 15.5577 24.632 15.4937 24.7472C15.4681 24.7856 15.4553 24.824 15.4297 24.8496C15.4041 24.888 15.3785 24.9264 15.3657 24.9648C15.3401 25.0032 15.3145 25.0416 15.2889 25.0928C15.2633 25.1312 15.2377 25.1824 15.2121 25.2208C15.1865 25.272 15.1609 25.3104 15.1353 25.3616C15.1097 25.4128 15.0841 25.4512 15.0585 25.5024C15.0329 25.5536 15.0073 25.6048 14.9817 25.6432C14.9561 25.6944 14.9305 25.7456 14.9049 25.784C14.8793 25.8352 14.8537 25.8736 14.8281 25.9248C14.8025 25.976 14.7769 26.0144 14.7513 26.0656C14.7257 26.1168 14.7001 26.1552 14.6745 26.2064C14.6489 26.2448 14.6233 26.296 14.5977 26.3344C14.5721 26.3728 14.5465 26.4112 14.5337 26.4496C14.5081 26.488 14.4953 26.5264 14.4697 26.5648C14.4569 26.6032 14.4313 26.6288 14.4185 26.6672C14.4057 26.6928 14.3801 26.7184 14.3673 26.7568C14.3545 26.7824 14.3417 26.808 14.3289 26.8336C14.3161 26.8464 14.3033 26.872 14.3033 26.8848C14.2905 26.8976 14.2905 26.9104 14.2777 26.9232L14.2649 26.936H14.2777C14.3545 26.936 14.4185 26.936 14.4953 26.9488C14.5081 26.9488 14.5209 26.9488 14.5465 26.9488C14.5593 26.9488 14.5849 26.9488 14.5977 26.9488C14.6105 26.9488 14.6105 26.9488 14.6233 26.9488C14.6361 26.9488 14.6489 26.9488 14.6617 26.9488C14.6745 26.9488 14.6873 26.9488 14.7129 26.9488C14.7257 26.9488 14.7513 26.9488 14.7641 26.9488C14.7897 26.9488 14.8153 26.9488 14.8281 26.9488C14.8537 26.9488 14.8793 26.9488 14.9049 26.9488C14.9305 26.9488 14.9561 26.9488 14.9817 26.9488C15.0073 26.9488 15.0457 26.9488 15.0713 26.9488C15.0969 26.9488 15.1353 26.9488 15.1609 26.9488C15.1993 26.9488 15.2249 26.9488 15.2633 26.9488C15.3017 26.9488 15.3273 26.9488 15.3657 26.9488C15.4041 26.9488 15.4425 26.9488 15.4681 26.9488C15.5065 26.9488 15.5449 26.9488 15.5833 26.9488C15.6217 26.9488 15.6601 26.9488 15.6985 26.9488C15.7369 26.9488 15.7753 26.9488 15.8137 26.9488C15.8521 26.9488 15.8905 26.9488 15.9289 26.9488C15.9673 26.9488 16.0057 26.9488 16.0441 26.9488C16.0825 26.9488 16.1209 26.9488 16.1593 26.9488C16.1977 26.9488 16.2361 26.9488 16.2745 26.9488C16.3129 26.9488 16.3513 26.9488 16.3897 26.9488C16.4281 26.9488 16.4665 26.9488 16.4921 26.9488C16.5305 26.9488 16.5561 26.9488 16.5945 26.9488C16.6329 26.9488 16.6585 26.9488 16.6969 26.9488C16.7225 26.9488 16.7609 26.9488 16.7865 26.9488C16.8121 26.9488 16.8505 26.9488 16.8761 26.9488C16.9017 26.9488 16.9273 26.9488 16.9529 26.9488C16.9785 26.9488 17.0041 26.9488 17.0297 26.9488C17.0553 26.9488 17.0681 26.9488 17.0937 26.9488L17.5545 26.9616C17.5673 26.9616 17.5673 26.9616 17.5673 26.9616C17.5417 26.8848 17.5033 26.8208 17.4777 26.744C17.4009 26.5648 17.3241 26.3984 17.2473 26.2192C17.1449 26.0016 17.0553 25.7712 16.9529 25.5536C16.8633 25.3488 16.7737 25.1312 16.6841 24.9264C16.6201 24.7856 16.5689 24.6448 16.5049 24.5168C16.4537 24.5936 16.4409 24.568 16.4281 24.5424C16.4281 24.5552 16.4281 24.5552 16.4281 24.5424ZM15.1097 26.4752C15.4169 25.9504 15.6985 25.4768 16.0185 24.9264C16.2361 25.5152 16.4153 25.976 16.6329 26.5392C16.1081 26.5136 15.6729 26.488 15.1097 26.4752Z" fill="black"></path><path d="M7.85181 16.6064C7.85181 16.6704 7.86461 16.7216 7.86461 16.7728L7.85181 16.6064ZM7.85181 16.6064C7.85181 16.6704 7.86461 16.7216 7.86461 16.7728L7.85181 16.6064Z" fill="#E0E3BD"></path><path d="M7.85181 16.6064C7.85181 16.6704 7.86461 16.7216 7.86461 16.7728M7.85181 16.6064C7.85181 16.6704 7.86461 16.7216 7.86461 16.7728L7.85181 16.6064Z" stroke="black" stroke-width="2" stroke-miterlimit="10"></path><path d="M34.9491 41.0544C34.2963 40.5296 33.8099 39.8512 33.1955 39.2624C33.2339 38.6096 33.3107 38.0208 33.3107 37.432C33.2979 35.8192 33.4003 34.2064 33.2723 32.5936C33.1955 31.608 33.4643 30.6608 33.7331 29.7136C34.2579 27.9088 33.9635 26.0528 33.6947 24.2736C33.5027 23.0064 33.4771 21.7776 33.5667 20.5232C33.6563 19.4224 33.6691 18.3216 33.7587 17.2208C33.8739 15.6592 34.0147 14.1232 33.6179 12.5488C33.2723 11.2176 33.1955 9.8224 32.6579 8.5424C32.2355 7.544 32.2355 7.544 30.9299 5.816C29.7651 4.5872 29.5859 4.5744 28.5875 3.9728C27.8195 3.512 27.0643 3.0768 26.1299 2.9872C24.9395 2.872 23.8387 2.3472 22.6611 2.1552C20.6131 1.8224 18.5907 2.0016 16.5683 2.3088C13.8547 2.7312 11.1795 3.256 9.09305 5.3296C8.10745 6.3152 7.09625 7.2496 6.67385 8.6192C6.55865 9.0032 6.30265 9.336 6.11065 9.6816C5.22745 11.1792 5.43225 11.8576 5.30425 13.8032C5.38105 13.944 5.12505 14.7888 5.03545 15.0192C4.92025 16.3248 4.90745 15.4928 4.92025 16.056C4.95865 17.7584 4.97145 19.4608 4.98425 21.1504C4.99705 22.6864 5.06105 24.2224 4.77945 25.7328C4.47225 27.3328 4.49785 28.9456 4.48505 30.5584C4.48505 30.9168 4.49785 31.288 4.40825 31.6336C4.13945 32.8368 4.20345 34.04 4.26745 35.2432C4.35705 36.8816 4.28025 38.5072 4.47225 40.184C3.52505 40.9264 2.59065 41.6688 1.64345 42.3856C1.31065 42.6288 1.11865 42.8976 1.11865 43.3328C1.14425 45.1376 1.14425 46.9424 1.15705 48.7472C1.15705 49.2336 1.38745 49.5024 1.88665 49.5408C4.20345 49.6816 6.50745 49.8224 8.81145 49.976C11.8067 50.168 14.7891 50.3472 17.7843 50.5392C21.1763 50.7568 24.5683 50.9872 27.9603 51.2048C28.4211 51.2304 28.8435 51.128 29.2403 50.8848C31.0195 49.8096 32.8115 48.7344 34.6035 47.6848C35.0387 47.4288 35.2051 47.096 35.2051 46.5968C35.2179 45.0224 35.2563 43.448 35.2947 41.8864C35.2947 41.5664 35.2307 41.272 34.9491 41.0544ZM5.49625 32.9648C5.64985 31.8896 5.79065 30.8272 5.76505 29.7392C5.72665 28.3312 5.89305 26.9488 6.09785 25.5664C6.37945 23.6464 6.27705 21.7136 6.23865 19.7808C6.22585 19.0768 6.21305 18.3728 6.22585 17.6816C6.22585 17.5024 6.23865 17.3232 6.25145 17.144C6.26425 17.0416 6.27705 16.9392 6.27705 16.824C6.27705 16.7728 6.31545 16.7344 6.35385 16.696C6.40505 16.632 6.46905 16.568 6.52025 16.504C6.53305 16.4912 6.54585 16.4784 6.57145 16.4656C6.58425 16.4656 6.60985 16.4656 6.62265 16.4784C6.85305 16.5808 7.24985 16.952 7.26265 16.9776C7.26265 16.9904 7.72345 17.336 7.72345 17.3488C7.73625 17.3616 7.44185 18.0016 7.44185 18.0272C7.99225 18.0272 7.85145 17.848 8.29945 17.0416C8.32505 16.9904 7.85145 16.6704 7.85145 16.6064C7.77465 16.5296 7.74905 16.4272 7.71065 16.3376C7.67225 16.2224 7.60825 16.12 7.54425 16.0304C7.50585 15.9792 7.46745 15.9408 7.42905 15.8896C7.39065 15.8512 7.35225 15.8128 7.31385 15.7744C7.28825 15.7488 7.27545 15.7232 7.27545 15.6848C7.26265 15.6336 7.23705 15.5952 7.22425 15.544C7.17305 15.4288 7.12185 15.3008 7.08345 15.1728C6.99385 14.9296 6.91705 14.6736 6.84025 14.4176C6.76345 14.1616 6.68665 13.9056 6.59705 13.6496C6.54585 13.5088 6.49465 13.3808 6.44345 13.24C6.53305 12.0368 6.76345 10.8848 7.55705 9.912C7.73625 9.6816 7.85145 9.3872 7.94105 9.1184C8.29945 7.9408 9.09305 7.096 10.0019 6.3408C10.5651 5.8672 11.0771 5.304 11.7299 4.984C11.7427 4.9712 11.7939 5.0096 11.8067 5.0096C11.8323 5.0224 11.8579 5.0352 11.8835 5.048C11.9347 5.0864 11.9731 5.1248 11.9987 5.176C12.0499 5.24 12.0627 5.3296 12.1011 5.3936C12.1267 5.4576 12.1523 5.5344 12.1779 5.5984C12.2291 5.7392 12.2803 5.8672 12.3187 6.008C12.3315 6.0336 12.3315 6.0464 12.3443 6.0592C12.3443 6.072 12.3571 6.0848 12.3571 6.0848C12.3571 6.0848 12.3827 6.0976 12.3955 6.0976C12.4467 6.1104 12.4979 6.136 12.5491 6.1488C12.5619 6.1488 12.4979 6.4944 12.4979 6.52V6.584C12.4979 6.6352 12.4851 6.6992 12.4851 6.7504C12.4723 6.8656 12.4723 6.9808 12.4595 7.096C12.4595 7.1344 12.4467 7.1856 12.4595 7.224C12.4723 7.2624 12.4851 7.288 12.4979 7.3264C12.6003 7.5312 12.7155 7.736 12.8307 7.9408C12.8179 7.9152 12.8179 7.864 12.8051 7.8384C12.7923 7.8 12.7923 7.7744 12.7795 7.736C12.7667 7.672 12.7539 7.5952 12.7411 7.5312C12.7283 7.4416 12.7155 7.352 12.7027 7.2496C12.7027 7.2112 12.6899 7.1856 12.6899 7.1472C12.6899 7.1216 12.6771 7.1088 12.6899 7.0832C12.7027 7.0448 12.7155 7.0064 12.7411 6.9808C12.7539 6.9424 12.7795 6.904 12.7923 6.8656C12.7923 6.8656 12.8691 6.8784 12.8819 6.8912C12.9075 6.904 12.9331 6.9168 12.9587 6.9168C13.0355 6.9296 13.0995 6.9552 13.1635 6.9936C13.1891 7.0064 13.2147 7.0192 13.2403 7.0448C13.2531 7.0704 13.2659 7.096 13.2787 7.1216C13.3427 7.288 13.4067 7.4672 13.4835 7.6336C13.4963 7.6592 13.5091 7.6976 13.5347 7.7232C13.5603 7.7488 13.5859 7.7616 13.6115 7.7744C13.7779 7.8768 13.9571 7.9792 14.1235 8.0816C14.0467 7.9536 13.9315 7.8512 13.8291 7.7232C13.6755 7.5312 13.5731 7.3008 13.5347 7.0576C13.5219 7.0064 13.5219 6.9552 13.5219 6.904C13.3939 6.8144 13.2659 6.7376 13.1379 6.648C13.0867 6.6096 13.0227 6.584 12.9843 6.5456C12.9715 6.5328 12.9587 6.5072 12.9587 6.4816C12.9459 6.4432 12.9331 6.4176 12.9203 6.3792C12.8691 6.2384 12.8307 6.0976 12.7795 5.9696C12.7667 5.9312 12.7539 5.88 12.7155 5.8672C12.7027 5.8544 12.6771 5.8544 12.6515 5.8416C12.6131 5.816 12.6003 5.7648 12.5875 5.7264C12.5747 5.6752 12.5619 5.6112 12.5491 5.56C12.5363 5.5216 12.5235 5.4704 12.5235 5.4192V5.368C12.5107 5.2784 12.4851 5.1888 12.4851 5.0992C12.4723 4.8688 12.5235 4.6384 12.6515 4.4336C16.5555 3.8576 20.4979 3.384 23.9283 6.392V8.184C23.9283 8.2352 23.9283 8.2992 23.9027 8.3504C23.8899 8.3632 23.8899 8.376 23.8771 8.4016C23.8643 8.44 23.8515 8.4784 23.8259 8.504C23.7875 8.568 23.7491 8.632 23.6979 8.7088C23.6467 8.7856 23.5955 8.8624 23.5699 8.952C23.5827 8.9392 23.5955 8.9392 23.6083 8.9264L23.6467 8.888C23.6723 8.8624 23.7107 8.8368 23.7363 8.824C23.8003 8.7856 23.8515 8.7344 23.9027 8.6832C23.9283 8.6576 23.9411 8.632 23.9667 8.5936C23.9923 8.5552 24.0179 8.4912 24.0435 8.4528C24.0819 8.4144 24.1075 8.3504 24.1203 8.2864C24.1331 8.2608 24.1459 8.248 24.1459 8.2224C24.1587 8.1968 24.1587 8.1712 24.1715 8.1328C24.1843 8.0688 24.1971 8.0176 24.2099 7.9536C24.2611 7.6976 24.2739 7.4416 24.3123 7.1856C24.3251 7.0832 24.3507 6.9936 24.3763 6.8912C25.4387 7.7232 26.5395 8.4528 26.6931 9.912C26.8211 11.1408 27.0387 12.344 27.3843 13.5344C27.4867 13.88 27.5763 14.2384 27.5763 14.5968C27.5763 16.9904 27.6915 19.3712 27.3075 21.752C27.1027 23.0192 27.1155 24.3376 27.1027 25.6304C27.1027 27.0128 27.0259 28.3952 26.8979 29.7648C26.7699 31.1088 26.7699 32.44 27.1027 33.7456C27.2819 34.4368 27.1667 35.128 27.0899 35.832C26.9363 37.2016 26.8723 38.584 26.7827 39.9664C26.7571 40.2992 26.7699 40.6448 26.6291 41.0032C19.6659 40.6192 12.7155 40.2352 5.72665 39.8384C5.72665 39.8384 5.70105 39.6208 5.70105 39.608C5.68825 39.5184 5.67545 39.4288 5.66265 39.3392C5.63705 39.16 5.62425 38.9936 5.61145 38.8144C5.59865 38.6352 5.61145 38.4688 5.62425 38.3024V38.2384C5.62425 38.1744 5.63705 38.0976 5.64985 38.0464C5.66265 37.9824 5.67545 37.9056 5.68825 37.8416C5.72665 37.688 5.76505 37.5344 5.82905 37.3808C5.84185 37.3552 5.84185 37.3424 5.85465 37.3168C5.86745 37.304 5.89305 37.2912 5.91865 37.2784C6.25145 37.1504 6.57145 37.0224 6.90425 36.8944C6.94265 36.8816 6.95545 36.8304 6.98105 36.792C7.00665 36.7536 7.03225 36.7152 7.07065 36.6768C7.09625 36.6512 7.13465 36.6256 7.16025 36.6C7.21145 36.5488 7.23705 36.4848 7.26265 36.4208C7.31385 36.3184 7.36505 36.2032 7.40345 36.1008C7.42905 36.0496 7.45465 35.9984 7.46745 35.96C7.46745 35.9472 7.46745 35.9344 7.48025 35.9216C7.51865 35.8576 7.60825 35.8064 7.65945 35.768C7.77465 35.6784 7.87705 35.576 7.95385 35.4608C7.85145 35.512 7.77465 35.576 7.67225 35.64C7.63385 35.6656 7.58265 35.6912 7.53145 35.704C7.51865 35.704 7.50585 35.704 7.48025 35.7168C7.46745 35.7168 7.46745 35.7296 7.46745 35.7296C7.44185 35.7552 7.41625 35.7936 7.39065 35.832C7.33945 35.9088 7.28825 35.9856 7.23705 36.0624C7.17305 36.152 7.10905 36.2416 7.04505 36.344C6.98105 36.4464 6.94265 36.5488 6.84025 36.6C6.81465 36.6128 6.77625 36.6256 6.73785 36.6384C6.41785 36.7408 6.08505 36.856 5.76505 36.9584C5.70105 36.984 5.63705 36.9968 5.57305 37.048V36.92C5.58585 36.856 5.57305 36.792 5.58585 36.7408V36.4848C5.58585 36.3056 5.57305 36.1392 5.57305 35.96C5.56025 35.6144 5.53465 35.2688 5.52185 34.936C5.41945 34.296 5.40665 33.6304 5.49625 32.9648ZM5.21465 41.272C5.39385 41.1312 5.62425 41.1696 5.82905 41.1824C9.93785 41.4128 14.0467 41.6304 18.1555 41.8608C20.8435 42.0144 23.5315 42.168 26.2323 42.3088C26.3603 42.3216 26.4883 42.3472 26.6291 42.36C26.8851 42.872 27.0899 43.3968 27.2435 44.0368C19.3971 43.5248 11.6147 43.0256 3.69145 42.5136C4.22905 41.976 4.74105 41.6432 5.21465 41.272ZM27.6531 49.8352C27.0771 49.9248 26.5139 49.848 25.9891 49.784C25.9635 49.784 25.9379 49.7584 25.9251 49.7456C25.8995 49.7328 25.8867 49.72 25.8611 49.6944C25.8227 49.6688 25.7843 49.6304 25.7459 49.592C25.6691 49.5152 25.6179 49.4128 25.5411 49.336C25.5155 49.3104 25.4771 49.2848 25.4643 49.2592C25.4387 49.208 25.4259 49.1568 25.4131 49.1056C25.4131 49.0928 25.4131 49.08 25.4003 49.0544C25.3875 49.0416 25.3747 49.0288 25.3747 49.0032C25.3107 48.9264 25.2595 48.8496 25.2211 48.76C25.2083 48.7344 25.2083 48.696 25.2083 48.6704C25.2211 48.5936 25.1827 48.5168 25.1571 48.4528C25.1443 48.3888 25.1315 48.3376 25.1187 48.2736C25.1187 48.2608 25.1059 48.2352 25.0931 48.2224C25.0675 48.184 25.0291 48.1584 24.9907 48.1328C24.9011 48.0304 24.8115 47.9408 24.7219 47.8512C24.6835 47.8128 24.6451 47.7872 24.6067 47.7616C24.6323 47.7744 24.6451 47.8128 24.6707 47.8384C24.6835 47.864 24.7091 47.8896 24.7347 47.9152C24.7731 47.9664 24.8115 48.0176 24.8371 48.0944C24.8371 48.12 24.8627 48.1584 24.8755 48.184C24.9139 48.2608 24.9395 48.3248 24.9523 48.4016C24.9779 48.504 24.9907 48.6064 24.9907 48.7088C25.0035 48.7984 25.0035 48.9008 25.0163 48.9904C25.0163 48.9904 25.0803 49.016 25.0931 49.016C25.1059 49.0288 25.1059 49.0544 25.1059 49.08C25.1315 49.144 25.1699 49.208 25.2083 49.272C25.2211 49.2976 25.2339 49.3232 25.2467 49.3488V49.5664C25.2467 49.592 25.2467 49.6304 25.2339 49.656C25.2083 49.6944 25.1571 49.72 25.1699 49.7712C25.1187 49.7712 25.0419 49.784 24.9907 49.7712C24.9779 49.7712 24.9651 49.7712 24.9523 49.7584C24.8627 49.7456 24.7859 49.7456 24.6963 49.7456C24.5299 49.7328 24.3635 49.72 24.1971 49.72C22.7507 49.6304 21.3043 49.528 19.8579 49.4384C18.4115 49.3488 16.9651 49.2464 15.5187 49.1568C14.0723 49.0672 12.6259 48.9648 11.1795 48.8752C9.73305 48.7856 8.28665 48.6832 6.84025 48.5936C6.11065 48.5424 5.39385 48.504 4.66425 48.4528C4.30585 48.4272 3.93465 48.4016 3.57625 48.3888C3.39705 48.376 3.21785 48.3632 3.03865 48.3504C3.00025 48.3504 2.51385 48.3248 2.51385 48.312V47.0832L2.52665 47.0704C2.53945 47.0576 2.53945 47.0576 2.55225 47.0448C2.56505 47.0192 2.57785 47.0064 2.59065 46.9808C2.62905 46.9296 2.65465 46.8912 2.69305 46.84C2.73145 46.7888 2.78265 46.7376 2.82105 46.6864C2.83385 46.6608 2.84665 46.648 2.85945 46.6224C2.88505 46.5968 2.92345 46.5712 2.94905 46.5584C2.98745 46.5328 3.02585 46.52 3.06425 46.4944C3.14105 46.456 3.21785 46.4176 3.30745 46.392C3.37145 46.3664 3.43545 46.3536 3.49945 46.3664C3.55065 46.3792 3.60185 46.4048 3.64025 46.4432C3.78105 46.5456 3.93465 46.648 4.10105 46.6864C4.13945 46.6992 4.15225 46.6608 4.17785 46.648C4.24185 46.584 4.31865 46.5328 4.38265 46.4944C4.39545 46.4816 4.42105 46.4688 4.43385 46.4688C4.47225 46.4432 4.51065 46.4304 4.54905 46.4048C4.70265 46.3408 4.86905 46.328 5.03545 46.3152C4.92025 46.2768 4.79225 46.2512 4.65145 46.2384C4.57465 46.2384 4.49785 46.2384 4.43385 46.2768C4.42105 46.2896 4.40825 46.3024 4.40825 46.3024C4.39545 46.3152 4.36985 46.328 4.35705 46.3408L4.24185 46.4176C4.22905 46.4176 4.22905 46.4304 4.21625 46.4304C4.19065 46.4432 4.16505 46.456 4.15225 46.4816C4.13945 46.4944 4.10105 46.52 4.07545 46.52C4.06265 46.52 4.03705 46.5072 4.01145 46.4944C3.99865 46.4816 3.97305 46.4816 3.96025 46.4688C3.92185 46.4432 3.88345 46.4176 3.85785 46.4048C3.75545 46.328 3.65305 46.2256 3.55065 46.136C3.53785 46.1232 3.52505 46.1232 3.51225 46.1104H3.46105C3.42265 46.1232 3.38425 46.1232 3.34585 46.136C3.32025 46.136 3.30745 46.1488 3.28185 46.1488H3.24345C3.20505 46.1488 3.16665 46.1616 3.12825 46.1616C3.07705 46.1744 3.01305 46.1872 2.96185 46.2C2.79545 46.2384 2.64185 46.2768 2.47545 46.328V43.7552C10.8723 44.2928 19.2435 44.8432 27.6531 45.3808V49.8352ZM25.2595 5.9952L24.8883 5.4704H24.7219C24.6963 5.4704 24.6835 5.4448 24.6579 5.4448L24.2739 5.1376C24.0179 4.9328 23.7491 4.7408 23.4803 4.5616C22.9427 4.1904 22.3795 3.8448 21.7779 3.5632C21.5091 3.5376 21.2915 3.4096 20.9843 3.2176C21.3171 3.2688 21.5475 3.3072 21.7779 3.3456C22.5715 3.3328 23.3139 3.5888 24.0691 3.8192C24.6579 3.9984 25.2467 4.1904 25.8611 4.2416C26.7955 4.3056 27.5251 4.8048 28.2547 5.304C28.8307 5.7008 29.0227 6.3536 29.2019 6.968C29.3299 7.4416 28.8819 7.6464 28.6003 7.9152V7.9664C28.6003 7.992 28.6131 8.0176 28.6131 8.0432C28.6259 8.0944 28.6515 8.1328 28.6643 8.184C28.7155 8.2864 28.7667 8.376 28.8051 8.4784C28.8307 8.5296 28.8435 8.5808 28.8563 8.632C28.8691 8.6832 28.8819 8.7472 28.8691 8.7984C28.8691 8.824 28.8307 8.8496 28.8179 8.8624C28.7411 8.9648 28.6515 9.0672 28.5747 9.1568L29.1123 8.9776C29.1507 8.9392 29.1763 8.9008 29.2147 8.8752C29.2531 8.8496 29.2915 8.8112 29.3299 8.7856C29.2915 8.76 29.2915 8.7472 29.2915 8.7088C29.2787 8.6576 29.2659 8.5936 29.2531 8.5424C29.2403 8.4912 29.2275 8.44 29.2147 8.3888C29.2147 8.3632 29.2019 8.3376 29.2019 8.312C29.2019 8.2992 29.1763 8.248 29.1891 8.2352C29.3299 7.9536 29.6371 7.9024 29.7907 7.7232C30.7379 7.7872 31.2627 8.2864 31.5315 9.144C31.8771 10.232 31.9667 11.384 32.2867 12.472C32.8371 14.4176 32.4915 16.3376 32.3507 18.2704C32.2739 19.384 32.3891 20.5232 32.1715 21.624C32.0819 22.0464 31.9795 22.4432 31.6467 22.6864C31.5315 23.16 31.6339 23.5952 31.6083 24.0304C31.5571 24.1584 31.4419 24.2608 31.3395 24.3504C31.2499 24.44 31.1475 24.5168 31.0451 24.5936C31.0451 24.5936 31.0451 24.5936 31.0323 24.6064C30.9427 24.6704 30.8403 24.7344 30.7635 24.8112C30.7251 24.8496 30.6867 24.888 30.6483 24.9264C30.6099 24.9648 30.5587 24.9904 30.5075 25.0288C30.4179 25.08 30.3283 25.144 30.2387 25.208C30.2131 25.2336 30.1747 25.2464 30.1619 25.2848L30.1107 25.336C30.0979 25.3488 30.0723 25.3744 30.0595 25.3872C30.0467 25.4 30.0339 25.4128 30.0339 25.4256C30.0339 25.4384 30.0467 25.4384 30.0467 25.4512C30.1107 25.528 30.1363 25.6432 30.1875 25.7328C30.2003 25.7584 30.2259 25.784 30.2387 25.8224C30.2515 25.8352 30.2515 25.848 30.2515 25.8736C30.2771 25.9248 30.2899 25.976 30.2899 26.0272V26.104C30.2771 26.1552 30.3027 26.2064 30.2643 26.2448C30.2131 26.296 30.1491 26.3472 30.0979 26.3984C30.0723 26.424 30.0467 26.4496 30.0211 26.4624C29.9699 26.5136 29.9059 26.552 29.8547 26.6032C29.8419 26.616 29.8291 26.616 29.8291 26.6288C29.8163 26.6416 29.8163 26.6672 29.8291 26.6928C29.8675 26.9744 29.9059 27.2688 29.9443 27.5504C29.9443 27.5888 29.9571 27.64 29.9571 27.6912C29.9443 27.7296 29.9443 27.768 29.9443 27.8192C29.9443 27.9344 29.9571 28.0496 29.9699 28.152L30.2131 26.9616C30.3923 26.6288 30.8403 26.5648 30.9555 26.232C30.9555 25.9376 30.6867 25.8608 30.5971 25.6048C31.0707 25.2592 31.5571 24.9008 32.0947 24.504C32.1075 24.248 32.1331 23.9408 32.1459 23.6208C32.3251 23.6592 32.3507 23.8 32.3635 23.9152C32.4531 25.6432 32.8755 27.3712 32.5043 29.112C32.3763 29.7392 32.1587 30.3408 32.0819 30.968C31.8771 32.7344 32.1459 34.488 32.1075 36.2416C32.0819 37.1248 32.1971 38.0208 31.9027 38.9424C30.6227 39.608 29.3299 40.2096 27.9347 40.8752C27.9987 40.0944 28.0243 39.4032 28.1011 38.712C28.2163 37.5984 28.1651 36.4592 28.4083 35.3584C28.5107 34.8848 28.4723 34.3728 28.3571 33.8992C27.9603 32.3632 27.9731 30.8272 28.1651 29.2784C28.3699 27.5888 28.3187 25.8864 28.3443 24.184C28.3699 22.4816 28.6259 20.8048 28.7155 19.1024C28.8051 17.3232 28.9587 15.5312 28.6515 13.7776C28.4083 12.3824 28.0115 11.0128 27.8451 9.592C27.7171 8.5424 27.1923 7.672 26.3731 6.9936C26.0659 6.7376 25.7843 6.4688 25.4771 6.2C25.4003 6.136 25.3363 6.072 25.2595 5.9952C25.2467 5.9824 25.2339 5.9824 25.2339 5.9696C25.2083 5.944 25.2083 5.9184 25.1955 5.88L25.2595 5.9952ZM31.9923 40.9776C31.9923 40.9776 32.0051 40.9904 32.0179 40.9904C32.0307 40.9904 32.0307 40.9904 32.0435 41.0032C32.0691 41.0032 32.0819 41.016 32.0947 41.0288C32.1203 41.0544 32.1331 41.08 32.1459 41.1056C32.1459 41.144 32.1587 41.1824 32.1587 41.2336C32.1587 41.3232 32.1715 41.4256 32.1587 41.5152C32.1587 41.5664 32.1587 41.6048 32.1459 41.656V41.7072C32.1459 41.7328 32.1715 41.7328 32.1971 41.7456C32.2355 41.7584 32.2611 41.7968 32.2739 41.8224C32.2867 41.848 32.2995 41.8736 32.2867 41.8992C32.2867 41.9248 32.2739 41.9504 32.2611 41.9632C32.2355 42.0144 32.1971 42.04 32.1459 42.0656C32.0307 42.1168 31.9155 42.1808 31.8131 42.2448C30.7891 42.7824 29.7651 43.3328 28.6899 43.896C28.4083 43.3712 28.2163 42.8464 28.0243 42.2448C29.4451 41.5792 30.8531 40.9136 32.2739 40.2352C32.7475 40.5296 33.0419 40.9776 33.3875 41.3616C33.1955 41.5792 32.9523 41.6432 32.7091 41.7584C32.6835 41.7456 32.6579 41.7328 32.6323 41.72C32.6067 41.7072 32.5683 41.6816 32.5427 41.6688C32.5171 41.656 32.4915 41.6304 32.4531 41.6304C32.4147 41.6176 32.3635 41.592 32.3379 41.5664C32.3251 41.5536 32.3251 41.5408 32.3251 41.5152C32.3123 41.464 32.2995 41.4256 32.2995 41.3744C32.2867 41.3104 32.2739 41.2592 32.2483 41.1952C32.2355 41.144 32.2099 41.08 32.1971 41.0288L31.9283 40.9264L32.1971 41.0288L31.9923 40.9776ZM32.8627 44.4464V44.2544C32.8627 44.216 32.8627 44.1648 32.8883 44.1264C32.9011 44.1008 32.9011 44.088 32.9139 44.0752C32.9139 44.0624 32.9267 44.0624 32.9267 44.0496C32.9651 43.9856 33.0035 43.9216 33.0547 43.8576C33.2723 43.6016 33.4003 43.3072 33.3747 42.9488C33.5155 42.8464 33.6562 42.7312 33.8995 42.744C33.9891 43.9984 33.9251 45.304 33.8867 46.6352C32.2739 47.5952 30.6611 48.5552 28.9843 49.5408V45.2016C30.2899 44.5104 31.5827 43.832 32.8883 43.1536C32.9267 43.2048 32.9523 43.2688 32.9651 43.3328C32.9779 43.3712 32.9651 43.4224 32.9651 43.4608C32.9651 43.4864 32.9523 43.4992 32.9395 43.5248C32.9395 43.5376 32.9267 43.5504 32.9139 43.576C32.9011 43.5888 32.8755 43.6144 32.8627 43.6272C32.8371 43.64 32.8243 43.6656 32.7987 43.6912C32.7731 43.7168 32.7475 43.7552 32.7347 43.7808C32.7219 43.7936 32.7091 43.8064 32.7091 43.832C32.6963 43.8448 32.6835 43.8704 32.6835 43.896C32.6451 43.96 32.6067 44.0368 32.5555 44.1008C32.5299 44.1264 32.5043 44.1648 32.5043 44.2032C32.5043 44.216 32.5043 44.2288 32.5171 44.2416V44.7408C32.5171 44.8304 32.5299 44.9072 32.5299 44.9968C32.5299 45.0608 32.5171 45.1504 32.4787 45.2016L32.4403 45.24C32.4403 45.24 32.4275 45.2528 32.4275 45.2656C32.4275 45.2784 32.4147 45.2784 32.4019 45.2912C32.3123 45.3936 32.1971 45.4704 32.0819 45.5472C32.1587 45.5344 32.2355 45.5216 32.2995 45.4832C32.3507 45.4576 32.4019 45.4192 32.4659 45.3936C32.4787 45.3936 32.4915 45.368 32.5171 45.368C32.5171 45.368 32.5171 45.368 32.5299 45.368C32.5555 45.3296 32.5683 45.2912 32.5939 45.24C32.6067 45.2272 32.6067 45.2016 32.6195 45.176C32.6323 45.1504 32.6323 45.1376 32.6451 45.112C32.6451 45.0992 32.6579 45.0864 32.6579 45.0736C32.6707 45.0224 32.6835 44.9712 32.7091 44.92C32.7219 44.8944 32.7219 44.8688 32.7347 44.8432C32.7347 44.8304 32.7475 44.8176 32.7475 44.792C32.7475 44.7664 32.7475 44.7408 32.7603 44.728C32.7603 44.7024 32.7731 44.6768 32.7987 44.664C32.8115 44.664 32.8115 44.664 32.8243 44.664L32.8627 44.4464Z" fill="#E0E3BD"></path><path d="M25.2595 5.9952L24.8883 5.4704H24.7219C24.6963 5.4704 24.6835 5.4448 24.6579 5.4448L24.2739 5.1376C24.0179 4.9328 23.7491 4.7408 23.4803 4.5616C22.9427 4.1904 22.3795 3.8448 21.7779 3.5632C21.5091 3.5376 21.2915 3.4096 20.9843 3.2176C21.3171 3.2688 21.5475 3.3072 21.7779 3.3456C22.5715 3.3328 23.3139 3.5888 24.0691 3.8192C24.6579 3.9984 25.2467 4.1904 25.8611 4.2416C26.7955 4.3056 27.5251 4.8048 28.2547 5.304C28.8307 5.7008 29.0227 6.3536 29.2019 6.968C29.3299 7.4416 28.8819 7.6464 28.6003 7.9152V7.9664C28.6003 7.992 28.6131 8.0176 28.6131 8.0432C28.6259 8.0944 28.6515 8.1328 28.6643 8.184C28.7155 8.2864 28.7667 8.376 28.8051 8.4784C28.8307 8.5296 28.8435 8.5808 28.8563 8.632C28.8691 8.6832 28.8819 8.7472 28.8691 8.7984C28.8691 8.824 28.8307 8.8496 28.8179 8.8624C28.7411 8.9648 28.6515 9.0672 28.5747 9.1568L29.1123 8.9776C29.1507 8.9392 29.1763 8.9008 29.2147 8.8752C29.2531 8.8496 29.2915 8.8112 29.3299 8.7856C29.2915 8.76 29.2915 8.7472 29.2915 8.7088C29.2787 8.6576 29.2659 8.5936 29.2531 8.5424C29.2403 8.4912 29.2275 8.44 29.2147 8.3888C29.2147 8.3632 29.2019 8.3376 29.2019 8.312C29.2019 8.2992 29.1763 8.248 29.1891 8.2352C29.3299 7.9536 29.6371 7.9024 29.7907 7.7232C30.7379 7.7872 31.2627 8.2864 31.5315 9.144C31.8771 10.232 31.9667 11.384 32.2867 12.472C32.8371 14.4176 32.4915 16.3376 32.3507 18.2704C32.2739 19.384 32.3891 20.5232 32.1715 21.624C32.0819 22.0464 31.9795 22.4432 31.6467 22.6864C31.5315 23.16 31.6339 23.5952 31.6083 24.0304C31.5571 24.1584 31.4419 24.2608 31.3395 24.3504C31.2499 24.44 31.1475 24.5168 31.0451 24.5936C31.0451 24.5936 31.0451 24.5936 31.0323 24.6064C30.9427 24.6704 30.8403 24.7344 30.7635 24.8112C30.7251 24.8496 30.6867 24.888 30.6483 24.9264C30.6099 24.9648 30.5587 24.9904 30.5075 25.0288C30.4179 25.08 30.3283 25.144 30.2387 25.208C30.2131 25.2336 30.1747 25.2464 30.1619 25.2848L30.1107 25.336C30.0979 25.3488 30.0723 25.3744 30.0595 25.3872C30.0467 25.4 30.0339 25.4128 30.0339 25.4256C30.0339 25.4384 30.0467 25.4384 30.0467 25.4512C30.1107 25.528 30.1363 25.6432 30.1875 25.7328C30.2003 25.7584 30.2259 25.784 30.2387 25.8224C30.2515 25.8352 30.2515 25.848 30.2515 25.8736C30.2771 25.9248 30.2899 25.976 30.2899 26.0272V26.104C30.2771 26.1552 30.3027 26.2064 30.2643 26.2448C30.2131 26.296 30.1491 26.3472 30.0979 26.3984C30.0723 26.424 30.0467 26.4496 30.0211 26.4624C29.9699 26.5136 29.9059 26.552 29.8547 26.6032C29.8419 26.616 29.8291 26.616 29.8291 26.6288C29.8163 26.6416 29.8163 26.6672 29.8291 26.6928C29.8675 26.9744 29.9059 27.2688 29.9443 27.5504C29.9443 27.5888 29.9571 27.64 29.9571 27.6912C29.9443 27.7296 29.9443 27.768 29.9443 27.8192C29.9443 27.9344 29.9571 28.0496 29.9699 28.152L30.2131 26.9616C30.3923 26.6288 30.8403 26.5648 30.9555 26.232C30.9555 25.9376 30.6867 25.8608 30.5971 25.6048C31.0707 25.2592 31.5571 24.9008 32.0947 24.504C32.1075 24.248 32.1331 23.9408 32.1459 23.6208C32.3251 23.6592 32.3507 23.8 32.3635 23.9152C32.4531 25.6432 32.8755 27.3712 32.5043 29.112C32.3763 29.7392 32.1587 30.3408 32.0819 30.968C31.8771 32.7344 32.1459 34.488 32.1075 36.2416C32.0819 37.1248 32.1971 38.0208 31.9027 38.9424C30.6227 39.608 29.3299 40.2096 27.9347 40.8752C27.9987 40.0944 28.0243 39.4032 28.1011 38.712C28.2163 37.5984 28.1651 36.4592 28.4083 35.3584C28.5107 34.8848 28.4723 34.3728 28.3571 33.8992C27.9603 32.3632 27.9731 30.8272 28.1651 29.2784C28.3699 27.5888 28.3187 25.8864 28.3443 24.184C28.3699 22.4816 28.6259 20.8048 28.7155 19.1024C28.8051 17.3232 28.9587 15.5312 28.6515 13.7776C28.4083 12.3824 28.0115 11.0128 27.8451 9.592C27.7171 8.5424 27.1923 7.672 26.3731 6.9936C26.0659 6.7376 25.7843 6.4688 25.4771 6.2C25.4003 6.136 25.3363 6.072 25.2595 5.9952ZM25.2595 5.9952C25.2467 5.9824 25.2339 5.9824 25.2339 5.9696C25.2083 5.944 25.2083 5.9184 25.1955 5.88L25.2595 5.9952ZM34.9491 41.0544C34.2963 40.5296 33.8099 39.8512 33.1955 39.2624C33.2339 38.6096 33.3107 38.0208 33.3107 37.432C33.2979 35.8192 33.4003 34.2064 33.2723 32.5936C33.1955 31.608 33.4643 30.6608 33.7331 29.7136C34.2579 27.9088 33.9635 26.0528 33.6947 24.2736C33.5027 23.0064 33.4771 21.7776 33.5667 20.5232C33.6563 19.4224 33.6691 18.3216 33.7587 17.2208C33.8739 15.6592 34.0147 14.1232 33.6179 12.5488C33.2723 11.2176 33.1955 9.8224 32.6579 8.5424C32.2355 7.544 32.2355 7.544 30.9299 5.816C29.7651 4.5872 29.5859 4.5744 28.5875 3.9728C27.8195 3.512 27.0643 3.0768 26.1299 2.9872C24.9395 2.872 23.8387 2.3472 22.6611 2.1552C20.6131 1.8224 18.5907 2.0016 16.5683 2.3088C13.8547 2.7312 11.1795 3.256 9.09305 5.3296C8.10745 6.3152 7.09625 7.2496 6.67385 8.6192C6.55865 9.0032 6.30265 9.336 6.11065 9.6816C5.22745 11.1792 5.43225 11.8576 5.30425 13.8032C5.38105 13.944 5.12505 14.7888 5.03545 15.0192C4.92025 16.3248 4.90745 15.4928 4.92025 16.056C4.95865 17.7584 4.97145 19.4608 4.98425 21.1504C4.99705 22.6864 5.06105 24.2224 4.77945 25.7328C4.47225 27.3328 4.49785 28.9456 4.48505 30.5584C4.48505 30.9168 4.49785 31.288 4.40825 31.6336C4.13945 32.8368 4.20345 34.04 4.26745 35.2432C4.35705 36.8816 4.28025 38.5072 4.47225 40.184C3.52505 40.9264 2.59065 41.6688 1.64345 42.3856C1.31065 42.6288 1.11865 42.8976 1.11865 43.3328C1.14425 45.1376 1.14425 46.9424 1.15705 48.7472C1.15705 49.2336 1.38745 49.5024 1.88665 49.5408C4.20345 49.6816 6.50745 49.8224 8.81145 49.976C11.8067 50.168 14.7891 50.3472 17.7843 50.5392C21.1763 50.7568 24.5683 50.9872 27.9603 51.2048C28.4211 51.2304 28.8435 51.128 29.2403 50.8848C31.0195 49.8096 32.8115 48.7344 34.6035 47.6848C35.0387 47.4288 35.2051 47.096 35.2051 46.5968C35.2179 45.0224 35.2563 43.448 35.2947 41.8864C35.2947 41.5664 35.2307 41.272 34.9491 41.0544ZM5.49625 32.9648C5.64985 31.8896 5.79065 30.8272 5.76505 29.7392C5.72665 28.3312 5.89305 26.9488 6.09785 25.5664C6.37945 23.6464 6.27705 21.7136 6.23865 19.7808C6.22585 19.0768 6.21305 18.3728 6.22585 17.6816C6.22585 17.5024 6.23865 17.3232 6.25145 17.144C6.26425 17.0416 6.27705 16.9392 6.27705 16.824C6.27705 16.7728 6.31545 16.7344 6.35385 16.696C6.40505 16.632 6.46905 16.568 6.52025 16.504C6.53305 16.4912 6.54585 16.4784 6.57145 16.4656C6.58425 16.4656 6.60985 16.4656 6.62265 16.4784C6.85305 16.5808 7.24985 16.952 7.26265 16.9776C7.26265 16.9904 7.72345 17.336 7.72345 17.3488C7.73625 17.3616 7.44185 18.0016 7.44185 18.0272C7.99225 18.0272 7.85145 17.848 8.29945 17.0416C8.32505 16.9904 7.85145 16.6704 7.85145 16.6064C7.77465 16.5296 7.74905 16.4272 7.71065 16.3376C7.67225 16.2224 7.60825 16.12 7.54425 16.0304C7.50585 15.9792 7.46745 15.9408 7.42905 15.8896C7.39065 15.8512 7.35225 15.8128 7.31385 15.7744C7.28825 15.7488 7.27545 15.7232 7.27545 15.6848C7.26265 15.6336 7.23705 15.5952 7.22425 15.544C7.17305 15.4288 7.12185 15.3008 7.08345 15.1728C6.99385 14.9296 6.91705 14.6736 6.84025 14.4176C6.76345 14.1616 6.68665 13.9056 6.59705 13.6496C6.54585 13.5088 6.49465 13.3808 6.44345 13.24C6.53305 12.0368 6.76345 10.8848 7.55705 9.912C7.73625 9.6816 7.85145 9.3872 7.94105 9.1184C8.29945 7.9408 9.09305 7.096 10.0019 6.3408C10.5651 5.8672 11.0771 5.304 11.7299 4.984C11.7427 4.9712 11.7939 5.0096 11.8067 5.0096C11.8323 5.0224 11.8579 5.0352 11.8835 5.048C11.9347 5.0864 11.9731 5.1248 11.9987 5.176C12.0499 5.24 12.0627 5.3296 12.1011 5.3936C12.1267 5.4576 12.1523 5.5344 12.1779 5.5984C12.2291 5.7392 12.2803 5.8672 12.3187 6.008C12.3315 6.0336 12.3315 6.0464 12.3443 6.0592C12.3443 6.072 12.3571 6.0848 12.3571 6.0848C12.3571 6.0848 12.3827 6.0976 12.3955 6.0976C12.4467 6.1104 12.4979 6.136 12.5491 6.1488C12.5619 6.1488 12.4979 6.4944 12.4979 6.52V6.584C12.4979 6.6352 12.4851 6.6992 12.4851 6.7504C12.4723 6.8656 12.4723 6.9808 12.4595 7.096C12.4595 7.1344 12.4467 7.1856 12.4595 7.224C12.4723 7.2624 12.4851 7.288 12.4979 7.3264C12.6003 7.5312 12.7155 7.736 12.8307 7.9408C12.8179 7.9152 12.8179 7.864 12.8051 7.8384C12.7923 7.8 12.7923 7.7744 12.7795 7.736C12.7667 7.672 12.7539 7.5952 12.7411 7.5312C12.7283 7.4416 12.7155 7.352 12.7027 7.2496C12.7027 7.2112 12.6899 7.1856 12.6899 7.1472C12.6899 7.1216 12.6771 7.1088 12.6899 7.0832C12.7027 7.0448 12.7155 7.0064 12.7411 6.9808C12.7539 6.9424 12.7795 6.904 12.7923 6.8656C12.7923 6.8656 12.8691 6.8784 12.8819 6.8912C12.9075 6.904 12.9331 6.9168 12.9587 6.9168C13.0355 6.9296 13.0995 6.9552 13.1635 6.9936C13.1891 7.0064 13.2147 7.0192 13.2403 7.0448C13.2531 7.0704 13.2659 7.096 13.2787 7.1216C13.3427 7.288 13.4067 7.4672 13.4835 7.6336C13.4963 7.6592 13.5091 7.6976 13.5347 7.7232C13.5603 7.7488 13.5859 7.7616 13.6115 7.7744C13.7779 7.8768 13.9571 7.9792 14.1235 8.0816C14.0467 7.9536 13.9315 7.8512 13.8291 7.7232C13.6755 7.5312 13.5731 7.3008 13.5347 7.0576C13.5219 7.0064 13.5219 6.9552 13.5219 6.904C13.3939 6.8144 13.2659 6.7376 13.1379 6.648C13.0867 6.6096 13.0227 6.584 12.9843 6.5456C12.9715 6.5328 12.9587 6.5072 12.9587 6.4816C12.9459 6.4432 12.9331 6.4176 12.9203 6.3792C12.8691 6.2384 12.8307 6.0976 12.7795 5.9696C12.7667 5.9312 12.7539 5.88 12.7155 5.8672C12.7027 5.8544 12.6771 5.8544 12.6515 5.8416C12.6131 5.816 12.6003 5.7648 12.5875 5.7264C12.5747 5.6752 12.5619 5.6112 12.5491 5.56C12.5363 5.5216 12.5235 5.4704 12.5235 5.4192V5.368C12.5107 5.2784 12.4851 5.1888 12.4851 5.0992C12.4723 4.8688 12.5235 4.6384 12.6515 4.4336C16.5555 3.8576 20.4979 3.384 23.9283 6.392V8.184C23.9283 8.2352 23.9283 8.2992 23.9027 8.3504C23.8899 8.3632 23.8899 8.376 23.8771 8.4016C23.8643 8.44 23.8515 8.4784 23.8259 8.504C23.7875 8.568 23.7491 8.632 23.6979 8.7088C23.6467 8.7856 23.5955 8.8624 23.5699 8.952C23.5827 8.9392 23.5955 8.9392 23.6083 8.9264L23.6467 8.888C23.6723 8.8624 23.7107 8.8368 23.7363 8.824C23.8003 8.7856 23.8515 8.7344 23.9027 8.6832C23.9283 8.6576 23.9411 8.632 23.9667 8.5936C23.9923 8.5552 24.0179 8.4912 24.0435 8.4528C24.0819 8.4144 24.1075 8.3504 24.1203 8.2864C24.1331 8.2608 24.1459 8.248 24.1459 8.2224C24.1587 8.1968 24.1587 8.1712 24.1715 8.1328C24.1843 8.0688 24.1971 8.0176 24.2099 7.9536C24.2611 7.6976 24.2739 7.4416 24.3123 7.1856C24.3251 7.0832 24.3507 6.9936 24.3763 6.8912C25.4387 7.7232 26.5395 8.4528 26.6931 9.912C26.8211 11.1408 27.0387 12.344 27.3843 13.5344C27.4867 13.88 27.5763 14.2384 27.5763 14.5968C27.5763 16.9904 27.6915 19.3712 27.3075 21.752C27.1027 23.0192 27.1155 24.3376 27.1027 25.6304C27.1027 27.0128 27.0259 28.3952 26.8979 29.7648C26.7699 31.1088 26.7699 32.44 27.1027 33.7456C27.2819 34.4368 27.1667 35.128 27.0899 35.832C26.9363 37.2016 26.8723 38.584 26.7827 39.9664C26.7571 40.2992 26.7699 40.6448 26.6291 41.0032C19.6659 40.6192 12.7155 40.2352 5.72665 39.8384C5.72665 39.8384 5.70105 39.6208 5.70105 39.608C5.68825 39.5184 5.67545 39.4288 5.66265 39.3392C5.63705 39.16 5.62425 38.9936 5.61145 38.8144C5.59865 38.6352 5.61145 38.4688 5.62425 38.3024V38.2384C5.62425 38.1744 5.63705 38.0976 5.64985 38.0464C5.66265 37.9824 5.67545 37.9056 5.68825 37.8416C5.72665 37.688 5.76505 37.5344 5.82905 37.3808C5.84185 37.3552 5.84185 37.3424 5.85465 37.3168C5.86745 37.304 5.89305 37.2912 5.91865 37.2784C6.25145 37.1504 6.57145 37.0224 6.90425 36.8944C6.94265 36.8816 6.95545 36.8304 6.98105 36.792C7.00665 36.7536 7.03225 36.7152 7.07065 36.6768C7.09625 36.6512 7.13465 36.6256 7.16025 36.6C7.21145 36.5488 7.23705 36.4848 7.26265 36.4208C7.31385 36.3184 7.36505 36.2032 7.40345 36.1008C7.42905 36.0496 7.45465 35.9984 7.46745 35.96C7.46745 35.9472 7.46745 35.9344 7.48025 35.9216C7.51865 35.8576 7.60825 35.8064 7.65945 35.768C7.77465 35.6784 7.87705 35.576 7.95385 35.4608C7.85145 35.512 7.77465 35.576 7.67225 35.64C7.63385 35.6656 7.58265 35.6912 7.53145 35.704C7.51865 35.704 7.50585 35.704 7.48025 35.7168C7.46745 35.7168 7.46745 35.7296 7.46745 35.7296C7.44185 35.7552 7.41625 35.7936 7.39065 35.832C7.33945 35.9088 7.28825 35.9856 7.23705 36.0624C7.17305 36.152 7.10905 36.2416 7.04505 36.344C6.98105 36.4464 6.94265 36.5488 6.84025 36.6C6.81465 36.6128 6.77625 36.6256 6.73785 36.6384C6.41785 36.7408 6.08505 36.856 5.76505 36.9584C5.70105 36.984 5.63705 36.9968 5.57305 37.048V36.92C5.58585 36.856 5.57305 36.792 5.58585 36.7408V36.4848C5.58585 36.3056 5.57305 36.1392 5.57305 35.96C5.56025 35.6144 5.53465 35.2688 5.52185 34.936C5.41945 34.296 5.40665 33.6304 5.49625 32.9648ZM5.21465 41.272C5.39385 41.1312 5.62425 41.1696 5.82905 41.1824C9.93785 41.4128 14.0467 41.6304 18.1555 41.8608C20.8435 42.0144 23.5315 42.168 26.2323 42.3088C26.3603 42.3216 26.4883 42.3472 26.6291 42.36C26.8851 42.872 27.0899 43.3968 27.2435 44.0368C19.3971 43.5248 11.6147 43.0256 3.69145 42.5136C4.22905 41.976 4.74105 41.6432 5.21465 41.272ZM27.6531 49.8352C27.0771 49.9248 26.5139 49.848 25.9891 49.784C25.9635 49.784 25.9379 49.7584 25.9251 49.7456C25.8995 49.7328 25.8867 49.72 25.8611 49.6944C25.8227 49.6688 25.7843 49.6304 25.7459 49.592C25.6691 49.5152 25.6179 49.4128 25.5411 49.336C25.5155 49.3104 25.4771 49.2848 25.4643 49.2592C25.4387 49.208 25.4259 49.1568 25.4131 49.1056C25.4131 49.0928 25.4131 49.08 25.4003 49.0544C25.3875 49.0416 25.3747 49.0288 25.3747 49.0032C25.3107 48.9264 25.2595 48.8496 25.2211 48.76C25.2083 48.7344 25.2083 48.696 25.2083 48.6704C25.2211 48.5936 25.1827 48.5168 25.1571 48.4528C25.1443 48.3888 25.1315 48.3376 25.1187 48.2736C25.1187 48.2608 25.1059 48.2352 25.0931 48.2224C25.0675 48.184 25.0291 48.1584 24.9907 48.1328C24.9011 48.0304 24.8115 47.9408 24.7219 47.8512C24.6835 47.8128 24.6451 47.7872 24.6067 47.7616C24.6323 47.7744 24.6451 47.8128 24.6707 47.8384C24.6835 47.864 24.7091 47.8896 24.7347 47.9152C24.7731 47.9664 24.8115 48.0176 24.8371 48.0944C24.8371 48.12 24.8627 48.1584 24.8755 48.184C24.9139 48.2608 24.9395 48.3248 24.9523 48.4016C24.9779 48.504 24.9907 48.6064 24.9907 48.7088C25.0035 48.7984 25.0035 48.9008 25.0163 48.9904C25.0163 48.9904 25.0803 49.016 25.0931 49.016C25.1059 49.0288 25.1059 49.0544 25.1059 49.08C25.1315 49.144 25.1699 49.208 25.2083 49.272C25.2211 49.2976 25.2339 49.3232 25.2467 49.3488V49.5664C25.2467 49.592 25.2467 49.6304 25.2339 49.656C25.2083 49.6944 25.1571 49.72 25.1699 49.7712C25.1187 49.7712 25.0419 49.784 24.9907 49.7712C24.9779 49.7712 24.9651 49.7712 24.9523 49.7584C24.8627 49.7456 24.7859 49.7456 24.6963 49.7456C24.5299 49.7328 24.3635 49.72 24.1971 49.72C22.7507 49.6304 21.3043 49.528 19.8579 49.4384C18.4115 49.3488 16.9651 49.2464 15.5187 49.1568C14.0723 49.0672 12.6259 48.9648 11.1795 48.8752C9.73305 48.7856 8.28665 48.6832 6.84025 48.5936C6.11065 48.5424 5.39385 48.504 4.66425 48.4528C4.30585 48.4272 3.93465 48.4016 3.57625 48.3888C3.39705 48.376 3.21785 48.3632 3.03865 48.3504C3.00025 48.3504 2.51385 48.3248 2.51385 48.312V47.0832L2.52665 47.0704C2.53945 47.0576 2.53945 47.0576 2.55225 47.0448C2.56505 47.0192 2.57785 47.0064 2.59065 46.9808C2.62905 46.9296 2.65465 46.8912 2.69305 46.84C2.73145 46.7888 2.78265 46.7376 2.82105 46.6864C2.83385 46.6608 2.84665 46.648 2.85945 46.6224C2.88505 46.5968 2.92345 46.5712 2.94905 46.5584C2.98745 46.5328 3.02585 46.52 3.06425 46.4944C3.14105 46.456 3.21785 46.4176 3.30745 46.392C3.37145 46.3664 3.43545 46.3536 3.49945 46.3664C3.55065 46.3792 3.60185 46.4048 3.64025 46.4432C3.78105 46.5456 3.93465 46.648 4.10105 46.6864C4.13945 46.6992 4.15225 46.6608 4.17785 46.648C4.24185 46.584 4.31865 46.5328 4.38265 46.4944C4.39545 46.4816 4.42105 46.4688 4.43385 46.4688C4.47225 46.4432 4.51065 46.4304 4.54905 46.4048C4.70265 46.3408 4.86905 46.328 5.03545 46.3152C4.92025 46.2768 4.79225 46.2512 4.65145 46.2384C4.57465 46.2384 4.49785 46.2384 4.43385 46.2768C4.42105 46.2896 4.40825 46.3024 4.40825 46.3024C4.39545 46.3152 4.36985 46.328 4.35705 46.3408L4.24185 46.4176C4.22905 46.4176 4.22905 46.4304 4.21625 46.4304C4.19065 46.4432 4.16505 46.456 4.15225 46.4816C4.13945 46.4944 4.10105 46.52 4.07545 46.52C4.06265 46.52 4.03705 46.5072 4.01145 46.4944C3.99865 46.4816 3.97305 46.4816 3.96025 46.4688C3.92185 46.4432 3.88345 46.4176 3.85785 46.4048C3.75545 46.328 3.65305 46.2256 3.55065 46.136C3.53785 46.1232 3.52505 46.1232 3.51225 46.1104H3.46105C3.42265 46.1232 3.38425 46.1232 3.34585 46.136C3.32025 46.136 3.30745 46.1488 3.28185 46.1488H3.24345C3.20505 46.1488 3.16665 46.1616 3.12825 46.1616C3.07705 46.1744 3.01305 46.1872 2.96185 46.2C2.79545 46.2384 2.64185 46.2768 2.47545 46.328V43.7552C10.8723 44.2928 19.2435 44.8432 27.6531 45.3808V49.8352ZM31.9923 40.9776C31.9923 40.9776 32.0051 40.9904 32.0179 40.9904C32.0307 40.9904 32.0307 40.9904 32.0435 41.0032C32.0691 41.0032 32.0819 41.016 32.0947 41.0288C32.1203 41.0544 32.1331 41.08 32.1459 41.1056C32.1459 41.144 32.1587 41.1824 32.1587 41.2336C32.1587 41.3232 32.1715 41.4256 32.1587 41.5152C32.1587 41.5664 32.1587 41.6048 32.1459 41.656V41.7072C32.1459 41.7328 32.1715 41.7328 32.1971 41.7456C32.2355 41.7584 32.2611 41.7968 32.2739 41.8224C32.2867 41.848 32.2995 41.8736 32.2867 41.8992C32.2867 41.9248 32.2739 41.9504 32.2611 41.9632C32.2355 42.0144 32.1971 42.04 32.1459 42.0656C32.0307 42.1168 31.9155 42.1808 31.8131 42.2448C30.7891 42.7824 29.7651 43.3328 28.6899 43.896C28.4083 43.3712 28.2163 42.8464 28.0243 42.2448C29.4451 41.5792 30.8531 40.9136 32.2739 40.2352C32.7475 40.5296 33.0419 40.9776 33.3875 41.3616C33.1955 41.5792 32.9523 41.6432 32.7091 41.7584C32.6835 41.7456 32.6579 41.7328 32.6323 41.72C32.6067 41.7072 32.5683 41.6816 32.5427 41.6688C32.5171 41.656 32.4915 41.6304 32.4531 41.6304C32.4147 41.6176 32.3635 41.592 32.3379 41.5664C32.3251 41.5536 32.3251 41.5408 32.3251 41.5152C32.3123 41.464 32.2995 41.4256 32.2995 41.3744C32.2867 41.3104 32.2739 41.2592 32.2483 41.1952C32.2355 41.144 32.2099 41.08 32.1971 41.0288L31.9283 40.9264L32.1971 41.0288L31.9923 40.9776ZM32.8627 44.4464V44.2544C32.8627 44.216 32.8627 44.1648 32.8883 44.1264C32.9011 44.1008 32.9011 44.088 32.9139 44.0752C32.9139 44.0624 32.9267 44.0624 32.9267 44.0496C32.9651 43.9856 33.0035 43.9216 33.0547 43.8576C33.2723 43.6016 33.4003 43.3072 33.3747 42.9488C33.5155 42.8464 33.6563 42.7312 33.8995 42.744C33.9891 43.9984 33.9251 45.304 33.8867 46.6352C32.2739 47.5952 30.6611 48.5552 28.9843 49.5408V45.2016C30.2899 44.5104 31.5827 43.832 32.8883 43.1536C32.9267 43.2048 32.9523 43.2688 32.9651 43.3328C32.9779 43.3712 32.9651 43.4224 32.9651 43.4608C32.9651 43.4864 32.9523 43.4992 32.9395 43.5248C32.9395 43.5376 32.9267 43.5504 32.9139 43.576C32.9011 43.5888 32.8755 43.6144 32.8627 43.6272C32.8371 43.64 32.8243 43.6656 32.7987 43.6912C32.7731 43.7168 32.7475 43.7552 32.7347 43.7808C32.7219 43.7936 32.7091 43.8064 32.7091 43.832C32.6963 43.8448 32.6835 43.8704 32.6835 43.896C32.6451 43.96 32.6067 44.0368 32.5555 44.1008C32.5299 44.1264 32.5043 44.1648 32.5043 44.2032C32.5043 44.216 32.5043 44.2288 32.5171 44.2416V44.7408C32.5171 44.8304 32.5299 44.9072 32.5299 44.9968C32.5299 45.0608 32.5171 45.1504 32.4787 45.2016L32.4403 45.24C32.4403 45.24 32.4275 45.2528 32.4275 45.2656C32.4275 45.2784 32.4147 45.2784 32.4019 45.2912C32.3123 45.3936 32.1971 45.4704 32.0819 45.5472C32.1587 45.5344 32.2355 45.5216 32.2995 45.4832C32.3507 45.4576 32.4019 45.4192 32.4659 45.3936C32.4787 45.3936 32.4915 45.368 32.5171 45.368C32.5171 45.368 32.5171 45.368 32.5299 45.368C32.5555 45.3296 32.5683 45.2912 32.5939 45.24C32.6067 45.2272 32.6067 45.2016 32.6195 45.176C32.6323 45.1504 32.6323 45.1376 32.6451 45.112C32.6451 45.0992 32.6579 45.0864 32.6579 45.0736C32.6707 45.0224 32.6835 44.9712 32.7091 44.92C32.7219 44.8944 32.7219 44.8688 32.7347 44.8432C32.7347 44.8304 32.7475 44.8176 32.7475 44.792C32.7475 44.7664 32.7475 44.7408 32.7603 44.728C32.7603 44.7024 32.7731 44.6768 32.7987 44.664C32.8115 44.664 32.8115 44.664 32.8243 44.664L32.8627 44.4464Z" stroke="black" stroke-width="2" stroke-miterlimit="10"></path><path d="M18.2445 22.0848C17.9373 22.5456 17.9117 23.1728 18.1293 23.6848C18.1933 23.8384 18.2829 23.9792 18.4237 24.0688C18.7053 24.2352 19.0637 24.0816 19.3581 23.928C19.7421 23.7232 20.1389 23.48 20.2925 23.0704C20.4077 22.776 20.3565 22.4304 20.2157 22.1488C20.1389 21.9696 20.0237 21.816 19.8957 21.6752C19.8061 21.5856 19.7293 21.4704 19.5885 21.4576C19.2685 21.4064 18.9229 21.5088 18.6541 21.6752C18.4877 21.7904 18.3469 21.9312 18.2445 22.0848Z" fill="#6B00FA" stroke="black" stroke-width="0.5" stroke-miterlimit="10"></path><path d="M12.4202 22.1744C12.3178 22.3536 12.241 22.5456 12.2282 22.7504C12.2026 23.096 12.369 23.416 12.5226 23.7232C12.5482 23.7872 12.5866 23.8512 12.6378 23.8896C12.689 23.928 12.753 23.9408 12.817 23.9536C13.457 24.0432 14.1226 23.7872 14.5322 23.288C14.609 23.1856 14.673 23.0832 14.7114 22.968C14.7626 22.7888 14.7626 22.6096 14.7498 22.4304C14.737 22.1744 14.7114 21.88 14.5194 21.7008C14.4298 21.6112 14.3146 21.5472 14.1994 21.496C14.0586 21.4192 13.8922 21.3296 13.7386 21.2784C13.6234 21.2528 13.4826 21.2912 13.3802 21.3296C13.1114 21.4192 12.881 21.5984 12.689 21.8032C12.6378 21.8672 12.5866 21.9184 12.5354 21.9824C12.5098 22.0208 12.4842 22.0464 12.4714 22.0848C12.4586 22.0976 12.4458 22.1488 12.4202 22.1744Z" fill="#6B00FA" stroke="black" stroke-width="0.5" stroke-miterlimit="10"></path><path d="M18.7698 24.184C18.6418 24.1712 18.5138 24.1456 18.3858 24.12C18.3346 24.0432 18.2962 23.9792 18.2578 23.9024C18.2194 23.8256 18.2066 23.7616 18.1682 23.6848C18.0914 23.5312 18.053 23.3776 18.0274 23.2112C17.9762 22.84 18.0402 22.456 18.2322 22.1488C18.4242 21.8416 18.7314 21.5856 19.077 21.4704C19.2178 21.4192 19.3842 21.3936 19.5378 21.4448C19.6402 21.4704 19.717 21.5344 19.7938 21.6112C19.8322 21.6496 19.8706 21.688 19.8962 21.7264C19.9218 21.7648 19.9602 21.8032 19.9858 21.8416C19.9474 21.8416 19.909 21.8288 19.8706 21.8288C19.8322 21.8288 19.781 21.816 19.7426 21.816C18.9874 21.816 18.3602 22.4304 18.3602 23.1984C18.3602 23.5696 18.5138 23.928 18.7698 24.184Z" fill="#272F49"></path><path d="M12.6765 23.9536C12.6637 23.9536 12.6253 23.8768 12.6253 23.864C12.6125 23.8384 12.5869 23.8 12.5741 23.7616C12.5485 23.6976 12.5101 23.6208 12.4973 23.5568C12.4717 23.48 12.4717 23.416 12.4461 23.3392C12.4205 23.2496 12.3949 23.16 12.3693 23.0704C12.3181 22.8912 12.2925 22.712 12.3181 22.52C12.3437 22.2128 12.5101 21.9184 12.7405 21.7008C12.971 21.4832 13.2654 21.3424 13.5726 21.2784C13.675 21.2528 13.7774 21.24 13.8926 21.2656C14.0206 21.2912 14.1358 21.368 14.2254 21.4704C14.2766 21.5216 14.315 21.5728 14.3534 21.624C14.3662 21.6496 14.3918 21.6752 14.3662 21.7008C14.3534 21.7136 14.3406 21.7136 14.3278 21.7136C14.2894 21.7136 14.2382 21.7008 14.1998 21.7008C14.1614 21.7008 14.1102 21.688 14.0718 21.688C13.3166 21.688 12.6893 22.3024 12.6893 23.0704C12.6893 23.4416 12.8301 23.7744 13.0733 24.0304C13.0605 24.0304 12.6765 23.9536 12.6765 23.9536Z" fill="#272F49"></path><path d="M13.2398 24.312C12.267 24.312 11.4734 23.5184 11.4734 22.5456C11.4734 21.5728 12.267 20.7792 13.2398 20.7792C14.2126 20.7792 15.0062 21.5728 15.0062 22.5456C15.0062 23.5184 14.2126 24.312 13.2398 24.312ZM13.2398 21.2912C12.5486 21.2912 11.9854 21.8544 11.9854 22.5456C11.9854 23.2368 12.5486 23.8 13.2398 23.8C13.931 23.8 14.4942 23.2368 14.4942 22.5456C14.4942 21.8544 13.931 21.2912 13.2398 21.2912Z" fill="black"></path><path d="M18.9226 24.44C17.9498 24.44 17.1562 23.6464 17.1562 22.6736C17.1562 21.7008 17.9498 20.9072 18.9226 20.9072C19.8954 20.9072 20.689 21.7008 20.689 22.6736C20.689 23.6464 19.8954 24.44 18.9226 24.44ZM18.9226 21.4192C18.2314 21.4192 17.6682 21.9824 17.6682 22.6736C17.6682 23.3648 18.2314 23.928 18.9226 23.928C19.6138 23.928 20.177 23.3648 20.177 22.6736C20.177 21.9824 19.6138 21.4192 18.9226 21.4192Z" fill="black"></path><path d="M12.4207 23.6848C12.2415 23.416 12.1519 23.1088 12.1519 22.8016C12.1519 21.8928 12.8815 21.1632 13.7903 21.1632C13.8031 21.1632 13.8287 21.1632 13.8415 21.1632C13.9439 21.2656 14.0463 21.3552 14.1231 21.4576C14.0079 21.432 13.9055 21.4192 13.7903 21.4192C13.0351 21.4192 12.4079 22.0336 12.4079 22.8016C12.4079 23.1728 12.5487 23.5056 12.7919 23.7616L12.4207 23.6848Z" fill="black"></path><path d="M18.5135 23.9152C18.3855 23.9024 18.2575 23.8768 18.1295 23.8512C17.9503 23.5824 17.8479 23.2624 17.8479 22.9296C17.8479 22.0592 18.5391 21.3424 19.3967 21.2912L19.7295 21.56C19.6527 21.5472 19.5631 21.5344 19.4735 21.5344C18.7183 21.5344 18.0911 22.1488 18.0911 22.9168C18.1039 23.3136 18.2575 23.6592 18.5135 23.9152Z" fill="black"></path></svg> 