<?xml version="1.0" encoding="UTF-8"?> <svg xmlns="http://www.w3.org/2000/svg" width="65" height="64" viewBox="0 0 65 64" fill="none"><path fill-rule="evenodd" clip-rule="evenodd" d="M50.95 0C53.1079 1.22112 55.1152 2.65972 56.972 4.2823L39.8595 21.3947C33.6871 27.5672 33.6871 37.5536 39.8595 43.7094L56.0519 59.9018C54.1282 61.4741 52.054 62.8458 49.8459 64L34.7074 48.8615C25.6913 39.8452 25.6913 25.242 34.7074 16.2426L50.95 0ZM60.4011 7.7282L44.9949 23.1176C39.7759 28.3366 39.7759 36.7841 44.9949 42.0031L59.5815 56.5897C61.2542 54.7998 62.7597 52.8427 64.0478 50.7517L50.1638 36.8677C47.7885 34.4924 47.7885 30.6451 50.1638 28.2865L64.6834 13.7668C63.4623 11.5923 62.0237 9.56827 60.4011 7.7282Z" fill="url(#paint0_linear)"></path><path fill-rule="evenodd" clip-rule="evenodd" d="M0.683594 14.8541C1.8378 12.6461 3.20946 10.5719 4.78186 8.64822L19.2513 23.1176C24.4703 28.3366 24.4703 36.7841 19.2513 42.0031L5.56807 55.6863C3.94548 53.8296 2.50691 51.8223 1.28579 49.6644L14.0991 36.851C16.4745 34.4757 16.4745 30.6284 14.0991 28.2698L0.683594 14.8541Z" fill="url(#paint1_linear)"></path><path fill-rule="evenodd" clip-rule="evenodd" d="M8.09375 5.10203C9.88365 3.42925 11.8407 1.92377 13.9317 0.635742L29.5386 16.2427C29.6725 16.3764 29.8062 16.5103 29.9401 16.6441C28.284 18.7183 26.996 20.9765 26.0593 23.3519C25.5574 22.666 25.0054 22.0137 24.3865 21.3948L8.09375 5.10203ZM15.019 63.3979C12.8612 62.1768 10.8539 60.7382 8.99707 59.1156L24.3865 43.7261C24.9218 43.1741 25.4237 42.6054 25.8753 42.02C26.7618 44.412 28.0164 46.7037 29.6222 48.7947C29.5888 48.8281 29.5721 48.8449 29.5386 48.8783L15.019 63.3979Z" fill="url(#paint2_linear)"></path><defs><linearGradient id="paint0_linear" x1="99.803" y1="21.0541" x2="-2.24045" y2="43.6744" gradientUnits="userSpaceOnUse"><stop stop-color="#EA1657"></stop><stop offset="1" stop-color="#FBF287"></stop></linearGradient><linearGradient id="paint1_linear" x1="86.2147" y1="14.2056" x2="-12.7489" y2="36.1431" gradientUnits="userSpaceOnUse"><stop stop-color="#EA1657"></stop><stop offset="1" stop-color="#FBF287"></stop></linearGradient><linearGradient id="paint2_linear" x1="93.9844" y1="14.4011" x2="-12.397" y2="37.983" gradientUnits="userSpaceOnUse"><stop stop-color="#EA1657"></stop><stop offset="1" stop-color="#FBF287"></stop></linearGradient></defs></svg> 