<?xml version="1.0" encoding="UTF-8"?> <svg xmlns="http://www.w3.org/2000/svg" width="64" height="61" viewBox="0 0 64 61" fill="none"><path d="M27.2482 18.3427H25.3873V5.0509H0.863969C0.398756 5.0509 0 5.44965 0 5.91487V24.6563C0 25.1215 0.398756 25.5203 0.863969 25.5203H10.2347V59.6137C10.2347 60.0789 10.6334 60.4777 11.0987 60.4777H26.4507C26.9159 60.4777 27.3146 60.0789 27.3146 59.6137V18.3427H27.2482Z" fill="#29AEFF"></path><path d="M43.53 0H37.6151H21.3991C20.9339 0 20.5352 0.398756 20.5352 0.863969V54.5628C20.5352 55.028 20.9339 55.4268 21.3991 55.4268H36.7511C37.2164 55.4268 37.6151 55.028 37.6151 54.5628V40.9387H43.53C54.828 40.9387 63.9993 31.7674 63.9993 20.4694C63.9993 9.17134 54.828 0 43.53 0Z" fill="#2761E7"></path></svg> 