<?xml version="1.0" encoding="UTF-8"?> <svg xmlns="http://www.w3.org/2000/svg" width="64" height="64" viewBox="0 0 64 64" fill="none"><circle cx="32" cy="32" r="32" fill="white"></circle><path d="M45.0657 29.7301C43.9722 28.6365 43.9722 26.8636 45.0657 25.7701C46.1592 24.6766 47.9322 24.6766 49.0257 25.7701C50.1192 26.8636 50.1192 28.6365 49.0257 29.7301C47.9322 30.8236 46.1592 30.8236 45.0657 29.7301ZM35.6608 39.135C34.8407 38.3148 34.8407 36.9851 35.6608 36.165C36.481 35.3449 37.8107 35.3449 38.6308 36.165C39.4509 36.9851 39.4509 38.3148 38.6308 39.135C37.8107 39.9551 36.481 39.9551 35.6608 39.135ZM50.5107 34.185C49.6905 33.3649 49.6905 32.0352 50.5107 31.215C51.3308 30.3949 52.6605 30.3949 53.4807 31.215C54.3008 32.0352 54.3008 33.3649 53.4807 34.185C52.6605 35.0052 51.3308 35.0052 50.5107 34.185ZM45.5607 39.135C44.7406 38.3148 44.7406 36.9851 45.5607 36.165C46.3809 35.3449 47.7106 35.3449 48.5307 36.165C49.3508 36.9851 49.3508 38.3148 48.5307 39.135C47.7106 39.9551 46.3809 39.9551 45.5607 39.135ZM55.9556 38.64C55.4089 38.0932 55.4089 37.2068 55.9556 36.66C56.5024 36.1132 57.3889 36.1132 57.9356 36.66C58.4824 37.2068 58.4824 38.0932 57.9356 38.64C57.3889 39.1867 56.5024 39.1867 55.9556 38.64ZM51.0057 43.5899C50.4589 43.0432 50.4589 42.1567 51.0057 41.6099C51.5524 41.0632 52.4389 41.0632 52.9857 41.6099C53.5324 42.1567 53.5324 43.0432 52.9857 43.5899C52.4389 44.1367 51.5524 44.1367 51.0057 43.5899ZM40.1158 34.68C39.0223 33.5865 39.0223 31.8136 40.1158 30.72C41.2093 29.6265 42.9822 29.6265 44.0757 30.72C45.1693 31.8136 45.1693 33.5865 44.0757 34.68C42.9822 35.7735 41.2093 35.7735 40.1158 34.68ZM40.1158 24.7801C39.0223 23.6866 39.0223 21.9136 40.1158 20.8201C41.2093 19.7266 42.9822 19.7266 44.0757 20.8201C45.1693 21.9136 45.1693 23.6866 44.0757 24.7801C42.9822 25.8736 41.2093 25.8736 40.1158 24.7801ZM35.1658 29.7301C34.0723 28.6365 34.0723 26.8636 35.1658 25.7701C36.2593 24.6766 38.0323 24.6766 39.1258 25.7701C40.2193 26.8636 40.2193 28.6365 39.1258 29.7301C38.0323 30.8236 36.2593 30.8236 35.1658 29.7301ZM25.2199 29.7301C24.1264 28.6365 24.1264 26.8636 25.2199 25.7701C26.3134 24.6766 28.0863 24.6766 29.1799 25.7701C30.2734 26.8636 30.2734 28.6365 29.1799 29.7301C28.0863 30.8236 26.3134 30.8236 25.2199 29.7301ZM15.815 39.135C14.9948 38.3148 14.9948 36.9851 15.815 36.165C16.6351 35.3449 17.9648 35.3449 18.785 36.165C19.6051 36.9851 19.6051 38.3148 18.785 39.135C17.9648 39.9551 16.6351 39.9551 15.815 39.135ZM30.6649 34.185C29.8447 33.3649 29.8447 32.0352 30.6649 31.215C31.485 30.3949 32.8147 30.3949 33.6348 31.215C34.455 32.0352 34.455 33.3649 33.6348 34.185C32.8147 35.0052 31.485 35.0052 30.6649 34.185ZM25.7149 39.135C24.8948 38.3148 24.8948 36.9851 25.7149 36.165C26.535 35.3449 27.8647 35.3449 28.6849 36.165C29.505 36.9851 29.505 38.3148 28.6849 39.135C27.8647 39.9551 26.535 39.9551 25.7149 39.135ZM6.41007 38.64C5.86331 38.0932 5.86331 37.2068 6.41007 36.66C6.95682 36.1132 7.84329 36.1132 8.39005 36.66C8.93681 37.2068 8.93681 38.0932 8.39005 38.64C7.84329 39.1867 6.95682 39.1867 6.41007 38.64ZM11.36 43.5899C10.8133 43.0432 10.8133 42.1567 11.36 41.6099C11.9068 41.0632 12.7932 41.0632 13.34 41.6099C13.8868 42.1567 13.8868 43.0432 13.34 43.5899C12.7932 44.1367 11.9068 44.1367 11.36 43.5899ZM31.1598 43.5899C30.6131 43.0432 30.6131 42.1567 31.1598 41.6099C31.7066 41.0632 32.5931 41.0632 33.1398 41.6099C33.6866 42.1567 33.6866 43.0432 33.1398 43.5899C32.5931 44.1367 31.7066 44.1367 31.1598 43.5899ZM10.865 34.185C10.0449 33.3649 10.0449 32.0352 10.865 31.215C11.6852 30.3949 13.0149 30.3949 13.835 31.215C14.6551 32.0352 14.6551 33.3649 13.835 34.185C13.0149 35.0052 11.6852 35.0052 10.865 34.185ZM20.2699 34.68C19.1764 33.5865 19.1764 31.8136 20.2699 30.72C21.3635 29.6265 23.1364 29.6265 24.2299 30.72C25.3234 31.8136 25.3234 33.5865 24.2299 34.68C23.1364 35.7735 21.3635 35.7735 20.2699 34.68ZM20.2699 24.7801C19.1764 23.6866 19.1764 21.9136 20.2699 20.8201C21.3635 19.7266 23.1364 19.7266 24.2299 20.8201C25.3234 21.9136 25.3234 23.6866 24.2299 24.7801C23.1364 25.8736 21.3635 25.8736 20.2699 24.7801ZM15.32 29.7301C14.2265 28.6365 14.2265 26.8636 15.32 25.7701C16.4135 24.6766 18.1864 24.6766 19.28 25.7701C20.3735 26.8636 20.3735 28.6365 19.28 29.7301C18.1864 30.8236 16.4135 30.8236 15.32 29.7301Z" fill="black"></path></svg> 