<?xml version="1.0" encoding="UTF-8"?> <svg xmlns="http://www.w3.org/2000/svg" width="64" height="64" viewBox="0 0 64 64" fill="none"><path d="M53.6275 5.0496e-05H24.373V39.4663H63.8714V10.2118C63.8714 8.86809 63.6062 7.53756 63.091 6.29652C62.5758 5.05547 61.8208 3.92831 60.8691 2.97963C59.9175 2.03096 58.7879 1.27944 57.5453 0.768139C56.3026 0.256842 54.9713 -0.00417509 53.6275 5.0496e-05Z" fill="#142533"></path><path d="M15.2534 0H10.2118C7.50345 0 4.90604 1.07588 2.99096 2.99096C1.07588 4.90604 0 7.50345 0 10.2118L0 15.2534H15.2534V0Z" fill="#142533"></path><path d="M0 24.3737H15.2534V39.6271H0V24.3737Z" fill="#142533"></path><path d="M48.7471 63.8716H53.7887C55.1325 63.8716 56.463 63.6064 57.704 63.0912C58.9451 62.576 60.0723 61.8209 61.0209 60.8693C61.9696 59.9176 62.7211 58.7881 63.2324 57.5454C63.7437 56.3028 64.0047 54.9714 64.0005 53.6277V48.7466H48.7471V63.8716Z" fill="#142533"></path><path d="M24.373 48.7466H39.6265V64H24.373V48.7466Z" fill="#142533"></path><path d="M0 48.7466V53.7882C0 56.4966 1.07588 59.094 2.99096 61.0091C4.90604 62.9241 7.50345 64 10.2118 64H15.2534V48.7466H0Z" fill="#142533"></path></svg> 