<?xml version="1.0" encoding="UTF-8"?> <svg xmlns="http://www.w3.org/2000/svg" width="64" height="64" viewBox="0 0 64 64" fill="none"><path d="M64 32C64 49.6731 49.6731 64 31.9999 64C14.3269 64 0 49.6731 0 32C0 14.3269 14.3269 0 31.9999 0C49.6731 0 64 14.3269 64 32Z" fill="#4958C5"></path><path d="M45.0392 18.7368H36.2947V16.2727C36.2947 13.569 39.1011 11.5487 40.9834 11.3785C42.6262 11.23 43.5161 11.0247 46.7674 12.0857V7.64808C44.5428 7.09855 41.8733 7.17601 39.6487 7.37429C37.2187 7.51118 31.7085 10.078 31.7085 16.0331V18.7368H28.4915V22.7753H31.7085V38.0053C31.7085 38.0053 29.6209 36.0203 25.3428 36.0203C19.3877 36.0203 14.1172 40.6064 14.1172 47.1774C14.1172 53.7486 19.0113 58.4649 25.4798 58.4649C31.9481 58.4649 36.4658 52.9272 36.6027 47.1774C36.7395 41.4277 36.6027 34.8909 36.6027 34.8909V22.7753H45.0392V18.7368Z" fill="white"></path><path d="M25.5223 53.5731C29.1514 53.5731 32.0934 50.6312 32.0934 47.002C32.0934 43.3729 29.1514 40.4309 25.5223 40.4309C21.8932 40.4309 18.9512 43.3729 18.9512 47.002C18.9512 50.6312 21.8932 53.5731 25.5223 53.5731Z" fill="#4958C5"></path></svg> 