<?xml version="1.0" encoding="UTF-8"?> <svg xmlns="http://www.w3.org/2000/svg" width="64" height="56" viewBox="0 0 64 56" fill="none"><path d="M54.7897 21.4634C52.7281 21.4634 50.6645 21.4925 48.6029 21.4466C47.92 21.432 47.664 21.6827 47.5358 22.2928C47.092 24.4346 46.6331 26.5761 46.1337 28.7053C45.9651 29.4241 46.1786 29.6017 46.8978 29.5955C49.956 29.5641 53.0142 29.5997 56.0723 29.5704C56.7766 29.5642 56.9665 29.6853 56.7873 30.4333C56.1065 33.2729 55.4641 36.1229 54.9093 38.9875C54.7598 39.7544 54.4163 39.8233 53.7739 39.8192C50.752 39.7961 47.728 39.8296 44.7061 39.7941C43.9869 39.7857 43.6518 39.9361 43.4896 40.6947C42.4717 45.4502 41.3662 50.1891 40.3589 54.949C40.1838 55.7722 39.8765 56.0041 39.0464 56C27.2062 55.9435 15.3662 55.9205 3.52616 55.8766C2.56795 55.8725 1.61187 55.7659 0.653648 55.7345C0.0710337 55.7158 -0.0804883 55.4338 0.036888 54.9238C0.715536 51.9757 1.0698 48.9752 1.55424 45.9957C1.65242 45.3875 1.91918 45.212 2.53594 45.2246C4.42037 45.2602 6.30478 45.235 8.18921 45.2205C15.6159 45.1619 23.0427 45.0805 30.4694 45.0595C31.3443 45.0574 31.6325 44.7253 31.7925 43.9856C33.5618 35.7635 35.348 27.5437 37.1256 19.3237C37.6251 17.0128 38.1266 14.7018 38.5854 12.3846C38.7454 11.5697 39.0144 11.1539 40.0088 11.2041C42.8792 11.3461 45.7688 11.3754 48.6307 11.3169C53.4261 11.2187 58.2214 11.3503 63.0145 11.2103C64.039 11.1811 64.103 11.5572 63.9195 12.3574C63.275 15.1698 62.6454 17.9864 62.0606 20.8093C61.9326 21.4258 61.5955 21.4738 61.0854 21.4717C58.9854 21.4549 56.8875 21.4634 54.7897 21.4634Z" fill="#373737"></path><path d="M28.6875 11.2407C30.1041 11.1426 31.4286 11.3618 32.755 11.3534C33.6015 11.3472 33.6918 11.6332 33.538 12.3889C32.5991 17.0067 31.7073 21.6349 30.791 26.2568C29.8603 30.9518 28.9068 35.6405 27.9905 40.3376C27.8367 41.1288 27.5662 41.4774 26.6723 41.4629C24.4233 41.4273 22.1723 41.5443 19.9214 41.5965C19.6139 41.6027 19.3063 41.6027 18.9988 41.5797C17.4817 41.467 17.4489 41.4566 17.7483 39.9181C19.1321 32.8432 20.5343 25.7745 21.9305 18.7018C22.3527 16.5578 22.8038 14.4201 23.179 12.2678C23.2916 11.6186 23.55 11.3868 24.1753 11.3889C25.7067 11.3973 27.2319 11.0925 28.6875 11.2407Z" fill="#373737"></path><path d="M12.5228 19.2264C13.9332 19.2264 15.3476 19.2827 16.7539 19.2048C17.5893 19.1571 17.6922 19.4645 17.5429 20.2435C16.5179 25.5955 15.5211 30.9518 14.5123 36.308C14.2419 37.7494 13.9513 39.1864 13.6931 40.632C13.6023 41.1427 13.4711 41.4458 12.8759 41.4523C10.2266 41.4717 7.57732 41.5821 4.92601 41.5994C3.12822 41.6125 2.99707 41.4176 3.36833 39.589C4.68995 33.0597 6.02971 26.5326 7.34124 20.0011C7.46433 19.3843 7.71251 19.1962 8.28958 19.2155C9.69998 19.2566 11.1124 19.2264 12.5228 19.2264Z" fill="#373737"></path><path d="M46.2531 0.0114401C47.7163 0.0114401 49.1795 0.0259677 50.6426 0.00313865C51.1533 -0.00516283 51.2718 0.117284 51.1629 0.708765C50.7765 2.80282 50.4437 4.91139 50.1339 7.01997C50.0229 7.77125 49.7245 8.012 49.0112 7.99955C46.3086 7.94974 43.6042 7.95597 40.9016 7.99539C40.167 8.00577 39.8726 7.86257 40.0504 6.97224C40.4616 4.92177 40.8346 2.86093 41.131 0.787629C41.2325 0.0757766 41.5098 -0.0113889 42.0587 0.00106328C43.4549 0.0321939 44.8531 0.0114401 46.2531 0.0114401Z" fill="#373737"></path></svg> 