<?xml version="1.0" encoding="UTF-8"?> <svg xmlns="http://www.w3.org/2000/svg" width="64" height="64" viewBox="0 0 64 64" fill="none"><path d="M28.5556 28.5557C30.8194 29.1101 33.1836 29.1101 35.4474 28.5557C36.0795 25.9829 37.4041 23.6324 39.2774 21.759C41.1508 19.8857 43.5013 18.5611 46.0741 17.929C46.5955 15.7964 46.6255 13.5733 46.1617 11.4274C45.698 9.28162 44.7526 7.26925 43.3971 5.54235C42.0415 3.81546 40.3113 2.4192 38.337 1.45906C36.3627 0.498916 34.1961 0 32.0007 0C29.8053 0 27.6387 0.498916 25.6644 1.45906C23.6901 2.4192 21.9598 3.81546 20.6043 5.54235C19.2488 7.26925 18.3034 9.28162 17.8397 11.4274C17.3759 13.5733 17.4058 15.7964 17.9273 17.929C20.5003 18.5608 22.8512 19.8853 24.7249 21.7587C26.5985 23.632 27.9234 25.9827 28.5556 28.5557Z" fill="#7ABDF7"></path><path d="M35.4477 35.4443C33.1839 34.8899 30.8198 34.8899 28.556 35.4443C27.9234 38.0168 26.5986 40.3671 24.7253 42.2404C22.8521 44.1137 20.5018 45.4384 17.9292 46.071C17.4078 48.2036 17.3778 50.4267 17.8416 52.5726C18.3054 54.7184 19.2507 56.7308 20.6063 58.4576C21.9618 60.1845 23.6921 61.5808 25.6663 62.5409C27.6406 63.5011 29.8073 64 32.0026 64C34.198 64 36.3647 63.5011 38.3389 62.5409C40.3132 61.5808 42.0435 60.1845 43.399 58.4576C44.7546 56.7308 45.6999 54.7184 46.1637 52.5726C46.6274 50.4267 46.5975 48.2036 46.0761 46.071C43.503 45.4392 41.1521 44.1147 39.2784 42.2413C37.4048 40.368 36.08 38.0172 35.4477 35.4443Z" fill="#0D74F5"></path><path d="M49.5194 17.512C48.3588 17.5118 47.2024 17.6513 46.0751 17.9273C45.4432 20.4998 44.1188 22.8501 42.2457 24.7232C40.3727 26.5962 38.0224 27.9206 35.4499 28.5525C34.8956 30.8163 34.8956 33.1804 35.4499 35.4442C38.0224 36.0766 40.3727 37.4013 42.2457 39.2747C44.1188 41.148 45.4431 43.4984 46.0751 46.071C48.065 46.5571 50.1354 46.6156 52.1497 46.2428C54.1639 45.87 56.0762 45.0742 57.7603 43.9081C59.4445 42.742 60.8622 41.232 61.9199 39.4778C62.9776 37.7236 63.6514 35.765 63.8966 33.7313C64.1418 31.6976 63.953 29.635 63.3426 27.6796C62.7322 25.7242 61.7141 23.9205 60.3555 22.3875C58.9968 20.8544 57.3285 19.6269 55.4606 18.786C53.5928 17.945 51.5678 17.5097 49.5194 17.5088V17.512Z" fill="#4494F7"></path><path d="M28.5557 35.4442C29.1101 33.1804 29.1101 30.8163 28.5557 28.5525C25.9831 27.9205 23.6327 26.5961 21.7594 24.7231C19.8861 22.8501 18.5614 20.4998 17.929 17.9273C15.7964 17.4059 13.5733 17.3759 11.4274 17.8397C9.28162 18.3035 7.26925 19.2488 5.54235 20.6044C3.81546 21.9599 2.4192 23.6902 1.45906 25.6644C0.498916 27.6387 0 29.8054 0 32.0007C0 34.1961 0.498916 36.3628 1.45906 38.3371C2.4192 40.3113 3.81546 42.0416 5.54235 43.3971C7.26925 44.7527 9.28162 45.698 11.4274 46.1618C13.5733 46.6256 15.7964 46.5956 17.929 46.0742C18.5608 43.5009 19.8852 41.1497 21.7585 39.2758C23.6319 37.4019 25.9826 36.0768 28.5557 35.4442Z" fill="#005CF4"></path><path d="M35.4482 28.5557C38.0208 27.9231 40.3711 26.5984 42.2444 24.7251C44.1176 22.8518 45.4424 20.5015 46.075 17.929C43.5022 18.5611 41.1516 19.8857 39.2783 21.759C37.405 23.6324 36.0804 25.9829 35.4482 28.5557Z" fill="#186EF9"></path><path d="M35.4482 35.4443C36.0804 38.0171 37.405 40.3676 39.2783 42.241C41.1516 44.1143 43.5022 45.4389 46.075 46.071C45.4424 43.4985 44.1176 41.1482 42.2444 39.2749C40.3711 37.4016 38.0208 36.0769 35.4482 35.4443Z" fill="#0246F2"></path><path d="M28.5555 28.5557C27.9229 25.9832 26.5981 23.6328 24.7248 21.7596C22.8516 19.8863 20.5013 18.5616 17.9287 17.929C18.5613 20.5015 19.8861 22.8518 21.7593 24.7251C23.6326 26.5984 25.9829 27.9231 28.5555 28.5557Z" fill="#0046F8"></path><path d="M28.5555 35.4443C25.9829 36.0769 23.6326 37.4016 21.7593 39.2749C19.8861 41.1482 18.5613 43.4985 17.9287 46.071C20.5013 45.4384 22.8516 44.1137 24.7248 42.2404C26.5981 40.3671 27.9229 38.0168 28.5555 35.4443Z" fill="#0729F1"></path><path d="M28.5556 28.5557C30.8194 29.1101 33.1836 29.1101 35.4474 28.5557C36.0795 25.9829 37.4041 23.6324 39.2774 21.759C41.1508 19.8857 43.5013 18.5611 46.0741 17.929C46.5955 15.7964 46.6255 13.5733 46.1617 11.4274C45.698 9.28162 44.7526 7.26925 43.3971 5.54235C42.0415 3.81546 40.3113 2.4192 38.337 1.45906C36.3627 0.498916 34.1961 0 32.0007 0C29.8053 0 27.6387 0.498916 25.6644 1.45906C23.6901 2.4192 21.9598 3.81546 20.6043 5.54235C19.2488 7.26925 18.3034 9.28162 17.8397 11.4274C17.3759 13.5733 17.4058 15.7964 17.9273 17.929C20.5003 18.5608 22.8512 19.8853 24.7249 21.7587C26.5985 23.632 27.9234 25.9827 28.5556 28.5557Z" fill="#7ABDF7"></path><path d="M35.4477 35.4443C33.1839 34.8899 30.8198 34.8899 28.556 35.4443C27.9234 38.0168 26.5986 40.3671 24.7253 42.2404C22.8521 44.1137 20.5018 45.4384 17.9292 46.071C17.4078 48.2036 17.3778 50.4267 17.8416 52.5726C18.3054 54.7184 19.2507 56.7308 20.6063 58.4576C21.9618 60.1845 23.6921 61.5808 25.6663 62.5409C27.6406 63.5011 29.8073 64 32.0026 64C34.198 64 36.3647 63.5011 38.3389 62.5409C40.3132 61.5808 42.0435 60.1845 43.399 58.4576C44.7546 56.7308 45.6999 54.7184 46.1637 52.5726C46.6274 50.4267 46.5975 48.2036 46.0761 46.071C43.503 45.4392 41.1521 44.1147 39.2784 42.2413C37.4048 40.368 36.08 38.0172 35.4477 35.4443Z" fill="#0D74F5"></path><path d="M49.5194 17.512C48.3588 17.5118 47.2024 17.6513 46.0751 17.9273C45.4432 20.4998 44.1188 22.8501 42.2457 24.7232C40.3727 26.5962 38.0224 27.9206 35.4499 28.5525C34.8956 30.8163 34.8956 33.1804 35.4499 35.4442C38.0224 36.0766 40.3727 37.4013 42.2457 39.2747C44.1188 41.148 45.4431 43.4984 46.0751 46.071C48.065 46.5571 50.1354 46.6156 52.1497 46.2428C54.1639 45.87 56.0762 45.0742 57.7603 43.9081C59.4445 42.742 60.8622 41.232 61.9199 39.4778C62.9776 37.7236 63.6514 35.765 63.8966 33.7313C64.1418 31.6976 63.953 29.635 63.3426 27.6796C62.7322 25.7242 61.7141 23.9205 60.3555 22.3875C58.9968 20.8544 57.3285 19.6269 55.4606 18.786C53.5928 17.945 51.5678 17.5097 49.5194 17.5088V17.512Z" fill="#4494F7"></path><path d="M28.5557 35.4442C29.1101 33.1804 29.1101 30.8163 28.5557 28.5525C25.9831 27.9205 23.6327 26.5961 21.7594 24.7231C19.8861 22.8501 18.5614 20.4998 17.929 17.9273C15.7964 17.4059 13.5733 17.3759 11.4274 17.8397C9.28162 18.3035 7.26925 19.2488 5.54235 20.6044C3.81546 21.9599 2.4192 23.6902 1.45906 25.6644C0.498916 27.6387 0 29.8054 0 32.0007C0 34.1961 0.498916 36.3628 1.45906 38.3371C2.4192 40.3113 3.81546 42.0416 5.54235 43.3971C7.26925 44.7527 9.28162 45.698 11.4274 46.1618C13.5733 46.6256 15.7964 46.5956 17.929 46.0742C18.5608 43.5009 19.8852 41.1497 21.7585 39.2758C23.6319 37.4019 25.9826 36.0768 28.5557 35.4442Z" fill="#005CF4"></path><path d="M35.4482 28.5557C38.0208 27.9231 40.3711 26.5984 42.2444 24.7251C44.1176 22.8518 45.4424 20.5015 46.075 17.929C43.5022 18.5611 41.1516 19.8857 39.2783 21.759C37.405 23.6324 36.0804 25.9829 35.4482 28.5557Z" fill="#186EF9"></path><path d="M35.4482 35.4443C36.0804 38.0171 37.405 40.3676 39.2783 42.241C41.1516 44.1143 43.5022 45.4389 46.075 46.071C45.4424 43.4985 44.1176 41.1482 42.2444 39.2749C40.3711 37.4016 38.0208 36.0769 35.4482 35.4443Z" fill="#0246F2"></path><path d="M28.5555 28.5557C27.9229 25.9832 26.5981 23.6328 24.7248 21.7596C22.8516 19.8863 20.5013 18.5616 17.9287 17.929C18.5613 20.5015 19.8861 22.8518 21.7593 24.7251C23.6326 26.5984 25.9829 27.9231 28.5555 28.5557Z" fill="#0046F8"></path><path d="M28.5555 35.4443C25.9829 36.0769 23.6326 37.4016 21.7593 39.2749C19.8861 41.1482 18.5613 43.4985 17.9287 46.071C20.5013 45.4384 22.8516 44.1137 24.7248 42.2404C26.5981 40.3671 27.9229 38.0168 28.5555 35.4443Z" fill="#0729F1"></path></svg> 