<?xml version="1.0" encoding="UTF-8"?> <svg xmlns="http://www.w3.org/2000/svg" width="53" height="65" viewBox="0 0 53 65" fill="none"><path d="M49.5352 15.616V51.0079C49.5352 51.3538 49.3977 51.6856 49.1531 51.9302C48.9085 52.1748 48.5768 52.3122 48.2309 52.3122H41.2471C40.9012 52.3122 40.5695 52.1748 40.3249 51.9302C40.0803 51.6856 39.9429 51.3538 39.9429 51.0079V16.4855C39.9429 15.9163 40.169 15.3704 40.5715 14.9678C40.974 14.5653 41.5199 14.3392 42.0892 14.3392H48.2364C48.5766 14.3406 48.9029 14.4748 49.1455 14.7134C49.3882 14.9519 49.528 15.2758 49.5352 15.616Z" fill="#030303"></path><path d="M22.05 28.393L15.8019 21.857C14.3102 20.2966 13.4995 18.2075 13.5481 16.0494C13.5967 13.8912 14.5006 11.8407 16.061 10.349L20.1386 6.45113C21.699 4.95944 23.788 4.14874 25.9462 4.19734C28.1044 4.24594 30.1548 5.14987 31.6465 6.71029L37.2937 12.6177C38.9408 14.3406 39.8359 16.6472 39.7822 19.0301C39.7286 21.413 38.7305 23.6769 37.0076 25.3239L33.5427 28.6362C31.9851 30.1253 29.9005 30.9359 27.7461 30.8903C25.5917 30.8447 23.5432 29.9466 22.05 28.393Z" fill="#030303"></path><path d="M32.8052 60.5836L20.1768 60.7886C19.8256 60.7943 19.4767 60.7308 19.1501 60.6017C18.8234 60.4726 18.5254 60.2804 18.2731 60.0361C18.0207 59.7918 17.8189 59.5002 17.6793 59.1779C17.5396 58.8556 17.4648 58.509 17.4591 58.1578L17.4467 57.3929C17.441 57.0417 17.5045 56.6929 17.6336 56.3662C17.7627 56.0396 17.955 55.7416 18.1992 55.4892C18.4435 55.2369 18.7352 55.0351 19.0574 54.8954C19.3797 54.7558 19.7263 54.6809 20.0775 54.6752L31.9411 54.4827C32.8532 54.4679 33.7339 54.816 34.3893 55.4505C35.0447 56.085 35.4213 56.9539 35.4361 57.866C35.4476 58.5752 35.1769 59.26 34.6835 59.7697C34.1901 60.2793 33.5145 60.5721 32.8052 60.5836Z" fill="#030303"></path><path d="M12.416 15.7591L12.416 52.1966C12.416 52.325 12.365 52.4482 12.2742 52.5391C12.1833 52.6299 12.0602 52.6809 11.9317 52.6809H3.79229C3.66385 52.6809 3.54067 52.6299 3.44985 52.5391C3.35902 52.4482 3.308 52.325 3.308 52.1966L3.308 16.6066C3.308 16.2534 3.44831 15.9146 3.69807 15.6649C3.94784 15.4151 4.28659 15.2748 4.63981 15.2748H11.9262C12.0547 15.2748 12.1778 15.3258 12.2687 15.4166C12.3595 15.5074 12.4105 15.6306 12.4105 15.7591H12.416Z" fill="#030303"></path><path d="M41.6076 11.7706L43.0947 54.7864C43.0991 54.9148 43.0524 55.0397 42.9647 55.1336C42.8771 55.2275 42.7558 55.2827 42.6274 55.2872L10.9581 56.382C10.8298 56.3864 10.7049 56.3397 10.611 56.2521C10.5171 56.1644 10.4618 56.0431 10.4574 55.9147L8.99957 13.7459C8.98736 13.3929 9.11589 13.0495 9.35687 12.7913C9.59786 12.533 9.93155 12.3811 10.2846 12.3689L41.0848 11.3041C41.2132 11.2996 41.338 11.3464 41.432 11.434C41.5259 11.5216 41.5811 11.643 41.5855 11.7713L41.6076 11.7706Z" fill="#030303"></path><path d="M34.551 58.3346L19.4738 58.5794C18.7646 58.5909 18.0798 58.3202 17.5701 57.8268C17.0605 57.3334 16.7677 56.6578 16.7561 55.9485L16.5814 45.1854C16.5699 44.4762 16.8406 43.7914 17.334 43.2817C17.8274 42.7721 18.503 42.4793 19.2123 42.4678L33.5191 42.2355C34.4312 42.2207 35.3118 42.5688 35.9672 43.2033C36.6227 43.8378 36.9992 44.7067 37.014 45.6188L37.1763 55.617C37.1878 56.3263 36.9171 57.0111 36.4237 57.5208C35.9304 58.0304 35.2547 58.3232 34.5455 58.3347L34.551 58.3346Z" fill="#030303"></path><path d="M21.3861 33.81L8.24967 26.7492C7.99332 26.6113 7.70557 26.5421 7.41453 26.5485C7.12348 26.555 6.83907 26.6367 6.58904 26.7858C6.33902 26.935 6.13193 27.1464 5.98797 27.3994C5.84402 27.6524 5.76811 27.9385 5.76767 28.2296V45.389C5.76449 45.6934 5.84556 45.9928 6.00193 46.2541C6.1583 46.5154 6.38387 46.7283 6.6537 46.8694L19.7902 53.9301C20.0357 54.0617 20.3096 54.1316 20.5881 54.1338C20.893 54.1344 21.192 54.0506 21.4522 53.8916C21.7016 53.7425 21.9083 53.5313 22.052 53.2786C22.1957 53.026 22.2715 52.7404 22.2722 52.4497V35.2904C22.2717 34.9866 22.1891 34.6887 22.0331 34.4281C21.8771 34.1675 21.6536 33.9539 21.3861 33.81ZM18.1502 35.8957L14.9802 38.3392L12.091 36.7818V40.557L9.13571 42.8299V31.0528L18.1502 35.8957ZM9.89516 44.7946L13.0706 42.3566L15.9598 43.9086V40.1333L18.9151 37.8604V49.654L9.89516 44.7946Z" fill="white"></path><path d="M36.1518 15.5334L26.3834 20.7836L20.3628 17.5476L30.1312 12.2975L27.4566 10.8611C27.1273 10.6848 26.7597 10.5925 26.3862 10.5925C26.0127 10.5925 25.645 10.6848 25.3158 10.8611L14.3697 16.7331C14.2238 16.8127 14.1021 16.93 14.0173 17.0729C13.9325 17.2157 13.8877 17.3788 13.8877 17.5449C13.8877 17.711 13.9325 17.8741 14.0173 18.0169C14.1021 18.1597 14.2238 18.2771 14.3697 18.3566L25.2993 24.2287C25.6277 24.4074 25.9957 24.501 26.3697 24.501C26.7436 24.501 27.1116 24.4074 27.4401 24.2287L38.3642 18.3566C38.5116 18.2784 38.6348 18.1615 38.7208 18.0185C38.8068 17.8755 38.8523 17.7117 38.8523 17.5449C38.8523 17.378 38.8068 17.2143 38.7208 17.0713C38.6348 16.9283 38.5116 16.8114 38.3642 16.7331L36.1518 15.5334Z" fill="white"></path><path d="M46.1784 26.7877C45.9308 26.6369 45.6478 26.554 45.358 26.5472C45.0682 26.5404 44.7817 26.6101 44.5274 26.7492L31.3909 33.81C31.1234 33.9539 30.8999 34.1675 30.7439 34.4281C30.5879 34.6887 30.5053 34.9866 30.5049 35.2904V52.4498C30.5078 52.8946 30.6853 53.3204 30.9993 53.6354C31.3133 53.9505 31.7386 54.1295 32.1834 54.1338C32.4621 54.1323 32.7361 54.0624 32.9814 53.9302L46.1178 46.8694C46.3877 46.7283 46.6132 46.5154 46.7696 46.2541C46.926 45.9929 47.007 45.6934 47.0039 45.389V28.2296C47.006 27.9378 46.9307 27.6505 46.7857 27.3973C46.6407 27.144 46.4311 26.9337 46.1784 26.7877ZM43.6358 42.8244L40.6805 40.5516V36.7763L37.7913 38.3337L34.6159 35.8957L43.6358 31.0528V42.8244ZM33.8619 37.8714L36.8172 40.1443V43.9196L39.7064 42.3677L42.8819 44.8056L33.8619 49.6541V37.8714Z" fill="white"></path><path d="M52.7329 17.1019C52.7169 17.0551 52.6986 17.0092 52.6778 16.9643C52.6473 16.8729 52.6087 16.7845 52.5623 16.7001C52.5623 16.6506 52.4907 16.6065 52.4577 16.557C52.4107 16.4845 52.3573 16.4164 52.2981 16.3534C52.2491 16.3118 52.1977 16.2732 52.144 16.2378C52.0915 16.189 52.0364 16.1431 51.9789 16.1002H51.9404L51.9074 16.0727L27.1809 2.7877C26.9373 2.65378 26.6637 2.58356 26.3857 2.58356C26.1077 2.58356 25.8341 2.65378 25.5905 2.7877L0.858518 16.0837V16.1112H0.819999C0.759462 16.1498 0.709934 16.2048 0.649397 16.2488C0.597542 16.2843 0.547916 16.3229 0.500805 16.3644C0.441634 16.4274 0.388217 16.4955 0.341204 16.568C0.30268 16.6176 0.264159 16.6616 0.231139 16.7111C0.186505 16.7957 0.149665 16.8841 0.121074 16.9753C0.121074 17.0248 0.0770469 17.0688 0.0605369 17.1129C0.0207699 17.2581 0.000413789 17.408 0 17.5586V49.8577C0.00046102 50.1614 0.0830522 50.4593 0.239032 50.7199C0.395012 50.9806 0.618575 51.1941 0.886036 51.3381L25.618 64.6286C25.6943 64.6645 25.7734 64.694 25.8546 64.7166L25.9867 64.7717C26.1253 64.8065 26.2676 64.825 26.4105 64.8267C26.5552 64.8247 26.6992 64.8062 26.8397 64.7717L26.9718 64.7166C27.0527 64.6931 27.1318 64.6637 27.2085 64.6286L51.9074 51.305C52.1748 51.1611 52.3984 50.9475 52.5544 50.6869C52.7104 50.4263 52.793 50.1284 52.7934 49.8246V17.5476C52.793 17.397 52.7727 17.2471 52.7329 17.1019ZM26.383 6.21628L47.4662 17.5476L46.5692 18.0264L26.383 28.879L6.19674 18.0264L5.29971 17.5476L26.383 6.21628ZM3.36253 20.3598L24.7265 31.8398V60.3195L3.36253 48.8396V20.3598ZM28.089 60.3195V31.8398L49.4529 20.3598V48.8396L28.089 60.3195Z" fill="#F79723"></path></svg> 