<?xml version="1.0" encoding="UTF-8"?> <svg xmlns="http://www.w3.org/2000/svg" width="64" height="64" viewBox="0 0 64 64" fill="none"><path d="M32 64C49.6731 64 64 49.6731 64 32C64 14.3269 49.6731 0 32 0C14.3269 0 0 14.3269 0 32C0 49.6731 14.3269 64 32 64Z" fill="url(#paint0_linear)"></path><path d="M32 64C49.6731 64 64 49.6731 64 32C64 14.3269 49.6731 0 32 0C14.3269 0 0 14.3269 0 32C0 49.6731 14.3269 64 32 64Z" fill="url(#paint1_radial)" fill-opacity="0.25"></path><g opacity="0.9"><path opacity="0.9" d="M53.5447 36.4879C53.4181 34.3376 52.8863 35.6142 51.3261 35.3798C46.0922 33.1923 47.0412 25.4513 47.0412 25.4513C47.0412 16.5863 39.8628 9.15436 30.6184 9.15436H29.1392C20.2646 9.15436 12.7334 16.7221 12.7334 25.5871V34.5504C12.7334 39.3522 13.5721 42.3026 16.5303 46.3658C19.8583 50.4286 25.8266 56.5946 34.7013 54.3782C34.7013 54.3782 36.0217 53.9404 36.193 53.2918C36.3642 52.6435 37.4134 50.0323 41.4815 50.0323C45.1795 49.2938 44.8716 45.5508 44.8716 45.5508C44.8716 45.5508 45.0072 41.7472 49.0752 41.3409C52.7732 40.9712 53.6709 38.6383 53.5447 36.4879Z" fill="#BFD2D3"></path><path opacity="0.9" fill-rule="evenodd" clip-rule="evenodd" d="M29.8195 10.6482C25.887 11.1915 18.4288 16.3522 18.4288 28.8465C18.3836 31.9248 18.4559 38.4616 19.1068 39.9829C19.1638 40.1162 19.2276 40.2772 19.301 40.4634C20.2747 42.9292 22.9554 49.7177 34.4301 52.7487C35.1107 52.9285 35.6995 53.0936 36.2057 53.2457C36.201 53.2622 36.1968 53.2775 36.193 53.2918C36.0217 53.9404 34.7013 54.3782 34.7013 54.3782C25.8266 56.5946 19.8583 50.4286 16.5303 46.3658C13.5721 42.3026 12.7334 39.3522 12.7334 34.5504V25.5871C12.7334 16.7221 20.2646 9.15436 29.1392 9.15436H29.6441L29.8195 10.6482Z" fill="#A6B6B7"></path><path opacity="0.9" fill-rule="evenodd" clip-rule="evenodd" d="M38.8218 11.3147L32.8034 9.6976L29.6846 10.6482C31.1762 10.8293 34.6725 12.0414 36.4648 14.0434C39.9907 17.9819 41.482 22.4635 41.482 27.76C41.482 34.0131 42.1602 36.8591 45.2792 38.4889C48.3978 40.1184 51.2457 40.6619 51.788 39.3035C52.2221 38.2174 52.3307 37.1308 52.3307 36.7233L51.87 35.4063C51.7045 35.4149 51.5236 35.4094 51.3266 35.3798C46.0927 33.1923 47.0421 25.4513 47.0421 25.4513C47.0421 19.4754 43.78 14.1507 38.8218 11.3147Z" fill="#768182"></path><path opacity="0.9" fill-rule="evenodd" clip-rule="evenodd" d="M50.8852 36.9615L50.6991 36.8838C47.3333 35.477 46.079 32.3195 45.6221 29.8979C45.3881 28.6594 45.3397 27.5115 45.3476 26.6795C45.3517 26.2608 45.3701 25.9152 45.3877 25.6696C45.3967 25.5466 45.4057 25.4482 45.4128 25.3777C45.4132 25.3737 45.4135 25.3698 45.4139 25.366C45.3678 17.4327 38.9284 10.784 30.6184 10.784H29.1392C21.1651 10.784 14.3606 17.6204 14.3606 25.5871V34.5504C14.3606 36.8573 14.5628 38.6151 15.0749 40.2462C15.5826 41.8637 16.4241 43.4483 17.818 45.3681C21.1361 49.4121 26.4652 54.7123 34.2314 52.8158C34.2502 52.8086 34.2735 52.7996 34.3005 52.7888C34.3894 52.7528 34.5012 52.703 34.6083 52.645C34.6474 52.624 34.6803 52.6045 34.7075 52.5877C34.9113 51.9937 35.362 51.0645 36.271 50.2226C37.3557 49.2178 38.9812 48.4425 41.3006 48.4043C42.3972 48.1436 42.823 47.5201 43.0398 46.9418C43.1649 46.6077 43.2192 46.274 43.2398 46.0175C43.2499 45.892 43.2511 45.7928 43.2507 45.7317C43.2503 45.7014 43.2492 45.6815 43.2488 45.6729C43.2488 45.6726 43.2488 45.6726 43.2488 45.6722L43.2421 45.5887L43.2454 45.4928L44.8716 45.5508C44.8716 45.5508 45.1795 49.2938 41.4815 50.0323C37.4134 50.0323 36.3642 52.6435 36.193 53.2918C36.0217 53.9404 34.7013 54.3782 34.7013 54.3782C25.8266 56.5946 19.8583 50.4286 16.5303 46.3658C13.5721 42.3026 12.7334 39.3522 12.7334 34.5504V25.5871C12.7334 16.7221 20.2646 9.15436 29.1392 9.15436H30.6184C39.8628 9.15436 47.0412 16.5863 47.0412 25.4513C47.0412 25.4513 46.0922 33.1923 51.3261 35.3798C51.8646 35.4607 52.2811 35.3615 52.6002 35.2855C53.2054 35.1412 53.4619 35.08 53.5447 36.4879C53.6709 38.6383 52.7732 40.9712 49.0752 41.3409C45.0072 41.7472 44.8716 45.5508 44.8716 45.5508C43.2454 45.4928 43.2454 45.4917 43.2454 45.4909V45.489L43.2458 45.4853L43.2462 45.4763C43.2466 45.4696 43.2466 45.4621 43.2473 45.4538C43.2481 45.437 43.2492 45.4164 43.2511 45.3924C43.2544 45.3441 43.2597 45.2816 43.2683 45.2063C43.2848 45.0561 43.3136 44.8539 43.3642 44.6145C43.4634 44.1411 43.6525 43.4951 44.0177 42.8213C44.7828 41.4079 46.2757 39.9825 48.9138 39.7192C50.4246 39.5683 51.1062 39.0544 51.441 38.6061C51.7384 38.208 51.9021 37.674 51.9257 37.0351C51.6729 37.0467 51.3916 37.0376 51.0845 36.9914L50.8852 36.9615ZM51.8624 36.0564C51.8624 36.0564 51.8627 36.0575 51.8631 36.0595C51.8627 36.0574 51.8624 36.0563 51.8624 36.0564ZM34.1835 52.8334L34.184 52.833C34.1828 52.8337 34.1826 52.8337 34.1835 52.8334ZM34.8037 52.5195C34.803 52.5203 34.8022 52.521 34.8014 52.5218C34.8106 52.5124 34.8126 52.5116 34.8037 52.5195Z" fill="#1F2B46"></path><path opacity="0.9" d="M22.6322 28.7107C25.6279 28.7107 28.0564 26.2785 28.0564 23.2784C28.0564 20.2782 25.6279 17.846 22.6322 17.846C19.6365 17.846 17.208 20.2782 17.208 23.2784C17.208 26.2785 19.6365 28.7107 22.6322 28.7107Z" fill="#1F2B46"></path><path opacity="0.9" d="M22.633 20.5622C21.9137 20.5622 21.2239 20.8484 20.7153 21.3577C20.2067 21.8671 19.9209 22.558 19.9209 23.2784C19.9209 23.9987 20.2067 24.6896 20.7153 25.199C21.2239 25.7083 21.9137 25.9945 22.633 25.9945V23.2784V20.5622Z" fill="#52D784"></path><path opacity="0.9" d="M36.4642 28.7107C39.4599 28.7107 41.8884 26.2785 41.8884 23.2784C41.8884 20.2782 39.4599 17.846 36.4642 17.846C33.4685 17.846 31.04 20.2782 31.04 23.2784C31.04 26.2785 33.4685 28.7107 36.4642 28.7107Z" fill="#1F2B46"></path><path opacity="0.9" d="M36.464 20.5622C35.7447 20.5622 35.0549 20.8484 34.5463 21.3577C34.0377 21.8671 33.752 22.558 33.752 23.2784C33.752 23.9987 34.0377 24.6896 34.5463 25.199C35.0549 25.7083 35.7447 25.9945 36.464 25.9945V23.2784V20.5622Z" fill="#60D5DC"></path></g><defs><linearGradient id="paint0_linear" x1="0" y1="32" x2="64" y2="32" gradientUnits="userSpaceOnUse"><stop stop-color="#21A0C8"></stop><stop offset="0.375199" stop-color="#54D3BC"></stop><stop offset="0.605842" stop-color="#42D7A1"></stop><stop offset="1" stop-color="#32B475"></stop></linearGradient><radialGradient id="paint1_radial" cx="0" cy="0" r="1" gradientUnits="userSpaceOnUse" gradientTransform="translate(32 32) rotate(90) scale(32)"><stop offset="0.697917" stop-color="#035E7B" stop-opacity="0"></stop><stop offset="1" stop-color="#035E7B"></stop></radialGradient></defs></svg> 