<?xml version="1.0" encoding="UTF-8"?> <svg xmlns="http://www.w3.org/2000/svg" width="65" height="61" viewBox="0 0 65 61" fill="none"><path d="M28.3665 19.9515C26.9699 20.7363 25.5912 21.5122 24.2125 22.2859C23.3816 22.7523 22.5598 23.2321 21.72 23.6807C21.4775 23.8107 21.3967 23.952 21.3967 24.2233C21.4056 30.1142 21.4033 36.0073 21.4033 41.8982C21.4033 42.6674 21.4101 43.4388 21.3989 44.2079C21.3967 44.412 21.4483 44.5308 21.6324 44.6407C25.3576 46.8765 29.0783 49.1211 32.7945 51.3703C32.9652 51.4734 33.0865 51.4757 33.2571 51.377C35.4194 50.1212 37.5908 48.8767 39.7532 47.6209C43.7276 45.3112 47.6998 42.997 51.6721 40.685C51.9617 40.5169 51.9639 40.5191 51.9662 40.8667C51.9662 43.4657 51.9639 46.0624 51.9707 48.6614C51.9707 48.8699 51.9056 48.9865 51.726 49.092C48.0928 51.2492 44.4619 53.4109 40.831 55.5703C38.3453 57.0481 35.8596 58.5237 33.3806 60.0104C33.1448 60.1517 32.9787 60.1427 32.7474 60.0081C27.9286 57.1894 23.1055 54.3774 18.2844 51.5654C16.9641 50.7962 15.6483 50.0226 14.3235 49.2624C14.1304 49.1525 14.063 49.0314 14.0652 48.8116C14.072 39.2746 14.072 29.7352 14.0652 20.1981C14.0652 19.9716 14.1461 19.8595 14.3302 19.7497C16.5375 18.4378 18.7403 17.1215 20.9386 15.794C21.1496 15.6662 21.3001 15.6662 21.5134 15.794C23.7027 17.1125 25.901 18.4176 28.0971 19.7294C28.1824 19.7855 28.2924 19.8169 28.3665 19.9515Z" fill="#1C8CF3"></path><path d="M39.9847 4.64741C40.2654 4.47026 40.5348 4.29984 40.8065 4.13165C42.8611 2.86467 44.9157 1.60218 46.968 0.330723C47.1252 0.234298 47.2375 0.225329 47.3969 0.326239C48.3355 0.909272 49.2808 1.49006 50.2442 2.03049C52.4626 3.27504 54.6362 4.59583 56.8413 5.86506C57.9371 6.49517 59.0036 7.17912 60.1084 7.798C61.6375 8.65464 63.133 9.56952 64.6577 10.4329C64.862 10.5473 64.9316 10.6796 64.9316 10.9105C64.9249 15.8731 64.9249 20.8355 64.9316 25.7958C64.9316 26.0335 64.8486 26.1524 64.6487 26.2667C63.2767 27.0583 61.9137 27.8633 60.5485 28.6662C57.4835 30.4646 54.4162 32.263 51.3511 34.0615C45.3289 37.5955 39.3043 41.1273 33.2843 44.6659C33.0956 44.778 32.9565 44.7803 32.7678 44.6704C30.9759 43.6299 29.1818 42.5939 27.3833 41.5668C27.1878 41.4547 27.125 41.3291 27.1273 41.1117C27.1339 38.4499 27.1317 35.7858 27.1317 33.1241C27.1317 32.7406 27.1339 32.7384 27.482 32.938C28.6923 33.6264 29.8914 34.3327 31.1152 35.001C31.6855 35.3127 32.2558 35.6222 32.8217 35.9383C32.9744 36.0235 33.0867 36.0191 33.2326 35.9338C37.4765 33.4649 41.7227 30.9983 45.9688 28.5338C47.4306 27.6861 48.8991 26.8498 50.3609 26.0044C52.7298 24.6342 55.0988 23.2596 57.47 21.894C57.6564 21.7864 57.735 21.672 57.735 21.4455C57.7237 19.434 57.726 17.4248 57.7327 15.4133C57.7327 15.2227 57.6856 15.1061 57.5104 15.003C54.9169 13.4826 52.3279 11.9555 49.7411 10.4284C46.5302 8.53356 43.3214 6.63645 40.1127 4.74159C40.0767 4.71917 40.0453 4.69002 39.9847 4.64741Z" fill="#1C8CF3"></path><path d="M51.919 18.3346C50.7424 19.0521 49.6017 19.7495 48.461 20.4447C47.3293 21.1354 46.1908 21.8193 45.0681 22.5234C44.8436 22.6647 44.6842 22.6513 44.4641 22.5234C40.1731 20.0119 35.8776 17.5071 31.5842 15C28.2004 13.0245 24.8142 11.0511 21.4325 9.06658C21.208 8.93425 21.0508 8.93653 20.8286 9.07107C18.8615 10.264 16.8855 11.4435 14.9118 12.6253C12.8572 13.8564 10.8049 15.0897 8.74583 16.3141C8.54821 16.433 8.47183 16.5541 8.47183 16.7873C8.48087 21.1937 8.47859 25.6 8.47859 30.0042C8.47859 30.1186 8.47859 30.2329 8.47859 30.3451C8.34162 30.3675 8.272 30.2912 8.19341 30.2442C5.8604 28.8942 3.52962 27.5398 1.19211 26.1943C1.00125 26.089 0.931641 25.9701 0.931641 25.748C0.938376 21.3305 0.938376 16.9151 0.931641 12.4975C0.931641 12.2643 1.00574 12.1409 1.20783 12.0221C5.28556 9.65407 9.36104 7.27709 13.4365 4.9001C15.9087 3.46046 18.3855 2.02306 20.8532 0.572195C21.0598 0.451104 21.2058 0.460073 21.4034 0.57668C22.3959 1.16645 23.3974 1.74275 24.3966 2.32354C26.3748 3.47392 28.3531 4.62205 30.3313 5.77242C32.5385 7.05509 34.7436 8.33999 36.9509 9.62268C41.8617 12.4751 46.7725 15.3274 51.681 18.1798C51.7461 18.2202 51.8068 18.2628 51.919 18.3346Z" fill="#1C8CF3"></path></svg> 