<?xml version="1.0" encoding="UTF-8"?> <svg xmlns="http://www.w3.org/2000/svg" width="64" height="64" viewBox="0 0 64 64" fill="none"><path d="M10.6667 26.6667H16V21.3333H10.6667V26.6667Z" fill="#FED955"></path><path d="M10.6667 37.3333H16V32H10.6667V37.3333Z" fill="#FED955"></path><path d="M10.6667 32H16V26.6667H10.6667V32Z" fill="#FED955"></path><path d="M10.6667 42.6667H16V37.3333H10.6667V42.6667Z" fill="#FED955"></path><path d="M31.9999 16H37.3333V10.6667H31.9999V16Z" fill="#FED955"></path><path d="M31.9999 48L37.3333 48L37.3333 53.3333L31.9999 53.3333L31.9999 48Z" fill="#FED955"></path><path d="M37.3334 16H42.6667V10.6667H37.3334V16Z" fill="#FED955"></path><path d="M42.6667 16H48V10.6667H42.6667V16Z" fill="#9695F8"></path><path d="M21.3333 16L16 16L16 10.6667L21.3333 10.6667L21.3333 16Z" fill="#9695F8"></path><path d="M53.3333 48L48 48L48 42.6667L53.3333 42.6667L53.3333 48Z" fill="#9695F8"></path><path d="M10.6667 48H16V42.6667H10.6667V48Z" fill="#9695F8"></path><path d="M37.3334 10.6667H42.6667V5.33332L37.3334 5.33332V10.6667Z" fill="#9695F8"></path><path d="M37.3334 5.33334L42.6667 5.33334V1.00136e-05L37.3334 1.00136e-05V5.33334Z" fill="#5552FD"></path><path d="M37.3334 64H42.6667V58.6667H37.3334V64Z" fill="#5552FD"></path><path d="M37.3334 58.6667H42.6667V53.3333H37.3334V58.6667Z" fill="#9695F8"></path><path d="M26.6667 10.6667H32V5.33332L26.6667 5.33332V10.6667Z" fill="#9695F8"></path><path d="M26.6667 5.33334L32 5.33334V1.00136e-05L26.6667 1.00136e-05V5.33334Z" fill="#5552FD"></path><path d="M26.6667 64H32V58.6667H26.6667V64Z" fill="#5552FD"></path><path d="M26.6667 58.6667H32V53.3333H26.6667V58.6667Z" fill="#9695F8"></path><path d="M31.9999 10.6667H37.3333V5.33332L31.9999 5.33332V10.6667Z" fill="#9695F8"></path><path d="M31.9999 5.33334L37.3333 5.33334V1.00136e-05L31.9999 1.00136e-05V5.33334Z" fill="#5552FD"></path><path d="M31.9999 64H37.3333V58.6667H31.9999V64Z" fill="#5552FD"></path><path d="M31.9999 58.6667H37.3333V53.3333H31.9999V58.6667Z" fill="#9695F8"></path><path d="M21.3334 10.6667H26.6667V5.33332L21.3334 5.33332V10.6667Z" fill="#9695F8"></path><path d="M21.3334 5.33334L26.6667 5.33334V1.00136e-05L21.3334 1.00136e-05V5.33334Z" fill="#5552FD"></path><path d="M21.3334 64H26.6667V58.6667H21.3334V64Z" fill="#5552FD"></path><path d="M21.3334 58.6667H26.6667V53.3333H21.3334V58.6667Z" fill="#9695F8"></path><path d="M47.9999 21.3333H53.3333V16H47.9999V21.3333Z" fill="#9695F8"></path><path d="M16.0001 21.3333L10.6667 21.3333L10.6667 16L16.0001 16L16.0001 21.3333Z" fill="#9695F8"></path><path d="M48.0001 53.3333L42.6667 53.3333L42.6667 48L48.0001 48L48.0001 53.3333Z" fill="#9695F8"></path><path d="M15.9999 53.3333H21.3333V48H15.9999V53.3333Z" fill="#9695F8"></path><path d="M53.3334 26.6667H58.6667V21.3333H53.3334V26.6667Z" fill="#9695F8"></path><path d="M5.33341 26.6667H10.6667V21.3333H5.33341L5.33341 26.6667Z" fill="#9695F8"></path><path d="M-8.15392e-05 26.6667H5.33325L5.33325 21.3333H-8.15392e-05L-8.15392e-05 26.6667Z" fill="#5552FD"></path><path d="M5.33341 21.3333H10.6667V16H5.33341L5.33341 21.3333Z" fill="#5552FD"></path><path d="M58.6666 21.3333L53.3333 21.3333L53.3333 16L58.6666 16L58.6666 21.3333Z" fill="#5552FD"></path><path d="M42.6667 58.6667H48V53.3333H42.6667V58.6667Z" fill="#5552FD"></path><path d="M5.33325 42.6667V48H10.6666V42.6667H5.33325Z" fill="#5552FD"></path><path d="M10.6667 16H16V10.6667H10.6667V16Z" fill="#5552FD"></path><path d="M53.3333 16L48 16L48 10.6667L53.3333 10.6667L53.3333 16Z" fill="#5552FD"></path><path d="M47.9999 53.3333H53.3333V48H47.9999V53.3333Z" fill="#5552FD"></path><path d="M10.6667 48V53.3333H16.0001V48H10.6667Z" fill="#5552FD"></path><path d="M15.9999 10.6667H21.3333V5.33332L15.9999 5.33332V10.6667Z" fill="#5552FD"></path><path d="M48.0001 10.6667L42.6667 10.6667L42.6667 5.33332L48.0001 5.33332L48.0001 10.6667Z" fill="#5552FD"></path><path d="M53.3334 48H58.6667V42.6667H53.3334V48Z" fill="#5552FD"></path><path d="M16 53.3333V58.6667H21.3333V53.3333H16Z" fill="#5552FD"></path><path d="M58.6667 26.6667H64V21.3333H58.6667V26.6667Z" fill="#5552FD"></path><path d="M53.3334 32H58.6667V26.6667H53.3334V32Z" fill="#9695F8"></path><path d="M5.33341 32H10.6667V26.6667H5.33341L5.33341 32Z" fill="#9695F8"></path><path d="M-8.15392e-05 32H5.33325L5.33325 26.6667H-8.15392e-05L-8.15392e-05 32Z" fill="#5552FD"></path><path d="M58.6667 32H64V26.6667H58.6667V32Z" fill="#5552FD"></path><path d="M53.3334 37.3333H58.6667V32H53.3334V37.3333Z" fill="#9695F8"></path><path d="M5.33341 37.3333H10.6667V32H5.33341L5.33341 37.3333Z" fill="#9695F8"></path><path d="M-8.15392e-05 37.3333H5.33325L5.33325 32H-8.15392e-05L-8.15392e-05 37.3333Z" fill="#5552FD"></path><path d="M58.6667 37.3333H64V32H58.6667V37.3333Z" fill="#5552FD"></path><path d="M53.3334 42.6667H58.6667V37.3333H53.3334V42.6667Z" fill="#9695F8"></path><path d="M5.33341 42.6667H10.6667V37.3333H5.33341L5.33341 42.6667Z" fill="#9695F8"></path><path d="M-8.15392e-05 42.6667H5.33325L5.33325 37.3333H-8.15392e-05L-8.15392e-05 42.6667Z" fill="#5552FD"></path><path d="M58.6667 42.6667H64V37.3333H58.6667V42.6667Z" fill="#5552FD"></path><path d="M37.3334 48L42.6667 48L42.6667 53.3333L37.3334 53.3333L37.3334 48Z" fill="#FED955"></path><path d="M31.9999 26.6667H37.3333V21.3333H31.9999V26.6667Z" fill="#FED955"></path><path d="M31.9999 37.3333H37.3333V32H31.9999V37.3333Z" fill="#FED955"></path><path d="M31.9999 42.6667H37.3333V37.3333H31.9999V42.6667Z" fill="#FED955"></path><path d="M31.9999 21.3333H37.3333V16H31.9999V21.3333Z" fill="#FED955"></path><path d="M31.9999 42.6667L37.3333 42.6667L37.3333 48L31.9999 48L31.9999 42.6667Z" fill="#FED955"></path><path d="M21.3334 37.3333H26.6667V32H21.3334V37.3333Z" fill="#FED955"></path><path d="M21.3334 32H26.6667V26.6667H21.3334V32Z" fill="#FED955"></path><path d="M21.3334 42.6667H26.6667V37.3333H21.3334V42.6667Z" fill="#FED955"></path><path d="M21.3334 21.3333H26.6667V16H21.3334V21.3333Z" fill="#FED955"></path><path d="M21.3334 42.6667L26.6667 42.6667L26.6667 48L21.3334 48L21.3334 42.6667Z" fill="#FED955"></path><path d="M37.3334 37.3333H42.6667V32H37.3334V37.3333Z" fill="#FED955"></path><path d="M37.3334 32H42.6667V26.6667H37.3334V32Z" fill="#FED955"></path><path d="M37.3334 42.6667H42.6667V37.3333H37.3334V42.6667Z" fill="#FED955"></path><path d="M37.3334 21.3333H42.6667V16H37.3334V21.3333Z" fill="#FED955"></path><path d="M37.3334 42.6667L42.6667 42.6667L42.6667 48L37.3334 48L37.3334 42.6667Z" fill="#FED955"></path><path d="M26.6667 16H32V10.6667H26.6667V16Z" fill="#FED955"></path><path d="M26.6667 48L32 48L32 53.3333L26.6667 53.3333L26.6667 48Z" fill="#FED955"></path><path d="M21.3334 16H26.6667V10.6667H21.3334V16Z" fill="#FED955"></path><path d="M21.3334 48L26.6667 48L26.6667 53.3333L21.3334 53.3333L21.3334 48Z" fill="#FED955"></path><path d="M26.6667 26.6667H32V21.3333H26.6667V26.6667Z" fill="#FED955"></path><path d="M26.6667 37.3333H32V32H26.6667V37.3333Z" fill="#FED955"></path><path d="M21.3334 26.6667H26.6667V21.3333H21.3334V26.6667Z" fill="#5552FD"></path><path d="M31.9999 32H37.3333V26.6667H31.9999V32Z" fill="#5552FD"></path><path d="M42.6667 26.6667H48V21.3333H42.6667V26.6667Z" fill="#5552FD"></path><path d="M42.6667 37.3333H48V32H42.6667V37.3333Z" fill="#5552FD"></path><path d="M42.6667 32H48V26.6667H42.6667V32Z" fill="#5552FD"></path><path d="M42.6667 42.6667H48V37.3333H42.6667V42.6667Z" fill="#5552FD"></path><path d="M42.6667 21.3333H48V16H42.6667V21.3333Z" fill="#5552FD"></path><path d="M42.6667 42.6667L48 42.6667L48 48L42.6667 48L42.6667 42.6667Z" fill="#5552FD"></path><path d="M15.9999 26.6667H21.3333V21.3333H15.9999V26.6667Z" fill="#5552FD"></path><path d="M15.9999 37.3333H21.3333V32H15.9999V37.3333Z" fill="#5552FD"></path><path d="M15.9999 32H21.3333V26.6667H15.9999V32Z" fill="#5552FD"></path><path d="M15.9999 42.6667H21.3333V37.3333H15.9999V42.6667Z" fill="#5552FD"></path><path d="M15.9999 21.3333H21.3333V16H15.9999V21.3333Z" fill="#5552FD"></path><path d="M15.9999 42.6667L21.3333 42.6667L21.3333 48L15.9999 48L15.9999 42.6667Z" fill="#5552FD"></path><path d="M37.3334 26.6667H42.6667V21.3333H37.3334V26.6667Z" fill="#5552FD"></path><path d="M26.6667 32H32V26.6667H26.6667V32Z" fill="#5552FD"></path><path d="M26.6667 42.6667H32V37.3333H26.6667V42.6667Z" fill="#FED955"></path><path d="M26.6667 21.3333H32V16H26.6667V21.3333Z" fill="#FED955"></path><path d="M26.6667 42.6667L32 42.6667L32 48L26.6667 48L26.6667 42.6667Z" fill="#FED955"></path><path d="M47.9999 26.6667H53.3333V21.3333H47.9999V26.6667Z" fill="#FED955"></path><path d="M47.9999 37.3333H53.3333V32H47.9999V37.3333Z" fill="#FED955"></path><path d="M47.9999 32H53.3333V26.6667H47.9999V32Z" fill="#FED955"></path><path d="M47.9999 42.6667H53.3333V37.3333H47.9999V42.6667Z" fill="#FED955"></path></svg> 