<?xml version="1.0" encoding="UTF-8"?> <svg xmlns="http://www.w3.org/2000/svg" width="64" height="64" viewBox="0 0 64 64" fill="none"><path d="M13.4432 40.448L18.4112 35.3088L12.2352 26.9744L4.37123 15.848C1.50048 20.7461 -0.00868655 26.3226 3.76108e-05 32C3.76108e-05 41.76 4.37123 50.4992 11.264 56.368L21.2464 49.3152C17.8309 47.1907 15.1169 44.1071 13.4432 40.4496V40.448ZM23.552 13.4432L28.6912 18.4112L37.0256 12.2352L48.152 4.37123C43.2539 1.50048 37.6774 -0.00868655 32 3.76108e-05C22.24 3.76108e-05 13.5008 4.37123 7.63203 11.264L14.6848 21.2464C16.8093 17.8309 19.8928 15.1168 23.5504 13.4432H23.552ZM45.5888 28.6912L51.7648 37.0256L59.6288 48.152C62.4995 43.2539 64.0087 37.6774 64 32C64 22.24 59.6288 13.5008 52.736 7.63203L42.752 14.6848C46.1675 16.8093 48.8815 19.8929 50.5552 23.5504L45.5872 28.6912H45.5888ZM56.368 52.736L49.3152 42.7536C47.1907 46.1691 44.1072 48.8831 40.4496 50.5568L35.3088 45.5888L26.9744 51.7648L15.848 59.6288C20.7461 62.4995 26.3226 64.0087 32 64C41.76 64 50.4992 59.6288 56.368 52.736Z" fill="black"></path></svg> 