<?xml version="1.0" encoding="UTF-8"?> <svg xmlns="http://www.w3.org/2000/svg" width="64" height="64" viewBox="0 0 64 64" fill="none"><path fill-rule="evenodd" clip-rule="evenodd" d="M43.4288 0H20.5712C9.14307 0 0 9.14307 0 20.5708V43.4307C0 54.8569 9.14307 64 20.5726 64H43.4288C54.8569 64 64 54.8569 64 43.4292V20.5693C64 9.14307 54.8555 0 43.4274 0H43.4288Z" fill="url(#paint0_linear)"></path><path fill-rule="evenodd" clip-rule="evenodd" d="M14.7931 28.7047C12.7078 30.7885 11.8648 33.7965 12.5806 36.5961C13.2964 39.3957 15.4616 41.5613 18.2599 42.2757C21.0596 42.9916 24.0678 42.1477 26.1517 40.064L40.0645 26.1522C42.0301 24.1875 45.1714 24.1459 47.0838 26.0584C48.9961 27.971 48.9562 31.1144 46.9906 33.0791L42.5078 37.562L39.9699 35.0244L38.2528 44.0335L47.2627 42.3174L44.7248 39.7782L49.2076 35.2953C51.2915 33.2115 52.136 30.2035 51.4187 27.4039C50.7043 24.6043 48.5391 22.4387 45.7394 21.7243C42.9397 21.0084 39.9314 21.8523 37.8475 23.936L23.9362 37.8478C21.9706 39.8125 18.8278 39.8541 16.9155 37.9416C15.0032 36.029 15.0446 32.8856 17.0087 30.9209L21.1202 26.81L23.6582 29.3477L25.3723 20.3416L16.3653 22.0562L18.9032 24.5939L14.7917 28.7047H14.7931Z" fill="white"></path><defs><linearGradient id="paint0_linear" x1="64" y1="0.401922" x2="-3.65811e-06" y2="63.5981" gradientUnits="userSpaceOnUse"><stop stop-color="#5F6BFB"></stop><stop offset="1" stop-color="#724DE4"></stop></linearGradient></defs></svg> 