<?xml version="1.0" encoding="UTF-8"?> <svg xmlns="http://www.w3.org/2000/svg" width="64" height="64" viewBox="0 0 64 64" fill="none"><path d="M55.2329 0H8.76712C3.92517 0 0 3.92517 0 8.76712V55.2329C0 60.0748 3.92517 64 8.76712 64H55.2329C60.0748 64 64 60.0748 64 55.2329V8.76712C64 3.92517 60.0748 0 55.2329 0Z" fill="#001F68"></path><path d="M51.7728 40.3612V22.8059C51.7723 22.0366 51.5695 21.2809 51.1848 20.6146C50.8001 19.9483 50.2471 19.3949 49.5811 19.0097L34.2175 10.2321C33.5504 9.8469 32.7935 9.6441 32.0231 9.6441C31.2527 9.6441 30.4959 9.8469 29.8287 10.2321L14.4652 19.0097C13.7992 19.3949 13.2461 19.9483 12.8615 20.6146C12.4768 21.2809 12.274 22.0366 12.2734 22.8059V40.3612C12.274 41.1305 12.4768 41.8862 12.8615 42.5525C13.2461 43.2188 13.7992 43.7722 14.4652 44.1574L29.8287 52.9359C30.4959 53.3211 31.2527 53.5239 32.0231 53.5239C32.7935 53.5239 33.5504 53.3211 34.2175 52.9359L49.5784 44.1574C50.2449 43.7726 50.7985 43.2193 51.1837 42.553C51.5688 41.8867 51.772 41.1308 51.7728 40.3612V40.3612Z" stroke="white" stroke-width="4" stroke-linecap="round" stroke-linejoin="round"></path><path d="M12.8652 20.5238L32.0223 31.6054L51.1776 20.5238" stroke="white" stroke-width="4" stroke-linecap="round" stroke-linejoin="round"></path><path d="M32.0234 53.703V31.5835" stroke="white" stroke-width="4" stroke-linecap="round" stroke-linejoin="round"></path></svg> 