<?xml version="1.0" encoding="UTF-8"?> <svg xmlns="http://www.w3.org/2000/svg" width="51" height="64" viewBox="0 0 51 64" fill="none"><path d="M42.3799 20.0063L28.3553 5.98172C27.5472 5.17364 26.4512 4.71967 25.3084 4.71967C24.1656 4.71967 23.0696 5.17364 22.2615 5.98172L8.23694 20.0063C5.66468 22.351 3.6051 25.2022 2.1876 28.381C0.770093 31.5598 0.025297 34.9973 0 38.4778C0.0142059 45.0744 2.57559 51.4106 7.14954 56.164C11.7235 60.9174 17.9565 63.7206 24.5477 63.9886C29.7132 64.144 34.8024 62.7144 39.1314 59.892C43.4604 57.0695 46.8216 52.9896 48.7633 48.2005C50.705 43.4113 51.1341 38.1426 49.993 33.1023C48.8518 28.0621 46.1951 23.492 42.3799 20.0063Z" fill="#08A1E7"></path><path d="M23.4128 38.7134L37.1387 46.5824C37.2484 46.6448 37.3725 46.6773 37.4987 46.6768C37.6249 46.6763 37.7487 46.6428 37.8579 46.5796C37.9671 46.5164 38.0579 46.4258 38.1213 46.3167C38.1846 46.2076 38.2183 46.0838 38.219 45.9576V31.4586C38.2183 31.3324 38.1846 31.2086 38.1213 31.0995C38.0579 30.9904 37.9671 30.8997 37.8579 30.8366C37.7487 30.7734 37.6249 30.7399 37.4987 30.7394C37.3725 30.7389 37.2484 30.7714 37.1387 30.8337L23.4128 38.7134Z" fill="white"></path><path d="M36.3443 27.4446L27.2255 20.4863C27.1286 20.4129 27.0147 20.3652 26.8945 20.3474C26.7743 20.3297 26.6515 20.3425 26.5375 20.3847C26.4235 20.4269 26.322 20.4972 26.2423 20.589C26.1627 20.6808 26.1074 20.7912 26.0817 20.9099L22.7561 36.4151L36.2702 28.6519C36.3733 28.5915 36.4599 28.5066 36.5225 28.4048C36.585 28.3029 36.6216 28.1873 36.6289 28.068C36.6363 27.9487 36.6141 27.8294 36.5645 27.7207C36.5148 27.612 36.4392 27.5172 36.3443 27.4446Z" fill="white"></path><path d="M27.2255 56.9404L36.3549 49.9715C36.4498 49.9001 36.5255 49.8062 36.5752 49.6983C36.6249 49.5904 36.6471 49.4718 36.6398 49.3532C36.6324 49.2346 36.5958 49.1197 36.5331 49.0188C36.4705 48.9178 36.3838 48.834 36.2807 48.7748L22.7561 41.0116L26.0922 56.5168C26.1159 56.6356 26.1695 56.7465 26.248 56.8388C26.3265 56.9311 26.4273 57.0018 26.5408 57.0443C26.6544 57.0867 26.7768 57.0994 26.8966 57.0813C27.0165 57.0631 27.1297 57.0146 27.2255 56.9404Z" fill="white"></path><path d="M19.8966 38.7133L23.4869 22.0114C23.518 21.8672 23.5039 21.7169 23.4467 21.5809C23.3894 21.445 23.2918 21.3299 23.1669 21.2513C23.0421 21.1726 22.8961 21.1343 22.7487 21.1415C22.6014 21.1486 22.4598 21.2009 22.3431 21.2912L13.1502 28.313C12.9162 28.4901 12.7265 28.719 12.596 28.9818C12.4655 29.2446 12.3978 29.5341 12.3982 29.8275V47.6203C12.3978 47.9137 12.4655 48.2032 12.596 48.466C12.7265 48.7288 12.9162 48.9578 13.1501 49.1348L22.3431 56.146C22.4602 56.2342 22.6014 56.2848 22.7479 56.2909C22.8944 56.297 23.0392 56.2585 23.1633 56.1803C23.2874 56.1022 23.3848 55.9882 23.4426 55.8535C23.5004 55.7187 23.5158 55.5696 23.4869 55.4259L19.8966 38.7133Z" fill="white"></path></svg> 