<?xml version="1.0" encoding="UTF-8"?> <svg xmlns="http://www.w3.org/2000/svg" width="64" height="64" viewBox="0 0 64 64" fill="none"><path fill-rule="evenodd" clip-rule="evenodd" d="M2.18001 10.92C0 15.2 0 20.8 0 32C0 43.2 0 48.8 2.18001 53.0801C4.10001 56.8401 7.16 59.9 10.92 61.82C15.2 64 20.8 64 32 64C43.2 64 48.8 64 53.0801 61.82C56.8401 59.9 59.9 56.8401 61.82 53.0801C64 48.8 64 43.2 64 32C64 20.8 64 15.2 61.82 10.92C59.9 7.16 56.8401 4.10001 53.0801 2.18001C48.8 0 43.2 0 32 0C20.8 0 15.2 0 10.92 2.18001C7.16 4.10001 4.10001 7.16 2.18001 10.92ZM47.97 17.26C48.53 17.26 49.06 17.49 49.4501 17.8801C49.84 18.2801 50.0601 18.82 50.05 19.3699C49.9501 25.33 49.7201 29.89 49.2901 33.5C48.8701 37.1101 48.24 39.79 47.2901 41.9601C46.6501 43.41 45.86 44.61 44.93 45.63C43.68 46.98 42.2501 47.9601 40.69 48.8901C40.0231 49.2889 39.3297 49.6827 38.6023 50.0958C37.0503 50.9772 35.3438 51.9463 33.41 53.2401C32.7101 53.71 31.8001 53.71 31.1001 53.2401C29.1367 51.9311 27.4077 50.9501 25.8415 50.0616C25.4932 49.8641 25.153 49.6711 24.82 49.4801C22.9901 48.42 21.3401 47.41 19.9001 45.95C18.9401 44.99 18.1101 43.82 17.4501 42.43C16.5501 40.5699 15.9401 38.32 15.4901 35.41C14.8901 31.52 14.5901 26.43 14.4801 19.3699C14.4701 18.82 14.6801 18.2801 15.0701 17.8801C15.4601 17.49 16.0001 17.26 16.5601 17.26H17.4201C20.0701 17.2701 25.92 17.01 30.98 13.07C31.73 12.49 32.7801 12.49 33.5301 13.07C38.5901 17.01 44.4401 17.2701 47.1001 17.26H47.97ZM43.3201 40.6301C43.97 39.2899 44.5102 37.44 44.9201 34.78C45.41 31.6 45.7101 27.28 45.8501 21.4001C42.7301 21.31 37.3701 20.7101 32.26 17.2701C27.1501 20.7 21.7901 21.3 18.6801 21.4001C18.7901 26.26 19.01 30.0401 19.36 33.01C19.76 36.3901 20.3301 38.6801 21.04 40.29C21.5101 41.36 22.0301 42.13 22.6501 42.8099C23.4801 43.7201 24.53 44.4701 25.9601 45.33C26.5533 45.6859 27.2072 46.0561 27.9192 46.4591C29.1875 47.1769 30.6397 47.9988 32.26 49.0301C33.8506 48.0157 35.2819 47.2022 36.5354 46.4896C36.9133 46.2749 37.2749 46.0692 37.62 45.87C39.38 44.86 40.6801 44.02 41.65 43.04C42.3001 42.37 42.8301 41.6401 43.3201 40.6301Z" fill="#3375BB"></path></svg> 