<?xml version="1.0" encoding="UTF-8"?> <svg xmlns="http://www.w3.org/2000/svg" width="59" height="65" viewBox="0 0 59 65" fill="none"><path d="M41.4425 21.3045L29.9512 25.7054C29.4615 25.9503 28.8512 25.9503 28.2398 25.7054L16.9933 21.3045C13.0808 21.5493 9.90283 24.9721 9.90283 28.8846C9.90283 32.9189 13.0808 36.3417 17.1151 36.4635C17.7265 36.4635 18.338 36.8301 18.7047 37.1968C19.0713 37.6864 19.3161 38.2979 19.3161 38.9082V39.5196C19.3107 40.8215 19.563 42.1117 20.0587 43.3155C20.5543 44.5194 21.2835 45.6132 22.204 46.5339C23.1245 47.4545 24.2183 48.1838 25.4221 48.6796C26.6259 49.1754 27.916 49.4279 29.2179 49.4226C30.5199 49.4281 31.8101 49.1757 33.0141 48.68C34.218 48.1842 35.3119 47.455 36.2326 46.5343C37.1532 45.6137 37.8825 44.5198 38.3782 43.3158C38.8739 42.1119 39.1264 40.8216 39.1209 39.5196V38.7864C38.9978 37.5634 39.9759 36.4635 41.1989 36.3417C45.1101 35.975 48.0445 32.674 48.0445 28.7616C48.2893 25.0952 45.355 21.7929 41.4425 21.3045ZM20.2943 34.9969C18.8265 34.9969 17.7265 33.8958 17.7265 32.4292C17.7265 30.9627 18.8265 29.8615 20.2943 29.8615C21.7608 29.8615 22.8607 30.9627 22.8607 32.4292C22.8607 33.8958 21.7608 34.9969 20.2943 34.9969ZM33.7418 38.7864L30.3178 40.6196V42.4527C30.3178 43.0655 29.8281 43.677 29.0961 43.677C28.7719 43.6763 28.4613 43.5472 28.232 43.318C28.0028 43.0888 27.8738 42.7781 27.8731 42.454V40.6208L24.4503 38.7864C23.8388 38.4197 23.717 37.8082 23.9606 37.1968C24.3285 36.5865 24.94 36.4635 25.5502 36.7071L28.973 38.5415L32.5189 36.7083C33.1304 36.3417 33.8624 36.5853 34.1085 37.198C34.4751 37.6864 34.2315 38.4197 33.7418 38.7864ZM37.8979 34.9969C36.4314 34.9969 35.3302 33.8958 35.3302 32.4292C35.3302 30.9627 36.4314 29.8615 37.8979 29.8615C39.3645 29.8615 40.4656 30.9627 40.4656 32.4292C40.4656 33.8958 39.3645 34.9969 37.8979 34.9969Z" fill="#BA28FF"></path><path d="M52.4443 12.1385L34.965 2.11245C31.2973 0.033156 26.8964 0.033156 23.3506 2.11245L5.86747 12.259C2.20108 14.3396 0 18.2521 0 22.4081V42.7C0 46.8561 2.19983 50.7686 5.86747 52.8466L23.3493 62.9944C27.017 65.0725 31.4179 65.0725 34.9637 62.9944L52.4443 52.8454C56.1107 50.7673 58.3118 46.8561 58.3118 42.7V22.4056C58.3118 18.1265 56.1119 14.2153 52.4443 12.136V12.1385ZM43.8873 40.8668C43.2771 48.4457 37.0417 54.4362 29.3398 54.4362C21.6379 54.4362 15.4026 48.5687 14.7923 40.9886C9.29151 39.7669 5.25724 34.7545 5.25724 29.0089C5.25724 22.4069 10.6363 16.9048 17.237 16.6612C17.6036 16.6612 18.0933 16.6612 18.46 16.906L29.095 21.0621L40.3427 16.783C40.5876 16.6612 40.8324 16.6612 41.076 16.6612H41.8093C48.0447 17.2727 52.934 22.5287 52.934 28.8858C52.934 34.6315 49.2676 39.399 43.8873 40.8668Z" fill="#BA28FF"></path></svg> 