<?xml version="1.0" encoding="UTF-8"?> <svg xmlns="http://www.w3.org/2000/svg" width="60" height="65" viewBox="0 0 60 65" fill="none"><path d="M35.2159 30.5122V28.369H40.8126V26.1784H46.3654V23.1683H52.0351V21.4189H56.5212V18.6295H55.4546V14.9891H52.079V11.3486H48.7035V7.72392H45.3279V4.08345H41.967V0.442993H21.743V4.08345H18.3675V7.72392H14.9919V11.3486H11.631V14.9891H8.25543V18.6295H4.87988V40.4407H8.25543V44.0654H11.631V47.7059H14.9919V51.3463H18.3675V54.9711H21.743V58.6116H41.967V54.9711H45.3279V51.3463H48.7035V47.7059H52.079V44.0654H55.4546V40.4407H52.0351V39.1958H44.2173V36.8003H38.5622V34.3419H33.1409V33.1598H31.8551H28.4795V30.5122H35.2159Z" fill="#E8D435"></path><path d="M30.0284 17.9993H23.292V25.2646H30.0284V17.9993Z" fill="#6B223C"></path><path d="M25.5861 17.9993H23.292V20.4736H25.5861V17.9993Z" fill="white"></path><path d="M29.5295 18.4745H18.4922V21.5484H29.5295V18.4745Z" fill="white"></path><path d="M51.8146 18.2411H40.7773V21.3151H51.8146V18.2411Z" fill="white"></path><path d="M31.6437 20.5644H20.6064V23.6383H31.6437V20.5644Z" fill="white"></path><path d="M54.2072 20.0166H43.1699V23.0906H54.2072V20.0166Z" fill="white"></path><path d="M32.5216 21.5484H21.4844V24.6223H32.5216V21.5484Z" fill="white"></path><path d="M21.1343 24.9983L21.112 24.129L20.1662 24.1088L19.2206 24.0884L19.1983 23.2259L19.1759 22.3635L18.2302 22.3432L17.2844 22.3228L17.2621 21.4604L17.2397 20.5981L16.4579 20.5844C16.0259 20.5777 15.6164 20.5708 15.5494 20.5641C15.4376 20.5641 15.4153 20.4622 15.4004 19.7357L15.3781 18.9004L9.6293 18.8801L3.87305 18.8665V18.0516V17.2368H31.649H59.425V18.9004V20.5641H58.5463C57.9655 20.5641 57.6379 20.5912 57.5783 20.6456C57.5187 20.6999 57.489 20.9918 57.489 21.5283V22.3228L56.5432 22.3432L55.59 22.3635L55.5677 23.2328L55.5454 24.0951H48.9253H42.3052L42.2828 23.2328L42.2605 22.3635L41.3147 22.3432L40.369 22.3228L40.3468 21.4604L40.3244 20.5981L38.3957 20.5777C36.8989 20.5641 36.4522 20.5844 36.4 20.6456C36.3701 20.693 36.3404 21.0938 36.3404 21.5352V22.3297H35.4617C34.8809 22.3297 34.5532 22.3568 34.4936 22.411C34.4341 22.4654 34.4042 22.7642 34.4042 23.2939V24.0951H33.5182C32.9522 24.0951 32.6096 24.1223 32.5724 24.1699C32.5501 24.2106 32.5277 24.6044 32.5352 25.0526L32.5501 25.8606H26.8534H21.1567L21.1343 24.9983ZM25.0066 23.3685L25.0289 22.5334H25.8779H26.7268L26.7491 23.3685L26.7715 24.197L27.7991 24.2174L28.8268 24.2377L28.8044 23.3006L28.7821 22.3635L27.8288 22.3432L26.8757 22.3228L26.8906 21.5148C26.8981 20.6659 26.8757 20.5506 26.6747 20.5708C26.6002 20.5777 26.2055 20.5777 25.7885 20.5708L25.0289 20.5641L25.0066 19.7357L24.9842 18.9004H23.9417H22.8992L22.8769 19.7288L22.8545 20.5573L22.1695 20.5777C21.0599 20.6117 21.1567 20.693 21.1343 19.7288L21.112 18.9004H20.1067H19.1014V19.8172V20.7339L20.0471 20.7543L20.9929 20.7746L21.0152 21.637L21.0376 22.4994L21.9535 22.5197L22.862 22.5401V23.3414C22.862 23.7827 22.8844 24.163 22.9141 24.1901C22.9439 24.2106 23.4205 24.2241 23.9716 24.2174L24.9842 24.197L25.0066 23.3685ZM46.0807 22.4519C46.1402 22.3975 46.17 22.0987 46.17 21.569V20.7678H47.0264H47.8753L47.8976 21.637L47.92 22.4994H48.9253H49.9306L49.9529 21.6845C49.9827 20.4758 50.0646 20.5641 48.9625 20.5641H48.0316V19.7153V18.8597L47.0114 18.8801L45.9838 18.9004L45.9615 19.7357L45.9391 20.5641H45.0902H44.2412L44.219 19.7357L44.1967 18.9004L43.169 18.8801L42.1414 18.8597L42.1637 19.7968L42.1861 20.7339L43.102 20.7543L44.0105 20.7746V21.569C44.0105 22.1055 44.0402 22.3975 44.0998 22.4519C44.2264 22.5672 45.9541 22.5672 46.0807 22.4519Z" fill="black"></path><path d="M0 19.7832V19.0023H1.82445H3.6489V19.7832V20.5641H1.82445H0V19.7832Z" fill="black"></path><path d="M38.5521 42.4317V42.0231H38.9606H39.3692V41.206V40.3889H38.9606H38.5521V39.9804V39.5718H38.1435H37.7349V39.1632V38.7547H37.3264H36.9178V38.3461V37.9377H36.5092H36.1007V37.5291V37.1204H35.6921H35.2835V36.712V36.3034H34.875H34.4664V35.8949V35.4863H34.0578H33.6493V35.0777V34.6692H33.2407H32.8321V34.2606V33.8521H32.4237H32.0151V33.4435V33.0349H31.6064H31.198V32.6264V32.2178H30.7894H30.3808V31.8094V31.4008H29.9723H29.5637V30.9921V30.5837H28.7466H27.9294V30.9921V31.4008H27.5209H27.1123V32.2178V33.0349H27.5209H27.9294V33.4435V33.8521H28.338H28.7466V34.2606V34.6692H29.1551H29.5637V35.0777V35.4863H29.9723H30.3808V35.8949V36.3034H30.7894H31.198V36.712V37.1204H31.6064H32.0151V37.5291V37.9377H32.4237H32.8321V38.3461V38.7547H33.2407H33.6493V39.1632V39.5718H34.0578H34.4664V39.9804V40.3889H34.875H35.2835V40.7975V41.206H35.6921H36.1007V41.6146V42.0231H36.5092H36.9178V42.4317V42.8403H37.7349H38.5521V42.4317ZM37.0404 41.206V40.5115H37.7349H38.4295V41.206V41.9006H37.7349H37.0404V41.206ZM35.2835 39.9804V39.5718H34.875H34.4664V39.1632V38.7547H34.0578H33.6493V38.3461V37.9377H33.2407H32.8321V37.5291V37.1204H32.4237H32.0151V36.712V36.3034H31.6064H31.198V35.4863V34.6692H32.0151H32.8321V35.0777V35.4863H33.2407H33.6493V35.8949V36.3034H34.0578H34.4664V36.712V37.1204H34.875H35.2835V37.5291V37.9377H35.6921H36.1007V38.3461V38.7547H36.5092H36.9178V39.5718V40.3889H36.1007H35.2835V39.9804ZM29.6863 34.138V33.7295H29.2777H28.8691V33.3209V32.9125H28.4606H28.052V32.2178V31.5233H28.7466H29.4411V31.9318V32.3404H29.8497H30.2583V32.749V33.1575H30.6668H31.0754V33.8521V34.5466H30.3808H29.6863V34.138Z" fill="black"></path><path d="M40.1864 38.7545V37.9374H40.595H41.0035V37.1202V36.3031H40.595H40.1864V35.486V34.6689H40.595H41.0035V33.8519V33.0347H40.595H40.1864V32.2176V31.4005H39.7778H39.3693V32.2176V33.0347H39.7778H40.1864V33.8519V34.6689H39.7778H39.3693V35.486V36.3031H39.7778H40.1864V37.1202V37.9374H39.7778H39.3693V37.5288V37.1202H38.9607H38.5521V36.7117V36.3031H38.1437H37.7351V35.486V34.6689H38.1437H38.5521V33.8519V33.0347H38.1437H37.7351V32.2176V31.4005H37.3264H36.918V32.2176V33.0347H37.3264H37.7351V33.8519V34.6689H37.3264H36.918V35.486V36.3031H37.3264H37.7351V36.7117V37.1202H38.1437H38.5521V37.5288V37.9374H38.9607H39.3693V38.7545V39.5716H39.7778H40.1864V38.7545Z" fill="black"></path><path d="M31.1981 33.8519V33.0347H30.7895H30.3811V32.6262V32.2176H29.9725H29.5638V31.8091V31.4005H28.7468H27.9297V32.2176V33.0347H28.3382H28.7468V33.4433V33.8519H29.1554H29.5638V34.2603V34.6689H30.3811H31.1981V33.8519Z" fill="#FEC408"></path><path d="M38.5523 41.5531V41.0832H38.2621C37.8903 41.0832 37.8576 41.0506 37.8576 40.6788V40.3888H37.3878H36.918V41.2058V42.0229H37.735H38.5523V41.5531Z" fill="#FE0C0B"></path><path d="M38.5475 40.8709L38.5516 40.3888L38.0695 40.3928C37.8081 40.3969 37.6242 40.405 37.6609 40.4173C37.7223 40.4337 37.7344 40.4868 37.7344 40.7606C37.7344 41.1854 37.755 41.2058 38.1798 41.2058C38.4536 41.2058 38.5067 41.2181 38.5229 41.2793C38.5352 41.3162 38.5434 41.1323 38.5475 40.8709Z" fill="#FB730C"></path><path d="M38.544 41.6062L38.5359 41.1854L38.5236 41.545L38.5073 41.9003H37.776H37.0406V41.165V40.4337L37.3959 40.4173L37.7556 40.405L37.3347 40.3969L36.918 40.3888V41.2058V42.0229H37.735H38.5523L38.544 41.6062Z" fill="#E91514"></path><path d="M35.2773 38.7682H36.917V40.3904H35.2773V38.7682Z" fill="white"></path><path d="M34.4561 37.9506H36.0957V39.5728H34.4561V37.9506Z" fill="white"></path><path d="M33.6387 37.1416H35.2783V38.7639H33.6387V37.1416Z" fill="white"></path><path d="M32.8154 36.2804H34.4551V37.9505H32.8154V36.2804Z" fill="white"></path><path d="M31.9932 35.4846H33.6328V37.1547H31.9932V35.4846Z" fill="white"></path><path d="M31.1982 34.6713H32.8379V36.3414H31.1982V34.6713Z" fill="white"></path><path d="M28.8016 63.0759H28.5458V62.8199V62.5603H28.5419V62.5564H28.2821H28.0264V60.0279V57.4996H28.2821H28.5419V57.4957H28.5458V55.1582V52.8246H28.8016H29.0614V52.8207H29.0653V46.8471V40.8773H30.0353H31.0055V46.8471V52.8207H31.0093V52.8246H31.269H31.5249V55.1582V57.4957H31.5288V57.4996H31.7884H32.0443V60.0215V62.5502L31.8075 62.5695C31.7492 62.5742 31.7043 62.5788 31.6696 62.5864C31.635 62.5939 31.6099 62.6047 31.5918 62.6224C31.5736 62.6403 31.5626 62.6645 31.5549 62.6984C31.5472 62.7322 31.5427 62.7759 31.5378 62.8326C31.533 62.8894 31.5285 62.9327 31.5211 62.9658C31.5137 62.999 31.5033 63.0217 31.487 63.038C31.4708 63.0543 31.448 63.0646 31.4148 63.0721C31.3816 63.0796 31.3385 63.084 31.2816 63.0889C31.2249 63.0937 31.1811 63.0982 31.1474 63.1058C31.1136 63.1133 31.0893 63.1242 31.0715 63.1419C31.0538 63.1597 31.0429 63.184 31.0353 63.2178C31.0278 63.2517 31.0233 63.2953 31.0184 63.3521C31.0136 63.4089 31.0091 63.4522 31.0017 63.4852C30.9942 63.5184 30.9839 63.5412 30.9676 63.5575C30.9513 63.5737 30.9286 63.5841 30.8954 63.5916C30.8622 63.599 30.819 63.6034 30.7622 63.6083C30.7055 63.6131 30.6617 63.6176 30.628 63.6253C30.5941 63.633 30.5698 63.644 30.552 63.6622C30.5342 63.6804 30.5235 63.7054 30.5159 63.7401C30.5084 63.7747 30.5038 63.8197 30.4989 63.8781L30.4798 64.1147H30.0353H29.5909L29.5717 63.8781C29.5667 63.8197 29.5624 63.7747 29.5547 63.7401C29.5471 63.7054 29.5364 63.6804 29.5186 63.6622C29.5009 63.644 29.4764 63.633 29.4426 63.6253C29.4089 63.6176 29.3652 63.6131 29.3084 63.6083L29.3081 63.6121L29.3084 63.6083C29.2483 63.6034 29.2031 63.5994 29.169 63.5922C29.1349 63.585 29.1125 63.5746 29.0976 63.5576C29.0824 63.5407 29.0743 63.5165 29.0699 63.4802C29.0656 63.4439 29.0653 63.3964 29.0653 63.3329V63.3327C29.0653 63.2696 29.0653 63.222 29.0611 63.186C29.057 63.1503 29.0487 63.1253 29.0315 63.1087C29.0144 63.0919 28.9889 63.0839 28.9522 63.0799C28.9154 63.0759 28.8666 63.0759 28.8019 63.0759H28.8016Z" fill="#FF1616" stroke="black" stroke-width="0.00594674"></path><path d="M28.5459 38.9842V38.2803H30.0355H31.525V38.9842V39.6948L31.2883 39.7141L31.0416 39.7336L31.0393 39.7046L31.0381 39.7372L31.0186 40.2437L30.9992 40.7399H30.0355H29.0717L29.0523 40.2437L29.0329 39.7372L29.0612 39.7361L29.0293 39.7336L28.7892 39.7141L28.5459 39.6948V38.9842Z" fill="#FF1616" stroke="black" stroke-width="0.00594674"></path><mask id="mask0" style="mask-type:alpha" maskUnits="userSpaceOnUse" x="27" y="37" width="6" height="28"><path d="M29.2566 64.1833V63.9235H28.9969H28.7371V63.6639V63.4041H28.4775H28.2177V63.1444V62.8847H27.958H27.6982V60.0278V57.1708H27.958H28.2177V54.8333V52.4958H28.4775H28.7371V46.2626V40.0293H28.4775H28.2177V38.9904V37.9515H30.0358H31.8538V38.9904V40.0293H31.5941H31.3344V46.2626V52.4958H31.5941H31.8538V54.8333V57.1708H32.1136H32.3732V60.0278V62.8847H32.1136H31.8538V63.1444V63.4041H31.5941H31.3344V63.6639V63.9235H31.0747H30.8149V64.1833V64.443H30.0358H29.2566V64.1833ZM30.3085 63.6834C30.3279 63.4496 30.3409 63.4367 30.5682 63.4172C30.7954 63.3976 30.8085 63.3847 30.828 63.1574C30.8473 62.9301 30.8604 62.9172 31.0876 62.8977C31.3148 62.8782 31.3279 62.8653 31.3474 62.6379C31.3668 62.4107 31.3798 62.3978 31.6135 62.3783L31.8538 62.3588V60.0213V57.6902H31.5941H31.3344V55.3528V53.0152H31.0747H30.8149V47.0417V41.0681H30.0358H29.2566V47.0417V53.0152H28.9969H28.7371V55.3528V57.6902H28.4775H28.2177V60.0278V62.3652H28.4775H28.7371V62.625V62.8847H28.9969C29.2566 62.8847 29.2566 62.8847 29.2566 63.138C29.2566 63.3912 29.263 63.3976 29.5033 63.4172C29.7305 63.4367 29.7436 63.4496 29.7631 63.6834C29.7825 63.9171 29.7891 63.9235 30.0358 63.9235C30.2825 63.9235 30.289 63.9171 30.3085 63.6834ZM30.828 40.0486L30.8473 39.5422L31.0941 39.5227L31.3344 39.5032V38.9838V38.4709H30.0358H28.7371V38.9838V39.5032L28.9839 39.5227L29.2242 39.5422L29.2437 40.0486L29.263 40.5487H30.0358H30.8084L30.828 40.0486Z" fill="white"></path></mask><g mask="url(#mask0)"><path d="M29.2566 64.1833V63.9235H28.9969H28.7371V63.6639V63.4041H28.4775H28.2177V63.1444V62.8847H27.958H27.6982V60.0278V57.1708H27.958H28.2177V54.8333V52.4958H28.4775H28.7371V46.2626V40.0293H28.4775H28.2177V38.9904V37.9515H30.0358H31.8538V38.9904V40.0293H31.5941H31.3344V46.2626V52.4958H31.5941H31.8538V54.8333V57.1708H32.1136H32.3732V60.0278V62.8847H32.1136H31.8538V63.1444V63.4041H31.5941H31.3344V63.6639V63.9235H31.0747H30.8149V64.1833V64.443H30.0358H29.2566V64.1833ZM30.3085 63.6834C30.3279 63.4496 30.3409 63.4367 30.5682 63.4172C30.7954 63.3976 30.8085 63.3847 30.828 63.1574C30.8473 62.9301 30.8604 62.9172 31.0876 62.8977C31.3148 62.8782 31.3279 62.8653 31.3474 62.6379C31.3668 62.4107 31.3798 62.3978 31.6135 62.3783L31.8538 62.3588V60.0213V57.6902H31.5941H31.3344V55.3528V53.0152H31.0747H30.8149V47.0417V41.0681H30.0358H29.2566V47.0417V53.0152H28.9969H28.7371V55.3528V57.6902H28.4775H28.2177V60.0278V62.3652H28.4775H28.7371V62.625V62.8847H28.9969C29.2566 62.8847 29.2566 62.8847 29.2566 63.138C29.2566 63.3912 29.263 63.3976 29.5033 63.4172C29.7305 63.4367 29.7436 63.4496 29.7631 63.6834C29.7825 63.9171 29.7891 63.9235 30.0358 63.9235C30.2825 63.9235 30.289 63.9171 30.3085 63.6834ZM30.828 40.0486L30.8473 39.5422L31.0941 39.5227L31.3344 39.5032V38.9838V38.4709H30.0358H28.7371V38.9838V39.5032L28.9839 39.5227L29.2242 39.5422L29.2437 40.0486L29.263 40.5487H30.0358H30.8084L30.828 40.0486Z" fill="black" stroke="black" stroke-width="0.0118935"></path><path d="M29.8185 41.3547H29.25V41.9462H29.8185V41.3547Z" fill="#E1E2DF"></path><path d="M30.3175 41.8925H29.749V42.484H30.3175V41.8925Z" fill="#E1E2DF"></path><path d="M30.8253 42.438H30.2568V43.0295H30.8253V42.438Z" fill="#E1E2DF"></path><path d="M29.8185 43.4135H29.25V44.005H29.8185V43.4135Z" fill="#E1E2DF"></path><path d="M30.3175 43.9512H29.749V44.5428H30.3175V43.9512Z" fill="#E1E2DF"></path><path d="M30.8253 44.4968H30.2568V45.0883H30.8253V44.4968Z" fill="#E1E2DF"></path><path d="M29.8185 45.4724H29.25V46.0639H29.8185V45.4724Z" fill="#E1E2DF"></path><path d="M30.3175 46.01H29.749V46.6016H30.3175V46.01Z" fill="#E1E2DF"></path><path d="M30.8253 46.5553H30.2568V47.1468H30.8253V46.5553Z" fill="#E1E2DF"></path><path d="M29.8185 47.531H29.25V48.1226H29.8185V47.531Z" fill="#E1E2DF"></path><path d="M30.3175 48.0687H29.749V48.6602H30.3175V48.0687Z" fill="#E1E2DF"></path><path d="M30.8253 48.6142H30.2568V49.2058H30.8253V48.6142Z" fill="#E1E2DF"></path><path d="M29.8185 49.5901H29.25V50.1816H29.8185V49.5901Z" fill="#E1E2DF"></path><path d="M30.3175 50.1279H29.749V50.7194H30.3175V50.1279Z" fill="#E1E2DF"></path><path d="M30.8253 50.6729H30.2568V51.2644H30.8253V50.6729Z" fill="#E1E2DF"></path><path d="M29.8185 52.0637H29.25V52.6552H29.8185V52.0637Z" fill="#E1E2DF"></path><path d="M30.3175 52.6013H29.749V53.1928H30.3175V52.6013Z" fill="#E1E2DF"></path><path d="M30.8253 53.1466H30.2568V53.7381H30.8253V53.1466Z" fill="#E1E2DF"></path><path d="M31.3331 53.6538H30.7646V54.2453H31.3331V53.6538Z" fill="#E1E2DF"></path><path d="M29.3273 53.9533H28.7588V54.5449H29.3273V53.9533Z" fill="#E1E2DF"></path><path d="M29.8263 54.4914H29.2578V55.0829H29.8263V54.4914Z" fill="#E1E2DF"></path><path d="M30.3322 55.0368H29.7637V55.6283H30.3322V55.0368Z" fill="#E1E2DF"></path><path d="M30.839 55.5436H30.2705V56.1351H30.839V55.5436Z" fill="#E1E2DF"></path><path d="M31.3087 56.1351H30.7402V56.7266H31.3087V56.1351Z" fill="#E1E2DF"></path><path d="M29.3038 56.4348H28.7354V57.0264H29.3038V56.4348Z" fill="#E1E2DF"></path><path d="M29.8038 56.9726H29.2354V57.5641H29.8038V56.9726Z" fill="#E1E2DF"></path><path d="M30.3097 57.5179H29.7412V58.1094H30.3097V57.5179Z" fill="#E1E2DF"></path><path d="M30.8165 58.0249H30.248V58.6165H30.8165V58.0249Z" fill="#E1E2DF"></path><path d="M31.2863 58.6166H30.7178V59.2081H31.2863V58.6166Z" fill="#E1E2DF"></path><path d="M31.2168 59.135H31.7853V59.7265H31.2168V59.135Z" fill="#E1E2DF"></path><path d="M28.797 58.6166H28.2285V59.2081H28.797V58.6166Z" fill="#E1E2DF"></path><path d="M29.297 59.1545H28.7285V59.746H29.297V59.1545Z" fill="#E1E2DF"></path><path d="M29.8038 59.6998H29.2354V60.2913H29.8038V59.6998Z" fill="#E1E2DF"></path><path d="M30.3097 60.207H29.7412V60.7985H30.3097V60.207Z" fill="#E1E2DF"></path><path d="M30.7784 60.7984H30.21V61.3899H30.7784V60.7984Z" fill="#E1E2DF"></path><path d="M30.71 61.3169H31.2784V61.9084H30.71V61.3169Z" fill="#E1E2DF"></path><path d="M31.2773 61.8508H31.8535V62.4655H31.2773V61.8508Z" fill="#FF1616"></path><path d="M30.8174 62.3616H31.3858V62.9531H30.8174V62.3616Z" fill="#FF1616"></path><path d="M28.5889 62.3616H29.1573V62.9531H28.5889V62.3616Z" fill="#FF1616"></path><path d="M30.3096 62.8342H30.878V63.4257H30.3096V62.8342Z" fill="#FF1616"></path><path d="M29.1035 62.8342H29.672V63.4257H29.1035V62.8342Z" fill="#FF1616"></path><path d="M29.5957 63.2337H30.4331V64.0557H29.5957V63.2337Z" fill="#FF1616"></path><path d="M31.2773 61.8739H31.8459V62.4655H31.2773V61.8739Z" fill="#E1E2DF"></path></g></svg> 