<?xml version="1.0" encoding="UTF-8"?> <svg xmlns="http://www.w3.org/2000/svg" width="58" height="65" viewBox="0 0 58 65" fill="none"><path d="M37.181 59.1843L11.0032 44.0631C10.0838 43.5316 9.5175 42.55 9.5175 41.488V11.2099C9.5175 10.7518 9.02142 10.4655 8.62485 10.6947L3.26842 13.7917C1.24545 14.961 0 17.1202 0 19.4565V44.9201C0 47.2566 1.24545 49.4155 3.26842 50.5849L25.2778 63.3093C27.304 64.4809 29.8017 64.4809 31.8279 63.3093L37.181 60.2143C37.5775 59.9851 37.5775 59.4131 37.181 59.1843Z" fill="#495BFF"></path><path d="M22.3058 29.6108C22.3058 28.9736 22.6456 28.3846 23.1972 28.0656L27.6586 25.4864C28.2111 25.167 28.8924 25.167 29.445 25.4864L33.9063 28.0656C34.458 28.3846 34.7977 28.9736 34.7977 29.6108V34.7734C34.7977 35.4105 34.458 35.9995 33.9064 36.3182L29.445 38.8974C28.8924 39.2168 28.2111 39.2168 27.6586 38.8974L23.1972 36.3182C22.6456 35.9995 22.3058 35.4105 22.3058 34.7734V29.6108ZM15.762 41.3049L27.0633 47.8383C27.9843 48.3705 29.1195 48.3705 30.0403 47.8383L41.3425 41.3038C42.2619 40.7726 42.8282 39.791 42.8282 38.729V25.6541C42.8282 24.5921 42.2619 23.6109 41.3425 23.0793L30.0403 16.5452C29.1195 16.0127 27.9843 16.0127 27.0633 16.5452L24.2592 18.1662C24.0608 18.2808 23.8126 18.1375 23.8129 17.9083L23.8309 2.96254C23.8316 2.50415 23.3352 2.2175 22.9386 2.44706L15.7818 6.58441C14.863 7.11561 14.2967 8.09614 14.2961 9.15718L14.2764 38.728C14.2756 39.7904 14.842 40.7729 15.762 41.3049Z" fill="#495BFF"></path><path d="M53.8259 13.7837L31.8166 1.05965C30.8945 0.526448 29.8748 0.236113 28.8462 0.188325C28.6775 0.180307 28.5361 0.316614 28.5361 0.486037V9.81872C28.5361 10.0312 28.6498 10.2273 28.8334 10.3336L46.0912 20.3058C47.0105 20.8373 47.5768 21.8186 47.5768 22.8806V41.4803C47.5768 42.5423 47.0105 43.5236 46.0912 44.0551L34.1936 50.9333C33.7974 51.1625 33.7974 51.7348 34.194 51.9636L42.2214 56.5981C42.5896 56.8109 43.0435 56.8109 43.4117 56.5978L53.8259 50.5772C55.8485 49.4079 57.0943 47.2486 57.0943 44.9124V19.4485C57.0943 17.1122 55.8485 14.953 53.8259 13.7837Z" fill="#495BFF"></path></svg> 