<?xml version="1.0" encoding="UTF-8"?> <svg xmlns="http://www.w3.org/2000/svg" width="66" height="65" viewBox="0 0 66 65" fill="none"><path d="M33.1558 64.5C50.8289 64.5 65.1558 50.1731 65.1558 32.5C65.1558 14.8269 50.8289 0.5 33.1558 0.5C15.4826 0.5 1.15576 14.8269 1.15576 32.5C1.15576 50.1731 15.4826 64.5 33.1558 64.5Z" fill="white" stroke="#231F20" stroke-miterlimit="10"></path><path d="M33.1555 60.1872C48.4467 60.1872 60.8428 47.7912 60.8428 32.5C60.8428 17.2087 48.4467 4.81274 33.1555 4.81274C17.8643 4.81274 5.46826 17.2087 5.46826 32.5C5.46826 47.7912 17.8643 60.1872 33.1555 60.1872Z" fill="#388275" stroke="#231F20" stroke-width="2" stroke-miterlimit="10"></path><path d="M47.866 42.3984C47.5949 42.5881 47.2222 42.7169 46.7479 42.7847C46.3006 42.8524 45.9753 42.8389 45.772 42.744C45.7178 42.7169 45.6636 42.622 45.6094 42.4594C45.5688 42.2832 45.5145 42.1612 45.4468 42.0935C45.4197 42.0664 45.3858 42.046 45.3451 42.0325C44.803 41.7343 44.2202 41.4768 43.5968 41.26C42.1331 40.7179 40.622 40.3858 39.0634 40.2638C38.2637 38.3529 37.8301 37.3093 37.7623 37.1331C37.2879 35.9269 37.1389 35.2357 37.315 35.0595L52.6027 19.7719C52.6976 19.677 52.989 19.6973 53.4769 19.8329C53.9783 19.9819 54.2968 20.1378 54.4323 20.3004C54.5814 20.4766 54.7983 20.9103 55.0829 21.6015C55.381 22.2792 55.686 22.7738 55.9977 23.0856C56.4043 23.4921 57.1158 23.8377 58.1323 24.1224C59.081 24.3663 59.6028 24.5899 59.6976 24.7932C59.9145 25.2269 60.0365 26.0672 60.0636 27.3141C60.1178 28.5609 60.0432 29.3402 59.8399 29.6519C59.7451 29.801 59.4062 29.8823 58.8235 29.8959C58.2542 29.923 57.8815 29.8484 57.7054 29.6723C57.5563 29.5232 57.4682 29.3944 57.4411 29.286C57.414 29.1776 57.3801 29.1166 57.3394 29.103C56.7431 28.7236 56.1603 28.3983 55.5911 28.1272C54.2494 27.4631 53.1177 27.1175 52.1961 27.0904L48.8824 30.4041C49.6007 30.6345 50.4681 31.0004 51.4846 31.5019C51.7285 31.6916 51.8776 32.4506 51.9318 33.7788C52.0131 35.107 51.9318 35.893 51.6879 36.137C51.5388 36.2861 51.2677 36.3674 50.8747 36.3809C50.4817 36.3945 50.17 36.3403 49.9396 36.2183C49.804 36.0828 49.5533 35.8591 49.1874 35.5474C48.5775 35.1273 47.2358 34.6529 45.1622 34.1244L43.0276 36.259C43.6781 36.4216 44.5116 36.6859 45.5281 37.0518C46.5717 37.4177 47.1748 37.682 47.3374 37.8446C47.5271 38.0344 47.7033 38.8069 47.866 40.1622C48.0557 41.5175 48.0557 42.2629 47.866 42.3984Z" fill="white"></path><path d="M47.866 42.3984L48.1527 42.808L48.1566 42.8053L47.866 42.3984ZM46.7479 42.7847L46.6771 42.2897L46.6729 42.2903L46.7479 42.7847ZM45.772 42.744L45.5484 43.1914L45.5606 43.1971L45.772 42.744ZM45.6094 42.4594L45.1222 42.5718L45.1276 42.595L45.1351 42.6175L45.6094 42.4594ZM45.3451 42.0325L45.1042 42.4706L45.1439 42.4925L45.187 42.5068L45.3451 42.0325ZM43.5968 41.26L43.4231 41.7289L43.4325 41.7322L43.5968 41.26ZM39.0634 40.2638L38.6021 40.4568L38.72 40.7385L39.0244 40.7623L39.0634 40.2638ZM37.7623 37.1331L38.229 36.9536L38.2276 36.9501L37.7623 37.1331ZM53.4769 19.8329L53.6194 19.3535L53.6107 19.3511L53.4769 19.8329ZM54.4323 20.3004L54.0482 20.6205L54.0506 20.6234L54.4323 20.3004ZM55.0829 21.6015L54.6204 21.7919L54.6252 21.8029L55.0829 21.6015ZM58.1323 24.1224L57.9974 24.6039L58.0078 24.6066L58.1323 24.1224ZM59.6976 24.7932L59.2444 25.0047L59.2504 25.0168L59.6976 24.7932ZM60.0636 27.3141L59.5636 27.3249L59.564 27.3358L60.0636 27.3141ZM59.8399 29.6519L59.4211 29.3788L59.4181 29.3835L59.8399 29.6519ZM58.8235 29.8959L58.8118 29.3959L58.7997 29.3964L58.8235 29.8959ZM57.4411 29.286L56.956 29.4073L56.956 29.4073L57.4411 29.286ZM57.3394 29.103L57.071 29.5249L57.1229 29.5579L57.1813 29.5774L57.3394 29.103ZM55.5911 28.1272L55.3693 28.5754L55.3761 28.5787L55.5911 28.1272ZM52.1961 27.0904L52.2108 26.5906L51.9951 26.5843L51.8426 26.7369L52.1961 27.0904ZM48.8824 30.4041L48.5289 30.0506L47.9495 30.63L48.7297 30.8802L48.8824 30.4041ZM51.4846 31.5019L51.7916 31.1072L51.7514 31.076L51.7058 31.0535L51.4846 31.5019ZM51.9318 33.7788L51.4321 33.7992L51.4328 33.8093L51.9318 33.7788ZM50.8747 36.3809L50.8919 36.8806L50.8919 36.8806L50.8747 36.3809ZM49.9396 36.2183L49.586 36.5718L49.6392 36.625L49.7056 36.6602L49.9396 36.2183ZM49.1874 35.5474L49.5116 35.1668L49.4921 35.1502L49.471 35.1357L49.1874 35.5474ZM45.1622 34.1244L45.2857 33.6399L45.0099 33.5696L44.8086 33.7708L45.1622 34.1244ZM43.0276 36.259L42.674 35.9054L42.0496 36.5298L42.9063 36.744L43.0276 36.259ZM45.5281 37.0518L45.3587 37.5223L45.3626 37.5236L45.5281 37.0518ZM47.866 40.1622L47.3694 40.2218L47.3708 40.2315L47.866 40.1622ZM47.5792 41.9888C47.3948 42.1179 47.1061 42.2284 46.6771 42.2897L46.8186 43.2796C47.3383 43.2054 47.795 43.0584 48.1527 42.808L47.5792 41.9888ZM46.6729 42.2903C46.2416 42.3557 46.0443 42.3193 45.9835 42.2909L45.5606 43.1971C45.9064 43.3585 46.3596 43.3492 46.8228 43.279L46.6729 42.2903ZM45.9957 42.2968C46.055 42.3265 46.0901 42.362 46.1051 42.3788C46.1208 42.3964 46.1266 42.4075 46.1248 42.4045C46.1236 42.4022 46.1187 42.3931 46.1109 42.3746C46.1033 42.3565 46.0941 42.3324 46.0838 42.3013L45.1351 42.6175C45.1674 42.7146 45.2067 42.8132 45.2566 42.9006C45.2986 42.974 45.3869 43.1105 45.5484 43.1912L45.9957 42.2968ZM46.0966 42.347C46.0507 42.1479 45.9708 41.9104 45.8003 41.7399L45.0932 42.447C45.0703 42.4241 45.0701 42.4135 45.0814 42.4388C45.0919 42.4625 45.1067 42.5047 45.1222 42.5718L46.0966 42.347ZM45.8003 41.7399C45.7121 41.6517 45.6088 41.5933 45.5032 41.5581L45.187 42.5068C45.1628 42.4988 45.1272 42.481 45.0932 42.447L45.8003 41.7399ZM45.5861 41.5944C45.0178 41.2818 44.4092 41.0132 43.7611 40.7877L43.4325 41.7322C44.0313 41.9405 44.5882 42.1868 45.1042 42.4706L45.5861 41.5944ZM43.7705 40.7911C42.2634 40.2329 40.7069 39.8909 39.1024 39.7654L39.0244 40.7623C40.537 40.8807 42.0028 41.2028 43.4232 41.7288L43.7705 40.7911ZM39.5246 40.0708C38.7224 38.1538 38.2933 37.1209 38.229 36.9536L37.2956 37.3126C37.3668 37.4977 37.8051 38.552 38.6021 40.4568L39.5246 40.0708ZM38.2276 36.9501C37.9936 36.3551 37.8494 35.9105 37.7835 35.6046C37.7501 35.4501 37.7421 35.3543 37.7437 35.3038C37.7458 35.2359 37.7612 35.3205 37.6686 35.4131L36.9615 34.706C36.7808 34.8867 36.7488 35.1237 36.7441 35.2726C36.7389 35.439 36.7648 35.6245 36.806 35.8155C36.8891 36.2009 37.0566 36.7049 37.297 37.3161L38.2276 36.9501ZM37.6686 35.4131L52.9563 20.1254L52.2491 19.4183L36.9615 34.706L37.6686 35.4131ZM52.9563 20.1254C52.8835 20.1981 52.8119 20.212 52.8054 20.2133C52.7958 20.2151 52.8093 20.2114 52.8576 20.2148C52.9541 20.2215 53.1116 20.2503 53.343 20.3146L53.6107 19.3511C53.3542 19.2799 53.1221 19.2308 52.9272 19.2172C52.8298 19.2104 52.7221 19.2109 52.616 19.2314C52.5129 19.2513 52.3693 19.2982 52.2491 19.4183L52.9563 20.1254ZM53.3344 20.3121C53.5698 20.3821 53.7464 20.4492 53.872 20.5107C53.9343 20.5412 53.9788 20.5677 54.0092 20.5891C54.0404 20.6109 54.0497 20.6224 54.0482 20.6205L54.8164 19.9803C54.6831 19.8203 54.497 19.7032 54.3116 19.6125C54.1188 19.5181 53.8854 19.4327 53.6193 19.3536L53.3344 20.3121ZM54.0506 20.6234C54.0843 20.6632 54.1539 20.7702 54.2596 20.9815C54.3605 21.1833 54.4807 21.4522 54.6205 21.7919L55.5452 21.4111C55.4005 21.0596 55.2699 20.7661 55.154 20.5342C55.0428 20.3118 54.9295 20.1139 54.814 19.9775L54.0506 20.6234ZM54.6252 21.8029C54.9337 22.504 55.2687 23.0637 55.6441 23.4391L56.3512 22.732C56.1033 22.484 55.8284 22.0543 55.5405 21.4001L54.6252 21.8029ZM55.6441 23.4391C56.1434 23.9384 56.9569 24.3125 57.9975 24.6038L58.2671 23.6409C57.2747 23.363 56.6651 23.0459 56.3512 22.732L55.6441 23.4391ZM58.0078 24.6066C58.4723 24.7261 58.8116 24.8355 59.0382 24.9326C59.1518 24.9813 59.2224 25.0208 59.2618 25.048C59.3094 25.081 59.2756 25.0713 59.2445 25.0047L60.1507 24.5818C60.0722 24.4135 59.9376 24.2996 59.831 24.2258C59.7163 24.1464 59.5793 24.0766 59.4321 24.0135C59.1368 23.8869 58.7409 23.7626 58.2568 23.6381L58.0078 24.6066ZM59.2504 25.0168C59.3235 25.163 59.3988 25.4198 59.4569 25.8205C59.514 26.2135 59.5504 26.7134 59.5637 27.3249L60.5634 27.3032C60.5496 26.6679 60.5115 26.1242 60.4466 25.6769C60.3828 25.2373 60.2886 24.8571 60.1448 24.5696L59.2504 25.0168ZM59.564 27.3358C59.5906 27.9479 59.5848 28.4288 59.5506 28.7861C59.5143 29.1654 59.4517 29.3319 59.4211 29.3788L60.2587 29.9251C60.4314 29.6603 60.5078 29.2812 60.546 28.8813C60.5864 28.4592 60.5907 27.927 60.5631 27.2923L59.564 27.3358ZM59.4181 29.3835C59.4554 29.3249 59.4946 29.3062 59.4885 29.3095C59.4834 29.3121 59.4573 29.3243 59.398 29.3385C59.2783 29.3673 59.0881 29.3896 58.8118 29.396L58.8351 30.3957C59.1417 30.3886 59.4122 30.3635 59.6314 30.3109C59.8203 30.2656 60.1023 30.1709 60.2618 29.9204L59.4181 29.3835ZM58.7997 29.3964C58.5378 29.4089 58.3468 29.3963 58.2151 29.37C58.0781 29.3426 58.0495 29.3092 58.0589 29.3187L57.3518 30.0258C57.5374 30.2114 57.7832 30.3034 58.019 30.3506C58.26 30.3988 58.54 30.4099 58.8473 30.3953L58.7997 29.3964ZM58.0589 29.3187C57.9992 29.259 57.9619 29.2133 57.9401 29.1815C57.9173 29.1482 57.9208 29.1435 57.9261 29.1647L56.956 29.4073C57.0171 29.6518 57.1865 29.8605 57.3518 30.0258L58.0589 29.3187ZM57.9261 29.1647C57.9075 29.0903 57.8794 29.0007 57.8324 28.9161C57.7907 28.841 57.6919 28.6935 57.4975 28.6287L57.1813 29.5774C57.1029 29.5512 57.0483 29.5088 57.0151 29.4756C56.9829 29.4435 56.9655 29.4149 56.9583 29.4018C56.9451 29.3782 56.9475 29.3733 56.956 29.4073L57.9261 29.1647ZM57.6079 28.6812C56.9964 28.2921 56.3958 27.9566 55.8061 27.6758L55.3761 28.5787C55.9249 28.84 56.4898 29.155 57.071 29.5249L57.6079 28.6812ZM55.8129 27.6791C54.4421 27.0007 53.2355 26.6208 52.2108 26.5906L52.1814 27.5902C52.9999 27.6143 54.0566 27.9256 55.3693 28.5753L55.8129 27.6791ZM51.8426 26.7369L48.5289 30.0506L49.236 30.7577L52.5497 27.444L51.8426 26.7369ZM48.7297 30.8802C49.416 31.1004 50.2592 31.4549 51.2634 31.9503L51.7058 31.0535C50.677 30.546 49.7855 30.1687 49.0351 29.928L48.7297 30.8802ZM51.1776 31.8966C51.1389 31.8665 51.1524 31.8568 51.1878 31.9423C51.2196 32.019 51.255 32.138 51.2887 32.3098C51.3561 32.6527 51.4056 33.1453 51.4322 33.7992L52.4314 33.7584C52.4039 33.0841 52.3517 32.5331 52.27 32.117C52.2292 31.9093 52.1782 31.72 52.1117 31.5596C52.0488 31.4079 51.9522 31.2322 51.7916 31.1072L51.1776 31.8966ZM51.4328 33.8093C51.4727 34.4619 51.4711 34.9594 51.4345 35.313C51.4162 35.4898 51.3905 35.6164 51.3636 35.7018C51.3347 35.7931 51.3153 35.8025 51.3343 35.7834L52.0414 36.4905C52.1824 36.3495 52.2646 36.1692 52.3171 36.0029C52.3715 35.8308 52.4068 35.6321 52.4292 35.4159C52.4739 34.9835 52.4723 34.4239 52.4309 33.7482L51.4328 33.8093ZM51.3343 35.7834C51.3349 35.7829 51.3114 35.8062 51.2291 35.8309C51.1471 35.8555 51.0264 35.8754 50.8575 35.8812L50.8919 36.8806C51.3142 36.8661 51.7519 36.78 52.0414 36.4905L51.3343 35.7834ZM50.8575 35.8812C50.5108 35.8932 50.2971 35.8418 50.1735 35.7764L49.7056 36.6602C50.0428 36.8387 50.4526 36.8958 50.8919 36.8806L50.8575 35.8812ZM50.2931 35.8647C50.1418 35.7134 49.8771 35.4781 49.5116 35.1668L48.8631 35.9281C49.2295 36.2402 49.4662 36.4521 49.586 36.5718L50.2931 35.8647ZM49.471 35.1357C49.1104 34.8872 48.572 34.6461 47.8903 34.4052C47.2001 34.1611 46.3306 33.9062 45.2857 33.6399L45.0387 34.6089C46.0673 34.8711 46.9055 35.1176 47.557 35.348C48.2171 35.5813 48.6545 35.7875 48.9037 35.9592L49.471 35.1357ZM44.8086 33.7708L42.674 35.9054L43.3811 36.6125L45.5157 34.4779L44.8086 33.7708ZM42.9063 36.744C43.5339 36.9009 44.3498 37.159 45.3587 37.5222L45.6975 36.5814C44.6735 36.2127 43.8224 35.9423 43.1489 35.7739L42.9063 36.744ZM45.3626 37.5236C45.8793 37.7048 46.2776 37.8576 46.5624 37.9824C46.7051 38.0449 46.8126 38.0975 46.8894 38.1403C46.9742 38.1876 46.9933 38.2076 46.9838 38.1982L47.691 37.4911C47.6002 37.4003 47.4829 37.3263 47.3763 37.2669C47.2616 37.203 47.1227 37.1361 46.9638 37.0665C46.6455 36.927 46.2204 36.7647 45.6935 36.58L45.3626 37.5236ZM46.9838 38.1982C46.954 38.1684 46.9703 38.1701 47.0098 38.2739C47.0442 38.3643 47.083 38.4963 47.1244 38.6775C47.2068 39.0389 47.289 39.551 47.3695 40.2218L48.3624 40.1026C48.2803 39.4181 48.1931 38.8663 48.0993 38.4552C48.0526 38.2501 48.0016 38.0687 47.9445 37.9185C47.8925 37.7818 47.8156 37.6158 47.691 37.4911L46.9838 38.1982ZM47.3708 40.2315C47.4646 40.9018 47.5083 41.3999 47.5083 41.7377C47.5083 41.9084 47.4969 42.0167 47.4839 42.0771C47.4651 42.1644 47.4617 42.0727 47.5753 41.9915L48.1566 42.8053C48.3651 42.6563 48.4328 42.4207 48.4615 42.2877C48.4959 42.1279 48.5083 41.9397 48.5083 41.7377C48.5083 41.3301 48.457 40.7779 48.3611 40.0929L47.3708 40.2315Z" fill="#231F20"></path><path d="M18.3274 42.3372C18.5996 42.5277 18.9738 42.657 19.4501 42.725C19.8992 42.7931 20.2258 42.7795 20.4299 42.6842C20.4843 42.657 20.5388 42.5617 20.5932 42.3984C20.634 42.2215 20.6884 42.0991 20.7565 42.031C20.7837 42.0038 20.8177 41.9834 20.8586 41.9698C21.4029 41.6704 21.988 41.4118 22.614 41.1941C24.0837 40.6498 25.6011 40.3164 27.166 40.1939C27.9689 38.2751 28.4044 37.2273 28.4724 37.0504C28.9487 35.8392 29.0984 35.1452 28.9215 34.9683L13.5713 19.6181C13.476 19.5228 13.1835 19.5433 12.6936 19.6793C12.19 19.829 11.8702 19.9855 11.7342 20.1488C11.5845 20.3257 11.3667 20.7612 11.081 21.4552C10.7816 22.1356 10.4754 22.6323 10.1624 22.9453C9.75415 23.3536 9.03971 23.7006 8.01909 23.9864C7.06651 24.2313 6.54258 24.4559 6.44733 24.66C6.22959 25.0955 6.10712 25.9392 6.0799 27.1911C6.02547 28.4431 6.10031 29.2256 6.30444 29.5386C6.3997 29.6883 6.73991 29.7699 7.32506 29.7835C7.89661 29.8107 8.27084 29.7359 8.44775 29.559C8.59744 29.4093 8.6859 29.28 8.71311 29.1711C8.74033 29.0623 8.77435 29.001 8.81518 28.9874C9.41394 28.6064 9.9991 28.2798 10.5707 28.0076C11.9179 27.3408 13.0542 26.9938 13.9795 26.9666L17.3068 30.2938C16.5855 30.5252 15.7146 30.8926 14.694 31.3961C14.449 31.5866 14.2993 32.3487 14.2449 33.6823C14.1633 35.0159 14.2449 35.8052 14.4899 36.0502C14.6395 36.1999 14.9117 36.2815 15.3064 36.2951C15.701 36.3087 16.014 36.2543 16.2453 36.1318C16.3814 35.9957 16.6332 35.7712 17.0006 35.4582C17.613 35.0363 18.9602 34.56 21.0423 34.0293L23.1856 36.1726C22.5324 36.3359 21.6955 36.6013 20.6748 36.9687C19.627 37.3361 19.0214 37.6015 18.8581 37.7648C18.6676 37.9553 18.4907 38.731 18.3274 40.0918C18.1369 41.4527 18.1369 42.2011 18.3274 42.3372Z" fill="white"></path><path d="M18.3274 42.3372L18.0395 42.7485L18.0356 42.7457L18.3274 42.3372ZM19.4501 42.725L19.5211 42.228L19.5253 42.2287L19.4501 42.725ZM20.4299 42.6842L20.6545 43.1334L20.6422 43.1392L20.4299 42.6842ZM20.5932 42.3984L21.0824 42.5113L21.077 42.5346L21.0695 42.5572L20.5932 42.3984ZM20.8586 41.9698L21.1005 42.4097L21.0606 42.4317L21.0173 42.4461L20.8586 41.9698ZM22.614 41.1941L22.7884 41.665L22.779 41.6683L22.614 41.1941ZM27.166 40.1939L27.6291 40.3877L27.5108 40.6705L27.2052 40.6944L27.166 40.1939ZM28.4724 37.0504L28.0038 36.8701L28.0052 36.8666L28.4724 37.0504ZM12.6936 19.6793L12.5505 19.198L12.5592 19.1956L12.6936 19.6793ZM11.7342 20.1488L12.1199 20.4702L12.1174 20.4731L11.7342 20.1488ZM11.081 21.4552L11.5453 21.6464L11.5405 21.6574L11.081 21.4552ZM8.01909 23.9864L8.15449 24.4699L8.14412 24.4726L8.01909 23.9864ZM6.44733 24.66L6.90244 24.8724L6.89637 24.8845L6.44733 24.66ZM6.0799 27.1911L6.58195 27.202L6.58147 27.2129L6.0799 27.1911ZM6.30444 29.5386L6.72498 29.2643L6.728 29.269L6.30444 29.5386ZM7.32506 29.7835L7.33674 29.2815L7.34894 29.282L7.32506 29.7835ZM8.71311 29.1711L9.20017 29.2929L9.20017 29.2929L8.71311 29.1711ZM8.81518 28.9874L9.08471 29.411L9.03257 29.4442L8.97393 29.4637L8.81518 28.9874ZM10.5707 28.0076L10.7934 28.4576L10.7865 28.4609L10.5707 28.0076ZM13.9795 26.9666L13.9648 26.4648L14.1813 26.4584L14.3345 26.6116L13.9795 26.9666ZM17.3068 30.2938L17.6618 29.9388L18.2435 30.5206L17.4601 30.7719L17.3068 30.2938ZM14.694 31.3961L14.3857 30.9998L14.4261 30.9685L14.4719 30.9459L14.694 31.3961ZM14.2449 33.6823L14.7466 33.7028L14.746 33.713L14.2449 33.6823ZM15.3064 36.2951L15.2891 36.7969L15.289 36.7969L15.3064 36.2951ZM16.2453 36.1318L16.6003 36.4868L16.5469 36.5402L16.4802 36.5755L16.2453 36.1318ZM17.0006 35.4582L16.675 35.076L16.6946 35.0593L16.7158 35.0448L17.0006 35.4582ZM21.0423 34.0293L20.9183 33.5428L21.1952 33.4722L21.3973 33.6743L21.0423 34.0293ZM23.1856 36.1726L23.5406 35.8176L24.1676 36.4446L23.3073 36.6597L23.1856 36.1726ZM20.6748 36.9687L20.8449 37.4411L20.841 37.4425L20.6748 36.9687ZM18.3274 40.0918L18.826 40.1517L18.8246 40.1614L18.3274 40.0918ZM18.6153 41.9259C18.8005 42.0556 19.0903 42.1665 19.5211 42.228L19.3791 43.222C18.8572 43.1475 18.3986 42.9999 18.0395 42.7485L18.6153 41.9259ZM19.5253 42.2287C19.9584 42.2943 20.1565 42.2578 20.2176 42.2293L20.6422 43.1392C20.295 43.3012 19.84 43.2919 19.3749 43.2214L19.5253 42.2287ZM20.2054 42.2352C20.1458 42.265 20.1105 42.3006 20.0955 42.3175C20.0797 42.3352 20.0739 42.3464 20.0756 42.3433C20.0769 42.341 20.0818 42.3319 20.0897 42.3133C20.0973 42.2952 20.1065 42.2709 20.1169 42.2397L21.0695 42.5572C21.037 42.6547 20.9976 42.7537 20.9474 42.8415C20.9053 42.9152 20.8166 43.0522 20.6544 43.1333L20.2054 42.2352ZM20.104 42.2856C20.1501 42.0856 20.2303 41.8472 20.4015 41.676L21.1115 42.386C21.1345 42.363 21.1347 42.3524 21.1234 42.3778C21.1129 42.4015 21.0979 42.4439 21.0824 42.5113L20.104 42.2856ZM20.4015 41.676C20.49 41.5875 20.5938 41.5288 20.6998 41.4935L21.0173 42.4461C21.0416 42.438 21.0774 42.4201 21.1115 42.386L20.4015 41.676ZM20.6166 41.5299C21.1872 41.2161 21.7983 40.9463 22.4491 40.7199L22.779 41.6683C22.1778 41.8774 21.6186 42.1247 21.1005 42.4097L20.6166 41.5299ZM22.4397 40.7233C23.9529 40.1629 25.5157 39.8195 27.1268 39.6934L27.2052 40.6944C25.6864 40.8133 24.2145 41.1367 22.7884 41.6649L22.4397 40.7233ZM26.7029 40.0001C27.5083 38.0752 27.9392 37.0381 28.0038 36.8701L28.941 37.2306C28.8695 37.4165 28.4295 38.475 27.6291 40.3877L26.7029 40.0001ZM28.0052 36.8666C28.2401 36.2692 28.3849 35.8227 28.4511 35.5156C28.4846 35.3604 28.4927 35.2643 28.4911 35.2136C28.489 35.1454 28.4735 35.2303 28.5665 35.3233L29.2765 34.6133C29.4579 34.7947 29.4901 35.0327 29.4947 35.1823C29.5 35.3493 29.474 35.5356 29.4327 35.7273C29.3492 36.1143 29.181 36.6204 28.9396 37.2341L28.0052 36.8666ZM28.5665 35.3233L13.2163 19.9731L13.9263 19.2631L29.2765 34.6133L28.5665 35.3233ZM13.2163 19.9731C13.2893 20.0461 13.3612 20.06 13.3677 20.0613C13.3773 20.0632 13.3639 20.0594 13.3154 20.0628C13.2184 20.0696 13.0603 20.0985 12.8279 20.1631L12.5592 19.1956C12.8167 19.1241 13.0498 19.0748 13.2455 19.0611C13.3433 19.0543 13.4514 19.0548 13.558 19.0754C13.6614 19.0954 13.8056 19.1425 13.9263 19.2631L13.2163 19.9731ZM12.8366 20.1606C12.6002 20.2308 12.4229 20.2982 12.2967 20.3599C12.2342 20.3905 12.1896 20.4172 12.159 20.4386C12.1278 20.4605 12.1183 20.4721 12.1198 20.4702L11.3485 19.8274C11.4824 19.6667 11.6693 19.5491 11.8554 19.458C12.049 19.3633 12.2833 19.2775 12.5505 19.1981L12.8366 20.1606ZM12.1174 20.4731C12.0836 20.5131 12.0137 20.6205 11.9076 20.8326C11.8063 21.0353 11.6856 21.3053 11.5452 21.6464L10.6167 21.2641C10.7621 20.9111 10.8931 20.6164 11.0096 20.3836C11.1212 20.1603 11.235 19.9615 11.3509 19.8245L12.1174 20.4731ZM11.5405 21.6574C11.2307 22.3614 10.8944 22.9233 10.5174 23.3003L9.8074 22.5903C10.0564 22.3413 10.3324 21.9098 10.6214 21.253L11.5405 21.6574ZM10.5174 23.3003C10.0161 23.8017 9.19927 24.1773 8.15446 24.4698L7.88372 23.5029C8.88016 23.2239 9.49224 22.9055 9.8074 22.5903L10.5174 23.3003ZM8.14412 24.4726C7.67762 24.5926 7.33693 24.7025 7.10948 24.7999C6.99536 24.8488 6.92446 24.8885 6.88491 24.9158C6.83712 24.9489 6.87105 24.9392 6.90227 24.8723L5.99238 24.4477C6.07123 24.2787 6.20638 24.1644 6.31337 24.0903C6.42862 24.0105 6.56609 23.9404 6.71394 23.877C7.01041 23.75 7.40797 23.6251 7.89406 23.5001L8.14412 24.4726ZM6.89637 24.8845C6.82297 25.0313 6.74741 25.2892 6.68901 25.6915C6.63173 26.0861 6.59518 26.588 6.58183 27.202L5.57797 27.1802C5.59184 26.5423 5.63014 25.9964 5.69533 25.5473C5.7594 25.1059 5.85395 24.7241 5.99828 24.4355L6.89637 24.8845ZM6.58147 27.2129C6.55475 27.8276 6.56067 28.3105 6.59497 28.6692C6.63141 29.0501 6.69422 29.2172 6.72496 29.2643L5.88392 29.8128C5.71053 29.547 5.63386 29.1664 5.59545 28.7648C5.55491 28.341 5.55062 27.8066 5.57833 27.1693L6.58147 27.2129ZM6.728 29.269C6.69055 29.2102 6.65116 29.1914 6.65735 29.1947C6.66239 29.1974 6.68865 29.2096 6.7482 29.2239C6.86838 29.2527 7.05939 29.2752 7.33674 29.2816L7.31339 30.2854C7.00558 30.2783 6.7339 30.2531 6.51387 30.2003C6.32418 30.1547 6.04097 30.0597 5.88088 29.8081L6.728 29.269ZM7.34894 29.282C7.61193 29.2946 7.80371 29.282 7.93594 29.2555C8.07346 29.228 8.10224 29.1945 8.09275 29.204L8.80275 29.914C8.61635 30.1004 8.36957 30.1928 8.13286 30.2401C7.89086 30.2885 7.60974 30.2997 7.30118 30.285L7.34894 29.282ZM8.09275 29.204C8.15274 29.144 8.1902 29.0982 8.21202 29.0663C8.23492 29.0328 8.23138 29.0281 8.22606 29.0494L9.20017 29.2929C9.13879 29.5384 8.96877 29.748 8.80275 29.914L8.09275 29.204ZM8.22606 29.0494C8.24475 28.9746 8.27299 28.8847 8.32018 28.7998C8.36206 28.7244 8.46131 28.5762 8.65642 28.5112L8.97393 29.4637C9.05272 29.4375 9.10751 29.3949 9.14083 29.3616C9.17313 29.3293 9.19061 29.3005 9.19791 29.2874C9.21107 29.2637 9.20869 29.2588 9.20017 29.2929L8.22606 29.0494ZM8.54564 28.5639C9.15964 28.1731 9.76271 27.8363 10.3548 27.5544L10.7865 28.4609C10.2355 28.7233 9.66824 29.0397 9.08471 29.411L8.54564 28.5639ZM10.348 27.5577C11.7243 26.8765 12.9359 26.495 13.9648 26.4648L13.9943 27.4684C13.1725 27.4926 12.1114 27.8052 10.7934 28.4576L10.348 27.5577ZM14.3345 26.6116L17.6618 29.9388L16.9518 30.6488L13.6245 27.3216L14.3345 26.6116ZM17.4601 30.7719C16.771 30.9929 15.9244 31.3489 14.9161 31.8463L14.4719 30.9459C15.5048 30.4363 16.4001 30.0574 17.1534 29.8158L17.4601 30.7719ZM15.0022 31.7924C15.041 31.7622 15.0275 31.7525 14.9919 31.8383C14.96 31.9154 14.9245 32.0348 14.8906 32.2073C14.823 32.5516 14.7733 33.0462 14.7465 33.7028L13.7433 33.6618C13.7709 32.9848 13.8233 32.4316 13.9054 32.0138C13.9463 31.8052 13.9976 31.6151 14.0643 31.454C14.1274 31.3017 14.2244 31.1253 14.3857 30.9998L15.0022 31.7924ZM14.746 33.713C14.7059 34.3682 14.7076 34.8678 14.7443 35.2228C14.7626 35.4004 14.7884 35.5274 14.8155 35.6132C14.8444 35.7048 14.864 35.7143 14.8449 35.6952L14.1349 36.4052C13.9933 36.2636 13.9107 36.0825 13.858 35.9156C13.8035 35.7428 13.768 35.5432 13.7455 35.3261C13.7006 34.8919 13.7023 34.33 13.7438 33.6516L14.746 33.713ZM14.8449 35.6952C14.8443 35.6946 14.8679 35.718 14.9505 35.7428C15.0328 35.7675 15.154 35.7875 15.3237 35.7934L15.289 36.7969C14.8651 36.7822 14.4255 36.6959 14.1349 36.4052L14.8449 35.6952ZM15.3237 35.7934C15.6718 35.8054 15.8863 35.7538 16.0104 35.6881L16.4802 36.5755C16.1416 36.7548 15.7302 36.8121 15.2891 36.7969L15.3237 35.7934ZM15.8903 35.7768C16.0422 35.6249 16.3081 35.3886 16.675 35.076L17.3261 35.8404C16.9583 36.1538 16.7206 36.3666 16.6003 36.4868L15.8903 35.7768ZM16.7158 35.0448C17.0779 34.7953 17.6185 34.5532 18.3029 34.3113C18.996 34.0662 19.8691 33.8103 20.9183 33.5428L21.1663 34.5158C20.1334 34.7791 19.2918 35.0266 18.6376 35.2579C17.9749 35.4922 17.5357 35.6992 17.2854 35.8716L16.7158 35.0448ZM21.3973 33.6743L23.5406 35.8176L22.8306 36.5276L20.6873 34.3843L21.3973 33.6743ZM23.3073 36.6597C22.6772 36.8172 21.858 37.0764 20.8449 37.4411L20.5048 36.4964C21.533 36.1262 22.3875 35.8547 23.0638 35.6856L23.3073 36.6597ZM20.841 37.4425C20.3222 37.6244 19.9223 37.7778 19.6363 37.9031C19.4931 37.9659 19.3851 38.0187 19.308 38.0617C19.2228 38.1092 19.2036 38.1293 19.2131 38.1198L18.5031 37.4098C18.5943 37.3187 18.712 37.2444 18.8191 37.1847C18.9342 37.1205 19.0737 37.0534 19.2333 36.9835C19.5528 36.8435 19.9797 36.6805 20.5087 36.495L20.841 37.4425ZM19.2131 38.1198C19.2431 38.0899 19.2267 38.0916 19.1871 38.1959C19.1526 38.2866 19.1135 38.4192 19.072 38.6011C18.9893 38.9639 18.9067 39.4782 18.8259 40.1517L17.8289 40.032C17.9114 39.3447 17.9989 38.7907 18.0931 38.3778C18.14 38.1719 18.1912 37.9898 18.2485 37.839C18.3007 37.7017 18.3779 37.535 18.5031 37.4098L19.2131 38.1198ZM18.8246 40.1614C18.7304 40.8345 18.6866 41.3346 18.6866 41.6738C18.6866 41.8452 18.698 41.9539 18.711 42.0146C18.7299 42.1022 18.7333 42.0102 18.6192 41.9287L18.0356 42.7457C17.8262 42.5962 17.7582 42.3595 17.7294 42.226C17.6949 42.0656 17.6825 41.8766 17.6825 41.6738C17.6825 41.2645 17.7339 40.7101 17.8302 40.0222L18.8246 40.1614Z" fill="#231F20"></path></svg> 