<?xml version="1.0" encoding="UTF-8"?> <svg xmlns="http://www.w3.org/2000/svg" width="64" height="64" viewBox="0 0 64 64" fill="none"><circle cx="32" cy="32" r="32" fill="#FFFFF8"></circle><path fill-rule="evenodd" clip-rule="evenodd" d="M31.587 10.3735C31.4887 10.6086 28.5196 15.5943 24.9888 21.4528C21.4581 27.3112 18.5399 32.1813 18.5038 32.2753C18.4569 32.3976 20.3751 33.5908 25.2297 36.4593L32.0213 40.4722L38.811 36.4571C43.6889 33.5725 45.5822 32.3934 45.5348 32.2699C45.2895 31.6304 32.0864 9.9458 31.9423 9.9458C31.8452 9.9458 31.6852 10.1382 31.587 10.3735ZM18.52 35.1614C18.7816 35.6088 31.9652 54.158 32.0204 54.1563C32.1115 54.1535 45.5903 35.1064 45.5382 35.0541C45.489 35.0051 32.8901 42.4254 32.3646 42.813L32.0424 43.0507L25.5192 39.1994C21.9315 37.0812 18.8635 35.2627 18.7017 35.1583C18.4333 34.9855 18.4172 34.9857 18.52 35.1614Z" fill="#ED143D"></path></svg> 