<?xml version="1.0" encoding="UTF-8"?> <svg xmlns="http://www.w3.org/2000/svg" width="64" height="65" viewBox="0 0 64 65" fill="none"><path d="M46.5667 0.899902H17.4801C7.84717 0.899902 0.046875 8.70019 0.046875 18.3331V47.4197C0.046875 57.0526 7.84717 64.477 17.4801 64.477H46.5667C56.1996 64.477 63.9999 57.0526 63.9999 47.4197V18.3331C64.0469 8.70019 56.2466 0.899902 46.5667 0.899902Z" fill="#165366"></path><path d="M46.5667 0.899902H17.4801C7.84717 0.899902 0.046875 8.70019 0.046875 18.3331V47.4197C0.046875 57.0526 7.84717 64.8529 17.4801 64.8529H46.5667C56.1996 64.8529 63.9999 57.0526 63.9999 47.4197V18.3331C64.0469 8.70019 56.2466 0.899902 46.5667 0.899902Z" fill="url(#paint0_linear)"></path><path d="M46.5668 0.899902C20.8634 0.899902 0 21.7163 0 47.4667C0 57.0996 7.80029 64.8999 17.4332 64.8999H46.5198C56.1527 64.8999 63.953 57.0996 63.953 47.4667V18.3331C64.047 8.70019 56.2467 0.899902 46.5668 0.899902Z" fill="#7FD0B3"></path><path d="M46.5668 0.899902C20.8634 0.899902 0 21.7163 0 47.4667C0 57.0996 7.80029 64.8999 17.4332 64.8999H46.5198C56.1527 64.8999 63.953 57.0996 63.953 47.4667V18.3331C64.047 8.70019 56.2467 0.899902 46.5668 0.899902Z" fill="url(#paint1_linear)"></path><path d="M46.5668 0.899902C20.8634 0.899902 0 21.7163 0 47.4667C0 57.0996 7.80029 64.8999 17.4332 64.8999H46.5198C56.1527 64.8999 63.953 57.0996 63.953 47.4667V18.3331C64.047 8.70019 56.2467 0.899902 46.5668 0.899902Z" fill="url(#paint2_linear)"></path><path d="M32.0469 52.1187C42.6612 52.1187 51.2657 43.5141 51.2657 32.8999C51.2657 22.2856 42.6612 13.6811 32.0469 13.6811C21.4327 13.6811 12.8281 22.2856 12.8281 32.8999C12.8281 43.5141 21.4327 52.1187 32.0469 52.1187Z" fill="#165366"></path><path d="M32.0469 39.2905C35.5763 39.2905 38.4375 36.4293 38.4375 32.8999C38.4375 29.3705 35.5763 26.5093 32.0469 26.5093C28.5174 26.5093 25.6562 29.3705 25.6562 32.8999C25.6562 36.4293 28.5174 39.2905 32.0469 39.2905Z" fill="white"></path><defs><linearGradient id="paint0_linear" x1="-0.283791" y1="51.5506" x2="64.3692" y2="14.2232" gradientUnits="userSpaceOnUse"><stop stop-color="#00273C" stop-opacity="0.7"></stop><stop offset="0.604" stop-color="#165366" stop-opacity="0"></stop></linearGradient><linearGradient id="paint1_linear" x1="2.37711" y1="56.1593" x2="67.0301" y2="18.8319" gradientUnits="userSpaceOnUse"><stop stop-color="#00897C" stop-opacity="0.5"></stop><stop offset="0.4501" stop-color="#00897C" stop-opacity="0"></stop></linearGradient><linearGradient id="paint2_linear" x1="67.0301" y1="18.8319" x2="2.37711" y2="56.1593" gradientUnits="userSpaceOnUse"><stop stop-color="#7FE7DE" stop-opacity="0.7"></stop><stop offset="0.5043" stop-color="#7FD0B3" stop-opacity="0"></stop></linearGradient></defs></svg> 