<?xml version="1.0" encoding="UTF-8"?> <svg xmlns="http://www.w3.org/2000/svg" width="64" height="64" viewBox="0 0 64 64" fill="none"><rect width="64" height="64" rx="32" fill="#377FF7"></rect><path d="M48.8753 9.24103C47.9522 8.18441 46.3818 7.97646 45.2025 8.74082C43.6012 9.77497 41.4003 11.7955 39.5456 15.6314C39.4612 15.8084 39.54 16.0191 39.7201 16.1007C40.8825 16.6205 41.9716 17.2303 42.9933 17.8879C43.0495 17.9244 43.1115 17.8683 43.0861 17.8065C42.9651 17.5114 42.9651 17.1685 43.1227 16.8678C43.7109 15.7325 44.3188 14.8248 44.9127 14.0998C45.6725 13.1696 47.1192 13.3073 47.7355 14.3359C49.137 16.6795 49.7281 19.0092 49.9054 21.0606C49.9785 21.9037 49.1765 22.4404 48.4644 22.2493C48.4081 22.2353 48.3687 22.2999 48.4081 22.342C50.7047 24.6969 52.1907 26.8692 52.7591 27.76C52.8633 27.923 53.1081 27.8837 53.1588 27.6954C54.0284 24.4356 55.2077 16.4913 48.8753 9.24103Z" fill="white"></path><path d="M31.0403 21.474C31.4568 19.372 32.09 17.3346 32.909 15.4405C33.1061 14.9853 32.7964 14.4654 32.3012 14.4373C32.2983 14.4373 32.2955 14.4373 32.2899 14.4373C32.2814 14.4373 32.273 14.4345 32.2617 14.4345C31.8846 14.4148 31.5046 14.4008 31.1219 14.4008C31.105 14.4008 31.091 14.4008 31.0741 14.4008C31.0572 14.4008 31.0431 14.4008 31.0262 14.4008C28.3244 14.412 25.7717 14.9038 23.3964 15.7806C23.0531 15.907 22.6675 15.7524 22.5071 15.4237C20.6749 11.7227 18.5219 9.75837 16.9515 8.74108C15.7722 7.97953 14.2018 8.18467 13.2787 9.2413C6.78026 16.6798 8.19308 24.8574 9.06555 27.9486C9.11902 28.1369 9.09087 28.3364 8.98955 28.505C8.26344 29.7386 7.6105 31.0145 7.042 32.3128C5.89373 34.929 5.71079 37.8713 6.52133 40.6112C6.76619 41.4346 7.06732 42.3423 7.44446 43.2949C7.82158 44.2476 9.15841 44.315 9.62279 43.4017C11.9109 38.9251 18.2376 36.8989 22.0427 39.4618C22.538 39.7963 23.2557 39.7091 23.6525 39.2623C24.7586 38.0118 27.1705 35.9632 31.0403 35.8789C31.8114 35.862 32.1323 35.9463 32.1407 35.9463C31.6792 34.8588 31.3049 33.687 31.029 32.4364V32.5123C31.029 32.4617 31.0234 32.414 31.0121 32.3662C30.6631 30.7559 30.4718 29.0193 30.4718 27.1589C30.4718 25.2536 30.6716 23.3399 31.0403 21.474ZM12.5047 18.7031C12.7552 17.6352 13.1323 16.5253 13.6839 15.404C14.5254 13.6898 16.9177 13.5437 17.9731 15.1342C18.1813 15.449 18.3896 15.7862 18.5951 16.1515C19.0651 16.9833 18.8174 18.0371 18.0322 18.5795C17.1654 19.1752 16.3351 19.8244 15.5387 20.5185C14.1905 21.6931 12.0966 20.4427 12.5047 18.7031ZM20.5933 34.8391H19.2705H19.2565H17.9337C16.4167 34.8391 15.2122 33.479 15.488 31.9896C15.7891 30.3682 17.3285 28.9574 19.2565 28.9518C19.2592 28.9518 19.2621 28.9518 19.2649 28.9518C19.2677 28.9518 19.2705 28.9518 19.2733 28.9518C21.2012 28.9602 22.7406 30.3682 23.0418 31.9896C23.3148 33.479 22.1103 34.8391 20.5933 34.8391Z" fill="white"></path><path d="M31.0736 14.3107C31.0651 14.3107 31.0567 14.3107 31.051 14.3107C31.051 14.4628 31.0342 14.3219 31.0342 14.3219C31.0342 14.3219 31.051 14.4741 31.051 14.3219C31.0623 14.3219 31.0708 14.3219 31.0821 14.3219C31.2455 14.3219 31.4089 14.3332 31.5694 14.336C31.4004 14.3332 31.2398 14.3135 31.0736 14.3107Z" fill="white"></path><path d="M42.895 28.9544C42.8922 28.9544 42.8894 28.9544 42.8865 28.9544C42.8838 28.9544 42.8809 28.9544 42.8781 28.9544C40.0891 28.9656 38.0205 31.5735 38.6903 33.9565C38.6931 33.9621 38.6931 33.9677 38.6959 33.9734C38.7044 34.0042 38.7156 34.0352 38.7241 34.0661C38.7325 34.0942 38.7438 34.1251 38.755 34.1532C38.9042 34.4904 39.2419 34.7293 39.6359 34.7293C39.8358 34.7293 40.0187 34.6703 40.1707 34.5663C40.1735 34.5635 40.1763 34.5635 40.1791 34.5607C40.9137 33.9846 41.8452 33.6193 42.8781 33.6165C42.8809 33.6165 42.8838 33.6165 42.8865 33.6165C42.8894 33.6165 42.8922 33.6165 42.895 33.6165C43.9307 33.6193 44.8595 33.9846 45.594 34.5607C45.5996 34.5663 45.6053 34.5691 45.6109 34.5748C45.7628 34.6759 45.9458 34.7349 46.1428 34.7349C46.5199 34.7349 46.8408 34.5157 47.0012 34.201C47.004 34.1926 47.0096 34.1869 47.0124 34.1785C47.0406 34.097 47.0659 34.0183 47.0884 33.9369C47.0884 33.9284 47.0884 33.92 47.0913 33.9116C47.7217 31.5426 45.6672 28.9656 42.895 28.9544Z" fill="white"></path><path d="M33.6237 38.88C32.9398 38.5428 32.0617 38.332 31.102 38.332C30.0888 38.332 29.1657 38.5681 28.4677 38.939C27.6656 39.3661 27.1562 39.9731 27.1562 40.6194C27.1562 41.6114 27.9921 43.1205 29.8018 43.6235C30.1902 43.7332 30.6235 43.795 31.102 43.795C31.5186 43.795 31.8956 43.7499 32.2391 43.6741C34.2682 43.2357 35.0478 41.648 35.0478 40.6167C35.0478 39.945 34.4934 39.3099 33.6237 38.88Z" fill="white"></path><path d="M45.9654 49.3112C45.6727 49.106 45.6727 48.6845 45.9654 48.4765C46.9899 47.7543 47.6118 46.501 47.426 45.1184C47.2093 43.4885 45.8388 42.2071 44.198 42.0834C42.605 41.9626 41.2063 42.8984 40.6462 44.2613C39.9932 45.6158 38.6931 46.5965 37.1423 46.8017C36.9818 46.8241 36.8186 46.8354 36.6526 46.841H36.4331H35.752C34.3251 46.782 32.8475 45.9025 30.9675 45.9025L30.9647 45.908V45.9025C29.0847 45.9025 27.61 46.782 26.1802 46.841H25.4992H25.2796C25.1811 46.8382 25.0827 46.827 24.9841 46.8186C23.2645 46.6668 21.8123 45.5737 21.1763 44.0505C20.5543 42.786 19.2005 41.9429 17.6611 42.089C16.0484 42.2408 14.7172 43.5138 14.5034 45.1184C14.3176 46.5038 14.9396 47.7543 15.964 48.4793C16.2567 48.6845 16.2567 49.106 15.964 49.314C14.9396 50.0362 14.3176 51.2895 14.5034 52.6722C14.7201 54.2992 16.0907 55.5835 17.7286 55.7071C19.3187 55.828 20.7091 54.895 21.2692 53.532C21.8039 52.453 22.9212 51.711 24.2074 51.711C24.2524 51.711 24.2974 51.7082 24.3424 51.711C24.3424 51.7082 24.3424 51.7139 24.3452 51.711H37.9331C39.1461 51.7926 40.1846 52.5429 40.68 53.5883C41.2598 54.9231 42.6388 55.8336 44.2177 55.7043C45.85 55.5723 47.2093 54.2908 47.426 52.6693C47.6118 51.2839 46.9899 50.0334 45.9654 49.3112Z" fill="#FF9D3B"></path></svg> 