<?xml version="1.0" encoding="UTF-8"?> <svg xmlns="http://www.w3.org/2000/svg" width="65" height="49" viewBox="0 0 65 49" fill="none"><path d="M57.8696 18.503C58.098 19.0849 58.3318 19.6174 58.5167 20.167C58.806 21.0387 58.9313 21.9564 58.8865 22.8737C58.7876 25.1104 58.6739 27.3465 58.5602 29.5827C58.4677 31.4196 58.3642 33.2555 58.2653 35.0919C58.1322 37.5502 57.9991 40.0087 57.8659 42.4674C57.798 43.7279 57.7273 44.9879 57.6718 46.2483C57.6126 47.5887 56.5056 48.6722 55.1615 48.6754C52.9737 48.6806 50.7859 48.6806 48.5981 48.6754C48.0192 48.6789 47.4566 48.4837 47.0043 48.1224C46.552 47.7611 46.2373 47.2556 46.1128 46.6902C45.7342 44.9874 45.3732 43.2809 45.0034 41.5758C44.9854 41.4935 44.9665 41.4113 44.9443 41.3142H31.694C31.5382 42.0075 31.3806 42.7041 31.2262 43.4002C30.9803 44.5095 30.7423 45.6229 30.4904 46.7318C30.226 47.8933 29.2507 48.6676 28.0554 48.6689C25.883 48.6722 23.7106 48.6551 21.5382 48.6749C20.0448 48.6884 18.9863 47.5194 18.9387 46.1328C18.8629 43.9257 18.813 41.7177 18.746 39.5102C18.6998 38.0486 18.6536 36.5876 18.5875 35.127C18.574 34.8423 18.4811 34.5575 18.3993 34.2802C18.3106 33.9807 18.0869 33.8346 17.7749 33.8268C17.4439 33.8185 17.113 33.8064 16.7816 33.8069C15.1717 33.8069 13.5563 33.904 11.9533 33.7977C8.82965 33.5906 6.36328 32.106 5.21283 29.0512C4.90016 28.2221 4.74149 27.3429 4.74461 26.4568C4.74461 22.5395 4.74461 18.6223 4.752 14.705C4.752 14.4535 4.67389 14.3352 4.45295 14.216C2.34803 13.1011 1.02193 11.3442 0.315209 9.09926C0.176917 8.65999 0.0773151 8.20946 0.0175429 7.75283C-0.121121 6.69621 0.575435 5.8254 1.63991 5.78334C3.0016 5.72972 4.36698 5.74821 5.72912 5.73711C5.89691 5.73711 6.06469 5.73711 6.26298 5.73711C6.26298 5.33822 6.25974 4.96337 6.26298 4.58898C6.26991 3.93679 6.21999 3.28276 6.40164 2.64028C6.62979 1.81902 7.14153 1.10514 7.84605 0.625368C8.55057 0.145593 9.40229 -0.0690526 10.25 0.0195279C11.0942 0.0968505 11.8832 0.472474 12.4754 1.07899C13.0676 1.68551 13.4242 2.48322 13.4814 3.32898C13.5276 3.98764 13.5068 4.65137 13.5156 5.3128C13.5156 5.4339 13.5156 5.55454 13.5156 5.68766H17.5281C17.5281 5.37751 17.5179 5.07245 17.5304 4.76831C17.5567 4.12121 17.5345 3.46857 17.6408 2.8358C17.9112 1.22591 19.4134 0.0426386 21.0515 0.00103938C22.5195 -0.0345511 24.2292 0.911601 24.6272 2.7281C24.7659 3.36596 24.7349 4.04218 24.7659 4.70129C24.7825 5.03732 24.7686 5.37474 24.7686 5.73758C24.8745 5.73758 24.9568 5.73758 25.039 5.73758C26.4257 5.74821 27.8123 5.74174 29.199 5.77409C30.4419 5.80321 31.1356 6.62965 31.0219 7.86885C30.9221 8.95921 30.4839 9.93032 29.9709 10.8732C29.3908 11.948 28.5805 12.8814 27.5979 13.6068C27.5618 13.6331 27.529 13.6636 27.4592 13.7232C27.5701 13.7302 27.6413 13.7385 27.7125 13.7385C32.1032 13.7502 36.4942 13.7615 40.8856 13.7722C45.7998 13.788 50.7146 13.7949 55.6302 13.8328C57.5847 13.8455 59.4738 14.5384 60.9729 15.7925C62.4721 17.0465 63.4878 18.7835 63.8456 20.705C63.9438 21.2343 63.9939 21.7714 63.9954 22.3098C64.0088 25.4186 64.0023 28.528 64.0009 31.6373C63.9997 31.7609 63.992 31.8843 63.9778 32.007C63.9316 32.4272 63.7569 32.7507 63.3644 32.9671C63.0293 33.152 62.7321 33.4052 62.4063 33.6091C62.2894 33.6744 62.1583 33.7102 62.0245 33.7135C61.8807 33.7209 61.7347 33.6844 61.59 33.6627C60.5888 33.5153 60.1997 32.8418 60.0859 31.8776C59.9986 31.1409 60.0374 30.3879 60.036 29.6419C60.0314 27.2102 60.0439 24.778 60.0309 22.3463C60.0194 20.6837 59.2253 19.451 57.8696 18.503ZM41.4509 38.0477H47.5382C47.5623 38.1402 47.5794 38.1975 47.5932 38.2566C48.1171 40.5409 48.6398 42.8253 49.1615 45.1099C49.2124 45.3364 49.2942 45.4117 49.5378 45.4099C51.0857 45.3955 52.6346 45.4025 54.1821 45.4025H54.4358C54.4479 45.3008 54.4603 45.225 54.465 45.1492C54.5759 43.2675 54.6919 41.3858 54.7945 39.5037C54.9295 37.0299 55.0538 34.558 55.1828 32.0815C55.3362 29.1307 55.4966 26.1808 55.6413 23.2296C55.7143 21.7404 55.2799 20.3981 54.3323 19.2467C53.7948 18.5941 53.1999 17.9886 52.6277 17.3646C52.4631 17.1852 52.2505 17.1067 52.0074 17.103C50.9022 17.0854 49.7966 17.0641 48.6915 17.0493C48.1909 17.0429 47.6898 17.0493 47.1893 17.0493C47.1148 17.0493 47.0404 17.0567 46.966 17.0604C46.8671 18.5395 46.0152 19.4723 44.7978 20.1254C43.4966 20.8238 42.0966 20.9819 40.6503 20.7651C40.245 20.7041 39.8475 20.5867 39.4564 20.4975C39.1037 22.6495 37.9551 24.1379 35.7948 24.6417C33.9459 25.0734 32.3282 24.503 31.1685 23.0008C29.6797 21.0697 29.7957 19.053 31.1366 17.0424C31.052 17.0373 30.9789 17.029 30.9055 17.029C29.2723 17.0268 27.6391 17.025 26.006 17.0235C25.5831 17.0235 25.5396 17.0669 25.5396 17.4797C25.5396 20.3731 25.5428 23.2666 25.5308 26.16C25.5281 26.7503 25.5308 27.3549 25.4134 27.928C25.039 29.7274 24.0309 31.109 22.4691 32.0773C22.165 32.2659 22.0416 32.4933 22.0462 32.8501C22.0753 34.9888 22.0924 37.1279 22.1058 39.2675C22.1192 41.1681 22.1239 43.0688 22.1359 44.9694C22.1382 45.3854 22.1705 45.415 22.5851 45.4154C24.0642 45.4154 25.5433 45.4154 27.0224 45.4154C27.3755 45.4154 27.4065 45.3844 27.4846 45.0396C27.7236 43.983 27.9538 42.9241 28.2029 41.8702C28.5264 40.5044 28.8879 39.1478 29.1902 37.7783C29.7508 35.2412 31.7545 33.2804 34.2967 32.8677C36.7465 32.4688 39.1763 33.5499 40.5366 35.6761C40.9937 36.3911 41.2872 37.17 41.4509 38.0477ZM4.51396 9.48983C4.52788 9.52567 4.54473 9.5603 4.56434 9.59337C4.66326 9.72094 4.7594 9.85128 4.86478 9.97331C5.42776 10.6255 6.12986 11.0627 6.94983 11.3211C7.57289 11.5176 8.04481 11.8938 8.23293 12.5377C8.30332 12.8056 8.33614 13.082 8.33046 13.359C8.33601 17.5994 8.33693 21.8396 8.33323 26.0796C8.33323 26.6292 8.37622 27.17 8.56157 27.6927C9.08248 29.1593 10.3869 30.0898 12.0679 30.1087C14.379 30.1349 16.6901 30.1335 19.0011 30.1046C20.8176 30.0801 22.2066 28.9463 22.5496 27.1926C22.6734 26.5603 22.6083 25.8915 22.6392 25.2398C22.6471 25.0808 22.5842 25.0239 22.4437 24.9624C21.7102 24.6301 20.9355 24.3556 20.2639 23.9225C16.0189 21.1838 13.9778 17.1464 13.4897 12.2284C13.4157 11.4815 13.4698 10.7216 13.4652 9.96822C13.4652 9.81061 13.4652 9.65345 13.4652 9.49076L4.51396 9.48983ZM19.0118 18.3338C19.046 19.2365 19.602 19.8009 20.4312 19.7759C21.1874 19.7533 21.7837 19.0859 21.7578 18.2913C21.7504 18.1066 21.7065 17.9253 21.6286 17.7577C21.5507 17.5901 21.4404 17.4396 21.304 17.315C21.1675 17.1903 21.0077 17.0939 20.8338 17.0315C20.6599 16.969 20.4753 16.9416 20.2907 16.9509C20.1159 16.9576 19.9441 16.9986 19.7851 17.0718C19.6262 17.1449 19.4832 17.2487 19.3644 17.3771C19.2456 17.5056 19.1534 17.6562 19.0928 17.8204C19.0323 17.9845 19.0048 18.159 19.0118 18.3338ZM10.7381 4.55616C10.7381 4.23261 10.7488 3.90906 10.7358 3.58551C10.7266 3.33651 10.6228 3.10039 10.4455 2.92528C10.2683 2.75017 10.0309 2.64924 9.78181 2.64305C9.25628 2.62179 8.75801 2.99896 8.73166 3.50786C8.69607 4.19055 8.71687 4.87601 8.71826 5.56009C8.71826 5.73203 8.79453 5.81153 8.98912 5.80552C9.46612 5.79027 9.94451 5.78703 10.422 5.80552C10.6623 5.81477 10.74 5.71308 10.74 5.50046C10.7372 5.18662 10.7377 4.87139 10.7367 4.55616H10.7381ZM22.1266 4.51456C22.1266 4.21458 22.1303 3.91368 22.1266 3.61463C22.1259 3.36531 22.0297 3.12575 21.8577 2.9452C21.6858 2.76466 21.4512 2.65686 21.2022 2.64398C20.6905 2.60654 20.1853 2.96383 20.1391 3.45979C20.0892 3.96822 20.1026 4.48821 20.0929 5.00312C20.0896 5.19448 20.1049 5.38629 20.1128 5.57811C20.1192 5.74913 20.201 5.80922 20.3776 5.8046C20.8629 5.79212 21.3483 5.78796 21.8331 5.8046C22.0698 5.81338 22.1276 5.7043 22.1262 5.50508C22.1234 5.17784 22.1252 4.8455 22.1252 4.51456H22.1266Z" fill="black"></path><path d="M41.4508 38.0477C41.2872 37.1695 40.9937 36.3912 40.5361 35.6761C39.1753 33.5499 36.7459 32.4688 34.2962 32.8677C31.754 33.2814 29.7512 35.2412 29.1915 37.7769C28.8892 39.1464 28.5273 40.504 28.2042 41.8689C27.9551 42.9227 27.7249 43.9817 27.4859 45.0383C27.4078 45.3831 27.3769 45.4136 27.0237 45.4141C25.5446 45.4168 24.0655 45.4168 22.5865 45.4141C22.1705 45.4141 22.1395 45.3835 22.1372 44.968C22.1252 43.0674 22.1205 41.1668 22.1071 39.2661C22.0942 37.1279 22.0766 34.9907 22.048 32.8501C22.0434 32.4938 22.1668 32.2659 22.4709 32.0773C24.0327 31.1067 25.0408 29.7274 25.4152 27.928C25.5345 27.3549 25.5298 26.7503 25.5326 26.16C25.5446 23.2666 25.54 20.3731 25.5414 17.4797C25.5414 17.0669 25.5848 17.023 26.0078 17.0235C27.6409 17.0235 29.2741 17.0253 30.9072 17.029C30.9803 17.029 31.0533 17.0373 31.1384 17.0424C29.7979 19.053 29.6815 21.0697 31.1702 23.0008C32.3286 24.5025 33.9477 25.0734 35.7966 24.6417C37.9551 24.1379 39.1037 22.6495 39.4564 20.497C39.8474 20.5862 40.2449 20.7036 40.6503 20.7646C42.0965 20.9814 43.4966 20.8233 44.7977 20.1249C46.0152 19.4718 46.8671 18.5377 46.966 17.06C47.0404 17.0563 47.1148 17.0489 47.1892 17.0489C47.6898 17.0489 48.1908 17.0429 48.6914 17.0489C49.7966 17.0637 50.9022 17.0849 52.0074 17.1025C52.2505 17.1062 52.4631 17.1848 52.6276 17.3641C53.1999 17.9881 53.7947 18.5936 54.3323 19.2462C55.2798 20.3976 55.7143 21.7399 55.6413 23.2291C55.4966 26.1804 55.3362 29.1302 55.1828 32.081C55.0538 34.5552 54.9295 37.0295 54.7945 39.5033C54.6919 41.3854 54.5759 43.2671 54.465 45.1487C54.4603 45.2245 54.4478 45.3004 54.4358 45.402H54.1821C52.6341 45.402 51.0852 45.3951 49.5377 45.4094C49.2942 45.4094 49.2142 45.3359 49.1615 45.1095C48.6447 42.824 48.122 40.5395 47.5932 38.2562C47.5793 38.197 47.5622 38.1383 47.5382 38.0473L41.4508 38.0477ZM44.1626 30.1101C44.1557 32.3144 45.8983 34.0916 48.0707 34.0972C50.2431 34.1027 51.9995 32.3408 52.0166 30.1411C52.0314 27.9571 50.2643 26.1554 48.1021 26.1499C45.9278 26.1439 44.1696 27.9118 44.1626 30.1101Z" fill="white"></path><path d="M4.51465 9.48982H13.464C13.464 9.65252 13.464 9.80967 13.464 9.96728C13.4687 10.7207 13.4146 11.4806 13.4885 12.2275C13.9743 17.145 16.0178 21.1824 20.2627 23.9215C20.9343 24.3546 21.709 24.6292 22.4425 24.9615C22.5812 25.0253 22.6459 25.0821 22.6381 25.2388C22.6071 25.8905 22.6723 26.5594 22.5484 27.1917C22.2054 28.943 20.8165 30.0768 19 30.1036C16.6889 30.1344 14.3778 30.1358 12.0668 30.1078C10.3857 30.0888 9.08132 29.1584 8.56041 27.6918C8.37552 27.169 8.33207 26.6287 8.33207 26.0787C8.33392 21.8383 8.333 17.5981 8.3293 13.3581C8.33485 13.0816 8.30203 12.8056 8.23177 12.5381C8.04365 11.8943 7.57173 11.518 6.94867 11.3216C6.1287 11.0632 5.4266 10.6282 4.86362 9.97375C4.75823 9.85173 4.66209 9.72139 4.56318 9.59381C4.54418 9.56054 4.52795 9.52575 4.51465 9.48982ZM9.66648 18.3209C9.70993 19.2527 10.2766 19.8189 11.122 19.775C11.8736 19.7362 12.4564 19.0535 12.4162 18.2589C12.3783 17.5018 11.7136 16.913 10.9371 16.9504C10.2128 16.9855 9.63321 17.6114 9.66648 18.3209Z" fill="white"></path><path d="M19.0118 18.3338C19.0047 18.1589 19.0322 17.9842 19.0927 17.8199C19.1532 17.6556 19.2456 17.5048 19.3645 17.3762C19.4834 17.2477 19.6265 17.1438 19.7856 17.0707C19.9447 16.9975 20.1167 16.9565 20.2917 16.95C20.4763 16.9407 20.6609 16.968 20.8348 17.0305C21.0087 17.093 21.1685 17.1894 21.305 17.314C21.4414 17.4387 21.5517 17.5892 21.6296 17.7568C21.7075 17.9244 21.7514 18.1057 21.7588 18.2904C21.7847 19.0849 21.1884 19.7524 20.4322 19.775C19.6021 19.8009 19.046 19.2365 19.0118 18.3338Z" fill="white"></path><path d="M10.7366 4.55617C10.7366 4.8714 10.7366 5.18663 10.7366 5.50232C10.7366 5.71447 10.6589 5.81662 10.4186 5.80738C9.94203 5.78843 9.46363 5.79166 8.9857 5.80738C8.79111 5.81339 8.7153 5.73389 8.71484 5.56194C8.71484 4.87787 8.69265 4.1924 8.72824 3.50971C8.75459 3.00128 9.25286 2.62365 9.77841 2.64491C10.0275 2.65109 10.2649 2.75203 10.4421 2.92714C10.6194 3.10225 10.7232 3.33837 10.7324 3.58737C10.7468 3.90953 10.7361 4.23308 10.7366 4.55617Z" fill="white"></path><path d="M22.1255 4.51455C22.1255 4.84549 22.1255 5.17644 22.1255 5.50738C22.1255 5.7066 22.0691 5.81568 21.8325 5.8069C21.3481 5.78934 20.8618 5.7935 20.377 5.8069C20.2004 5.81152 20.1186 5.75143 20.1121 5.58041C20.1043 5.3886 20.089 5.19678 20.0922 5.00542C20.1001 4.49051 20.0867 3.97283 20.1385 3.46209C20.187 2.96613 20.6931 2.60884 21.2016 2.64628C21.4505 2.65916 21.6851 2.76696 21.8571 2.9475C22.029 3.12805 22.1252 3.36761 22.126 3.61693C22.1292 3.9146 22.1255 4.21457 22.1255 4.51455Z" fill="white"></path><path d="M44.1631 30.1101C44.17 27.9118 45.9283 26.1439 48.1016 26.1499C50.2638 26.1554 52.0304 27.9571 52.0161 30.1411C52.0008 32.3417 50.2444 34.1027 48.0702 34.0972C45.8959 34.0916 44.1562 32.3144 44.1631 30.1101Z" fill="black"></path><path d="M9.6664 18.3209C9.63312 17.6091 10.2127 16.9856 10.9398 16.9504C11.7145 16.913 12.3791 17.5018 12.4189 18.259C12.4582 19.0535 11.8753 19.738 11.1247 19.775C10.2765 19.8189 9.70985 19.2527 9.6664 18.3209Z" fill="black"></path></svg> 