<?xml version="1.0" encoding="UTF-8"?> <svg xmlns="http://www.w3.org/2000/svg" width="256" height="256" viewBox="0 0 256 256" fill="none"><rect width="256" height="256" rx="128" fill="black"></rect><path fill-rule="evenodd" clip-rule="evenodd" d="M128 49.9204C156.277 49.9204 179.2 72.8434 179.2 101.12C179.2 122.851 165.662 141.42 146.56 148.853V206.08H109.44L109.44 148.853C90.3381 141.42 76.8002 122.851 76.8002 101.12C76.8002 72.8434 99.7232 49.9204 128 49.9204ZM149.12 100.8C149.12 89.3126 139.808 80.0001 128.32 80.0001C116.833 80.0001 107.52 89.3126 107.52 100.8C107.52 112.288 116.833 121.6 128.32 121.6C139.808 121.6 149.12 112.288 149.12 100.8Z" fill="white"></path></svg> 