<?xml version="1.0" encoding="UTF-8"?> <svg xmlns="http://www.w3.org/2000/svg" width="73" height="71" viewBox="0 0 73 71" fill="none"><path d="M36.5024 1C22.7344 3.43381 11.9094 15.6398 10 31C12.0339 19.9393 20.8584 11.6173 31.4393 11.6173C33.1812 11.6173 34.8753 11.8436 36.5024 12.2685C38.1247 11.8436 39.8236 11.6173 41.5607 11.6173C52.1416 11.6173 60.9661 19.9393 63 31C61.0953 15.6398 50.2704 3.43381 36.5024 1Z" fill="#005A72"></path><path d="M41.585 0C41.2026 0 40.8201 0.00928529 40.4424 0.0232132C39.1394 0.0742824 37.8505 0.218203 36.5946 0.445693C35.4049 0.659255 34.234 0.951742 33.0962 1.31387C33.0821 1.31851 33.0679 1.32315 33.0537 1.3278C32.9735 1.35101 32.8979 1.37886 32.8224 1.40208C32.728 1.42993 32.6383 1.46243 32.5438 1.49493C32.3692 1.55528 32.1897 1.61564 32.0151 1.68064C32.0056 1.68528 31.9962 1.68528 31.9867 1.68992C31.9065 1.71778 31.8309 1.74563 31.7507 1.77813C31.7365 1.78278 31.7223 1.78742 31.7129 1.79206C31.6279 1.82456 31.5477 1.85706 31.4627 1.88491C31.4532 1.88956 31.4438 1.8942 31.4343 1.8942C31.3635 1.92206 31.2927 1.94991 31.2266 1.97777C31.1983 1.98705 31.17 2.00098 31.1416 2.01027C31.0755 2.03812 31.0094 2.06598 30.9433 2.08919C30.9197 2.09848 30.9008 2.10776 30.8772 2.11705C30.797 2.14954 30.7167 2.18204 30.6365 2.21918C30.5468 2.25633 30.4618 2.29347 30.3721 2.33061C30.3674 2.33061 30.3626 2.33525 30.3579 2.33525C30.2729 2.37239 30.1832 2.40953 30.0982 2.44667C30.0085 2.48846 29.9188 2.5256 29.8339 2.56738C29.7442 2.60917 29.6497 2.65095 29.56 2.69274C29.3853 2.77166 29.2154 2.85523 29.0454 2.9388C28.9604 2.98058 28.8707 3.027 28.7857 3.06879C28.7008 3.11057 28.6111 3.157 28.5261 3.20343C28.4411 3.24985 28.3514 3.29164 28.2664 3.33806C28.1861 3.37985 28.1059 3.42163 28.0256 3.46806C28.0162 3.4727 28.002 3.47734 27.9926 3.48663C27.9123 3.52841 27.8321 3.57484 27.7518 3.62126C27.6715 3.66305 27.596 3.70947 27.5205 3.75126C27.4968 3.76519 27.478 3.77447 27.4544 3.7884C27.393 3.8209 27.3316 3.85804 27.2702 3.89054C27.2466 3.90447 27.2183 3.92304 27.19 3.93696C27.1239 3.97411 27.0578 4.01589 26.987 4.05303C26.902 4.1041 26.8217 4.15517 26.7367 4.2016C26.5857 4.29445 26.4393 4.38266 26.2882 4.48015C26.1041 4.59622 25.9152 4.71693 25.7358 4.83764C25.6603 4.88871 25.5847 4.93978 25.5045 4.99085C25.4242 5.04656 25.344 5.09763 25.2637 5.15334C25.1834 5.20905 25.1079 5.26012 25.0276 5.31583C25.0229 5.31583 25.0229 5.32047 25.0182 5.32047C24.9427 5.37618 24.8624 5.42725 24.7869 5.48296C24.7821 5.48296 24.7821 5.48761 24.7774 5.48761C24.6972 5.54332 24.6216 5.59903 24.5414 5.65939C24.4611 5.7151 24.3856 5.77545 24.3053 5.83116C24.3006 5.83581 24.2959 5.83581 24.2911 5.84045C24.2156 5.89616 24.1448 5.95187 24.0692 6.00758C23.9701 6.08187 23.8662 6.16079 23.7671 6.23972C23.6349 6.34185 23.5027 6.44863 23.3705 6.55542C23.3091 6.60648 23.243 6.65756 23.1817 6.70863C23.1628 6.72255 23.1486 6.73648 23.1297 6.75041C23.0778 6.79219 23.0306 6.83398 22.9786 6.87576C22.9503 6.89897 22.922 6.92218 22.8889 6.95004C22.8228 7.00575 22.752 7.06611 22.6859 7.12182C22.6198 7.17753 22.5537 7.23789 22.4876 7.2936C22.4735 7.30753 22.4593 7.32145 22.4451 7.33074C22.379 7.38645 22.3129 7.44681 22.2468 7.50252C22.2421 7.50716 22.2374 7.5118 22.2327 7.51644C22.1619 7.58144 22.091 7.6418 22.0202 7.70679C21.9447 7.77179 21.8739 7.83679 21.7983 7.90643C21.7322 7.96678 21.6614 8.03178 21.5953 8.09213C21.5717 8.11535 21.5481 8.13392 21.5245 8.15713C21.4726 8.2082 21.4159 8.25927 21.364 8.31034C21.2223 8.44497 21.076 8.58426 20.9343 8.72354C20.8635 8.79317 20.7974 8.85817 20.7266 8.92781L20.7219 8.93245C20.6794 8.97424 20.6369 9.01602 20.5944 9.06244C20.5566 9.09959 20.5189 9.13673 20.4858 9.17387C20.4339 9.22494 20.3867 9.27601 20.3348 9.33172C20.3206 9.34565 20.3111 9.35958 20.297 9.37351C20.2545 9.41529 20.212 9.45707 20.1742 9.5035C20.127 9.55457 20.0798 9.601 20.0326 9.65206C19.9712 9.71706 19.9098 9.78205 19.8485 9.8517C19.8107 9.88884 19.7776 9.93062 19.7399 9.96776C19.6974 10.0095 19.6596 10.056 19.6218 10.0978C19.5841 10.1395 19.5463 10.1813 19.5085 10.2277C19.0978 10.6827 18.7012 11.1563 18.3094 11.6345C18.2621 11.6948 18.2149 11.7552 18.1677 11.8155C18.1536 11.8341 18.1394 11.848 18.1252 11.8666C18.0827 11.9177 18.045 11.9687 18.0025 12.0245C17.9741 12.0616 17.9458 12.0987 17.9175 12.1359C17.8892 12.173 17.8561 12.2148 17.8278 12.2519C17.7947 12.2984 17.757 12.3448 17.7239 12.3866C17.6814 12.4423 17.6389 12.5026 17.5964 12.5584C17.5917 12.5676 17.5823 12.5769 17.5776 12.5816C17.5303 12.6419 17.4831 12.7069 17.4359 12.7673C17.4076 12.8091 17.3745 12.8508 17.3462 12.8926C17.3085 12.9437 17.2707 12.9994 17.2329 13.0505C17.2282 13.0551 17.2282 13.0598 17.2235 13.0644C17.1668 13.1433 17.1102 13.2223 17.0535 13.3058C16.8788 13.5519 16.7041 13.8072 16.5342 14.0579C16.5011 14.1044 16.4681 14.1508 16.4397 14.2019C16.4067 14.2483 16.3736 14.2994 16.3453 14.3458C16.2981 14.4201 16.2462 14.499 16.199 14.5733C16.1565 14.6383 16.114 14.7033 16.0762 14.7683C16.0526 14.8008 16.0337 14.8379 16.0101 14.8704C15.9723 14.9307 15.9299 14.9911 15.8921 15.0561C15.8826 15.0747 15.8685 15.0886 15.859 15.1072C15.8165 15.1768 15.7693 15.2511 15.7268 15.3207C15.7127 15.3439 15.6985 15.3625 15.6891 15.3857C15.6466 15.46 15.5994 15.5297 15.5569 15.6039C15.5522 15.6086 15.5474 15.6179 15.5427 15.6225C15.4908 15.7061 15.4436 15.7896 15.3916 15.8779C15.3397 15.9661 15.2878 16.0543 15.2358 16.1425C15.1933 16.2214 15.1461 16.2957 15.1036 16.3746C15.047 16.4721 14.9951 16.5696 14.9384 16.6717C14.8865 16.7646 14.8345 16.8574 14.7826 16.9549C14.7495 17.0153 14.7212 17.071 14.6882 17.1314C14.6221 17.2567 14.5513 17.3867 14.4852 17.5121C14.4474 17.5863 14.4049 17.6653 14.3671 17.7396C14.3577 17.7581 14.3482 17.7767 14.3388 17.7953C14.2963 17.8788 14.2538 17.9578 14.216 18.0413C14.2113 18.0506 14.2066 18.0645 14.2019 18.0738C14.1641 18.1527 14.1216 18.2317 14.0839 18.3106C14.0744 18.3338 14.0602 18.3524 14.0508 18.3756C14.0178 18.4406 13.9894 18.5056 13.9564 18.5706C13.9375 18.6124 13.9139 18.6542 13.895 18.6959C13.8667 18.7563 13.8336 18.8213 13.8053 18.8816C13.7959 18.9002 13.7864 18.9188 13.7817 18.9374C13.7439 19.0209 13.7014 19.1045 13.6637 19.1881C13.6259 19.267 13.5928 19.3459 13.5551 19.4248C13.5267 19.4852 13.4984 19.5502 13.4701 19.6105C13.4465 19.6616 13.4276 19.708 13.404 19.7591C13.234 20.1491 13.0688 20.5391 12.9083 20.9383C12.8752 21.0265 12.8374 21.1101 12.8044 21.1983C12.7997 21.2076 12.795 21.2169 12.795 21.2262C12.7666 21.2958 12.7383 21.3655 12.7147 21.4351C12.7005 21.4769 12.6817 21.5187 12.6675 21.5605C12.6392 21.6301 12.6156 21.7044 12.5872 21.774C12.5778 21.7972 12.5731 21.8158 12.5636 21.839C12.5353 21.9179 12.5022 22.0015 12.4739 22.0804C12.4645 22.1036 12.455 22.1269 12.4503 22.1501C12.422 22.2243 12.3984 22.2986 12.3701 22.3776C12.3606 22.4008 12.3512 22.424 12.3464 22.4472C12.3181 22.5308 12.2851 22.619 12.2567 22.7025C12.2237 22.8047 12.1906 22.9022 12.1529 23.0043C12.0962 23.1807 12.0396 23.3572 11.9829 23.5336C11.9404 23.6636 11.9026 23.7889 11.8602 23.9189C11.8413 23.9793 11.8224 24.0443 11.8035 24.1046C11.7846 24.165 11.7705 24.2207 11.7516 24.281C11.7421 24.3182 11.728 24.3507 11.7185 24.3878C11.6996 24.4528 11.6808 24.5225 11.6619 24.5875C11.6383 24.671 11.6147 24.7592 11.591 24.8474C11.5674 24.9357 11.5391 25.0285 11.5155 25.1167C11.5061 25.1446 11.4966 25.1771 11.4919 25.2049C11.473 25.2839 11.4494 25.3628 11.4305 25.4417C11.4258 25.4649 11.4164 25.4881 11.4116 25.5113C11.3928 25.5903 11.3739 25.6646 11.3503 25.7435C11.3361 25.7899 11.3267 25.8363 11.3125 25.8874C11.2983 25.9524 11.2794 26.0127 11.2653 26.0777C11.2606 26.101 11.2511 26.1242 11.2464 26.1474C11.2228 26.2356 11.2039 26.3238 11.185 26.412C11.1095 26.7277 11.0387 27.0481 10.9726 27.3684C10.949 27.4752 10.9301 27.582 10.9065 27.6887C10.8876 27.7723 10.8734 27.8559 10.8593 27.9394C10.8498 27.9812 10.8404 28.023 10.8357 28.0694C10.8262 28.1066 10.8215 28.1484 10.812 28.1855C10.7979 28.2644 10.7837 28.348 10.7696 28.4269C10.7601 28.4687 10.7554 28.5105 10.7459 28.5523C10.7365 28.608 10.7271 28.6591 10.7176 28.7148C10.7035 28.7844 10.694 28.8541 10.6799 28.9237C10.6704 28.9794 10.661 29.0351 10.6515 29.0908C10.6421 29.1373 10.6374 29.179 10.6279 29.2255C10.6185 29.2905 10.609 29.3508 10.5996 29.4158C10.5902 29.4808 10.5807 29.5458 10.5713 29.6108C10.5665 29.6433 10.5618 29.6712 10.5571 29.7037C10.5477 29.7826 10.5335 29.8569 10.5241 29.9358C10.491 30.1633 10.4627 30.3908 10.4344 30.6183C10.4155 30.7808 10.3871 30.9386 10.3541 31.1011C10.1228 32.531 10 34.0074 10 35.5116C10 37.0158 10.1228 38.4922 10.3541 39.9221C10.3871 40.0846 10.4155 40.2471 10.4344 40.405C12.4409 51.5241 21.1515 59.8901 31.5854 59.8901C33.3039 59.8901 34.9753 59.6627 36.5805 59.2355C27.0625 56.6914 19.9854 47.0347 19.9854 35.5116C19.9854 23.9886 27.0672 14.3319 36.5805 11.7877C38.181 11.3606 39.8523 11.1331 41.5755 11.1331C52.0142 11.1331 60.7201 19.4991 62.7266 30.6183C62.7502 30.7575 62.7691 30.9015 62.7738 31.0407C62.9391 32.5032 63.0193 33.9981 63.0193 35.5116C63.0193 37.0251 62.9343 38.52 62.7738 39.9825C62.7644 40.1264 62.7502 40.2657 62.7266 40.405C62.7077 40.5628 62.6888 40.7207 62.6652 40.8739C62.6558 40.9435 62.6463 41.0131 62.6369 41.0828C62.6322 41.1153 62.6275 41.1524 62.6227 41.1849C62.6133 41.2685 62.5991 41.3474 62.585 41.431C62.5803 41.4728 62.5708 41.5192 62.5661 41.561C62.5566 41.626 62.5472 41.691 62.533 41.7606C62.5283 41.8024 62.5189 41.8395 62.5142 41.8813C62.5047 41.9417 62.4953 42.002 62.4858 42.0624C62.4764 42.1274 62.4622 42.1924 62.4528 42.262C62.4103 42.5034 62.3678 42.7402 62.3253 42.977C62.3064 43.0652 62.2923 43.1534 62.2734 43.2416C62.2545 43.3345 62.2356 43.4227 62.2167 43.5155C62.2026 43.5805 62.1884 43.6502 62.1742 43.7152C62.1648 43.7569 62.1553 43.7987 62.1459 43.8405C62.127 43.9194 62.1128 44.003 62.094 44.0819C62.0751 44.1748 62.0515 44.2723 62.0326 44.3651C61.9854 44.5694 61.9382 44.7737 61.8862 44.978C61.8721 45.0383 61.8579 45.0987 61.8437 45.159C61.8248 45.2426 61.8013 45.3262 61.7824 45.4051C61.7635 45.4794 61.7446 45.549 61.7257 45.6233C61.7115 45.6883 61.6927 45.7486 61.6738 45.8136C61.636 45.9529 61.5982 46.0922 61.5605 46.2315C61.5416 46.3058 61.518 46.38 61.4991 46.4543C61.3858 46.8582 61.263 47.2575 61.1355 47.6521C61.1214 47.6986 61.1025 47.7496 61.0883 47.7961C61.0647 47.861 61.0458 47.9307 61.0222 47.9957C61.0081 48.0328 60.9986 48.07 60.9845 48.1071C60.9656 48.1721 60.942 48.2325 60.9184 48.2975C60.8853 48.3903 60.857 48.4832 60.824 48.576C60.8051 48.6364 60.7815 48.6967 60.7626 48.7524C60.687 48.966 60.6068 49.1796 60.5265 49.3931C60.4982 49.4767 60.4651 49.5556 60.4321 49.6392C60.4132 49.6856 60.3943 49.7367 60.3754 49.7831C60.3518 49.8481 60.3235 49.9131 60.2999 49.9781C60.2952 49.9967 60.2857 50.0106 60.281 50.0292C60.248 50.1127 60.2149 50.2009 60.1772 50.2845C60.1441 50.3588 60.1158 50.4377 60.0827 50.512C60.0591 50.5724 60.0308 50.6327 60.0072 50.6931C59.875 51.0134 59.7381 51.3291 59.5917 51.6402C59.5539 51.7237 59.5162 51.8073 59.4784 51.8909C59.4737 51.9048 59.469 51.9141 59.4595 51.928C59.4217 52.0116 59.3793 52.0951 59.3415 52.1834C59.332 52.2019 59.3273 52.2159 59.3179 52.2344C59.2707 52.3319 59.2235 52.4294 59.1762 52.5269C59.1479 52.5873 59.1149 52.6523 59.0865 52.7126C59.0629 52.759 59.0393 52.8055 59.0205 52.8519C58.9119 53.0747 58.7985 53.2976 58.6805 53.5158C58.6475 53.5761 58.6191 53.6365 58.5861 53.6969C58.5436 53.7758 58.5011 53.8547 58.4586 53.9336C58.4256 53.9986 58.3878 54.0636 58.3548 54.1286C58.3123 54.2029 58.2745 54.2772 58.232 54.3515C58.1942 54.4211 58.1517 54.4907 58.114 54.5604C58.0951 54.5929 58.0762 54.6254 58.0573 54.6579C58.0054 54.7461 57.9535 54.8343 57.9015 54.9272C57.8543 55.0107 57.8024 55.0943 57.7552 55.1779C57.7268 55.2289 57.6938 55.2846 57.6607 55.3357C57.6419 55.3729 57.6182 55.4053 57.5946 55.4425C57.5569 55.5075 57.5144 55.5725 57.4766 55.6375C57.4672 55.6514 57.4577 55.67 57.4483 55.6839C57.4105 55.7443 57.3775 55.8 57.3397 55.8603C57.3114 55.9068 57.283 55.9532 57.25 55.9996C57.1744 56.1203 57.0942 56.241 57.0186 56.3617C56.9809 56.4221 56.9431 56.4778 56.9053 56.5382C56.8581 56.6124 56.8109 56.6821 56.759 56.7564C56.7259 56.8074 56.6882 56.8631 56.6551 56.9142C56.6079 56.9839 56.5607 57.0535 56.5135 57.1278C56.471 57.1928 56.4238 57.2578 56.3813 57.3228C56.3671 57.3413 56.353 57.3645 56.3388 57.3831C56.2963 57.4435 56.2538 57.5038 56.216 57.5595C56.1972 57.5874 56.1783 57.6106 56.1594 57.6385C56.1216 57.6942 56.0838 57.7452 56.0414 57.801C56.0225 57.8242 56.0036 57.852 55.9847 57.8799C55.9422 57.9402 55.8997 58.0006 55.8572 58.0563C55.7439 58.2095 55.6306 58.3627 55.5173 58.5159C55.4606 58.5902 55.404 58.6691 55.3426 58.7434C55.2954 58.8038 55.2482 58.8641 55.201 58.9245C55.1821 58.9523 55.1632 58.9755 55.1396 59.0034C55.0971 59.0591 55.0546 59.1148 55.0121 59.1659C55.0027 59.1798 54.9885 59.1984 54.9744 59.2123C54.9224 59.2773 54.8705 59.347 54.8138 59.412C54.5683 59.7184 54.3181 60.0155 54.0632 60.3126C54.0254 60.3591 53.9876 60.4008 53.9451 60.4473C53.9215 60.4751 53.8979 60.503 53.8743 60.5308C53.8318 60.5773 53.7941 60.6237 53.7516 60.6701C53.6902 60.7397 53.6241 60.8094 53.5627 60.879C53.5297 60.9162 53.4966 60.9533 53.4589 60.9905C53.4164 61.0369 53.3786 61.0787 53.3361 61.1251C53.2086 61.2644 53.0764 61.4036 52.9442 61.5429C52.8829 61.6079 52.8262 61.6683 52.7648 61.7286C52.7601 61.7333 52.7507 61.7426 52.7459 61.7472C52.694 61.8029 52.6421 61.854 52.5854 61.9097C52.5713 61.9283 52.5524 61.9422 52.5382 61.9608C52.491 62.0072 52.4438 62.0536 52.4013 62.1C52.373 62.1279 52.3446 62.1558 52.3163 62.1836C52.2738 62.23 52.2266 62.2718 52.1794 62.3182C52.1558 62.3415 52.1322 62.3647 52.1086 62.3833C52.0614 62.4297 52.0094 62.4807 51.9622 62.5272C51.9528 62.5365 51.9433 62.5457 51.9339 62.555C51.8064 62.6804 51.6742 62.8011 51.542 62.9218C51.4759 62.9868 51.4051 63.0471 51.3343 63.1121C51.2635 63.1771 51.1974 63.2375 51.1266 63.3025C51.0605 63.3628 50.9944 63.4186 50.9283 63.4789C50.9235 63.4836 50.9141 63.4928 50.9094 63.4975C50.8433 63.5578 50.7772 63.6135 50.7064 63.6739C50.6356 63.7343 50.5695 63.7946 50.4986 63.8503C50.2862 64.0314 50.069 64.2125 49.8518 64.3889C49.781 64.4492 49.7055 64.5049 49.6347 64.5607C49.5686 64.6117 49.5072 64.6628 49.4411 64.7139C49.4269 64.7278 49.408 64.7371 49.3939 64.751C49.3278 64.8021 49.2617 64.8531 49.1956 64.9042C49.1295 64.9553 49.0681 65.0017 49.002 65.0528C48.9784 65.0713 48.9501 65.0899 48.9265 65.1085C48.8698 65.1503 48.8132 65.1921 48.7565 65.2385C48.6999 65.2803 48.6432 65.322 48.5865 65.3638C48.4166 65.4845 48.2513 65.6052 48.0767 65.726C47.9303 65.8281 47.7839 65.9302 47.6329 66.0277C47.6234 66.0324 47.614 66.0417 47.5998 66.0463C47.529 66.0927 47.4582 66.1392 47.3874 66.1856C47.3165 66.232 47.2457 66.2784 47.1702 66.3249C47.0899 66.3806 47.0049 66.4316 46.9247 66.4827C46.7689 66.5802 46.6131 66.6777 46.4573 66.7752C46.3912 66.817 46.3204 66.8588 46.2495 66.9005C46.2307 66.9098 46.2165 66.9191 46.1976 66.9284C46.1268 66.9702 46.0513 67.0166 45.9804 67.0584C45.9049 67.1048 45.8293 67.1466 45.7538 67.1884C45.7444 67.193 45.7349 67.1977 45.7255 67.207C45.6499 67.2487 45.5791 67.2905 45.5036 67.3323C45.4233 67.3787 45.3431 67.4205 45.2628 67.4669C45.1023 67.5552 44.9418 67.6434 44.7765 67.7269C44.6207 67.8105 44.4602 67.8894 44.2997 67.9683C44.2902 67.973 44.2761 67.9776 44.2666 67.9869C44.1958 68.0241 44.125 68.0566 44.0542 68.0937C44.0447 68.0984 44.0306 68.1076 44.0164 68.1123C43.9409 68.1494 43.8653 68.1866 43.7898 68.2237C43.5396 68.3444 43.2893 68.4558 43.0391 68.5673C42.9541 68.6044 42.8691 68.6415 42.7889 68.6787C42.7039 68.7158 42.6189 68.753 42.5339 68.7855C42.449 68.8226 42.364 68.8551 42.279 68.8922C42.194 68.9247 42.109 68.9619 42.024 68.9944C40.2725 69.6908 38.4501 70.2154 36.5758 70.5543C34.9517 70.8468 33.2803 71 31.5807 71H42.024V70.9954C59.1762 70.7168 73 54.9364 73 35.5023C73.0189 15.8918 58.9449 0 41.585 0Z" fill="url(#paint0_linear_150_11)"></path><path d="M62.7351 31.0428C62.7209 30.9035 62.702 30.7595 62.6878 30.6203C60.6772 19.5004 51.9536 11.1338 41.4938 11.1338C39.7718 11.1338 38.0971 11.3613 36.4886 11.7885C46.0212 14.3328 53.1174 23.9901 53.1174 35.5139C53.1174 47.0377 46.0212 56.6951 36.4886 59.2394C34.8802 59.6666 33.2102 59.8941 31.4834 59.8941C21.0237 59.8941 12.3001 51.5275 10.2895 40.4076C10.2611 40.2451 10.2327 40.0872 10.2091 39.9247C9.97725 38.4947 9.85425 37.0182 9.85425 35.5139C9.85425 34.0096 9.97725 32.5332 10.2091 31.1031C10.2327 30.9406 10.2611 30.7781 10.2895 30.6203C10.3179 30.3928 10.3462 30.1653 10.3794 29.9377C10.3888 29.8588 10.403 29.7845 10.4125 29.7056C10.4172 29.6731 10.4219 29.6452 10.4267 29.6127C10.4361 29.5477 10.4456 29.4827 10.4551 29.4177C10.4645 29.3527 10.474 29.2877 10.4834 29.2274C10.4882 29.1809 10.4976 29.1392 10.5071 29.0927C10.5166 29.037 10.526 28.9813 10.5355 28.9256C10.5449 28.8559 10.5591 28.7863 10.5733 28.7166C10.5828 28.6609 10.5923 28.6099 10.6017 28.5541C10.6064 28.5124 10.6159 28.4706 10.6254 28.4288C10.6396 28.3499 10.6537 28.2663 10.6679 28.1874C10.6727 28.1502 10.6821 28.1084 10.6916 28.0713C10.7011 28.0295 10.7058 27.9831 10.7152 27.9413C10.7294 27.8577 10.7484 27.7741 10.7626 27.6906C10.7862 27.5838 10.8051 27.477 10.8288 27.3702C10.895 27.0498 10.966 26.7341 11.0417 26.4137C11.0606 26.3255 11.0843 26.2373 11.1032 26.1491C11.1079 26.1259 11.1126 26.1027 11.1221 26.0795C11.1363 26.0145 11.1552 25.9541 11.1694 25.8891C11.1789 25.8427 11.1931 25.7962 11.2073 25.7452C11.2262 25.6662 11.2451 25.5919 11.2688 25.513C11.2735 25.4898 11.2829 25.4666 11.2877 25.4434C11.3066 25.3644 11.3303 25.2855 11.3492 25.2066C11.3586 25.1741 11.3634 25.1462 11.3728 25.1184C11.3965 25.0301 11.4201 24.9373 11.4485 24.8491C11.4722 24.7609 11.4958 24.6773 11.5195 24.5891C11.5384 24.5241 11.5573 24.4544 11.5763 24.3894C11.5857 24.3523 11.5952 24.3198 11.6094 24.2826C11.6283 24.2223 11.6425 24.1666 11.6614 24.1062C11.6803 24.0458 11.6993 23.9808 11.7182 23.9205C11.756 23.7905 11.7986 23.6605 11.8412 23.5351C11.8979 23.3587 11.9547 23.1823 12.0115 23.0058C12.0446 22.9037 12.0777 22.8062 12.1156 22.704C12.144 22.6205 12.1723 22.5322 12.2054 22.4487C12.2149 22.4254 12.2196 22.4022 12.2291 22.379C12.2575 22.3047 12.2811 22.2258 12.3095 22.1515C12.319 22.1283 12.3237 22.1051 12.3332 22.0819C12.3616 22.0029 12.39 21.9194 12.4231 21.8404C12.4325 21.8172 12.4373 21.7987 12.4467 21.7754C12.4751 21.7058 12.4988 21.6315 12.5271 21.5619C12.5413 21.5201 12.5603 21.4783 12.5745 21.4365C12.6028 21.3669 12.6265 21.2972 12.6549 21.2276C12.6596 21.2183 12.6643 21.209 12.6643 21.1997C12.6975 21.1115 12.7306 21.0279 12.7684 20.9397C12.9245 20.5451 13.0901 20.1504 13.2651 19.7604C13.2888 19.7093 13.3077 19.6629 13.3314 19.6118C13.3598 19.5468 13.3882 19.4865 13.4165 19.4261C13.4544 19.3472 13.4875 19.2682 13.5253 19.1893C13.5632 19.1057 13.601 19.0222 13.6436 18.9386C13.6531 18.92 13.6625 18.9015 13.6673 18.8829C13.6957 18.8225 13.724 18.7575 13.7572 18.6972C13.7761 18.6554 13.795 18.6136 13.8187 18.5718C13.847 18.5068 13.8802 18.4418 13.9133 18.3768C13.9227 18.3536 13.9322 18.335 13.9464 18.3118C13.9842 18.2329 14.0268 18.1539 14.0647 18.075C14.0694 18.0657 14.0741 18.0518 14.0788 18.0425C14.1214 17.9589 14.1593 17.88 14.2018 17.7964C14.2113 17.7779 14.2208 17.7593 14.2302 17.7407C14.2681 17.6664 14.3059 17.5875 14.3485 17.5132C14.4147 17.3832 14.481 17.2578 14.5519 17.1325C14.585 17.0721 14.6134 17.0164 14.6465 16.9561C14.6986 16.8632 14.7506 16.7703 14.8027 16.6728C14.8594 16.5753 14.9115 16.4778 14.9682 16.3757C15.0108 16.2968 15.0581 16.2225 15.1007 16.1435C15.1527 16.0553 15.2048 15.9671 15.2568 15.8789C15.3089 15.7953 15.3562 15.7071 15.4082 15.6235C15.4129 15.6189 15.4177 15.6096 15.4224 15.605C15.465 15.5307 15.5123 15.461 15.5549 15.3867C15.569 15.3635 15.5785 15.345 15.5927 15.3217C15.6353 15.2521 15.6826 15.1778 15.7252 15.1082C15.7346 15.0896 15.7441 15.0757 15.7583 15.0571C15.7961 14.9967 15.834 14.9317 15.8766 14.8714C15.9002 14.8389 15.9191 14.8017 15.9428 14.7692C15.9854 14.7042 16.0232 14.6392 16.0658 14.5742C16.1131 14.4999 16.1651 14.421 16.2124 14.3467C16.2456 14.3003 16.2787 14.2492 16.3071 14.2028C16.3402 14.1564 16.3686 14.1053 16.4017 14.0589C16.572 13.8035 16.747 13.5528 16.9221 13.3067C16.9788 13.2278 17.0356 13.1488 17.0924 13.0653C17.0971 13.0606 17.0971 13.056 17.1018 13.0513C17.1397 13.0003 17.1775 12.9445 17.2154 12.8935C17.2437 12.8517 17.2769 12.8099 17.3052 12.7681C17.3526 12.7031 17.3999 12.6428 17.4472 12.5824C17.4519 12.5731 17.4614 12.5638 17.4661 12.5592C17.5087 12.5035 17.5512 12.4431 17.5938 12.3874C17.6269 12.341 17.6648 12.2945 17.6979 12.2527C17.7263 12.211 17.7594 12.1738 17.7878 12.1367C17.8162 12.0995 17.8446 12.0624 17.8729 12.0252C17.9155 11.9742 17.9534 11.9185 17.9959 11.8674C18.0101 11.8488 18.0243 11.8349 18.0385 11.8163C18.0858 11.7559 18.1331 11.6956 18.1804 11.6352C18.5684 11.1524 18.9705 10.6834 19.3821 10.2284C19.4199 10.1866 19.4578 10.1448 19.4956 10.0984C19.5335 10.0566 19.576 10.0102 19.6139 9.96842C19.647 9.93127 19.6848 9.88949 19.7227 9.85234C19.7842 9.78734 19.8457 9.7177 19.9072 9.65269C19.9545 9.60162 20.0018 9.55519 20.0491 9.50412C20.0917 9.46234 20.1295 9.4159 20.1721 9.37412C20.1863 9.36019 20.1958 9.34626 20.21 9.33233C20.262 9.28126 20.3093 9.22554 20.3613 9.17447C20.3992 9.13733 20.437 9.10019 20.4702 9.06304C20.5127 9.02126 20.5553 8.97947 20.5979 8.93304L20.6026 8.9284C20.6736 8.85875 20.7398 8.78911 20.8108 8.7241C20.9527 8.58482 21.0946 8.44553 21.2413 8.31088C21.2933 8.25981 21.3501 8.20874 21.4021 8.15766C21.4258 8.13445 21.4494 8.11588 21.4731 8.09266C21.5393 8.02766 21.6103 7.96731 21.6765 7.90695C21.7475 7.84195 21.8232 7.7723 21.8988 7.7073C21.9698 7.6423 22.0408 7.58194 22.1117 7.51694C22.1165 7.51229 22.1212 7.50765 22.1259 7.50301C22.1922 7.44729 22.2584 7.38694 22.3246 7.33122C22.3388 7.31729 22.353 7.30801 22.3672 7.29408C22.4334 7.23836 22.4997 7.178 22.5659 7.12229C22.6321 7.06657 22.7031 7.00621 22.7693 6.9505C22.7977 6.92728 22.8261 6.90407 22.8592 6.87621C22.9065 6.83442 22.9585 6.79264 23.0106 6.75085C23.0295 6.73692 23.0437 6.72299 23.0626 6.70906C23.1241 6.65799 23.1904 6.60692 23.2519 6.55585C23.3843 6.44906 23.5168 6.34227 23.6492 6.24013C23.7486 6.1612 23.8479 6.08691 23.952 6.00798C24.023 5.95226 24.0987 5.89655 24.1744 5.84083C24.1791 5.83619 24.1838 5.83619 24.1886 5.83155C24.2642 5.77583 24.3447 5.71547 24.4251 5.65976C24.5055 5.60404 24.5812 5.54833 24.6616 5.48797C24.6616 5.48797 24.6664 5.48333 24.6711 5.48333C24.7468 5.42761 24.8272 5.37654 24.9029 5.32082C24.9076 5.32082 24.9076 5.31618 24.9124 5.31618C24.9928 5.26046 25.0685 5.20475 25.1489 5.15368C25.2293 5.09796 25.3098 5.04224 25.3902 4.99117C25.4659 4.9401 25.5416 4.88903 25.622 4.83795C25.8065 4.71724 25.991 4.59652 26.1755 4.48045C26.3269 4.38759 26.4735 4.29473 26.6249 4.20187C26.7101 4.1508 26.7905 4.09973 26.8757 4.0533C26.9419 4.01151 27.0081 3.97437 27.0791 3.93722C27.1027 3.9233 27.1311 3.90472 27.1595 3.89079C27.221 3.85365 27.2825 3.82115 27.344 3.78865C27.3676 3.77472 27.3866 3.76543 27.4102 3.75151C27.4859 3.70972 27.5663 3.66329 27.642 3.6215C27.7225 3.57507 27.8029 3.53329 27.8833 3.48686C27.8928 3.48221 27.907 3.47757 27.9164 3.46828C27.9968 3.4265 28.0773 3.38007 28.1577 3.33828C28.2428 3.29185 28.328 3.25007 28.4179 3.20364C28.503 3.15721 28.5929 3.11542 28.6781 3.06899C28.7632 3.02721 28.8531 2.98078 28.9383 2.93899C29.1086 2.85542 29.2836 2.77184 29.4539 2.69291C29.5438 2.65112 29.6384 2.60934 29.7283 2.56755C29.8182 2.52577 29.9034 2.48862 29.9932 2.44684C30.0784 2.40969 30.1683 2.37255 30.2534 2.33541C30.2582 2.33541 30.2629 2.33076 30.2676 2.33076C30.3575 2.29362 30.4427 2.25648 30.5326 2.21933C30.613 2.18683 30.6934 2.15433 30.7738 2.11719C30.7975 2.1079 30.8164 2.09861 30.8401 2.08933C30.9063 2.06147 30.9725 2.03361 31.0387 2.0104C31.0671 2.00111 31.0955 1.98718 31.1239 1.9779C31.1949 1.95004 31.2611 1.92218 31.3321 1.89433C31.3415 1.88968 31.351 1.88504 31.3604 1.88504C31.4456 1.85254 31.526 1.82004 31.6112 1.79218C31.6254 1.78754 31.6348 1.7829 31.649 1.77825C31.7294 1.75039 31.8051 1.72254 31.8856 1.69004C31.895 1.68539 31.9045 1.68539 31.9139 1.68075C32.089 1.61575 32.2688 1.55539 32.4438 1.49503C32.5384 1.46253 32.6283 1.43467 32.7229 1.40217C32.7986 1.37896 32.879 1.3511 32.9547 1.32789C32.9689 1.32324 32.9831 1.3186 32.9973 1.31396C34.1421 0.951807 35.3107 0.663944 36.5028 0.445725C37.7659 0.21822 39.0527 0.0742872 40.3584 0.0232148V0H31.4976C14.1025 0 0 15.8928 0 35.5C0 54.745 13.5868 70.4103 30.5373 70.9814C30.859 70.9907 31.1759 71 31.4976 71C33.2007 71 34.8707 70.8468 36.5028 70.5543C38.3857 70.2153 40.2118 69.6907 41.9622 68.9942C42.0473 68.9617 42.1325 68.9246 42.2176 68.8921C42.3028 68.8549 42.3879 68.8225 42.4731 68.7853C42.5582 68.7482 42.6434 68.7157 42.7285 68.6785C42.8137 68.6414 42.8988 68.6042 42.9793 68.5671C43.23 68.4557 43.4807 68.3396 43.7315 68.2235C43.8072 68.1864 43.8829 68.1492 43.9585 68.1121C43.9727 68.1074 43.9822 68.1028 43.9964 68.0935C44.0674 68.061 44.1383 68.0239 44.2093 67.9867C44.2187 67.9821 44.2329 67.9774 44.2424 67.9682C44.4032 67.8892 44.5594 67.8056 44.7202 67.7267C44.8858 67.6432 45.0466 67.5549 45.2075 67.4667C45.2879 67.4249 45.3683 67.3785 45.4487 67.3321C45.5244 67.2903 45.5954 67.2485 45.6711 67.2067C45.6806 67.2021 45.69 67.1974 45.6995 67.1881C45.7752 67.1463 45.8509 67.0999 45.9266 67.0581C45.9975 67.0163 46.0732 66.9746 46.1442 66.9281C46.1631 66.9188 46.1773 66.9096 46.1962 66.9003C46.2672 66.8585 46.3334 66.8167 46.4044 66.7749C46.5605 66.6821 46.7166 66.5845 46.8727 66.4824C46.9579 66.4313 47.0383 66.3756 47.1187 66.3246C47.1897 66.2781 47.2654 66.2317 47.3363 66.1853C47.4073 66.1388 47.4783 66.0924 47.5492 66.046C47.5587 66.0413 47.5681 66.032 47.5823 66.0274C47.729 65.9299 47.8804 65.8278 48.027 65.7256C48.1973 65.6049 48.3677 65.4842 48.538 65.3634C48.5947 65.3217 48.6515 65.2799 48.7083 65.2381C48.765 65.1963 48.8218 65.1545 48.8786 65.1081C48.9022 65.0895 48.9306 65.0709 48.9543 65.0524C49.0205 65.0013 49.0867 64.9549 49.1482 64.9038C49.2145 64.8527 49.2807 64.8017 49.3469 64.7506C49.3611 64.7367 49.38 64.7274 49.3942 64.7134C49.4605 64.6624 49.522 64.6113 49.5882 64.5602C49.6592 64.5045 49.7349 64.4441 49.8058 64.3884C50.0234 64.212 50.241 64.0309 50.4539 63.8499C50.5249 63.7895 50.5911 63.7291 50.6621 63.6734C50.7283 63.6131 50.7945 63.5573 50.8655 63.497C50.8702 63.4923 50.8797 63.4877 50.8844 63.4784C50.9507 63.4181 51.0169 63.3623 51.0831 63.302C51.1541 63.2416 51.2203 63.1766 51.2913 63.1116C51.3622 63.0513 51.4285 62.9863 51.4994 62.9213C51.6319 62.8005 51.7596 62.6752 51.8921 62.5545C51.9016 62.5452 51.911 62.5359 51.9205 62.5266C51.9678 62.4802 52.0198 62.4291 52.0671 62.3827C52.0908 62.3595 52.1144 62.3409 52.1381 62.3177C52.1854 62.2759 52.228 62.2295 52.2753 62.183C52.3037 62.1552 52.3321 62.1273 52.3604 62.0995C52.4078 62.053 52.4551 62.0066 52.4976 61.9602C52.5166 61.9416 52.5308 61.9277 52.5449 61.9091C52.597 61.8534 52.6538 61.8023 52.7058 61.7466C52.7105 61.742 52.72 61.7327 52.7247 61.728C52.7862 61.6677 52.8477 61.6027 52.9045 61.5423C53.0369 61.403 53.1694 61.2637 53.2971 61.1244C53.3397 61.078 53.3776 61.0362 53.4201 60.9898C53.4533 60.9527 53.4864 60.9155 53.5242 60.8784C53.5904 60.8087 53.6519 60.7391 53.7134 60.6694C53.756 60.623 53.7939 60.5766 53.8365 60.5301C53.8601 60.5023 53.8838 60.4744 53.9074 60.4466C53.9453 60.4001 53.9878 60.3584 54.0257 60.3119C54.2811 60.0194 54.5319 59.7176 54.7779 59.4112C54.8299 59.3462 54.8867 59.2812 54.9387 59.2115C54.9529 59.1976 54.9624 59.179 54.9766 59.1651C55.0192 59.1094 55.0617 59.0537 55.1043 59.0026C55.1232 58.9794 55.1469 58.9515 55.1658 58.9237C55.2131 58.8633 55.2604 58.803 55.3077 58.7426C55.3645 58.6683 55.426 58.5894 55.4828 58.5151C55.5963 58.3619 55.7146 58.2087 55.8234 58.0555C55.866 57.9951 55.9085 57.9394 55.9511 57.879C55.97 57.8558 55.989 57.8279 56.0079 57.8001C56.0457 57.7444 56.0883 57.6933 56.1262 57.6376C56.1451 57.6097 56.164 57.5865 56.1829 57.5587C56.2255 57.4983 56.2681 57.4379 56.3059 57.3822C56.3201 57.3637 56.3343 57.3404 56.3485 57.3219C56.3911 57.2569 56.4384 57.1919 56.481 57.1269C56.5283 57.0572 56.5756 56.9876 56.6229 56.9133C56.6607 56.8622 56.6939 56.8065 56.727 56.7554C56.7743 56.6811 56.8263 56.6115 56.8736 56.5372C56.9115 56.4769 56.9493 56.4211 56.9872 56.3608C57.0676 56.2401 57.1433 56.1193 57.219 55.9986C57.2474 55.9522 57.2757 55.9058 57.3088 55.8593C57.3467 55.8036 57.3798 55.7433 57.4177 55.6829C57.4271 55.669 57.4366 55.6504 57.446 55.6365C57.4839 55.5715 57.5265 55.5065 57.5643 55.4415C57.588 55.4043 57.6069 55.3718 57.6305 55.3347C57.6637 55.2836 57.692 55.2279 57.7252 55.1768C57.7772 55.0933 57.8245 55.0097 57.8718 54.9261C57.9239 54.8379 57.9759 54.7497 58.0279 54.6568C58.0469 54.6243 58.0658 54.5918 58.0847 54.5593C58.1226 54.4897 58.1651 54.42 58.203 54.3504C58.2456 54.2761 58.2834 54.2018 58.326 54.1275C58.3638 54.0625 58.3969 53.9975 58.4301 53.9325C58.4726 53.8536 58.5152 53.7747 58.5578 53.6957C58.5909 53.6354 58.624 53.575 58.6524 53.5146C58.7707 53.2964 58.8842 53.0736 58.993 52.8507C59.0167 52.8043 59.0403 52.7578 59.0593 52.7114C59.0876 52.6511 59.1208 52.5861 59.1491 52.5257C59.1964 52.4282 59.2438 52.3307 59.2911 52.2332C59.3005 52.2146 59.31 52.2007 59.3147 52.1821C59.3573 52.0985 59.3951 52.015 59.433 51.9268C59.4377 51.9128 59.4472 51.9035 59.4519 51.8896C59.4897 51.806 59.5276 51.7225 59.5654 51.6389C59.7074 51.3278 59.8446 51.0075 59.9818 50.6917C60.0054 50.6314 60.0338 50.571 60.0574 50.5107C60.0906 50.4364 60.1189 50.3574 60.1521 50.2832C60.1852 50.1996 60.2183 50.116 60.2561 50.0278C60.2609 50.0092 60.2703 49.9953 60.2751 49.9767C60.3035 49.9117 60.3271 49.8467 60.3508 49.7817C60.3697 49.7353 60.3886 49.6842 60.4075 49.6378C60.4406 49.5542 60.469 49.4753 60.5021 49.3917C60.5826 49.1781 60.663 48.9646 60.7387 48.751C60.7623 48.6906 60.7813 48.6303 60.8002 48.5746C60.8333 48.4817 60.8664 48.3888 60.8948 48.296C60.9184 48.231 60.9374 48.1706 60.961 48.1056C60.9752 48.0685 60.9847 48.0313 60.9989 47.9942C61.0225 47.9292 61.0415 47.8595 61.0651 47.7945C61.0793 47.7481 61.0982 47.697 61.1124 47.6506C61.2401 47.256 61.3631 46.8567 61.4767 46.4527C61.5003 46.3784 61.5193 46.3041 61.5382 46.2299C61.576 46.0906 61.6139 45.9513 61.6517 45.812C61.6706 45.747 61.6848 45.6866 61.7038 45.6216C61.7227 45.552 61.7416 45.4777 61.7605 45.4034C61.7842 45.3198 61.8031 45.2363 61.822 45.1573C61.8362 45.097 61.8504 45.0366 61.8646 44.9763C61.9166 44.772 61.964 44.5677 62.0113 44.3634C62.0349 44.2705 62.0538 44.173 62.0728 44.0802C62.0917 44.0012 62.1059 43.9177 62.1248 43.8387C62.1343 43.797 62.1437 43.7552 62.1532 43.7134C62.1674 43.6484 62.1816 43.5787 62.1958 43.5137C62.2147 43.4209 62.2336 43.3327 62.2525 43.2398C62.2715 43.1516 62.2857 43.0634 62.3046 42.9751C62.3519 42.7384 62.3945 42.4969 62.4323 42.2601C62.4418 42.1951 62.456 42.1301 62.4654 42.0605C62.4749 42.0001 62.4843 41.9398 62.4938 41.8794C62.4985 41.8376 62.508 41.8005 62.5127 41.7587C62.5222 41.6937 62.5364 41.6287 62.5458 41.559C62.5506 41.5173 62.56 41.4708 62.5648 41.429C62.579 41.3455 62.5884 41.2665 62.6026 41.183C62.6073 41.1505 62.6121 41.1133 62.6168 41.0808C62.6263 41.0112 62.6357 40.9415 62.6452 40.8719C62.6688 40.714 62.6878 40.5608 62.7067 40.403C62.7256 40.2637 62.7398 40.1197 62.754 39.9804C62.9196 38.5179 63 37.0229 63 35.5093C62.9858 34.0003 62.9007 32.5053 62.7351 31.0428Z" fill="url(#paint1_linear_150_11)"></path><defs><linearGradient id="paint0_linear_150_11" x1="72.4437" y1="1.1885" x2="4.47281" y2="79.3339" gradientUnits="userSpaceOnUse"><stop stop-color="#00FFF0"></stop><stop offset="0.6687" stop-color="#AF2BFF"></stop><stop offset="1" stop-color="#0012B8"></stop></linearGradient><linearGradient id="paint1_linear_150_11" x1="29.7748" y1="37.8416" x2="-11.6046" y2="96.294" gradientUnits="userSpaceOnUse"><stop stop-color="#00FFF0"></stop><stop offset="0.6687" stop-color="#AF2BFF"></stop><stop offset="1" stop-color="#0012B8"></stop></linearGradient></defs></svg> 