<?xml version="1.0" encoding="UTF-8"?> <svg xmlns="http://www.w3.org/2000/svg" width="64" height="64" viewBox="0 0 64 64" fill="none"><g style="mix-blend-mode:darken"><path d="M55 0H9C4.02944 0 0 4.02944 0 9V55C0 59.9706 4.02944 64 9 64H55C59.9706 64 64 59.9706 64 55V9C64 4.02944 59.9706 0 55 0Z" fill="#1D52F5"></path></g><path fill-rule="evenodd" clip-rule="evenodd" d="M32 9.5C44.4264 9.5 54.5 19.5736 54.5 32C54.5 44.4264 44.4264 54.5 32 54.5C19.5736 54.5 9.5 44.4264 9.5 32C9.5 19.5736 19.5736 9.5 32 9.5ZM38 24.75H26C25.3096 24.75 24.75 25.3096 24.75 26V38C24.75 38.6904 25.3096 39.25 26 39.25H38C38.6904 39.25 39.25 38.6904 39.25 38V26C39.25 25.3096 38.6904 24.75 38 24.75Z" fill="white"></path></svg> 