<?xml version="1.0" encoding="UTF-8"?> <svg xmlns="http://www.w3.org/2000/svg" width="57" height="64" viewBox="0 0 57 64" fill="none"><path d="M8.77361 13.4933L13.4933 10.7826L14.1289 11.8741L31.5262 1.84108L30.2549 1.10945L28.9775 0.365817L28.3418 0L0 16.3718V17.1035L8.13793 12.3958L8.77361 13.4933Z" fill="#001C3A"></path><path d="M8.77361 23.8021L22.4108 15.922L23.0465 17.0315L40.4438 6.99249L39.1724 6.24886L37.8951 5.51723L37.2594 5.15741L0 26.6687V27.4003L8.13793 22.6926L8.77361 23.8021Z" fill="#001C3A"></path><path d="M8.77361 28.9535L26.8666 18.5068L27.5082 19.6042L44.8996 9.55324L43.6282 8.8336L42.3568 8.08997L41.7151 7.72415L0 31.8081V32.5517L8.13793 27.8501L8.77361 28.9535Z" fill="#001C3A"></path><path d="M8.77361 34.0989L31.4543 21.0075L32.096 22.1049L49.3613 12.1379L48.09 11.3943L46.8126 10.6627L46.1769 10.2968L0 36.9655V37.6971L8.13793 32.9895L8.77361 34.0989Z" fill="#001C3A"></path><path d="M8.77361 39.2384L35.916 23.5742L36.5517 24.6837L53.8171 14.7047L52.5457 13.979L51.2744 13.2354L50.6327 12.8696L0 42.105V42.8366L8.13793 38.1409L8.77361 39.2384Z" fill="#001C3A"></path><path d="M55.7301 15.8141L55.0945 15.4423L0 47.2624V47.994L8.13793 43.2984L8.77361 44.3958L35.916 28.7316L36.5517 29.8291L56.6837 18.2129V16.7376V16.3718L55.7301 15.8141Z" fill="#001C3A"></path><path d="M3.4899 51.1184L8.05362 48.4858L8.6893 49.5832L35.7838 33.943L36.4194 35.0525L56.6833 23.3523V21.8771V20.4018V19.6702L2.86621 50.7526L3.4899 51.1184Z" fill="#001C3A"></path><path d="M35.784 39.1004L36.4197 40.2099L56.6836 28.5097V27.0345V25.5592V24.8276L7.32227 53.3253L7.96394 53.6911L12.5936 51.0105L13.2353 52.1199" fill="#001C3A"></path><path d="M12.4201 56.2699L17.0558 53.5832L17.6915 54.6927L35.7845 44.2399L36.4201 45.3493L56.684 33.6492V32.1739V30.7107V29.973L11.7725 55.8921L12.4201 56.2699Z" fill="#001C3A"></path><path d="M16.8759 58.8426L21.5116 56.1679L22.1533 57.2654L35.7845 49.3973L36.4201 50.4948L56.684 38.7946V37.3313V35.8561V35.1245L16.2402 58.4768L16.8759 58.8426Z" fill="#001C3A"></path><path d="M20.7012 61.0495L21.3369 61.4153L25.9845 58.7346L26.6082 59.8441L35.7836 54.5367L36.4193 55.6462L56.6832 43.946V42.4708V40.9955V40.2639L20.7012 61.0495Z" fill="#001C3A"></path><path d="M25.7929 64L30.4286 61.3074L31.0643 62.4168L35.7839 59.6822L36.4196 60.7916L56.6835 49.1035V47.6282V46.1529V45.4213L25.1572 63.6342L25.7929 64Z" fill="#001C3A"></path><path d="M35.988 4.4138L34.7106 3.68217L33.4393 2.95053L32.8036 2.57272L0 21.5113V22.2429L8.13793 17.5532L8.77361 18.6447L17.949 13.3493L18.6027 14.4588L35.988 4.4138Z" fill="#001C3A"></path></svg> 