<?xml version="1.0" encoding="UTF-8"?> <svg xmlns="http://www.w3.org/2000/svg" width="56" height="64" viewBox="0 0 56 64" fill="none"><path opacity="0.8" fill-rule="evenodd" clip-rule="evenodd" d="M56 44.8C56 55.4039 47.3212 64 36.6154 64H0V51.2H36.6154C40.184 51.2 43.0769 48.3346 43.0769 44.8C43.0769 41.2654 40.184 38.4 36.6154 38.4H23.6923V25.6H36.6154C40.184 25.6 43.0769 22.7346 43.0769 19.2C43.0769 15.6654 40.184 12.8 36.6154 12.8H0V0H36.6154C47.3212 0 56 8.59613 56 19.2C56 24.1175 54.1336 28.6032 51.0641 32C54.1336 35.3968 56 39.8825 56 44.8Z" fill="#FE815F"></path><path opacity="0.12" d="M0 51.2H31.4488C24.7687 58.9725 14.1331 64 2.15385 64C1.43081 64 0.712671 63.9817 0 63.9456V51.2ZM38.0368 38.4H25.8461V25.6H38.0368C38.5171 27.6679 38.7692 29.8082 38.7692 32C38.7692 34.1918 38.5171 36.3321 38.0368 38.4ZM31.4488 12.8H0V0.0544444C0.712671 0.0183154 1.43081 0 2.15385 0C14.1331 0 24.7687 5.02754 31.4488 12.8Z" fill="black"></path><path d="M0 0C17.843 0 32.3077 14.3269 32.3077 32C32.3077 49.6731 17.843 64 0 64V51.2C10.7058 51.2 19.3846 42.6039 19.3846 32C19.3846 21.3961 10.7058 12.8 0 12.8V0Z" fill="#FF6238"></path></svg> 