<?xml version="1.0" encoding="UTF-8"?> <svg xmlns="http://www.w3.org/2000/svg" width="64" height="64" viewBox="0 0 64 64" fill="none"><path d="M32 0C14.308 0 0 14.3448 0 32C0 49.6552 14.308 64 32 64C49.692 64 64 49.692 64 32C64 14.3448 49.6552 0 32 0ZM34.5747 33.508L45.7931 44.7264C46.7126 45.646 46.6023 47.154 45.5724 47.9264C42.1149 50.6483 37.7747 52.2667 33.0667 52.2667C21.1126 52.2667 11.5494 41.8943 12.9471 29.6828C13.977 20.3034 21.5908 12.7632 31.0069 11.8437C36.5609 11.292 41.7103 12.9839 45.6828 16.1103C46.6759 16.8828 46.7126 18.354 45.8299 19.2368L34.5747 30.492C33.7287 31.3379 33.7287 32.6621 34.5747 33.508Z" fill="#69E2DC"></path></svg> 