<?xml version="1.0" encoding="UTF-8"?> <svg xmlns="http://www.w3.org/2000/svg" width="64" height="40" viewBox="0 0 64 40" fill="none"><path fill-rule="evenodd" clip-rule="evenodd" d="M30.8897 0.304941L0.84786 18.5749C0.831316 18.585 0.814963 18.5953 0.798795 18.6057L0.774734 18.6217L0.750855 18.6378L0.727545 18.6542L0.704419 18.671L0.681487 18.6881L0.659112 18.7054L0.636932 18.723L0.615125 18.7409L0.593691 18.759L0.572635 18.7775L0.551769 18.7963L0.531276 18.815L0.511161 18.8343L0.491419 18.8537L0.472056 18.8733L0.453072 18.8933L0.434271 18.9133L0.416033 18.9338L0.397989 18.9544L0.380502 18.9753L0.363205 18.9962L0.346286 19.0175L0.329935 19.0391L0.313761 19.0607L0.297973 19.0826L0.282557 19.1047L0.26752 19.1269L0.253039 19.1495L0.238753 19.1721L0.224841 19.195L0.211496 19.2181L0.198335 19.2412L0.185736 19.2646L0.173332 19.2882L0.161485 19.312L0.150022 19.3357L0.138926 19.3598L0.128398 19.384L0.11806 19.4083L0.108284 19.4329L0.098697 19.4575L0.0896724 19.4822L0.08121 19.5071L0.0729427 19.5322L0.0652319 19.5573L0.0578998 19.5825L0.0509463 19.6079L0.0443657 19.6333L0.0383474 19.6591L0.0327078 19.6847L0.0276361 19.7106L0.022748 19.7365L0.0186115 19.7624L0.0146643 19.7885L0.0112793 19.8147L0.0082673 19.841L0.00582325 19.8674L0.00375786 19.8938L0.00206539 19.9202L0.0009409 19.9468L0.00018359 19.9733L0 20.0001L0.00018359 20.0266L0.0009409 20.0532L0.00206539 20.0798L0.00375786 20.1064L0.00582325 20.1328L0.0082673 20.159L0.0112793 20.1853L0.0146643 20.2115L0.0186115 20.2376L0.022748 20.2635L0.0276361 20.2894L0.0327078 20.3153L0.0383474 20.3411L0.0443657 20.3666L0.0509463 20.392L0.0578998 20.4175L0.0652319 20.4427L0.0729427 20.468L0.08121 20.4929L0.0896724 20.5178L0.098697 20.5425L0.108284 20.5671L0.11806 20.5917L0.128398 20.6159L0.138926 20.6402L0.150022 20.6643L0.161485 20.6882L0.173332 20.7118L0.185736 20.7354L0.198335 20.7588L0.211496 20.782L0.224841 20.8049L0.238753 20.8279L0.253039 20.8505L0.26752 20.873L0.282557 20.8953L0.297973 20.9174L0.313761 20.9393L0.329935 20.9609L0.346286 20.9825L0.363205 21.0038L0.380502 21.0249L0.397989 21.0456L0.416033 21.0662L0.434271 21.0866L0.453072 21.1067L0.472056 21.1267L0.491419 21.1463L0.511161 21.1657L0.531276 21.185L0.551769 21.2039L0.572635 21.2225L0.593691 21.2409L0.615125 21.259L0.636932 21.277L0.659112 21.2946L0.681487 21.3119L0.704419 21.329L0.727545 21.3457L0.750855 21.3622L0.774734 21.3783L0.798795 21.3942L0.823236 21.4098L0.84786 21.4251L30.8897 39.695C31.5584 40.1016 32.4418 40.1016 33.1105 39.695L63.1521 21.4251L63.1768 21.4098L63.2012 21.3942L63.2255 21.3783L63.2491 21.3622L63.2726 21.3457L63.2958 21.329L63.3185 21.3119L63.3409 21.2946L63.3631 21.277L63.3849 21.259L63.4063 21.2409L63.4275 21.2225L63.4482 21.2039L63.4687 21.185L63.4888 21.1657L63.5086 21.1463L63.5279 21.1267L63.5469 21.1067L63.5657 21.0866L63.584 21.0662L63.602 21.0456L63.6195 21.0249L63.6368 21.0038L63.6537 20.9825L63.6702 20.9609L63.6864 20.9393L63.702 20.9174L63.7174 20.8953L63.7325 20.873L63.7471 20.8505L63.7612 20.8279L63.7751 20.8049L63.7887 20.782L63.8017 20.7588L63.8144 20.7354L63.8267 20.7118L63.8385 20.6882L63.85 20.6643L63.8611 20.6402L63.8718 20.6159L63.8819 20.5917L63.8919 20.5671L63.9013 20.5425L63.9103 20.5178L63.919 20.4929L63.9271 20.468L63.9349 20.4427L63.9423 20.4175L63.9491 20.392L63.9556 20.3666L63.9616 20.3411L63.9673 20.3153L63.9725 20.2894L63.9772 20.2635L63.9816 20.2376L63.9853 20.2115L63.9887 20.1853L63.9917 20.159L63.9944 20.1328L63.9964 20.1064L63.9979 20.0798L63.9991 20.0532L63.9998 20.0266L64 20.0001L63.9998 19.9733L63.9991 19.9468L63.9979 19.9202L63.9964 19.8938L63.9944 19.8674L63.9917 19.841L63.9887 19.8147L63.987 19.8018C63.9836 19.7742 63.9791 19.7468 63.9741 19.7195L63.9725 19.7106L63.9673 19.6847L63.9616 19.6591L63.9556 19.6333L63.9491 19.6079L63.9423 19.5825L63.9349 19.5573L63.9271 19.5322L63.919 19.5071L63.9103 19.4822L63.9013 19.4575L63.8919 19.4329L63.8819 19.4083L63.8718 19.384L63.8611 19.3598L63.85 19.3357L63.8385 19.312L63.8267 19.2882L63.8144 19.2646L63.8017 19.2412L63.7887 19.2181L63.7751 19.195L63.7612 19.1721L63.7471 19.1495L63.7325 19.1269L63.7174 19.1047L63.702 19.0826L63.6864 19.0607L63.6702 19.0391L63.6537 19.0175L63.6368 18.9962L63.6195 18.9753L63.602 18.9544L63.584 18.9338L63.5657 18.9133L63.5469 18.8933L63.5279 18.8733L63.5086 18.8537L63.4888 18.8343L63.4687 18.815L63.4482 18.7963L63.4275 18.7775L63.4063 18.759L63.3849 18.7409L63.3631 18.723L63.3409 18.7054L63.3185 18.6881L63.2958 18.671L63.2726 18.6542L63.2491 18.6378L63.2255 18.6217L63.2012 18.6057L63.1768 18.5901L63.1521 18.5749L33.1105 0.304941C32.4418 -0.101647 31.5584 -0.101647 30.8897 0.304941ZM43.5672 29.135L32 22.1005L20.433 29.135L32 36.1696L43.5672 29.135ZM47.0209 12.9655L58.588 20.0001L47.0209 27.0347L35.4537 20.0001L47.0209 12.9655ZM16.9791 12.9655L15.4973 13.8667L5.41203 20.0001L16.9791 27.0347L28.5463 20.0001L16.9791 12.9655Z" fill="#1969FF"></path></svg> 