<?xml version="1.0" encoding="UTF-8"?> <svg xmlns="http://www.w3.org/2000/svg" width="64" height="64" viewBox="0 0 64 64" fill="none"><path d="M21.5388 20.0988C20.3716 20.0988 19.2305 20.4449 18.2599 21.0932C17.2894 21.7416 16.5329 22.6631 16.0862 23.7413C15.6395 24.8195 15.5226 26.0059 15.7504 27.1506C15.9781 28.2952 16.5402 29.3465 17.3656 30.1718C18.191 30.997 19.2426 31.559 20.3874 31.7866C21.5323 32.0143 22.719 31.8975 23.7974 31.4509C24.8758 31.0043 25.7976 30.248 26.4461 29.2776C27.0946 28.3073 27.4407 27.1664 27.4407 25.9994C27.4383 24.4352 26.8157 22.9358 25.7094 21.8297C24.6031 20.7236 23.1034 20.1012 21.5388 20.0988ZM21.5388 28.3105C21.0519 28.3115 20.5804 28.1402 20.2078 27.8269C19.8351 27.5136 19.5854 27.0785 19.5029 26.5988C19.4204 26.119 19.5105 25.6256 19.7571 25.2058C20.0037 24.7861 20.3909 24.4672 20.8502 24.3056V22.8126H22.2284V24.3056C22.6852 24.469 23.0696 24.7883 23.3142 25.2072C23.5587 25.6261 23.6476 26.1179 23.5652 26.5959C23.4828 27.0739 23.2345 27.5075 22.8638 27.8205C22.4932 28.1335 22.024 28.3057 21.5388 28.3069V28.3105ZM42.4603 32.1155C41.295 32.117 40.1563 32.4637 39.1881 33.1118C38.2198 33.76 37.4654 34.6805 37.0202 35.7571C36.575 36.8337 36.4589 38.0181 36.6867 39.1607C36.9144 40.3032 37.4758 41.3526 38.2998 42.1763C39.1238 43.0001 40.1735 43.5611 41.3164 43.7886C42.4592 44.0162 43.6438 43.8999 44.7206 43.4547C45.7974 43.0094 46.718 42.255 47.3661 41.2869C48.0143 40.3187 48.3609 39.1802 48.3621 38.0152C48.3623 37.2403 48.2097 36.473 47.9131 35.7571C47.6165 35.0412 47.1818 34.3908 46.6337 33.8429C46.0857 33.295 45.435 32.8605 44.7189 32.5641C44.0028 32.2677 43.2353 32.1153 42.4603 32.1155ZM43.1498 40.0113V41.5043H41.7716V40.0113C41.366 39.8714 41.0146 39.6075 40.7671 39.257C40.5196 38.9065 40.3886 38.4871 40.3925 38.0581C40.3933 37.6793 40.4981 37.308 40.6956 36.9847C40.8931 36.6614 41.1757 36.3986 41.5124 36.225C41.8492 36.0514 42.2272 35.9736 42.6051 36.0001C42.9831 36.0266 43.3465 36.1565 43.6557 36.3755C43.9648 36.5945 44.2078 36.8942 44.3582 37.2419C44.5086 37.5896 44.5605 37.9719 44.5083 38.3471C44.4561 38.7223 44.3018 39.076 44.0622 39.3695C43.8226 39.6629 43.507 39.885 43.1498 40.0113ZM42.4603 32.1155C41.295 32.117 40.1563 32.4637 39.1881 33.1118C38.2198 33.76 37.4654 34.6805 37.0202 35.7571C36.575 36.8337 36.4589 38.0181 36.6867 39.1607C36.9144 40.3032 37.4758 41.3526 38.2998 42.1763C39.1238 43.0001 40.1735 43.5611 41.3164 43.7886C42.4592 44.0162 43.6438 43.8999 44.7206 43.4547C45.7974 43.0094 46.718 42.255 47.3661 41.2869C48.0143 40.3187 48.3609 39.1802 48.3621 38.0152C48.3623 37.2403 48.2097 36.473 47.9131 35.7571C47.6165 35.0412 47.1818 34.3908 46.6337 33.8429C46.0857 33.295 45.435 32.8605 44.7189 32.5641C44.0028 32.2677 43.2353 32.1153 42.4603 32.1155ZM43.1498 40.0113V41.5043H41.7716V40.0113C41.366 39.8714 41.0146 39.6075 40.7671 39.257C40.5196 38.9065 40.3886 38.4871 40.3925 38.0581C40.3933 37.6793 40.4981 37.308 40.6956 36.9847C40.8931 36.6614 41.1757 36.3986 41.5124 36.225C41.8492 36.0514 42.2272 35.9736 42.6051 36.0001C42.9831 36.0266 43.3465 36.1565 43.6557 36.3755C43.9648 36.5945 44.2078 36.8942 44.3582 37.2419C44.5086 37.5896 44.5605 37.9719 44.5083 38.3471C44.4561 38.7223 44.3018 39.076 44.0622 39.3695C43.8226 39.6629 43.507 39.885 43.1498 40.0113ZM52.3396 0H11.6594C8.5656 0.00314659 5.59959 1.2343 3.41328 3.42288C1.22697 5.61146 -0.000727589 8.57838 3.23503e-07 11.6716V52.3294C-0.000727389 55.4225 1.227 58.3893 3.41334 60.5777C5.59967 62.7661 8.56569 63.9971 11.6594 64H52.3396C55.4336 63.9973 58.3998 62.7665 60.5863 60.578C62.7729 58.3896 64.0007 55.4226 64 52.3294V11.6716C64.0007 8.57822 62.7729 5.61117 60.5864 3.42256C58.3999 1.23395 55.4336 0.00290469 52.3396 0V0ZM42.4603 15.9934C44.7291 15.9965 46.904 16.8989 48.5084 18.5028C50.1128 20.1066 51.0156 22.2811 51.019 24.5494C51.0211 25.9799 50.6603 27.3877 49.9705 28.6411C48.9017 27.772 47.6862 27.1009 46.3811 26.6596C46.7276 26.01 46.9097 25.2855 46.9118 24.5494C46.9202 23.9596 46.8113 23.374 46.5914 22.8267C46.3716 22.2794 46.045 21.7812 45.6309 21.3612C45.2167 20.9412 44.7232 20.6076 44.179 20.3799C43.6347 20.1523 43.0507 20.035 42.4607 20.035C41.8708 20.035 41.2867 20.1523 40.7425 20.3799C40.1982 20.6076 39.7047 20.9412 39.2906 21.3612C38.8764 21.7812 38.5499 22.2794 38.33 22.8267C38.1101 23.374 38.0012 23.9596 38.0096 24.5494C38.0045 25.2878 38.1878 26.0153 38.5421 26.6632C37.2371 27.1046 36.0215 27.7756 34.9528 28.6447C34.2629 27.3914 33.9022 25.9836 33.9043 24.553C33.904 22.2837 34.8052 20.1072 36.4097 18.5021C38.0141 16.897 40.1905 15.9946 42.4603 15.9934ZM21.5388 48.0075C19.27 48.0042 17.0952 47.1015 15.491 45.4975C13.8868 43.8935 12.9842 41.7189 12.981 39.4506H17.091C17.091 40.0351 17.2061 40.6138 17.4298 41.1538C17.6535 41.6938 17.9814 42.1844 18.3948 42.5977C18.8081 43.0109 19.2989 43.3388 19.839 43.5624C20.379 43.7861 20.9579 43.9012 21.5425 43.9012C22.1271 43.9012 22.7059 43.7861 23.246 43.5624C23.7861 43.3388 24.2768 43.0109 24.6902 42.5977C25.1035 42.1844 25.4314 41.6938 25.6552 41.1538C25.8789 40.6138 25.994 40.0351 25.994 39.4506H30.1039C30.1036 40.5748 29.8818 41.6879 29.4511 42.7263C29.0205 43.7647 28.3895 44.7081 27.5941 45.5027C26.7987 46.2973 25.8546 46.9275 24.8157 47.3573C23.7767 47.7871 22.6632 48.008 21.5388 48.0075ZM21.5388 35.9917C19.5607 35.9903 17.6274 35.4024 15.9834 34.3024C14.3394 33.2025 13.0586 31.6398 12.3029 29.812C11.5472 27.9843 11.3506 25.9736 11.738 24.0341C12.1253 22.0946 13.0792 20.3136 14.479 18.9161C15.8788 17.5187 17.6616 16.5676 19.6021 16.1832C21.5425 15.7988 23.5534 15.9983 25.3804 16.7564C27.2074 17.5146 28.7686 18.7974 29.8664 20.4427C30.9642 22.0879 31.5494 24.0217 31.5479 25.9994C31.5469 27.3126 31.2873 28.6127 30.7838 29.8255C30.2803 31.0384 29.5427 32.1402 28.6133 33.0681C27.6839 33.9959 26.5807 34.7317 25.3669 35.2333C24.1531 35.735 22.8523 35.9927 21.5388 35.9917ZM42.4603 48.0075C40.4815 48.009 38.5467 47.4236 36.9008 46.3253C35.2549 45.2271 33.9718 43.6655 33.2139 41.838C32.456 40.0105 32.2573 37.9993 32.643 36.0589C33.0287 34.1185 33.9814 32.336 35.3806 30.9371C36.7798 29.5382 38.5627 28.5857 40.5035 28.2001C42.4443 27.8145 44.456 28.0131 46.2838 28.7709C48.1117 29.5286 49.6737 30.8114 50.7722 32.457C51.8706 34.1025 52.4562 36.0368 52.4547 38.0152C52.4496 40.6638 51.395 43.2024 49.5218 45.0753C47.6486 46.9481 45.1094 48.0025 42.4603 48.0075ZM42.4603 32.1192C41.295 32.1206 40.1563 32.4673 39.1881 33.1155C38.2198 33.7636 37.4654 34.6842 37.0202 35.7608C36.575 36.8374 36.4589 38.0218 36.6867 39.1643C36.9144 40.3069 37.4758 41.3563 38.2998 42.18C39.1238 43.0037 40.1735 43.5648 41.3164 43.7923C42.4592 44.0198 43.6438 43.9036 44.7206 43.4583C45.7974 43.013 46.718 42.2587 47.3661 41.2905C48.0143 40.3224 48.3609 39.1839 48.3621 38.0189C48.3627 37.2437 48.2105 36.476 47.9142 35.7597C47.6178 35.0434 47.1831 34.3925 46.635 33.8442C46.0869 33.2959 45.4361 32.8611 44.7197 32.5644C44.0034 32.2678 43.2356 32.1153 42.4603 32.1155V32.1192ZM43.1498 40.015V41.5079H41.7716V40.0113C41.366 39.8714 41.0146 39.6075 40.7671 39.257C40.5196 38.9065 40.3886 38.4871 40.3925 38.0581C40.3933 37.6793 40.4981 37.308 40.6956 36.9847C40.8931 36.6614 41.1757 36.3986 41.5124 36.225C41.8492 36.0514 42.2272 35.9736 42.6051 36.0001C42.9831 36.0266 43.3465 36.1565 43.6557 36.3755C43.9648 36.5945 44.2078 36.8942 44.3582 37.2419C44.5086 37.5896 44.5605 37.9719 44.5083 38.3471C44.4561 38.7223 44.3018 39.076 44.0622 39.3695C43.8226 39.6629 43.507 39.885 43.1498 40.0113V40.015ZM42.4603 32.1192C41.295 32.1206 40.1563 32.4673 39.1881 33.1155C38.2198 33.7636 37.4654 34.6842 37.0202 35.7608C36.575 36.8374 36.4589 38.0218 36.6867 39.1643C36.9144 40.3069 37.4758 41.3563 38.2998 42.18C39.1238 43.0037 40.1735 43.5648 41.3164 43.7923C42.4592 44.0198 43.6438 43.9036 44.7206 43.4583C45.7974 43.013 46.718 42.2587 47.3661 41.2905C48.0143 40.3224 48.3609 39.1839 48.3621 38.0189C48.3627 37.2437 48.2105 36.476 47.9142 35.7597C47.6178 35.0434 47.1831 34.3925 46.635 33.8442C46.0869 33.2959 45.4361 32.8611 44.7197 32.5644C44.0034 32.2678 43.2356 32.1153 42.4603 32.1155V32.1192ZM43.1498 40.015V41.5079H41.7716V40.0113C41.366 39.8714 41.0146 39.6075 40.7671 39.257C40.5196 38.9065 40.3886 38.4871 40.3925 38.0581C40.3933 37.6793 40.4981 37.308 40.6956 36.9847C40.8931 36.6614 41.1757 36.3986 41.5124 36.225C41.8492 36.0514 42.2272 35.9736 42.6051 36.0001C42.9831 36.0266 43.3465 36.1565 43.6557 36.3755C43.9648 36.5945 44.2078 36.8942 44.3582 37.2419C44.5086 37.5896 44.5605 37.9719 44.5083 38.3471C44.4561 38.7223 44.3018 39.076 44.0622 39.3695C43.8226 39.6629 43.507 39.885 43.1498 40.0113V40.015ZM42.4603 32.1192C41.295 32.1206 40.1563 32.4673 39.1881 33.1155C38.2198 33.7636 37.4654 34.6842 37.0202 35.7608C36.575 36.8374 36.4589 38.0218 36.6867 39.1643C36.9144 40.3069 37.4758 41.3563 38.2998 42.18C39.1238 43.0037 40.1735 43.5648 41.3164 43.7923C42.4592 44.0198 43.6438 43.9036 44.7206 43.4583C45.7974 43.013 46.718 42.2587 47.3661 41.2905C48.0143 40.3224 48.3609 39.1839 48.3621 38.0189C48.3627 37.2437 48.2105 36.476 47.9142 35.7597C47.6178 35.0434 47.1831 34.3925 46.635 33.8442C46.0869 33.2959 45.4361 32.8611 44.7197 32.5644C44.0034 32.2678 43.2356 32.1153 42.4603 32.1155V32.1192ZM43.1498 40.015V41.5079H41.7716V40.0113C41.366 39.8714 41.0146 39.6075 40.7671 39.257C40.5196 38.9065 40.3886 38.4871 40.3925 38.0581C40.3933 37.6793 40.4981 37.308 40.6956 36.9847C40.8931 36.6614 41.1757 36.3986 41.5124 36.225C41.8492 36.0514 42.2272 35.9736 42.6051 36.0001C42.9831 36.0266 43.3465 36.1565 43.6557 36.3755C43.9648 36.5945 44.2078 36.8942 44.3582 37.2419C44.5086 37.5896 44.5605 37.9719 44.5083 38.3471C44.4561 38.7223 44.3018 39.076 44.0622 39.3695C43.8226 39.6629 43.507 39.885 43.1498 40.0113V40.015Z" fill="url(#paint0_linear)"></path><defs><linearGradient id="paint0_linear" x1="65.0759" y1="9.69556" x2="-1.06704" y2="54.3185" gradientUnits="userSpaceOnUse"><stop stop-color="#F1D961"></stop><stop offset="1" stop-color="#CDA146"></stop></linearGradient></defs></svg> 