<?xml version="1.0" encoding="UTF-8"?> <!-- Generator: Adobe Illustrator 26.0.2, SVG Export Plug-In . SVG Version: 6.00 Build 0) --> <svg xmlns="http://www.w3.org/2000/svg" xmlns:xlink="http://www.w3.org/1999/xlink" version="1.1" id="Layer_1" x="0px" y="0px" viewBox="0 0 720 720" style="enable-background:new 0 0 720 720;" xml:space="preserve"> <style type="text/css"> .st0{fill:#F0F0F0;} .st1{fill:#91C6F2;} .st2{fill:#061897;} .st3{fill:#2D67F6;} </style> <path class="st0" d="M360,716.8L360,716.8C162.9,716.8,3.2,557.1,3.2,360v0C3.2,162.9,162.9,3.2,360,3.2h0 c197.1,0,356.8,159.8,356.8,356.8v0C716.8,557.1,557.1,716.8,360,716.8z"></path> <g> <g> <polyline class="st1" points="423.6,565.1 423.6,484.7 235.3,484.7 235.3,296.4 154.9,296.4 154.9,565.1 "></polyline> </g> <polygon class="st2" points="282.3,249.5 188,249.5 188,532.2 470.6,532.2 470.6,437.9 282.3,437.9 "></polygon> <rect x="470.8" y="343.6" transform="matrix(6.123234e-17 -1 1 6.123234e-17 127.2006 908.6179)" class="st1" width="94.3" height="94.3"></rect> <rect x="470.8" y="249.2" transform="matrix(6.123234e-17 -1 1 6.123234e-17 221.5095 814.309)" class="st3" width="94.3" height="94.3"></rect> <rect x="470.8" y="154.9" transform="matrix(6.123234e-17 -1 1 6.123234e-17 315.8185 720)" class="st2" width="94.3" height="94.3"></rect> <rect x="376.4" y="154.9" transform="matrix(6.123234e-17 -1 1 6.123234e-17 221.5095 625.691)" class="st3" width="94.3" height="94.3"></rect> <rect x="282.3" y="154.9" transform="matrix(6.123234e-17 -1 1 6.123234e-17 127.34 531.5215)" class="st1" width="94.3" height="94.3"></rect> </g> </svg> 